<?xml version="1.0" encoding="UTF-8" standalone="no"?>
<svg width="181px" height="210px" viewBox="0 0 181 210" version="1.1" xmlns="http://www.w3.org/2000/svg" xmlns:xlink="http://www.w3.org/1999/xlink">
    <!-- Generator: Sketch 44.1 (41455) - http://www.bohemiancoding.com/sketch -->
    <title>Group 23</title>
    <desc>Created with Sketch.</desc>
    <defs></defs>
    <g id="Page-1" stroke="none" stroke-width="1" fill="none" fill-rule="evenodd">
        <g id="Artboard-Copy-18" transform="translate(-1259.000000, -1252.000000)">
            <g id="Group-23" transform="translate(1259.133905, 1252.053207)">
                <rect id="Rectangle-18-Copy-8" fill="#CCCCCC" x="0.347517354" y="0" width="180" height="89.7379413"></rect>
                <rect id="Rectangle-18-Copy-9" fill="#FFFFFF" x="0.347517354" y="89.7379413" width="180" height="120"></rect>
                <path d="M16.3615233,128.653019 C15.5060503,128.613956 14.6818398,128.422552 13.888867,128.0788 L13.888867,126.133488 C14.3419943,126.363958 14.8341769,126.556339 15.3654295,126.710636 C15.8966822,126.864934 16.3634744,126.942082 16.7658202,126.942082 C17.0978531,126.942082 17.3410147,126.902043 17.4953124,126.821964 C17.64961,126.741886 17.7267577,126.608098 17.7267577,126.420597 C17.7267577,126.29169 17.6710942,126.182317 17.5597655,126.092472 C17.4484368,126.002628 17.2628918,125.901067 17.0031249,125.787785 C16.7433579,125.674503 16.3927755,125.537786 15.951367,125.377629 C15.4552708,125.194034 15.0548842,124.987981 14.7501952,124.759464 C14.4455061,124.530948 14.2238287,124.275091 14.0851561,123.991886 C13.9464835,123.708682 13.8771483,123.356146 13.8771483,122.934269 C13.8771483,122.289735 14.0841775,121.785833 14.498242,121.42255 C14.9123066,121.059267 15.5333942,120.83466 16.3615233,120.748722 L16.3615233,119.945988 L17.5744139,119.945988 L17.5744139,120.737004 C18.3517616,120.779973 19.1349569,120.971377 19.9240233,121.311222 L19.2267577,122.981144 C18.4103473,122.613955 17.6740266,122.430363 17.0177733,122.430363 C16.7052717,122.430363 16.4855474,122.468448 16.3585936,122.544621 C16.2316398,122.620793 16.1681639,122.733097 16.1681639,122.881535 C16.1681639,123.010442 16.2140619,123.116886 16.3058592,123.200871 C16.3976566,123.284856 16.5568347,123.378605 16.7833983,123.482121 C17.0099619,123.585637 17.3244119,123.705753 17.7267577,123.842472 C18.543168,124.131536 19.1290996,124.460635 19.4845702,124.829777 C19.8400407,125.198919 20.0177733,125.674501 20.0177733,126.256535 C20.0177733,126.912788 19.8097676,127.445986 19.3937499,127.856144 C18.9777322,128.266302 18.3712929,128.520206 17.5744139,128.617863 L17.5744139,129.748722 L16.3615233,129.748722 L16.3615233,128.653019 Z M24.2541014,129.168644 C23.1681585,129.168644 22.3449245,128.875678 21.7843749,128.289738 C21.2238252,127.703798 20.9435545,126.862009 20.9435545,125.764347 C20.9435545,124.662779 21.2462859,123.809272 21.8517577,123.2038 C22.4572294,122.598329 23.318549,122.295597 24.435742,122.295597 C25.2052771,122.295597 25.9298793,122.463564 26.6095702,122.799504 L25.935742,124.492863 C25.6583969,124.371769 25.4025401,124.27509 25.1681639,124.202824 C24.9337877,124.130558 24.6896496,124.094425 24.435742,124.094425 C24.0646464,124.094425 23.7775399,124.238955 23.5744139,124.528019 C23.3712879,124.817083 23.2697264,125.225282 23.2697264,125.752629 C23.2697264,126.815134 23.6623006,127.346379 24.4474608,127.346379 C25.1193392,127.346379 25.763864,127.151068 26.3810545,126.760441 L26.3810545,128.582707 C25.7912078,128.973334 25.0822306,129.168644 24.2541014,129.168644 Z M34.0392577,125.717472 C34.0392577,126.803415 33.7472684,127.650086 33.1632811,128.257511 C32.5792938,128.864936 31.7619192,129.168644 30.7111327,129.168644 C29.7033151,129.168644 28.9015653,128.8581 28.3058592,128.237004 C27.7101531,127.615907 27.4123045,126.776071 27.4123045,125.717472 C27.4123045,124.635436 27.7042938,123.794624 28.2882811,123.195011 C28.8722684,122.595399 29.6915961,122.295597 30.7462889,122.295597 C31.3986359,122.295597 31.974802,122.434268 32.4748045,122.711613 C32.974807,122.988958 33.3605454,123.386415 33.6320311,123.903996 C33.9035168,124.421576 34.0392577,125.026063 34.0392577,125.717472 Z M29.7384764,125.717472 C29.7384764,126.287788 29.8146475,126.722354 29.966992,127.021183 C30.1193366,127.320013 30.3751934,127.469425 30.7345702,127.469425 C31.0900407,127.469425 31.3410148,127.320013 31.4874999,127.021183 C31.633985,126.722354 31.7072264,126.287788 31.7072264,125.717472 C31.7072264,125.151063 31.6330084,124.723333 31.4845702,124.434269 C31.3361319,124.145205 31.0822282,124.000675 30.7228514,124.000675 C30.3712872,124.000675 30.1193366,124.144229 29.966992,124.431339 C29.8146475,124.71845 29.7384764,125.147157 29.7384764,125.717472 Z M37.6369139,129.051457 L35.3458983,129.051457 L35.3458983,119.934269 L37.6369139,119.934269 L37.6369139,129.051457 Z M45.5646483,125.717472 C45.5646483,126.803415 45.272659,127.650086 44.6886717,128.257511 C44.1046844,128.864936 43.2873098,129.168644 42.2365233,129.168644 C41.2287058,129.168644 40.426956,128.8581 39.8312499,128.237004 C39.2355438,127.615907 38.9376952,126.776071 38.9376952,125.717472 C38.9376952,124.635436 39.2296844,123.794624 39.8136717,123.195011 C40.397659,122.595399 41.2169868,122.295597 42.2716795,122.295597 C42.9240266,122.295597 43.5001927,122.434268 44.0001952,122.711613 C44.5001977,122.988958 44.885936,123.386415 45.1574217,123.903996 C45.4289075,124.421576 45.5646483,125.026063 45.5646483,125.717472 Z M41.263867,125.717472 C41.263867,126.287788 41.3400382,126.722354 41.4923827,127.021183 C41.6447272,127.320013 41.900584,127.469425 42.2599608,127.469425 C42.6154313,127.469425 42.8664054,127.320013 43.0128905,127.021183 C43.1593756,126.722354 43.232617,126.287788 43.232617,125.717472 C43.232617,125.151063 43.158399,124.723333 43.0099608,124.434269 C42.8615226,124.145205 42.6076188,124.000675 42.248242,124.000675 C41.8966778,124.000675 41.6447272,124.144229 41.4923827,124.431339 C41.3400382,124.71845 41.263867,125.147157 41.263867,125.717472 Z M50.8791014,122.295597 C51.0783212,122.295597 51.2677724,122.311222 51.4474608,122.342472 L51.576367,122.36591 L51.3712889,124.528019 C51.183788,124.481144 50.924025,124.457707 50.591992,124.457707 C50.0919895,124.457707 49.7287119,124.571963 49.5021483,124.80048 C49.2755847,125.028997 49.1623045,125.358095 49.1623045,125.787785 L49.1623045,129.051457 L46.8712889,129.051457 L46.8712889,122.412785 L48.576367,122.412785 L48.9337889,123.473332 L49.045117,123.473332 C49.2365243,123.121767 49.5031231,122.837591 49.8449217,122.620793 C50.1867203,122.403995 50.5314434,122.295597 50.8791014,122.295597 Z M51.9630858,126.748722 L51.9630858,124.920597 L55.2736327,124.920597 L55.2736327,126.748722 L51.9630858,126.748722 Z M64.466992,129.051457 L64.466992,125.442082 C64.466992,124.992861 64.4054692,124.65595 64.2824217,124.431339 C64.1593742,124.206729 63.9650402,124.094425 63.6994139,124.094425 C63.3478497,124.094425 63.0900397,124.244815 62.9259764,124.545597 C62.7619131,124.84638 62.6798827,125.317078 62.6798827,125.957707 L62.6798827,129.051457 L60.3830077,129.051457 L60.3830077,125.442082 C60.3830077,124.992861 60.3244145,124.65595 60.2072264,124.431339 C60.0900383,124.206729 59.9005871,124.094425 59.638867,124.094425 C59.2794902,124.094425 59.0177741,124.25458 58.8537108,124.574894 C58.6896475,124.895208 58.607617,125.418641 58.607617,126.145207 L58.607617,129.051457 L56.3166014,129.051457 L56.3166014,122.412785 L58.045117,122.412785 L58.3322264,123.233097 L58.466992,123.233097 C58.6427742,122.928408 58.8976544,122.695989 59.2316405,122.535832 C59.5656265,122.375675 59.9455055,122.295597 60.3712889,122.295597 C61.328325,122.295597 62.0001932,122.58661 62.3869139,123.168644 L62.5685545,123.168644 C62.7560555,122.895205 63.0167951,122.68134 63.3507811,122.527043 C63.6847672,122.372745 64.0529275,122.295597 64.4552733,122.295597 C65.2404335,122.295597 65.8205058,122.496767 66.1955077,122.899113 C66.5705095,123.301459 66.7580077,123.912781 66.7580077,124.733097 L66.7580077,129.051457 L64.466992,129.051457 Z M71.5216795,129.168644 C70.4162053,129.168644 69.5578154,128.874702 68.9464842,128.286808 C68.3351531,127.698915 68.029492,126.862009 68.029492,125.776066 C68.029492,124.654967 68.3126923,123.794624 68.8791014,123.195011 C69.4455105,122.595399 70.2540962,122.295597 71.3048827,122.295597 C72.3048877,122.295597 73.0773409,122.556337 73.6222655,123.077824 C74.1671901,123.599311 74.4396483,124.35028 74.4396483,125.330754 L74.4396483,126.350285 L70.3439452,126.350285 C70.3595702,126.72138 70.4953111,127.012393 70.7511717,127.223332 C71.0070324,127.43427 71.3556617,127.539738 71.7970702,127.539738 C72.1994159,127.539738 72.5695294,127.501652 72.9074217,127.42548 C73.245314,127.349308 73.6115213,127.219426 74.0060545,127.035832 L74.0060545,128.682316 C73.6466777,128.865911 73.2755877,128.992863 72.8927733,129.063175 C72.5099589,129.133488 72.0529322,129.168644 71.5216795,129.168644 Z M71.3869139,123.854191 C71.1173813,123.854191 70.8917976,123.939151 70.7101561,124.109074 C70.5285146,124.278997 70.4220703,124.545595 70.3908202,124.908879 L72.3595702,124.908879 C72.3517576,124.588564 72.2609382,124.332708 72.0871092,124.1413 C71.9132802,123.949893 71.6798841,123.854191 71.3869139,123.854191 Z M77.7970702,129.168644 C77.3244116,129.168644 76.9113298,129.03388 76.5578124,128.764347 C76.204295,128.494815 75.9308602,128.098334 75.7374999,127.574894 C75.5441395,127.051454 75.4474608,126.440132 75.4474608,125.74091 C75.4474608,124.662779 75.6642555,123.819038 76.0978514,123.20966 C76.5314473,122.600282 77.1271445,122.295597 77.8849608,122.295597 C78.2560564,122.295597 78.5812485,122.369815 78.8605467,122.518254 C79.139845,122.666692 79.3947253,122.916689 79.6251952,123.268254 L79.6720702,123.268254 C79.5978511,122.74872 79.560742,122.229194 79.560742,121.70966 L79.560742,119.934269 L81.8693358,119.934269 L81.8693358,129.051457 L80.1408202,129.051457 L79.6486327,128.213566 L79.560742,128.213566 C79.1662088,128.850288 78.5783241,129.168644 77.7970702,129.168644 Z M78.7345702,127.358097 C79.1017595,127.358097 79.360546,127.242864 79.5109374,127.012394 C79.6613287,126.781924 79.7423826,126.426459 79.7541014,125.945988 L79.7541014,125.764347 C79.7541014,125.178407 79.6701179,124.761419 79.5021483,124.513371 C79.3341787,124.265323 79.0705095,124.1413 78.7111327,124.1413 C78.4103499,124.1413 78.1769538,124.282901 78.0109374,124.566105 C77.8449209,124.84931 77.7619139,125.252626 77.7619139,125.776066 C77.7619139,126.291694 77.8458975,126.684268 78.013867,126.9538 C78.1818366,127.223333 78.4220686,127.358097 78.7345702,127.358097 Z M85.7541014,129.051457 L83.4630858,129.051457 L83.4630858,122.412785 L85.7541014,122.412785 L85.7541014,129.051457 Z M83.404492,120.760441 C83.404492,120.416689 83.5001942,120.160833 83.6916014,119.992863 C83.8830086,119.824893 84.1915993,119.74091 84.6173827,119.74091 C85.0431661,119.74091 85.3537098,119.826846 85.5490233,119.998722 C85.7443368,120.170598 85.841992,120.424502 85.841992,120.760441 C85.841992,121.432319 85.433793,121.768254 84.6173827,121.768254 C83.8087849,121.768254 83.404492,121.432319 83.404492,120.760441 Z M92.0822264,129.051457 L91.795117,128.225285 L91.6603514,128.225285 C91.4689442,128.529974 91.2023453,128.76337 90.8605467,128.92548 C90.5187481,129.08759 90.117385,129.168644 89.6564452,129.168644 C88.9259728,129.168644 88.3576191,128.956732 87.951367,128.532902 C87.545115,128.109072 87.341992,127.510445 87.341992,126.737004 L87.341992,122.412785 L89.6330077,122.412785 L89.6330077,126.039738 C89.6330077,126.473334 89.6945305,126.801456 89.817578,127.024113 C89.9406255,127.24677 90.1427719,127.358097 90.4240233,127.358097 C90.8185565,127.358097 91.0998037,127.202825 91.2677733,126.892277 C91.4357429,126.581729 91.5197264,126.05732 91.5197264,125.319035 L91.5197264,122.412785 L93.810742,122.412785 L93.810742,129.051457 L92.0822264,129.051457 Z M103.543164,129.051457 L103.543164,125.442082 C103.543164,124.992861 103.481641,124.65595 103.358594,124.431339 C103.235546,124.206729 103.041212,124.094425 102.775586,124.094425 C102.424022,124.094425 102.166212,124.244815 102.002148,124.545597 C101.838085,124.84638 101.756055,125.317078 101.756055,125.957707 L101.756055,129.051457 L99.4591795,129.051457 L99.4591795,125.442082 C99.4591795,124.992861 99.4005864,124.65595 99.2833983,124.431339 C99.1662102,124.206729 98.976759,124.094425 98.7150389,124.094425 C98.3556621,124.094425 98.093946,124.25458 97.9298827,124.574894 C97.7658194,124.895208 97.6837889,125.418641 97.6837889,126.145207 L97.6837889,129.051457 L95.3927733,129.051457 L95.3927733,122.412785 L97.1212889,122.412785 L97.4083983,123.233097 L97.5431639,123.233097 C97.7189461,122.928408 97.9738263,122.695989 98.3078124,122.535832 C98.6417984,122.375675 99.0216774,122.295597 99.4474608,122.295597 C100.404497,122.295597 101.076365,122.58661 101.463086,123.168644 L101.644726,123.168644 C101.832227,122.895205 102.092967,122.68134 102.426953,122.527043 C102.760939,122.372745 103.129099,122.295597 103.531445,122.295597 C104.316605,122.295597 104.896678,122.496767 105.27168,122.899113 C105.646681,123.301459 105.83418,123.912781 105.83418,124.733097 L105.83418,129.051457 L103.543164,129.051457 Z M107.105664,128.0788 C107.105664,127.719424 107.212108,127.442083 107.425,127.246769 C107.637892,127.051456 107.947459,126.9538 108.353711,126.9538 C108.740431,126.9538 109.037304,127.051456 109.244336,127.246769 C109.451368,127.442083 109.554883,127.719424 109.554883,128.0788 C109.554883,128.430365 109.448438,128.704776 109.235547,128.902043 C109.022655,129.099309 108.728713,129.197941 108.353711,129.197941 C107.96699,129.197941 107.662306,129.100286 107.439648,128.904972 C107.216991,128.709659 107.105664,128.434271 107.105664,128.0788 Z M107.105664,123.449894 C107.105664,123.094424 107.213085,122.819036 107.42793,122.623722 C107.642774,122.428409 107.951365,122.330754 108.353711,122.330754 C108.740431,122.330754 109.037304,122.428409 109.244336,122.623722 C109.451368,122.819036 109.554883,123.094424 109.554883,123.449894 C109.554883,123.801458 109.449415,124.076846 109.238476,124.276066 C109.027538,124.475286 108.732619,124.574894 108.353711,124.574894 C107.955271,124.574894 107.647657,124.475286 107.430859,124.276066 C107.214061,124.076846 107.105664,123.801458 107.105664,123.449894 Z M119.293164,124.287785 L119.117383,125.27216 L120.541211,125.27216 L120.541211,126.760441 L118.841992,126.760441 L118.408398,129.051457 L116.838086,129.051457 L117.26582,126.760441 L116.281445,126.760441 L115.86543,129.051457 L114.300976,129.051457 L114.722851,126.760441 L113.404492,126.760441 L113.404492,125.27216 L115.009961,125.27216 L115.191601,124.287785 L113.79707,124.287785 L113.79707,122.764347 L115.478711,122.764347 L115.900586,120.48505 L117.470898,120.48505 L117.037305,122.764347 L118.009961,122.764347 L118.431836,120.48505 L120.002148,120.48505 L119.574414,122.764347 L120.916211,122.764347 L120.916211,124.287785 L119.293164,124.287785 Z M116.574414,125.27216 L117.541211,125.27216 L117.722851,124.287785 L116.750195,124.287785 L116.574414,125.27216 Z M125.129101,129.168644 C124.023627,129.168644 123.165237,128.874702 122.553906,128.286808 C121.942575,127.698915 121.636914,126.862009 121.636914,125.776066 C121.636914,124.654967 121.920114,123.794624 122.486523,123.195011 C123.052932,122.595399 123.861518,122.295597 124.912305,122.295597 C125.91231,122.295597 126.684763,122.556337 127.229687,123.077824 C127.774612,123.599311 128.04707,124.35028 128.04707,125.330754 L128.04707,126.350285 L123.951367,126.350285 C123.966992,126.72138 124.102733,127.012393 124.358594,127.223332 C124.614454,127.43427 124.963084,127.539738 125.404492,127.539738 C125.806838,127.539738 126.176951,127.501652 126.514844,127.42548 C126.852736,127.349308 127.218943,127.219426 127.613476,127.035832 L127.613476,128.682316 C127.2541,128.865911 126.88301,128.992863 126.500195,129.063175 C126.117381,129.133488 125.660354,129.168644 125.129101,129.168644 Z M124.994336,123.854191 C124.724803,123.854191 124.49922,123.939151 124.317578,124.109074 C124.135936,124.278997 124.029492,124.545595 123.998242,124.908879 L125.966992,124.908879 C125.95918,124.588564 125.86836,124.332708 125.694531,124.1413 C125.520702,123.949893 125.287306,123.854191 124.994336,123.854191 Z M133.67207,129.051457 L133.232617,128.17255 L133.185742,128.17255 C132.877147,128.555365 132.562697,128.817081 132.242383,128.957707 C131.922069,129.098332 131.50801,129.168644 131.000195,129.168644 C130.375192,129.168644 129.883009,128.981146 129.523633,128.606144 C129.164256,128.231142 128.98457,127.703804 128.98457,127.024113 C128.98457,126.317078 129.230661,125.790716 129.722851,125.445011 C130.215041,125.099307 130.927925,124.904973 131.861523,124.862004 L132.968945,124.826847 L132.968945,124.733097 C132.968945,124.18622 132.699417,123.912785 132.160351,123.912785 C131.675974,123.912785 131.060746,124.076846 130.314648,124.404972 L129.652539,122.893254 C130.42598,122.494814 131.402533,122.295597 132.582226,122.295597 C133.433793,122.295597 134.092966,122.506533 134.559765,122.92841 C135.026565,123.350287 135.259961,123.940125 135.259961,124.697941 L135.259961,129.051457 L133.67207,129.051457 Z M131.972851,127.551457 C132.250197,127.551457 132.487499,127.463567 132.684765,127.287785 C132.882032,127.112003 132.980664,126.883489 132.980664,126.602238 L132.980664,126.086613 L132.45332,126.11005 C131.69941,126.137394 131.322461,126.414735 131.322461,126.942082 C131.322461,127.348334 131.539256,127.551457 131.972851,127.551457 Z M140.023633,129.168644 C138.918158,129.168644 138.059769,128.874702 137.448437,128.286808 C136.837106,127.698915 136.531445,126.862009 136.531445,125.776066 C136.531445,124.654967 136.814645,123.794624 137.381055,123.195011 C137.947464,122.595399 138.756049,122.295597 139.806836,122.295597 C140.806841,122.295597 141.579294,122.556337 142.124219,123.077824 C142.669143,123.599311 142.941601,124.35028 142.941601,125.330754 L142.941601,126.350285 L138.845898,126.350285 C138.861523,126.72138 138.997264,127.012393 139.253125,127.223332 C139.508986,127.43427 139.857615,127.539738 140.299023,127.539738 C140.701369,127.539738 141.071483,127.501652 141.409375,127.42548 C141.747267,127.349308 142.113474,127.219426 142.508008,127.035832 L142.508008,128.682316 C142.148631,128.865911 141.777541,128.992863 141.394726,129.063175 C141.011912,129.133488 140.554885,129.168644 140.023633,129.168644 Z M139.888867,123.854191 C139.619334,123.854191 139.393751,123.939151 139.212109,124.109074 C139.030468,124.278997 138.924023,124.545595 138.892773,124.908879 L140.861523,124.908879 C140.853711,124.588564 140.762891,124.332708 140.589062,124.1413 C140.415233,123.949893 140.181837,123.854191 139.888867,123.854191 Z M148.566601,129.051457 L148.127148,128.17255 L148.080273,128.17255 C147.771678,128.555365 147.457228,128.817081 147.136914,128.957707 C146.8166,129.098332 146.402541,129.168644 145.894726,129.168644 C145.269723,129.168644 144.777541,128.981146 144.418164,128.606144 C144.058787,128.231142 143.879101,127.703804 143.879101,127.024113 C143.879101,126.317078 144.125193,125.790716 144.617383,125.445011 C145.109573,125.099307 145.822456,124.904973 146.756055,124.862004 L147.863476,124.826847 L147.863476,124.733097 C147.863476,124.18622 147.593948,123.912785 147.054883,123.912785 C146.570505,123.912785 145.955277,124.076846 145.20918,124.404972 L144.54707,122.893254 C145.320512,122.494814 146.297064,122.295597 147.476758,122.295597 C148.328324,122.295597 148.987498,122.506533 149.454297,122.92841 C149.921096,123.350287 150.154492,123.940125 150.154492,124.697941 L150.154492,129.051457 L148.566601,129.051457 Z M146.867383,127.551457 C147.144728,127.551457 147.38203,127.463567 147.579297,127.287785 C147.776563,127.112003 147.875195,126.883489 147.875195,126.602238 L147.875195,126.086613 L147.347851,126.11005 C146.593941,126.137394 146.216992,126.414735 146.216992,126.942082 C146.216992,127.348334 146.433787,127.551457 146.867383,127.551457 Z M154.918164,129.168644 C153.81269,129.168644 152.9543,128.874702 152.342969,128.286808 C151.731637,127.698915 151.425976,126.862009 151.425976,125.776066 C151.425976,124.654967 151.709177,123.794624 152.275586,123.195011 C152.841995,122.595399 153.650581,122.295597 154.701367,122.295597 C155.701372,122.295597 156.473825,122.556337 157.01875,123.077824 C157.563674,123.599311 157.836133,124.35028 157.836133,125.330754 L157.836133,126.350285 L153.74043,126.350285 C153.756055,126.72138 153.891795,127.012393 154.147656,127.223332 C154.403517,127.43427 154.752146,127.539738 155.193555,127.539738 C155.5959,127.539738 155.966014,127.501652 156.303906,127.42548 C156.641798,127.349308 157.008006,127.219426 157.402539,127.035832 L157.402539,128.682316 C157.043162,128.865911 156.672072,128.992863 156.289258,129.063175 C155.906443,129.133488 155.449417,129.168644 154.918164,129.168644 Z M154.783398,123.854191 C154.513866,123.854191 154.288282,123.939151 154.10664,124.109074 C153.924999,124.278997 153.818555,124.545595 153.787305,124.908879 L155.756055,124.908879 C155.748242,124.588564 155.657423,124.332708 155.483594,124.1413 C155.309765,123.949893 155.076369,123.854191 154.783398,123.854191 Z M163.461133,129.051457 L163.02168,128.17255 L162.974805,128.17255 C162.666209,128.555365 162.351759,128.817081 162.031445,128.957707 C161.711131,129.098332 161.297073,129.168644 160.789258,129.168644 C160.164255,129.168644 159.672072,128.981146 159.312695,128.606144 C158.953318,128.231142 158.773633,127.703804 158.773633,127.024113 C158.773633,126.317078 159.019724,125.790716 159.511914,125.445011 C160.004104,125.099307 160.716987,124.904973 161.650586,124.862004 L162.758008,124.826847 L162.758008,124.733097 C162.758008,124.18622 162.488479,123.912785 161.949414,123.912785 C161.465036,123.912785 160.849808,124.076846 160.103711,124.404972 L159.441601,122.893254 C160.215043,122.494814 161.191596,122.295597 162.371289,122.295597 C163.222856,122.295597 163.882029,122.506533 164.348828,122.92841 C164.815627,123.350287 165.049023,123.940125 165.049023,124.697941 L165.049023,129.051457 L163.461133,129.051457 Z M161.761914,127.551457 C162.039259,127.551457 162.276561,127.463567 162.473828,127.287785 C162.671095,127.112003 162.769726,126.883489 162.769726,126.602238 L162.769726,126.086613 L162.242383,126.11005 C161.488473,126.137394 161.111523,126.414735 161.111523,126.942082 C161.111523,127.348334 161.328318,127.551457 161.761914,127.551457 Z" id="$color-medium:-#eaea" fill="#000000"></path>
                <path d="M21.0548827,145.161015 L21.0548827,150.703984 C21.0548827,151.680551 20.7599637,152.448121 20.170117,153.006718 C19.5802703,153.565315 18.7697316,153.844609 17.7384764,153.844609 C16.7072213,153.844609 15.9093777,153.563361 15.3449217,153.000859 C14.7804658,152.438356 14.498242,151.664926 14.498242,150.680546 L14.498242,145.161015 L15.4943358,145.161015 L15.4943358,150.750859 C15.4943358,151.465706 15.6896463,152.014529 16.0802733,152.397343 C16.4709002,152.780157 17.0451133,152.971562 17.8029295,152.971562 C18.5255894,152.971562 19.0822245,152.779181 19.4728514,152.394413 C19.8634784,152.009646 20.0587889,151.457893 20.0587889,150.73914 L20.0587889,145.161015 L21.0548827,145.161015 Z M27.3185545,151.975468 C27.3185545,152.573127 27.0959005,153.03406 26.6505858,153.35828 C26.2052711,153.682501 25.5802773,153.844609 24.7755858,153.844609 C23.924019,153.844609 23.2599632,153.709844 22.7833983,153.440312 L22.7833983,152.537968 C23.0919936,152.694219 23.423045,152.817264 23.7765624,152.907109 C24.1300798,152.996953 24.4708967,153.041874 24.7990233,153.041874 C25.3068383,153.041874 25.6974594,152.96082 25.9708983,152.79871 C26.2443372,152.6366 26.3810545,152.389532 26.3810545,152.057499 C26.3810545,151.807498 26.2726572,151.593633 26.0558592,151.415898 C25.8390613,151.238162 25.4162139,151.028204 24.7873045,150.786015 C24.1896453,150.563357 23.7648449,150.369023 23.5128905,150.203007 C23.2609361,150.036991 23.073438,149.848516 22.9503905,149.637577 C22.827343,149.426639 22.7658202,149.174688 22.7658202,148.881718 C22.7658202,148.358278 22.9787087,147.945196 23.404492,147.64246 C23.8302754,147.339724 24.414254,147.188359 25.1564452,147.188359 C25.8478549,147.188359 26.5236294,147.328982 27.1837889,147.610234 L26.8380858,148.401249 C26.1935513,148.135623 25.6095728,148.002812 25.0861327,148.002812 C24.6251929,148.002812 24.2775401,148.075077 24.0431639,148.219609 C23.8087877,148.364141 23.6916014,148.563357 23.6916014,148.817265 C23.6916014,148.989141 23.7355463,149.135624 23.8234374,149.256718 C23.9113284,149.377812 24.0529286,149.493046 24.248242,149.602421 C24.4435555,149.711797 24.8185518,149.869998 25.373242,150.07703 C26.1349646,150.354376 26.6496079,150.63367 26.9171874,150.914921 C27.1847668,151.196173 27.3185545,151.549685 27.3185545,151.975468 Z M31.6134764,153.844609 C30.6642529,153.844609 29.915237,153.555549 29.3664061,152.977421 C28.8175752,152.399293 28.5431639,151.596567 28.5431639,150.569218 C28.5431639,149.534057 28.7980442,148.711799 29.3078124,148.102421 C29.8175805,147.493043 30.502144,147.188359 31.3615233,147.188359 C32.1662148,147.188359 32.8029272,147.453004 33.2716795,147.982304 C33.7404319,148.511603 33.9748045,149.209839 33.9748045,150.07703 L33.9748045,150.692265 L29.5509764,150.692265 C29.5705078,151.446175 29.7609356,152.018435 30.1222655,152.409062 C30.4835954,152.799689 30.9923794,152.994999 31.6486327,152.994999 C32.3400424,152.994999 33.0236293,152.850469 33.6994139,152.561405 L33.6994139,153.428593 C33.3556622,153.577031 33.0304701,153.683475 32.723828,153.747929 C32.4171858,153.812382 32.0470723,153.844609 31.6134764,153.844609 Z M31.3498045,148.002812 C30.834177,148.002812 30.4230483,148.170779 30.1164061,148.506718 C29.809764,148.842657 29.6291017,149.307496 29.5744139,149.901249 L32.9318358,149.901249 C32.9318358,149.287965 32.7951184,148.818243 32.5216795,148.49207 C32.2482407,148.165896 31.8576196,148.002812 31.3498045,148.002812 Z M40.0041014,152.866093 L39.951367,152.866093 C39.5021461,153.51844 38.8302778,153.844609 37.935742,153.844609 C37.0958941,153.844609 36.4425803,153.557502 35.9757811,152.98328 C35.5089819,152.409059 35.2755858,151.592661 35.2755858,150.534062 C35.2755858,149.475463 35.5099585,148.653205 35.9787108,148.067265 C36.4474631,147.481324 37.0998004,147.188359 37.935742,147.188359 C38.8068402,147.188359 39.4748022,147.504762 39.9396483,148.137577 L40.0158202,148.137577 L39.9748045,147.674687 L39.951367,147.223515 L39.951367,144.610234 L40.9240233,144.610234 L40.9240233,153.727421 L40.1330077,153.727421 L40.0041014,152.866093 Z M38.0587889,153.030155 C38.7228547,153.030155 39.2042952,152.849493 39.5031249,152.488163 C39.8019545,152.126833 39.951367,151.543831 39.951367,150.73914 L39.951367,150.534062 C39.951367,149.623901 39.8000014,148.974493 39.4972655,148.58582 C39.1945296,148.197146 38.711136,148.002812 38.0470702,148.002812 C37.4767548,148.002812 37.0402357,148.224489 36.7374999,148.667851 C36.434764,149.111212 36.2833983,149.737183 36.2833983,150.54578 C36.2833983,151.366097 36.4337874,151.985232 36.7345702,152.403202 C37.0353529,152.821173 37.4767548,153.030155 38.0587889,153.030155 Z M48.998242,148.061405 L47.3634764,148.061405 L47.3634764,153.727421 L46.3908202,153.727421 L46.3908202,148.061405 L45.2423827,148.061405 L45.2423827,147.621952 L46.3908202,147.27039 L46.3908202,146.912968 C46.3908202,145.334835 47.0802664,144.54578 48.4591795,144.54578 C48.799025,144.54578 49.1974585,144.614139 49.654492,144.750859 L49.4025389,145.530155 C49.027537,145.409061 48.7072277,145.348515 48.4416014,145.348515 C48.0744121,145.348515 47.8029304,145.470584 47.6271483,145.714726 C47.4513662,145.958868 47.3634764,146.350465 47.3634764,146.88953 L47.3634764,147.305546 L48.998242,147.305546 L48.998242,148.061405 Z M55.7130858,150.510624 C55.7130858,151.557504 55.4494166,152.374879 54.9220702,152.962773 C54.3947238,153.550666 53.6662154,153.844609 52.7365233,153.844609 C52.1623017,153.844609 51.6525411,153.709844 51.2072264,153.440312 C50.7619117,153.170779 50.4181651,152.784064 50.1759764,152.280155 C49.9337877,151.776247 49.8126952,151.186409 49.8126952,150.510624 C49.8126952,149.463744 50.0744113,148.648322 50.5978514,148.064335 C51.1212915,147.480348 51.8478468,147.188359 52.7775389,147.188359 C53.6759809,147.188359 54.389841,147.487184 54.9191405,148.084843 C55.44844,148.682502 55.7130858,149.491088 55.7130858,150.510624 Z M50.8205077,150.510624 C50.8205077,151.330941 50.9845685,151.955935 51.3126952,152.385624 C51.6408218,152.815314 52.1232389,153.030155 52.7599608,153.030155 C53.3966827,153.030155 53.8800763,152.81629 54.2101561,152.388554 C54.5402359,151.960817 54.7052733,151.334847 54.7052733,150.510624 C54.7052733,149.694214 54.5402359,149.074103 54.2101561,148.650273 C53.8800763,148.226442 53.3927765,148.01453 52.748242,148.01453 C52.1115201,148.01453 51.6310562,148.223513 51.3068358,148.641484 C50.9826154,149.059454 50.8205077,149.682495 50.8205077,150.510624 Z M60.3478514,147.188359 C60.6330091,147.188359 60.8888659,147.211796 61.1154295,147.258671 L60.9806639,148.161015 C60.7150376,148.102421 60.4806649,148.073124 60.2775389,148.073124 C59.7580051,148.073124 59.3136736,148.28406 58.9445311,148.705937 C58.5753886,149.127814 58.3908202,149.653199 58.3908202,150.282109 L58.3908202,153.727421 L57.4181639,153.727421 L57.4181639,147.305546 L58.2208983,147.305546 L58.3322264,148.494999 L58.3791014,148.494999 C58.6173839,148.077028 58.9044904,147.754766 59.2404295,147.528202 C59.5763687,147.301639 59.9455057,147.188359 60.3478514,147.188359 Z M68.4220702,147.200077 C69.2658244,147.200077 69.9210913,147.48816 70.3878905,148.064335 C70.8546897,148.64051 71.0880858,149.455931 71.0880858,150.510624 C71.0880858,151.565317 70.8527366,152.384645 70.3820311,152.968632 C69.9113256,153.552619 69.2580119,153.844609 68.4220702,153.844609 C68.0040993,153.844609 67.6222672,153.767461 67.2765624,153.613163 C66.9308575,153.458866 66.6408213,153.221563 66.4064452,152.901249 L66.3361327,152.901249 L66.1310545,153.727421 L65.4337889,153.727421 L65.4337889,144.610234 L66.4064452,144.610234 L66.4064452,146.825077 C66.4064452,147.321174 66.3908203,147.766482 66.3595702,148.161015 L66.4064452,148.161015 C66.8595724,147.520387 67.5314407,147.200077 68.4220702,147.200077 Z M68.2814452,148.01453 C67.6173794,148.01453 67.1388685,148.204958 66.8458983,148.58582 C66.5529281,148.966681 66.4064452,149.608276 66.4064452,150.510624 C66.4064452,151.412972 66.5568343,152.058474 66.857617,152.447148 C67.1583998,152.835821 67.6408169,153.030155 68.3048827,153.030155 C68.9025419,153.030155 69.34785,152.812384 69.6408202,152.376835 C69.9337904,151.941286 70.0802733,151.315316 70.0802733,150.498905 C70.0802733,149.662964 69.9337904,149.039923 69.6408202,148.629765 C69.34785,148.219607 68.8947295,148.01453 68.2814452,148.01453 Z M76.7365233,153.727421 L76.5431639,152.813359 L76.4962889,152.813359 C76.1759748,153.215704 75.8566421,153.488163 75.5382811,153.630741 C75.2199201,153.77332 74.8224632,153.844609 74.3458983,153.844609 C73.7091764,153.844609 73.2101579,153.680548 72.848828,153.352421 C72.4874981,153.024294 72.3068358,152.557502 72.3068358,151.95203 C72.3068358,150.655149 73.3439348,149.975468 75.4181639,149.912968 L76.5080077,149.877812 L76.5080077,149.479374 C76.5080077,148.975465 76.3996103,148.603399 76.1828124,148.363163 C75.9660144,148.122928 75.6193382,148.002812 75.1427733,148.002812 C74.6076144,148.002812 74.0021517,148.166873 73.326367,148.494999 L73.0275389,147.750859 C73.3439468,147.578983 73.690623,147.444218 74.067578,147.346562 C74.444533,147.248905 74.8224589,147.200077 75.201367,147.200077 C75.9669959,147.200077 76.534373,147.369998 76.9035155,147.709843 C77.272658,148.049688 77.4572264,148.594605 77.4572264,149.344609 L77.4572264,153.727421 L76.7365233,153.727421 Z M74.5392577,153.041874 C75.1447294,153.041874 75.6203106,152.87586 75.9660155,152.543827 C76.3117203,152.211794 76.4845702,151.746955 76.4845702,151.149296 L76.4845702,150.569218 L75.5119139,150.610234 C74.7384726,150.637577 74.1808609,150.757693 73.8390624,150.970585 C73.4972638,151.183477 73.326367,151.514528 73.326367,151.963749 C73.326367,152.315313 73.4328113,152.582889 73.645703,152.766484 C73.8585947,152.950078 74.1564433,153.041874 74.5392577,153.041874 Z M82.0275389,153.844609 C81.0978468,153.844609 80.3781274,153.558479 79.8683592,152.98621 C79.3585911,152.413942 79.1037108,151.604379 79.1037108,150.557499 C79.1037108,149.483275 79.3624973,148.653205 79.880078,148.067265 C80.3976587,147.481324 81.134956,147.188359 82.091992,147.188359 C82.4005873,147.188359 82.709178,147.221561 83.0177733,147.287968 C83.3263686,147.354375 83.5685537,147.432499 83.7443358,147.522343 L83.4455077,148.348515 C83.2306628,148.262577 82.9962902,148.191289 82.7423827,148.134648 C82.4884752,148.078007 82.263868,148.049687 82.0685545,148.049687 C80.7638605,148.049687 80.1115233,148.88171 80.1115233,150.54578 C80.1115233,151.334847 80.2707014,151.94031 80.5890624,152.362187 C80.9074233,152.784064 81.3790983,152.994999 82.0041014,152.994999 C82.5392603,152.994999 83.088083,152.879766 83.6505858,152.649296 L83.6505858,153.510624 C83.2208961,153.733282 82.6798859,153.844609 82.0275389,153.844609 Z M86.1349608,150.440312 C86.3029304,150.202029 86.5587872,149.889532 86.9025389,149.502812 L88.9767577,147.305546 L90.1310545,147.305546 L87.529492,150.041874 L90.3126952,153.727421 L89.1349608,153.727421 L86.8673827,150.692265 L86.1349608,151.325077 L86.1349608,153.727421 L85.1740233,153.727421 L85.1740233,144.610234 L86.1349608,144.610234 L86.1349608,149.444218 C86.1349608,149.659063 86.119336,149.991091 86.0880858,150.440312 L86.1349608,150.440312 Z M96.7287108,147.305546 L96.7287108,147.92078 L95.5392577,148.061405 C95.6486332,148.198125 95.7462885,148.376834 95.8322264,148.597538 C95.9181644,148.818243 95.9611327,149.067263 95.9611327,149.344609 C95.9611327,149.973518 95.7462911,150.475466 95.3166014,150.850468 C94.8869118,151.22547 94.2970739,151.412968 93.5470702,151.412968 C93.355663,151.412968 93.1759773,151.397343 93.0080077,151.366093 C92.5939431,151.584844 92.3869139,151.860232 92.3869139,152.192265 C92.3869139,152.368047 92.4591788,152.497928 92.6037108,152.581913 C92.7482428,152.665898 92.9962872,152.70789 93.3478514,152.70789 L94.4845702,152.70789 C95.1798861,152.70789 95.7140605,152.854373 96.0871092,153.147343 C96.460158,153.440313 96.6466795,153.86609 96.6466795,154.424687 C96.6466795,155.135628 96.3615261,155.677615 95.7912108,156.050663 C95.2208954,156.423712 94.3888725,156.610234 93.295117,156.610234 C92.4552691,156.610234 91.8078146,156.453985 91.3527342,156.141484 C90.8976538,155.828982 90.670117,155.38758 90.670117,154.817265 C90.670117,154.426638 90.7951158,154.088751 91.045117,153.803593 C91.2951183,153.518435 91.6466773,153.325078 92.0998045,153.223515 C91.9357412,153.149296 91.7980473,153.034063 91.6867186,152.877812 C91.5753899,152.721561 91.5197264,152.539922 91.5197264,152.33289 C91.5197264,152.098514 91.5822258,151.893438 91.7072264,151.717655 C91.832227,151.541873 92.0294907,151.371953 92.2990233,151.20789 C91.9669904,151.07117 91.6964853,150.838751 91.4874999,150.510624 C91.2785144,150.182498 91.1740233,149.807501 91.1740233,149.385624 C91.1740233,148.682496 91.3849587,148.140509 91.8068358,147.759648 C92.2287129,147.378786 92.8263632,147.188359 93.5998045,147.188359 C93.9357437,147.188359 94.2384751,147.227421 94.5080077,147.305546 L96.7287108,147.305546 Z M91.607617,154.805546 C91.607617,155.153204 91.7541,155.416873 92.0470702,155.596562 C92.3400404,155.77625 92.7599581,155.866093 93.3068358,155.866093 C94.1232461,155.866093 94.7277323,155.744024 95.1203124,155.499882 C95.5128924,155.25574 95.7091795,154.924689 95.7091795,154.506718 C95.7091795,154.15906 95.6017587,153.917851 95.3869139,153.783085 C95.1720691,153.648319 94.7677763,153.580937 94.1740233,153.580937 L93.0080077,153.580937 C92.5665992,153.580937 92.2228527,153.686404 91.9767577,153.897343 C91.7306627,154.108282 91.607617,154.411013 91.607617,154.805546 Z M92.1349608,149.362187 C92.1349608,149.811408 92.2619127,150.151248 92.5158202,150.381718 C92.7697277,150.612188 93.1232398,150.727421 93.576367,150.727421 C94.5255905,150.727421 95.0001952,150.266488 95.0001952,149.344609 C95.0001952,148.37976 94.5197312,147.897343 93.5587889,147.897343 C93.1017554,147.897343 92.7501964,148.020389 92.5041014,148.266484 C92.2580064,148.512579 92.1349608,148.877809 92.1349608,149.362187 Z M100.976758,147.188359 C101.261915,147.188359 101.517772,147.211796 101.744336,147.258671 L101.60957,148.161015 C101.343944,148.102421 101.109571,148.073124 100.906445,148.073124 C100.386911,148.073124 99.9425798,148.28406 99.5734374,148.705937 C99.2042949,149.127814 99.0197264,149.653199 99.0197264,150.282109 L99.0197264,153.727421 L98.0470702,153.727421 L98.0470702,147.305546 L98.8498045,147.305546 L98.9611327,148.494999 L99.0080077,148.494999 C99.2462901,148.077028 99.5333966,147.754766 99.8693358,147.528202 C100.205275,147.301639 100.574412,147.188359 100.976758,147.188359 Z M108.488476,150.510624 C108.488476,151.557504 108.224807,152.374879 107.697461,152.962773 C107.170114,153.550666 106.441606,153.844609 105.511914,153.844609 C104.937692,153.844609 104.427932,153.709844 103.982617,153.440312 C103.537302,153.170779 103.193556,152.784064 102.951367,152.280155 C102.709178,151.776247 102.588086,151.186409 102.588086,150.510624 C102.588086,149.463744 102.849802,148.648322 103.373242,148.064335 C103.896682,147.480348 104.623237,147.188359 105.55293,147.188359 C106.451372,147.188359 107.165232,147.487184 107.694531,148.084843 C108.223831,148.682502 108.488476,149.491088 108.488476,150.510624 Z M103.595898,150.510624 C103.595898,151.330941 103.759959,151.955935 104.088086,152.385624 C104.416212,152.815314 104.898629,153.030155 105.535351,153.030155 C106.172073,153.030155 106.655467,152.81629 106.985547,152.388554 C107.315627,151.960817 107.480664,151.334847 107.480664,150.510624 C107.480664,149.694214 107.315627,149.074103 106.985547,148.650273 C106.655467,148.226442 106.168167,148.01453 105.523633,148.01453 C104.886911,148.01453 104.406447,148.223513 104.082226,148.641484 C103.758006,149.059454 103.595898,149.682495 103.595898,150.510624 Z M111.107617,147.305546 L111.107617,151.471562 C111.107617,151.995002 111.226756,152.385623 111.465039,152.643437 C111.703321,152.901251 112.076365,153.030155 112.58418,153.030155 C113.256058,153.030155 113.747264,152.846564 114.057812,152.479374 C114.368361,152.112185 114.523633,151.512582 114.523633,150.680546 L114.523633,147.305546 L115.496289,147.305546 L115.496289,153.727421 L114.693555,153.727421 L114.55293,152.866093 L114.500195,152.866093 C114.300975,153.182501 114.024611,153.424686 113.671094,153.592655 C113.317576,153.760625 112.91426,153.844609 112.461133,153.844609 C111.679879,153.844609 111.094924,153.659064 110.70625,153.287968 C110.317576,152.916872 110.123242,152.323128 110.123242,151.506718 L110.123242,147.305546 L111.107617,147.305546 Z M121.95332,153.727421 L121.95332,149.573124 C121.95332,149.049684 121.834181,148.659063 121.595898,148.401249 C121.357616,148.143435 120.984573,148.01453 120.476758,148.01453 C119.804879,148.01453 119.312697,148.196169 119.000195,148.559452 C118.687694,148.922735 118.531445,149.522339 118.531445,150.35828 L118.531445,153.727421 L117.558789,153.727421 L117.558789,147.305546 L118.349805,147.305546 L118.508008,148.184452 L118.554883,148.184452 C118.754102,147.868045 119.033396,147.62293 119.392773,147.449101 C119.75215,147.275272 120.152537,147.188359 120.593945,147.188359 C121.367387,147.188359 121.949412,147.37488 122.340039,147.747929 C122.730666,148.120978 122.925976,148.717651 122.925976,149.537968 L122.925976,153.727421 L121.95332,153.727421 Z M129.295117,152.866093 L129.242383,152.866093 C128.793162,153.51844 128.121293,153.844609 127.226758,153.844609 C126.38691,153.844609 125.733596,153.557502 125.266797,152.98328 C124.799998,152.409059 124.566601,151.592661 124.566601,150.534062 C124.566601,149.475463 124.800974,148.653205 125.269726,148.067265 C125.738479,147.481324 126.390816,147.188359 127.226758,147.188359 C128.097856,147.188359 128.765818,147.504762 129.230664,148.137577 L129.306836,148.137577 L129.26582,147.674687 L129.242383,147.223515 L129.242383,144.610234 L130.215039,144.610234 L130.215039,153.727421 L129.424023,153.727421 L129.295117,152.866093 Z M127.349805,153.030155 C128.01387,153.030155 128.495311,152.849493 128.79414,152.488163 C129.09297,152.126833 129.242383,151.543831 129.242383,150.73914 L129.242383,150.534062 C129.242383,149.623901 129.091017,148.974493 128.788281,148.58582 C128.485545,148.197146 128.002152,148.002812 127.338086,148.002812 C126.76777,148.002812 126.331251,148.224489 126.028515,148.667851 C125.72578,149.111212 125.574414,149.737183 125.574414,150.54578 C125.574414,151.366097 125.724803,151.985232 126.025586,152.403202 C126.326369,152.821173 126.76777,153.030155 127.349805,153.030155 Z M137.961133,153.844609 C137.031441,153.844609 136.311721,153.558479 135.801953,152.98621 C135.292185,152.413942 135.037305,151.604379 135.037305,150.557499 C135.037305,149.483275 135.296091,148.653205 135.813672,148.067265 C136.331252,147.481324 137.06855,147.188359 138.025586,147.188359 C138.334181,147.188359 138.642772,147.221561 138.951367,147.287968 C139.259962,147.354375 139.502147,147.432499 139.67793,147.522343 L139.379101,148.348515 C139.164257,148.262577 138.929884,148.191289 138.675976,148.134648 C138.422069,148.078007 138.197462,148.049687 138.002148,148.049687 C136.697454,148.049687 136.045117,148.88171 136.045117,150.54578 C136.045117,151.334847 136.204295,151.94031 136.522656,152.362187 C136.841017,152.784064 137.312692,152.994999 137.937695,152.994999 C138.472854,152.994999 139.021677,152.879766 139.58418,152.649296 L139.58418,153.510624 C139.15449,153.733282 138.61348,153.844609 137.961133,153.844609 Z M146.650586,150.510624 C146.650586,151.557504 146.386917,152.374879 145.85957,152.962773 C145.332224,153.550666 144.603715,153.844609 143.674023,153.844609 C143.099802,153.844609 142.590041,153.709844 142.144726,153.440312 C141.699412,153.170779 141.355665,152.784064 141.113476,152.280155 C140.871288,151.776247 140.750195,151.186409 140.750195,150.510624 C140.750195,149.463744 141.011911,148.648322 141.535351,148.064335 C142.058792,147.480348 142.785347,147.188359 143.715039,147.188359 C144.613481,147.188359 145.327341,147.487184 145.85664,148.084843 C146.38594,148.682502 146.650586,149.491088 146.650586,150.510624 Z M141.758008,150.510624 C141.758008,151.330941 141.922069,151.955935 142.250195,152.385624 C142.578322,152.815314 143.060739,153.030155 143.697461,153.030155 C144.334183,153.030155 144.817576,152.81629 145.147656,152.388554 C145.477736,151.960817 145.642773,151.334847 145.642773,150.510624 C145.642773,149.694214 145.477736,149.074103 145.147656,148.650273 C144.817576,148.226442 144.330277,148.01453 143.685742,148.01453 C143.04902,148.01453 142.568556,148.223513 142.244336,148.641484 C141.920115,149.059454 141.758008,149.682495 141.758008,150.510624 Z M149.32832,153.727421 L148.355664,153.727421 L148.355664,144.610234 L149.32832,144.610234 L149.32832,153.727421 Z M156.933789,150.510624 C156.933789,151.557504 156.67012,152.374879 156.142773,152.962773 C155.615427,153.550666 154.886919,153.844609 153.957226,153.844609 C153.383005,153.844609 152.873244,153.709844 152.42793,153.440312 C151.982615,153.170779 151.638868,152.784064 151.39668,152.280155 C151.154491,151.776247 151.033398,151.186409 151.033398,150.510624 C151.033398,149.463744 151.295114,148.648322 151.818555,148.064335 C152.341995,147.480348 153.06855,147.188359 153.998242,147.188359 C154.896684,147.188359 155.610544,147.487184 156.139844,148.084843 C156.669143,148.682502 156.933789,149.491088 156.933789,150.510624 Z M152.041211,150.510624 C152.041211,151.330941 152.205272,151.955935 152.533398,152.385624 C152.861525,152.815314 153.343942,153.030155 153.980664,153.030155 C154.617386,153.030155 155.100779,152.81629 155.430859,152.388554 C155.760939,151.960817 155.925976,151.334847 155.925976,150.510624 C155.925976,149.694214 155.760939,149.074103 155.430859,148.650273 C155.100779,148.226442 154.61348,148.01453 153.968945,148.01453 C153.332223,148.01453 152.851759,148.223513 152.527539,148.641484 C152.203319,149.059454 152.041211,149.682495 152.041211,150.510624 Z M161.568555,147.188359 C161.853712,147.188359 162.109569,147.211796 162.336133,147.258671 L162.201367,148.161015 C161.935741,148.102421 161.701368,148.073124 161.498242,148.073124 C160.978708,148.073124 160.534377,148.28406 160.165234,148.705937 C159.796092,149.127814 159.611523,149.653199 159.611523,150.282109 L159.611523,153.727421 L158.638867,153.727421 L158.638867,147.305546 L159.441601,147.305546 L159.55293,148.494999 L159.599805,148.494999 C159.838087,148.077028 160.125193,147.754766 160.461133,147.528202 C160.797072,147.301639 161.166209,147.188359 161.568555,147.188359 Z M15.4123045,170.727421 L14.4396483,170.727421 L14.4396483,164.305546 L15.4123045,164.305546 L15.4123045,170.727421 Z M14.357617,162.565312 C14.357617,162.342654 14.412304,162.17957 14.5216795,162.076054 C14.6310551,161.972538 14.7677725,161.92078 14.9318358,161.92078 C15.0880866,161.92078 15.2228509,161.973514 15.3361327,162.078984 C15.4494145,162.184453 15.5060545,162.346561 15.5060545,162.565312 C15.5060545,162.784063 15.4494145,162.947147 15.3361327,163.05457 C15.2228509,163.161992 15.0880866,163.215702 14.9318358,163.215702 C14.7677725,163.215702 14.6310551,163.161992 14.5216795,163.05457 C14.412304,162.947147 14.357617,162.784063 14.357617,162.565312 Z M21.8693358,170.727421 L21.8693358,166.573124 C21.8693358,166.049684 21.7501964,165.659063 21.5119139,165.401249 C21.2736315,165.143435 20.9005883,165.01453 20.3927733,165.01453 C19.7208949,165.01453 19.2287124,165.196169 18.9162108,165.559452 C18.6037092,165.922735 18.4474608,166.522339 18.4474608,167.35828 L18.4474608,170.727421 L17.4748045,170.727421 L17.4748045,164.305546 L18.2658202,164.305546 L18.4240233,165.184452 L18.4708983,165.184452 C18.670118,164.868045 18.9494121,164.62293 19.3087889,164.449101 C19.6681657,164.275272 20.0685523,164.188359 20.5099608,164.188359 C21.2834022,164.188359 21.8654276,164.37488 22.2560545,164.747929 C22.6466815,165.120978 22.841992,165.717651 22.841992,166.537968 L22.841992,170.727421 L21.8693358,170.727421 Z M32.0998045,168.975468 C32.0998045,169.573127 31.8771505,170.03406 31.4318358,170.35828 C30.9865211,170.682501 30.3615273,170.844609 29.5568358,170.844609 C28.705269,170.844609 28.0412132,170.709844 27.5646483,170.440312 L27.5646483,169.537968 C27.8732436,169.694219 28.204295,169.817264 28.5578124,169.907109 C28.9113298,169.996953 29.2521467,170.041874 29.5802733,170.041874 C30.0880883,170.041874 30.4787094,169.96082 30.7521483,169.79871 C31.0255872,169.6366 31.1623045,169.389532 31.1623045,169.057499 C31.1623045,168.807498 31.0539072,168.593633 30.8371092,168.415898 C30.6203113,168.238162 30.1974639,168.028204 29.5685545,167.786015 C28.9708953,167.563357 28.5460949,167.369023 28.2941405,167.203007 C28.0421861,167.036991 27.854688,166.848516 27.7316405,166.637577 C27.608593,166.426639 27.5470702,166.174688 27.5470702,165.881718 C27.5470702,165.358278 27.7599587,164.945196 28.185742,164.64246 C28.6115254,164.339724 29.195504,164.188359 29.9376952,164.188359 C30.6291049,164.188359 31.3048794,164.328982 31.9650389,164.610234 L31.6193358,165.401249 C30.9748013,165.135623 30.3908228,165.002812 29.8673827,165.002812 C29.4064429,165.002812 29.0587901,165.075077 28.8244139,165.219609 C28.5900377,165.364141 28.4728514,165.563357 28.4728514,165.817265 C28.4728514,165.989141 28.5167963,166.135624 28.6046874,166.256718 C28.6925784,166.377812 28.8341786,166.493046 29.029492,166.602421 C29.2248055,166.711797 29.5998018,166.869998 30.154492,167.07703 C30.9162146,167.354376 31.4308579,167.63367 31.6984374,167.914921 C31.9660168,168.196173 32.0998045,168.549685 32.0998045,168.975468 Z M36.3947264,170.844609 C35.4455029,170.844609 34.696487,170.555549 34.1476561,169.977421 C33.5988252,169.399293 33.3244139,168.596567 33.3244139,167.569218 C33.3244139,166.534057 33.5792942,165.711799 34.0890624,165.102421 C34.5988305,164.493043 35.283394,164.188359 36.1427733,164.188359 C36.9474648,164.188359 37.5841772,164.453004 38.0529295,164.982304 C38.5216819,165.511603 38.7560545,166.209839 38.7560545,167.07703 L38.7560545,167.692265 L34.3322264,167.692265 C34.3517578,168.446175 34.5421856,169.018435 34.9035155,169.409062 C35.2648454,169.799689 35.7736294,169.994999 36.4298827,169.994999 C37.1212924,169.994999 37.8048793,169.850469 38.4806639,169.561405 L38.4806639,170.428593 C38.1369122,170.577031 37.8117201,170.683475 37.505078,170.747929 C37.1984358,170.812382 36.8283223,170.844609 36.3947264,170.844609 Z M36.1310545,165.002812 C35.615427,165.002812 35.2042983,165.170779 34.8976561,165.506718 C34.591014,165.842657 34.4103517,166.307496 34.3556639,166.901249 L37.7130858,166.901249 C37.7130858,166.287965 37.5763684,165.818243 37.3029295,165.49207 C37.0294907,165.165896 36.6388696,165.002812 36.1310545,165.002812 Z M42.9806639,170.844609 C42.0509718,170.844609 41.3312524,170.558479 40.8214842,169.98621 C40.3117161,169.413942 40.0568358,168.604379 40.0568358,167.557499 C40.0568358,166.483275 40.3156223,165.653205 40.833203,165.067265 C41.3507837,164.481324 42.088081,164.188359 43.045117,164.188359 C43.3537123,164.188359 43.662303,164.221561 43.9708983,164.287968 C44.2794936,164.354375 44.5216787,164.432499 44.6974608,164.522343 L44.3986327,165.348515 C44.1837878,165.262577 43.9494152,165.191289 43.6955077,165.134648 C43.4416002,165.078007 43.216993,165.049687 43.0216795,165.049687 C41.7169855,165.049687 41.0646483,165.88171 41.0646483,167.54578 C41.0646483,168.334847 41.2238264,168.94031 41.5421874,169.362187 C41.8605483,169.784064 42.3322233,169.994999 42.9572264,169.994999 C43.4923853,169.994999 44.041208,169.879766 44.6037108,169.649296 L44.6037108,170.510624 C44.1740211,170.733282 43.6330109,170.844609 42.9806639,170.844609 Z M51.670117,167.510624 C51.670117,168.557504 51.4064478,169.374879 50.8791014,169.962773 C50.351755,170.550666 49.6232467,170.844609 48.6935545,170.844609 C48.1193329,170.844609 47.6095724,170.709844 47.1642577,170.440312 C46.7189429,170.170779 46.3751964,169.784064 46.1330077,169.280155 C45.890819,168.776247 45.7697264,168.186409 45.7697264,167.510624 C45.7697264,166.463744 46.0314426,165.648322 46.5548827,165.064335 C47.0783228,164.480348 47.804878,164.188359 48.7345702,164.188359 C49.6330122,164.188359 50.3468722,164.487184 50.8761717,165.084843 C51.4054713,165.682502 51.670117,166.491088 51.670117,167.510624 Z M46.7775389,167.510624 C46.7775389,168.330941 46.9415998,168.955935 47.2697264,169.385624 C47.5978531,169.815314 48.0802701,170.030155 48.716992,170.030155 C49.353714,170.030155 49.8371076,169.81629 50.1671874,169.388554 C50.4972671,168.960817 50.6623045,168.334847 50.6623045,167.510624 C50.6623045,166.694214 50.4972671,166.074103 50.1671874,165.650273 C49.8371076,165.226442 49.3498078,165.01453 48.7052733,165.01453 C48.0685514,165.01453 47.5880874,165.223513 47.263867,165.641484 C46.9396467,166.059454 46.7775389,166.682495 46.7775389,167.510624 Z M57.7697264,170.727421 L57.7697264,166.573124 C57.7697264,166.049684 57.650587,165.659063 57.4123045,165.401249 C57.1740221,165.143435 56.800979,165.01453 56.2931639,165.01453 C55.6212856,165.01453 55.129103,165.196169 54.8166014,165.559452 C54.5040999,165.922735 54.3478514,166.522339 54.3478514,167.35828 L54.3478514,170.727421 L53.3751952,170.727421 L53.3751952,164.305546 L54.1662108,164.305546 L54.3244139,165.184452 L54.3712889,165.184452 C54.5705087,164.868045 54.8498027,164.62293 55.2091795,164.449101 C55.5685563,164.275272 55.968943,164.188359 56.4103514,164.188359 C57.1837928,164.188359 57.7658182,164.37488 58.1564452,164.747929 C58.5470721,165.120978 58.7423827,165.717651 58.7423827,166.537968 L58.7423827,170.727421 L57.7697264,170.727421 Z M65.1115233,169.866093 L65.0587889,169.866093 C64.6095679,170.51844 63.9376996,170.844609 63.0431639,170.844609 C62.203316,170.844609 61.5500022,170.557502 61.083203,169.98328 C60.6164038,169.409059 60.3830077,168.592661 60.3830077,167.534062 C60.3830077,166.475463 60.6173803,165.653205 61.0861327,165.067265 C61.554885,164.481324 62.2072222,164.188359 63.0431639,164.188359 C63.914262,164.188359 64.5822241,164.504762 65.0470702,165.137577 L65.123242,165.137577 L65.0822264,164.674687 L65.0587889,164.223515 L65.0587889,161.610234 L66.0314452,161.610234 L66.0314452,170.727421 L65.2404295,170.727421 L65.1115233,169.866093 Z M63.1662108,170.030155 C63.8302766,170.030155 64.3117171,169.849493 64.6105467,169.488163 C64.9093764,169.126833 65.0587889,168.543831 65.0587889,167.73914 L65.0587889,167.534062 C65.0587889,166.623901 64.9074232,165.974493 64.6046874,165.58582 C64.3019515,165.197146 63.8185579,165.002812 63.154492,165.002812 C62.5841767,165.002812 62.1476576,165.224489 61.8449217,165.667851 C61.5421858,166.111212 61.3908202,166.737183 61.3908202,167.54578 C61.3908202,168.366097 61.5412093,168.985232 61.841992,169.403202 C62.1427748,169.821173 62.5841766,170.030155 63.1662108,170.030155 Z M72.0431639,170.727421 L71.8498045,169.813359 L71.8029295,169.813359 C71.4826154,170.215704 71.1632827,170.488163 70.8449217,170.630741 C70.5265608,170.77332 70.1291038,170.844609 69.6525389,170.844609 C69.015817,170.844609 68.5167985,170.680548 68.1554686,170.352421 C67.7941387,170.024294 67.6134764,169.557502 67.6134764,168.95203 C67.6134764,167.655149 68.6505754,166.975468 70.7248045,166.912968 L71.8146483,166.877812 L71.8146483,166.479374 C71.8146483,165.975465 71.7062509,165.603399 71.489453,165.363163 C71.272655,165.122928 70.9259788,165.002812 70.4494139,165.002812 C69.914255,165.002812 69.3087923,165.166873 68.6330077,165.494999 L68.3341795,164.750859 C68.6505874,164.578983 68.9972636,164.444218 69.3742186,164.346562 C69.7511736,164.248905 70.1290995,164.200077 70.5080077,164.200077 C71.2736365,164.200077 71.8410136,164.369998 72.2101561,164.709843 C72.5792986,165.049688 72.763867,165.594605 72.763867,166.344609 L72.763867,170.727421 L72.0431639,170.727421 Z M69.8458983,170.041874 C70.4513701,170.041874 70.9269513,169.87586 71.2726561,169.543827 C71.618361,169.211794 71.7912108,168.746955 71.7912108,168.149296 L71.7912108,167.569218 L70.8185545,167.610234 C70.0451132,167.637577 69.4875016,167.757693 69.145703,167.970585 C68.8039044,168.183477 68.6330077,168.514528 68.6330077,168.963749 C68.6330077,169.315313 68.7394519,169.582889 68.9523436,169.766484 C69.1652353,169.950078 69.4630839,170.041874 69.8458983,170.041874 Z M77.6974608,164.188359 C77.9826185,164.188359 78.2384753,164.211796 78.4650389,164.258671 L78.3302733,165.161015 C78.064647,165.102421 77.8302743,165.073124 77.6271483,165.073124 C77.1076144,165.073124 76.663283,165.28406 76.2941405,165.705937 C75.924998,166.127814 75.7404295,166.653199 75.7404295,167.282109 L75.7404295,170.727421 L74.7677733,170.727421 L74.7677733,164.305546 L75.5705077,164.305546 L75.6818358,165.494999 L75.7287108,165.494999 C75.9669932,165.077028 76.2540997,164.754766 76.5900389,164.528202 C76.9259781,164.301639 77.295115,164.188359 77.6974608,164.188359 Z M78.6466795,164.305546 L79.6896483,164.305546 L81.0958983,167.967655 C81.4044936,168.803597 81.5958979,169.407107 81.670117,169.778202 L81.716992,169.778202 C81.7677736,169.578983 81.8742178,169.238166 82.036328,168.755741 C82.1984382,168.273317 82.7287063,166.789934 83.6271483,164.305546 L84.670117,164.305546 L81.9103514,171.618046 C81.6369126,172.340706 81.3175798,172.853396 80.9523436,173.156132 C80.5871074,173.458868 80.1388697,173.610234 79.607617,173.610234 C79.3107406,173.610234 79.0177747,173.577031 78.7287108,173.510624 L78.7287108,172.731327 C78.9435556,172.778203 79.1837876,172.80164 79.4494139,172.80164 C80.117386,172.80164 80.5939437,172.426644 80.8791014,171.67664 L81.2365233,170.762577 L78.6466795,164.305546 Z M91.3966795,170.844609 C90.4669874,170.844609 89.747268,170.558479 89.2374999,169.98621 C88.7277317,169.413942 88.4728514,168.604379 88.4728514,167.557499 C88.4728514,166.483275 88.7316379,165.653205 89.2492186,165.067265 C89.7667993,164.481324 90.5040966,164.188359 91.4611327,164.188359 C91.769728,164.188359 92.0783186,164.221561 92.3869139,164.287968 C92.6955092,164.354375 92.9376943,164.432499 93.1134764,164.522343 L92.8146483,165.348515 C92.5998035,165.262577 92.3654308,165.191289 92.1115233,165.134648 C91.8576158,165.078007 91.6330086,165.049687 91.4376952,165.049687 C90.1330011,165.049687 89.4806639,165.88171 89.4806639,167.54578 C89.4806639,168.334847 89.639842,168.94031 89.958203,169.362187 C90.276564,169.784064 90.7482389,169.994999 91.373242,169.994999 C91.908401,169.994999 92.4572236,169.879766 93.0197264,169.649296 L93.0197264,170.510624 C92.5900368,170.733282 92.0490266,170.844609 91.3966795,170.844609 Z M98.4923827,170.727421 L98.2990233,169.813359 L98.2521483,169.813359 C97.9318342,170.215704 97.6125015,170.488163 97.2941405,170.630741 C96.9757795,170.77332 96.5783226,170.844609 96.1017577,170.844609 C95.4650357,170.844609 94.9660173,170.680548 94.6046874,170.352421 C94.2433574,170.024294 94.0626952,169.557502 94.0626952,168.95203 C94.0626952,167.655149 95.0997942,166.975468 97.1740233,166.912968 L98.263867,166.877812 L98.263867,166.479374 C98.263867,165.975465 98.1554697,165.603399 97.9386717,165.363163 C97.7218738,165.122928 97.3751976,165.002812 96.8986327,165.002812 C96.3634737,165.002812 95.7580111,165.166873 95.0822264,165.494999 L94.7833983,164.750859 C95.0998061,164.578983 95.4464823,164.444218 95.8234374,164.346562 C96.2003924,164.248905 96.5783183,164.200077 96.9572264,164.200077 C97.7228552,164.200077 98.2902324,164.369998 98.6593749,164.709843 C99.0285173,165.049688 99.2130858,165.594605 99.2130858,166.344609 L99.2130858,170.727421 L98.4923827,170.727421 Z M96.295117,170.041874 C96.9005888,170.041874 97.37617,169.87586 97.7218749,169.543827 C98.0675797,169.211794 98.2404295,168.746955 98.2404295,168.149296 L98.2404295,167.569218 L97.2677733,167.610234 C96.4943319,167.637577 95.9367203,167.757693 95.5949217,167.970585 C95.2531231,168.183477 95.0822264,168.514528 95.0822264,168.963749 C95.0822264,169.315313 95.1886707,169.582889 95.4015624,169.766484 C95.614454,169.950078 95.9123026,170.041874 96.295117,170.041874 Z M104.14668,164.188359 C104.431837,164.188359 104.687694,164.211796 104.914258,164.258671 L104.779492,165.161015 C104.513866,165.102421 104.279493,165.073124 104.076367,165.073124 C103.556833,165.073124 103.112502,165.28406 102.743359,165.705937 C102.374217,166.127814 102.189648,166.653199 102.189648,167.282109 L102.189648,170.727421 L101.216992,170.727421 L101.216992,164.305546 L102.019726,164.305546 L102.131055,165.494999 L102.17793,165.494999 C102.416212,165.077028 102.703318,164.754766 103.039258,164.528202 C103.375197,164.301639 103.744334,164.188359 104.14668,164.188359 Z M110.486523,169.866093 L110.433789,169.866093 C109.984568,170.51844 109.3127,170.844609 108.418164,170.844609 C107.578316,170.844609 106.925002,170.557502 106.458203,169.98328 C105.991404,169.409059 105.758008,168.592661 105.758008,167.534062 C105.758008,166.475463 105.99238,165.653205 106.461133,165.067265 C106.929885,164.481324 107.582222,164.188359 108.418164,164.188359 C109.289262,164.188359 109.957224,164.504762 110.42207,165.137577 L110.498242,165.137577 L110.457226,164.674687 L110.433789,164.223515 L110.433789,161.610234 L111.406445,161.610234 L111.406445,170.727421 L110.61543,170.727421 L110.486523,169.866093 Z M108.541211,170.030155 C109.205277,170.030155 109.686717,169.849493 109.985547,169.488163 C110.284376,169.126833 110.433789,168.543831 110.433789,167.73914 L110.433789,167.534062 C110.433789,166.623901 110.282423,165.974493 109.979687,165.58582 C109.676951,165.197146 109.193558,165.002812 108.529492,165.002812 C107.959177,165.002812 107.522658,165.224489 107.219922,165.667851 C106.917186,166.111212 106.76582,166.737183 106.76582,167.54578 C106.76582,168.366097 106.916209,168.985232 107.216992,169.403202 C107.517775,169.821173 107.959177,170.030155 108.541211,170.030155 Z M117.611523,168.975468 C117.611523,169.573127 117.388869,170.03406 116.943555,170.35828 C116.49824,170.682501 115.873246,170.844609 115.068555,170.844609 C114.216988,170.844609 113.552932,170.709844 113.076367,170.440312 L113.076367,169.537968 C113.384962,169.694219 113.716014,169.817264 114.069531,169.907109 C114.423049,169.996953 114.763865,170.041874 115.091992,170.041874 C115.599807,170.041874 115.990428,169.96082 116.263867,169.79871 C116.537306,169.6366 116.674023,169.389532 116.674023,169.057499 C116.674023,168.807498 116.565626,168.593633 116.348828,168.415898 C116.13203,168.238162 115.709183,168.028204 115.080273,167.786015 C114.482614,167.563357 114.057814,167.369023 113.805859,167.203007 C113.553905,167.036991 113.366407,166.848516 113.243359,166.637577 C113.120312,166.426639 113.058789,166.174688 113.058789,165.881718 C113.058789,165.358278 113.271677,164.945196 113.697461,164.64246 C114.123244,164.339724 114.707223,164.188359 115.449414,164.188359 C116.140824,164.188359 116.816598,164.328982 117.476758,164.610234 L117.131055,165.401249 C116.48652,165.135623 115.902542,165.002812 115.379101,165.002812 C114.918162,165.002812 114.570509,165.075077 114.336133,165.219609 C114.101756,165.364141 113.98457,165.563357 113.98457,165.817265 C113.98457,165.989141 114.028515,166.135624 114.116406,166.256718 C114.204297,166.377812 114.345897,166.493046 114.541211,166.602421 C114.736524,166.711797 115.111521,166.869998 115.666211,167.07703 C116.427933,167.354376 116.942577,167.63367 117.210156,167.914921 C117.477736,168.196173 117.611523,168.549685 117.611523,168.975468 Z M119.05293,170.106327 C119.05293,169.844607 119.112499,169.646367 119.23164,169.511601 C119.350782,169.376834 119.521678,169.309452 119.744336,169.309452 C119.970899,169.309452 120.147655,169.376834 120.274609,169.511601 C120.401563,169.646367 120.465039,169.844607 120.465039,170.106327 C120.465039,170.360235 120.400586,170.555545 120.27168,170.692265 C120.142773,170.828984 119.966993,170.897343 119.744336,170.897343 C119.545116,170.897343 119.380079,170.83582 119.249219,170.712773 C119.118359,170.589725 119.05293,170.387579 119.05293,170.106327 Z" id="Used-for-background" fill="#000000"></path>
            </g>
        </g>
    </g>
</svg>