<?xml version="1.0" encoding="UTF-8" standalone="no"?>
<svg width="719px" height="360px" viewBox="0 0 719 360" version="1.1" xmlns="http://www.w3.org/2000/svg" xmlns:xlink="http://www.w3.org/1999/xlink">
    <!-- Generator: Sketch 44.1 (41455) - http://www.bohemiancoding.com/sketch -->
    <title>Group 8</title>
    <desc>Created with Sketch.</desc>
    <defs>
        <rect id="path-1" x="239.123064" y="0.399046388" width="4.17897119" height="4.1548849"></rect>
        <rect id="path-2" x="239.123064" y="238.506835" width="4.17897119" height="4.1548849"></rect>
        <rect id="path-3" x="239.123064" y="118.41422" width="4.17897119" height="4.1548849"></rect>
        <rect id="path-4" x="0.00100305585" y="0.399046388" width="4.17897119" height="4.1548849"></rect>
        <rect id="path-5" x="0.00100305585" y="238.506835" width="4.17897119" height="4.1548849"></rect>
        <rect id="path-6" x="0.00100305585" y="118.41422" width="4.17897119" height="4.1548849"></rect>
        <rect id="path-7" x="119.141366" y="0.399046388" width="4.17897119" height="4.1548849"></rect>
        <rect id="path-8" x="119.141366" y="238.506835" width="4.17897119" height="4.1548849"></rect>
    </defs>
    <g id="Page-1" stroke="none" stroke-width="1" fill="none" fill-rule="evenodd">
        <g id="Artboard-Copy-20" transform="translate(-360.000000, -117.000000)">
            <g id="Group-8" transform="translate(359.029193, 116.346770)">
                <g id="Group-6" transform="translate(0.569040, 0.298536)">
                    <g id="Group-5">
                        <rect id="Rectangle-2" fill="#EFEFEF" x="0.946844201" y="1.2809249" width="359.391522" height="357.810592"></rect>
                        <g id="Group-2" transform="translate(0.946844, 0.732694)" stroke="#FFFFFF" stroke-linecap="square">
                            <path d="M358.862405,239.598363 L1.00532242,239.598363" id="Line-Copy"></path>
                            <path d="M358.862405,268.766859 L1.00532242,268.766859" id="Line-Copy-23"></path>
                            <path d="M358.862405,209.388134 L1.00532242,209.388134" id="Line-Copy-24"></path>
                            <path d="M358.862405,150.00941 L1.00532242,150.00941" id="Line-Copy-25"></path>
                            <path d="M358.862405,119.799181 L1.00532242,119.799181" id="Line-Copy-9"></path>
                            <path d="M358.862405,60.4204566 L1.00532242,60.4204566" id="Line-Copy-18"></path>
                            <path d="M358.862405,89.5889529 L1.00532242,89.5889529" id="Line-Copy-19"></path>
                            <path d="M358.862405,298.977087 L1.00532242,298.977087" id="Line-Copy-20"></path>
                            <path d="M358.862405,329.187315 L1.00532242,329.187315" id="Line-Copy-21"></path>
                            <path d="M358.862405,30.2102283 L1.00532242,30.2102283" id="Line-Copy-22"></path>
                            <path d="M358.862405,179.177906 L1.00532242,179.177906" id="Line-Copy-12"></path>
                            <path d="M358.862405,1.04173201 L1.00532242,1.04173201" id="Line-Copy-11"></path>
                            <path d="M358.862405,358.355812 L1.00532242,358.355812" id="Line-Copy-10"></path>
                            <path d="M179.17339,1.03443801 L179.17339,358.331738" id="Line"></path>
                            <path d="M149.920591,1.03443801 L149.920591,358.331738" id="Line-Copy-8"></path>
                            <path d="M119.62305,1.03443801 L119.62305,358.331738" id="Line-Copy-4"></path>
                            <path d="M209.470931,1.03443801 L209.470931,358.331738" id="Line-Copy-5"></path>
                            <path d="M239.768472,1.03443801 L239.768472,358.331738" id="Line-Copy-6"></path>
                            <path d="M269.02127,1.03443801 L269.02127,358.331738" id="Line-Copy-13"></path>
                            <path d="M299.318811,1.03443801 L299.318811,358.331738" id="Line-Copy-16"></path>
                            <path d="M328.57161,1.03443801 L328.57161,358.331738" id="Line-Copy-17"></path>
                            <path d="M60.0727108,1.03443801 L60.0727108,358.331738" id="Line-Copy-7"></path>
                            <path d="M90.370252,1.03443801 L90.370252,358.331738" id="Line-Copy-15"></path>
                            <path d="M30.8199125,1.03443801 L30.8199125,358.331738" id="Line-Copy-14"></path>
                            <path d="M0.522371399,1.03443801 L0.522371399,358.331738" id="Line-Copy-2"></path>
                            <path d="M358.869151,1.03443801 L358.869151,358.331738" id="Line-Copy-3"></path>
                        </g>
                    </g>
                    <g id="Group-4" transform="translate(61.467351, 63.129912)" stroke="#999999">
                        <path d="M113.069404,235.090353 C95.5468145,235.090353 77.2975022,231.768339 60.8853084,223.875799 C53.708359,221.864061 48.5490803,218.436166 44.3647833,215.652381 C36.9801989,210.742153 34.7503794,209.268643 24.0797452,216.680308 L7.05818775,228.508089 L9.9063985,208.289245 C10.1501439,206.559857 10.4886793,204.883409 10.9129769,203.259901 L0.707264582,218.321462 L8.52517427,176.119092 C10.9174907,163.206032 15.2597708,149.975329 28.7921572,138.694599 C14.7451971,129.478548 5.51898036,114.783159 3.67734805,111.694965 C0.413867278,106.824443 0.210746068,100.445117 3.21693998,95.6760644 C6.09674736,91.0967147 11.4636611,88.7585111 17.2142483,89.5658531 C41.0832473,92.9275722 58.6148647,79.7012808 78.8999029,64.3882529 C82.6328193,61.5691734 86.4018462,58.7236238 90.2611492,55.9442496 C105.088998,45.0958672 121.275501,35.513644 139.46162,37.93567 C143.790359,34.4239529 151.81139,27.9210998 159.859503,21.4314818 C188.373207,-1.5755595 188.373207,-1.57997121 194.038032,1.60969147 C211.47486,11.4654403 216.078941,35.6062898 206.667658,67.855853 C206.320095,69.0470133 205.95899,70.233762 205.579831,71.4160989 C211.176949,72.6028475 218.290705,69.3073039 219.166383,68.7117238 L226.903044,63.4485598 L232.157113,71.085221 C235.975792,76.9748471 240.516679,85.9041379 235.83135,95.3672451 C229.841531,107.446493 221.545158,113.821407 213.524127,119.980147 C198.217815,131.737341 182.392416,143.896 177.386607,204.852527 C177.147375,207.7069 176.935226,210.746565 176.759188,213.733289 L176.48836,218.396461 L172.385311,220.80084 C157.710932,229.39043 136.013073,235.090353 113.069404,235.090353" id="Fill-7"></path>
                        <path d="M168.3924,204.102537 C176.223851,108.778828 211.842283,123.487452 227.712821,91.480533 C229.536398,87.7967594 229.400984,83.257115 224.539616,75.76604 C221.041417,78.3160054 204.453185,85.2776758 194.753019,75.1307545 C195.895012,72.0910898 197.005408,68.7867227 197.993931,65.3941216 L176.847402,88.1988239 C163.722547,102.352844 137.472838,130.660885 137.472838,130.660885 L168.3924,204.102537 Z" id="Fill-8"></path>
                        <path d="M64.1320881,215.553117 C100.052946,233.230819 145.06912,226.472087 167.750988,213.188443 C167.93154,210.135543 168.152717,207.025291 168.391948,204.100331 L137.472386,130.663091 L91.3277613,180.422711 L64.1320881,215.553117 Z" id="Fill-9"></path>
                        <path d="M95.5788625,63.0753295 C110.952881,51.9048926 125.85295,43.4079488 141.967233,47.3343663 C141.967233,47.3343663 189.163575,9.00106194 189.533707,9.21282378 C206.121939,18.5832851 204.104268,44.4535229 197.99709,65.3958863 L91.3268585,180.422269 L64.1311854,215.552676 C45.3627855,210.752741 42.3836745,193.10151 18.8577245,209.451288 C21.6337144,189.704497 41.0656435,176.694379 39.0931109,167.469504 C32.9453089,175.441455 24.3555386,167.40774 17.4178208,177.647307 C20.6181084,160.353424 27.0367386,147.45801 47.5158704,137.068445 L95.5788625,63.0753295 Z" id="Fill-10"></path>
                        <polygon id="Fill-12" points="139.214715 62.2207823 120.040073 78.5352672 91.3277613 180.383888 170.748154 94.7394595 187.81485 39.7343221"></polygon>
                        <path d="M127.772672,64.5183982 C123.439419,66.9183657 120.333921,71.9388859 120.058579,77.8946876 C120.049552,78.1108612 120.040524,78.3270347 120.040524,78.5432082 C120.040524,78.5432082 137.84297,63.5169412 139.215166,62.2198999 L127.772672,64.5183982 Z" id="Fill-13"></path>
                        <path d="M224.538713,75.76604 C222.706109,85.2688524 214.454874,92.5084603 204.483879,92.5084603 C195.68196,92.5084603 188.175503,86.9188301 185.27764,79.070407 L202.416557,39.7356456 C202.583567,47.8620062 199.320087,63.4926768 194.752116,75.0954608 C204.908177,85.6482591 221.785292,77.7601306 224.538713,75.76604" id="Fill-14"></path>
                        <path d="M180.474501,16.2525814 C185.760166,12.0349914 189.429889,9.11885447 189.533707,9.18061834 C193.826335,11.6026444 196.868639,15.1496551 198.917907,19.4157738 L191.668736,27.3127257 L180.474501,16.2525814 Z" id="Fill-15"></path>
                        <path d="M95.6235492,63.0060657 C72.1743339,80.0396586 47.6147227,103.315814 15.9323277,98.26 C10.3216685,97.3600122 8.72829548,103.324637 11.3463022,106.981941 C11.3463022,106.981941 26.855735,133.491876 47.515419,137.030063 L95.6235492,63.0060657 Z" id="Fill-16"></path>
                        <path d="M15.9332305,98.2582353 C10.3225713,97.3626592 8.72919824,103.322873 11.3472049,106.980176 C11.3472049,106.980176 26.8566378,133.490111 47.5163218,137.03271 L66.7406158,107.447817 C52.2964409,123.894653 22.830324,102.369944 15.9332305,98.2582353" id="Fill-17"></path>
                    </g>
                    <g id="Group-28" transform="translate(59.509652, 59.207110)">
                        <rect id="Rectangle-4" stroke="#CCCCCC" x="1.58543001" y="1.95397334" width="239.290843" height="238.582439"></rect>
                        <g id="Rectangle-3">
                            <use fill="#FFFFFF" fill-rule="evenodd" xlink:href="#path-1"></use>
                            <rect stroke="#999999" stroke-width="1" x="238.623064" y="-0.100953612" width="5.17897119" height="5.1548849"></rect>
                        </g>
                        <g id="Rectangle-3-Copy-5">
                            <use fill="#FFFFFF" fill-rule="evenodd" xlink:href="#path-2"></use>
                            <rect stroke="#999999" stroke-width="1" x="238.623064" y="238.006835" width="5.17897119" height="5.1548849"></rect>
                        </g>
                        <g id="Rectangle-3-Copy-3">
                            <use fill="#FFFFFF" fill-rule="evenodd" xlink:href="#path-3"></use>
                            <rect stroke="#999999" stroke-width="1" x="238.623064" y="117.91422" width="5.17897119" height="5.1548849"></rect>
                        </g>
                        <g id="Rectangle-3-Copy">
                            <use fill="#FFFFFF" fill-rule="evenodd" xlink:href="#path-4"></use>
                            <rect stroke="#999999" stroke-width="1" x="-0.498996944" y="-0.100953612" width="5.17897119" height="5.1548849"></rect>
                        </g>
                        <g id="Rectangle-3-Copy-6">
                            <use fill="#FFFFFF" fill-rule="evenodd" xlink:href="#path-5"></use>
                            <rect stroke="#999999" stroke-width="1" x="-0.498996944" y="238.006835" width="5.17897119" height="5.1548849"></rect>
                        </g>
                        <g id="Rectangle-3-Copy-4">
                            <use fill="#FFFFFF" fill-rule="evenodd" xlink:href="#path-6"></use>
                            <rect stroke="#999999" stroke-width="1" x="-0.498996944" y="117.91422" width="5.17897119" height="5.1548849"></rect>
                        </g>
                        <g id="Rectangle-3-Copy-2">
                            <use fill="#FFFFFF" fill-rule="evenodd" xlink:href="#path-7"></use>
                            <rect stroke="#999999" stroke-width="1" x="118.641366" y="-0.100953612" width="5.17897119" height="5.1548849"></rect>
                        </g>
                        <g id="Rectangle-3-Copy-7">
                            <use fill="#FFFFFF" fill-rule="evenodd" xlink:href="#path-8"></use>
                            <rect stroke="#999999" stroke-width="1" x="118.641366" y="238.006835" width="5.17897119" height="5.1548849"></rect>
                        </g>
                    </g>
                </g>
                <g id="Group-7" transform="translate(359.451900, 1.302591)">
                    <rect id="Rectangle-2-Copy" fill="#FFFFFF" x="0.816335553" y="0.242240308" width="359.414175" height="358.413021"></rect>
                    <g id="Group-3" transform="translate(61.760478, 61.536061)">
                        <path d="M112.501805,235.330884 C94.9575057,235.330884 76.685583,232.007547 60.2530549,224.111862 C53.0672134,222.099324 47.9015425,218.670063 43.7120613,215.885168 C36.3183275,210.972985 34.0857453,209.498888 23.4018904,216.913505 L6.35924375,228.745998 L9.21098336,208.5191 C9.4550308,206.789022 9.79398559,205.111907 10.2188089,203.487752 L0.000451939719,218.555313 L7.82804782,176.336132 C10.2233283,163.417927 14.5709884,150.181953 28.1201411,138.89673 C14.0557771,129.677007 4.81812931,114.975763 2.97421527,111.88634 C-0.293308876,107.013877 -0.496681748,100.63201 2.51323676,95.8610574 C5.39661215,91.2798834 10.7701754,88.9407483 16.5278874,89.7484119 C40.4264596,93.1114703 57.9797981,79.8799099 78.289969,64.5607818 C82.0275104,61.7405793 85.8012071,58.893896 89.6652916,56.1134147 C104.511511,45.2607105 120.71807,35.6746701 138.926721,38.097661 C143.260823,34.5845449 151.291791,28.0791013 159.349876,21.586898 C187.898908,-1.4293086 187.898908,-1.43372207 193.570752,1.75721128 C211.029183,11.6168864 215.638968,35.7673528 206.216025,68.0297633 C205.868031,69.2213981 205.50648,70.4086195 205.12685,71.5914275 C210.730903,72.7786489 217.853473,69.4817924 218.730236,68.885975 L226.476483,63.6207143 L231.737061,71.2604178 C235.560471,77.1523901 240.106984,86.0852381 235.41585,95.552115 C229.41861,107.636175 221.111958,114.013628 213.080989,120.174822 C197.755714,131.936699 181.910707,144.100202 176.898696,205.081012 C176.659168,207.936523 176.446756,210.977398 176.270499,213.965312 L175.999336,218.630342 L171.891204,221.035679 C157.198643,229.628691 135.473901,235.330884 112.501805,235.330884" id="Fill-7" fill="#000000"></path>
                        <path d="M167.893345,204.330724 C175.734499,108.969041 211.397062,123.683525 227.287262,91.6638546 C229.113099,87.9786135 228.977517,83.4371607 224.110126,75.9431014 C220.607593,78.4940827 203.998809,85.4585264 194.286624,75.3075628 C195.430032,72.2666872 196.541803,68.9610038 197.531551,65.5670512 L176.358822,88.3808382 L136.935474,130.859815 L167.893345,204.330724 Z" id="Fill-8" fill="#E8E8E8"></path>
                        <path d="M63.5038573,215.785866 C99.4692199,233.47061 144.541168,226.709185 167.251139,213.42025 C167.431914,210.366134 167.653365,207.254643 167.892893,204.328517 L136.935022,130.862021 L90.7332252,180.641464 L63.5038573,215.785866 Z" id="Fill-9" fill="#676868"></path>
                        <path d="M94.9895934,63.2473354 C110.38266,52.0724485 125.30119,43.5721198 141.435438,47.5001014 C141.435438,47.5001014 188.690255,9.15152625 189.060845,9.36337245 C205.66963,18.7375667 203.649459,44.6181104 197.534715,65.5688166 L90.7323213,180.641023 L63.5029534,215.785424 C44.7113,210.983577 41.7284979,193.325314 18.1733999,209.681606 C20.9528291,189.926948 40.4088339,176.911647 38.4338573,167.683097 C32.2784384,175.658224 23.6780256,167.621309 16.7317122,177.864955 C19.9359648,160.564182 26.3625475,147.663631 46.8670525,137.269927 L94.9895934,63.2473354 Z" id="Fill-10" fill="#E8E8E8"></path>
                        <path d="M136.931859,130.862021 L90.734581,180.645878 L137.560055,132.353772 L196.257985,77.079568 C195.946147,76.8456545 195.078423,76.143914 194.283009,75.314183 C194.283009,75.314183 196.303179,69.9827204 197.532455,65.569258 L136.931859,130.862021 Z" id="Fill-11" fill-opacity="0.3" fill="#000000"></path>
                        <polygon id="Fill-12" fill="#FFFFFF" points="138.67951 62.3924477 119.481111 78.7134318 90.7332252 180.602626 170.252018 94.9240793 187.339859 39.8970296"></polygon>
                        <path d="M127.22329,64.6909789 C122.884669,67.0919025 119.775323,72.1144228 119.49964,78.0725971 C119.490601,78.2888567 119.481562,78.5051164 119.481562,78.721376 C119.481562,78.721376 137.306065,63.689123 138.679962,62.391565 L127.22329,64.6909789 Z" id="Fill-13" fill="#000000"></path>
                        <path d="M224.109222,75.9431014 C222.274347,85.4496995 214.012889,92.6921914 204.029541,92.6921914 C195.216716,92.6921914 187.700959,87.1003345 184.799506,79.2487848 L201.959657,39.8983537 C202.126874,48.0279515 198.85935,63.6648489 194.28572,75.2722551 C204.454364,85.8292573 221.35239,77.9379865 224.109222,75.9431014" id="Fill-14" fill="#000000"></path>
                        <path d="M179.990415,16.4059345 C185.282629,12.1866644 188.956899,9.2693657 189.060845,9.33115417 C193.358792,11.7541451 196.404866,15.3025689 198.456672,19.570387 L191.19852,27.4704848 L179.990415,16.4059345 Z" id="Fill-15" fill="#000000"></path>
                        <path d="M95.0343355,63.178044 C71.5560672,80.2184225 46.9660272,103.50385 15.2443786,98.4460224 C9.6267679,97.545676 8.0314207,103.512677 10.6526711,107.171438 C10.6526711,107.171438 26.1813197,133.691933 46.8666005,137.23153 L95.0343355,63.178044 Z" id="Fill-16" fill="#676868"></path>
                        <path d="M15.2452824,98.444257 C9.62767177,97.5483241 8.03232458,103.510912 10.6535749,107.169672 C10.6535749,107.169672 26.1822236,133.690168 46.8675044,137.234178 L66.1156169,107.637499 C51.653546,124.090887 22.1509213,102.557604 15.2452824,98.444257" id="Fill-17" fill="#7E7F80"></path>
                    </g>
                </g>
            </g>
        </g>
    </g>
</svg>