<?xml version="1.0" encoding="UTF-8" standalone="no"?>
<svg width="1440px" height="1502px" viewBox="0 0 1440 1502" version="1.1" xmlns="http://www.w3.org/2000/svg" xmlns:xlink="http://www.w3.org/1999/xlink">
    <!-- Generator: Sketch 44.1 (41455) - http://www.bohemiancoding.com/sketch -->
    <title>Artboard Copy 20</title>
    <desc>Created with Sketch.</desc>
    <defs></defs>
    <g id="Page-1" stroke="none" stroke-width="1" fill="none" fill-rule="evenodd">
        <g id="Artboard-Copy-20">
            <polygon id="Rectangle-23" fill="#FFFFFF" points="0 0 720 0 1440 1502 720 1502"></polygon>
            <path d="M-0.5,-0.5 L1440.5,1503.5" id="Line" stroke-opacity="0.0872678895" stroke="#000000" stroke-linecap="square"></path>
            <path d="M-0.5,-0.5 L1440.5,1503.5" id="Line-Copy" stroke-opacity="0.0872678895" stroke="#000000" stroke-linecap="square" transform="translate(720.000000, 751.500000) scale(-1, 1) translate(-720.000000, -751.500000) "></path>
            <path d="M0.599827693,-0.5 L719.601907,1503.5" id="Line-Copy-2" stroke-opacity="0.0872678895" stroke="#000000" stroke-linecap="square"></path>
            <path d="M0.599827693,-0.5 L719.601907,1503.5" id="Line-Copy-3" stroke-opacity="0.0872678895" stroke="#000000" stroke-linecap="square" transform="translate(360.100867, 751.500000) scale(-1, 1) translate(-360.100867, -751.500000) "></path>
            <path d="M720.599828,-0.5 L1439.60191,1503.5" id="Line-Copy-2" stroke-opacity="0.0872678895" stroke="#000000" stroke-linecap="square"></path>
            <path d="M720.599828,-0.5 L1439.60191,1503.5" id="Line-Copy-3" stroke-opacity="0.0872678895" stroke="#000000" stroke-linecap="square" transform="translate(1080.100867, 751.500000) scale(-1, 1) translate(-1080.100867, -751.500000) "></path>
            <path d="M720,-0.5 L720,1503.86562" id="Line" stroke-opacity="0.0872678895" stroke="#000000" stroke-linecap="square"></path>
            <path d="M360.100867,0.5 L360.100867,1504.86562" id="Line-Copy-4" stroke-opacity="0.0872678895" stroke="#000000" stroke-linecap="square"></path>
            <path d="M479.897454,0.5 L479.897454,1504.86562" id="Line-Copy-9" stroke-opacity="0.0872678895" stroke="#000000" stroke-linecap="square"></path>
            <path d="M1080.10087,0.5 L1080.10087,1504.86562" id="Line-Copy-5" stroke-opacity="0.0872678895" stroke="#000000" stroke-linecap="square"></path>
            <path d="M960.26442,1 L960.26442,1505.36562" id="Line-Copy-8" stroke-opacity="0.0872678895" stroke="#000000" stroke-linecap="square"></path>
            <path d="M-4,751.5 L1440.61067,751.5" id="Line" stroke-opacity="0.0872678895" stroke="#000000" stroke-linecap="square"></path>
            <path d="M-5.5,501.033485 L1439.11067,501.033485" id="Line-Copy-6" stroke-opacity="0.0872678895" stroke="#000000" stroke-linecap="square"></path>
            <path d="M-5.5,1002.21945 L1439.11067,1002.21945" id="Line-Copy-7" stroke-opacity="0.0872678895" stroke="#000000" stroke-linecap="square"></path>
        </g>
    </g>
</svg>