<?xml version="1.0" encoding="UTF-8" standalone="no"?>
<svg width="353px" height="178px" viewBox="0 0 353 178" version="1.1" xmlns="http://www.w3.org/2000/svg" xmlns:xlink="http://www.w3.org/1999/xlink">
    <!-- Generator: Sketch 44.1 (41455) - http://www.bohemiancoding.com/sketch -->
    <title>Group 9</title>
    <desc>Created with Sketch.</desc>
    <defs></defs>
    <g id="Page-1" stroke="none" stroke-width="1" fill="none" fill-rule="evenodd">
        <g id="Artboard-Copy-18" transform="translate(-360.000000, -1322.000000)" fill="#000000">
            <g id="Group-9" transform="translate(360.000000, 1322.000000)">
                <path d="M16.4316406,32.5532073 L15.7548828,29.3539886 L15.5908203,29.3539886 C14.469721,30.7621987 13.3520564,31.7158025 12.237793,32.2148284 C11.1235296,32.7138543 9.73243021,32.9633636 8.06445312,32.9633636 C5.83592636,32.9633636 4.08936179,32.3891506 2.82470703,31.2407073 C1.56005227,30.0922641 0.927734375,28.4584913 0.927734375,26.3393401 C0.927734375,21.8002549 4.55758089,19.4213725 11.8173828,19.2026214 L15.6318359,19.0795745 L15.6318359,17.6850432 C15.6318359,15.9213626 15.2524452,14.6191295 14.4936523,13.778305 C13.7348595,12.9374805 12.5214927,12.5170745 10.8535156,12.5170745 C8.98045938,12.5170745 6.86133995,13.0912875 4.49609375,14.2397307 L3.45019531,11.6352386 C4.55762272,11.0336731 5.7709895,10.5619981 7.09033203,10.2201995 C8.40967457,9.87840092 9.73241524,9.70750419 11.0585938,9.70750419 C13.7382946,9.70750419 15.7241146,10.3022248 17.0161133,11.4916839 C18.3081119,12.6811429 18.9541016,14.5883504 18.9541016,17.2133636 L18.9541016,32.5532073 L16.4316406,32.5532073 Z M8.74121094,30.1537932 C10.8603622,30.1537932 12.5248963,29.5727444 13.7348633,28.4106292 C14.9448303,27.248514 15.5498047,25.6215771 15.5498047,23.5297698 L15.5498047,21.4994964 L12.1455078,21.6430511 C9.43846303,21.7387547 7.48682239,22.1591606 6.29052734,22.9042815 C5.0942323,23.6494024 4.49609375,24.8080823 4.49609375,26.3803557 C4.49609375,27.6108307 4.86864862,28.5473447 5.61376953,29.1899261 C6.35889044,29.8325074 7.40136049,30.1537932 8.74121094,30.1537932 Z M36.4267578,9.70750419 C39.3798976,9.70750419 41.6733317,10.7157949 43.3071289,12.7324065 C44.9409261,14.7490182 45.7578125,17.6029935 45.7578125,21.2944182 C45.7578125,24.985843 44.9340903,27.8534901 43.2866211,29.8974456 C41.6391519,31.9414011 39.3525537,32.9633636 36.4267578,32.9633636 C34.9638599,32.9633636 33.6274475,32.6933467 32.4174805,32.153305 C31.2075135,31.6132632 30.1923869,30.7827051 29.3720703,29.6616057 L29.1259766,29.6616057 L28.4082031,32.5532073 L25.9677734,32.5532073 L25.9677734,0.643051062 L29.3720703,0.643051062 L29.3720703,8.39500419 C29.3720703,10.131341 29.3173834,11.6899192 29.2080078,13.0707854 L29.3720703,13.0707854 C30.9580157,10.8285867 33.3095547,9.70750419 36.4267578,9.70750419 Z M35.9345703,12.5580901 C33.6103399,12.5580901 31.935552,13.2245874 30.9101562,14.5576018 C29.8847605,15.8906163 29.3720703,18.1361993 29.3720703,21.2944182 C29.3720703,24.4526372 29.8984322,26.7118919 30.9511719,28.0722503 C32.0039115,29.4326086 33.6923712,30.1127776 36.0166016,30.1127776 C38.1084089,30.1127776 39.6669871,29.3505782 40.6923828,27.8261565 C41.7177786,26.3017348 42.2304688,24.1108388 42.2304688,21.2534026 C42.2304688,18.3276067 41.7177786,16.1469645 40.6923828,14.7114104 C39.6669871,13.2758564 38.0810654,12.5580901 35.9345703,12.5580901 Z M60.6875,32.9633636 C57.4335775,32.9633636 54.9145597,31.9619087 53.1303711,29.958969 C51.3461825,27.9560293 50.4541016,25.1225616 50.4541016,21.4584807 C50.4541016,17.6986963 51.3598542,14.7934519 53.1713867,12.7426604 C54.9829192,10.6918689 57.5634598,9.66648856 60.9130859,9.66648856 C61.9931695,9.66648856 63.0732368,9.78269834 64.1533203,10.0151214 C65.2334038,10.2475444 66.0810516,10.5209792 66.6962891,10.8354339 L65.6503906,13.7270354 C64.8984337,13.4262527 64.0781294,13.1767435 63.1894531,12.9785003 C62.3007768,12.7802571 61.5146519,12.681137 60.8310547,12.681137 C56.2646256,12.681137 53.9814453,15.5932173 53.9814453,21.4174651 C53.9814453,24.1791977 54.5385686,26.2983171 55.652832,27.774887 C56.7670954,29.2514569 58.4179578,29.9897307 60.6054688,29.9897307 C62.478525,29.9897307 64.3994042,29.5864145 66.3681641,28.7797698 L66.3681641,31.7944182 C64.8642503,32.573719 62.9707145,32.9633636 60.6875,32.9633636 Z M86.9990234,29.5385589 L86.8144531,29.5385589 C85.2421796,31.8217734 82.8906407,32.9633636 79.7597656,32.9633636 C76.8202978,32.9633636 74.5336996,31.9584908 72.8999023,29.9487151 C71.2661051,27.9389395 70.4492188,25.0815461 70.4492188,21.3764495 C70.4492188,17.6713528 71.269523,14.7934519 72.9101562,12.7426604 C74.5507895,10.6918689 76.8339697,9.66648856 79.7597656,9.66648856 C82.808609,9.66648856 85.1464762,10.7738994 86.7734375,12.9887542 L87.0400391,12.9887542 L86.8964844,11.368637 L86.8144531,9.78953544 L86.8144531,0.643051062 L90.21875,0.643051062 L90.21875,32.5532073 L87.4501953,32.5532073 L86.9990234,29.5385589 Z M80.1904297,30.1127776 C82.5146601,30.1127776 84.1997018,29.4804597 85.2456055,28.215805 C86.2915091,26.9511502 86.8144531,24.9106433 86.8144531,22.0942229 L86.8144531,21.3764495 C86.8144531,18.1908867 86.2846733,15.9179602 85.2250977,14.5576018 C84.165522,13.1972435 82.4736444,12.5170745 80.1494141,12.5170745 C78.1533103,12.5170745 76.6254936,13.2929456 75.565918,14.8447112 C74.5063424,16.3964768 73.9765625,18.5873728 73.9765625,21.4174651 C73.9765625,24.2885732 74.5029244,26.4555437 75.5556641,27.9184417 C76.6084037,29.3813396 78.1533101,30.1127776 80.1904297,30.1127776 Z M106.932617,32.9633636 C103.610335,32.9633636 100.988779,31.9516549 99.0678711,29.9282073 C97.1469631,27.9047597 96.1865234,25.0952175 96.1865234,21.4994964 C96.1865234,17.8764314 97.0786044,14.9985305 98.862793,12.8657073 C100.646982,10.7328841 103.042954,9.66648856 106.050781,9.66648856 C108.867202,9.66648856 111.095695,10.5927488 112.736328,12.4452972 C114.376961,14.2978455 115.197266,16.7416687 115.197266,19.7768401 L115.197266,21.9301604 L99.7138672,21.9301604 C99.7822269,24.5688455 100.448724,26.5717552 101.713379,27.9389495 C102.978034,29.3061438 104.758778,29.9897307 107.055664,29.9897307 C109.475598,29.9897307 111.868152,29.4838764 114.233398,28.4721526 L114.233398,31.5073089 C113.030267,32.0268427 111.892095,32.3993976 110.818848,32.6249847 C109.7456,32.8505717 108.450203,32.9633636 106.932617,32.9633636 Z M106.009766,12.5170745 C104.205069,12.5170745 102.766119,13.1049592 101.692871,14.2807464 C100.619624,15.4565335 99.9873056,17.0834704 99.7958984,19.1616057 L111.546875,19.1616057 C111.546875,17.0151106 111.068364,15.3710841 110.111328,14.2294768 C109.154292,13.0878696 107.787118,12.5170745 106.009766,12.5170745 Z M131.131836,12.7221526 L125.410156,12.7221526 L125.410156,32.5532073 L122.005859,32.5532073 L122.005859,12.7221526 L117.986328,12.7221526 L117.986328,11.1840667 L122.005859,9.95359794 L122.005859,8.70262137 C122.005859,3.17915626 124.418921,0.417465124 129.245117,0.417465124 C130.434576,0.417465124 131.829094,0.656720544 133.428711,1.13523856 L132.546875,3.86277762 C131.234368,3.43894738 130.113286,3.22703544 129.183594,3.22703544 C127.898431,3.22703544 126.948245,3.65427726 126.333008,4.50877372 C125.71777,5.36327018 125.410156,6.73386194 125.410156,8.62059012 L125.410156,10.0766448 L131.131836,10.0766448 L131.131836,12.7221526 Z M153.628906,10.0766448 L153.628906,12.2299651 L149.46582,12.7221526 C149.848635,13.2006706 150.190428,13.8261527 150.491211,14.5986175 C150.791994,15.3710823 150.942383,16.2426556 150.942383,17.2133636 C150.942383,19.4145464 150.190437,21.1713648 148.686523,22.4838714 C147.18261,23.7963779 145.118177,24.4526214 142.493164,24.4526214 C141.823239,24.4526214 141.194339,24.3979344 140.606445,24.2885589 C139.157219,25.0541877 138.432617,26.0180453 138.432617,27.1801604 C138.432617,27.7953979 138.685544,28.2499832 139.191406,28.54393 C139.697268,28.8378768 140.565424,28.9848479 141.795898,28.9848479 L145.774414,28.9848479 C148.20802,28.9848479 150.07763,29.4975381 151.383301,30.5229339 C152.688971,31.5483296 153.341797,33.0385491 153.341797,34.993637 C153.341797,37.4819307 152.34376,39.3788844 150.347656,40.684555 C148.351553,41.9902256 145.439472,42.6430511 141.611328,42.6430511 C138.67186,42.6430511 136.40577,42.0961815 134.812988,41.0024261 C133.220207,39.9086706 132.423828,38.3637642 132.423828,36.3676604 C132.423828,35.0004661 132.861324,33.8178607 133.736328,32.8198089 C134.611333,31.821757 135.841789,31.145006 137.427734,30.7895354 C136.853513,30.5297685 136.371584,30.1264522 135.981934,29.5795745 C135.592283,29.0326968 135.397461,28.3969609 135.397461,27.6723479 C135.397461,26.8520313 135.616209,26.1342651 136.053711,25.5190276 C136.491213,24.9037902 137.181636,24.3090696 138.125,23.7348479 C136.962885,23.2563299 136.016117,22.4428615 135.284668,21.2944182 C134.553219,20.145975 134.1875,18.8334881 134.1875,17.3569182 C134.1875,14.8959684 134.925774,12.9990148 136.402344,11.6660003 C137.878914,10.3329858 139.97069,9.66648856 142.677734,9.66648856 C143.853522,9.66648856 144.913081,9.80320594 145.856445,10.0766448 L153.628906,10.0766448 Z M135.705078,36.3266448 C135.705078,37.5434478 136.217768,38.4662901 137.243164,39.0951995 C138.26856,39.7241089 139.738272,40.0385589 141.652344,40.0385589 C144.50978,40.0385589 146.625481,39.6113171 147.999512,38.7568206 C149.373542,37.9023241 150.060547,36.7436443 150.060547,35.2807464 C150.060547,34.0639434 149.684574,33.2197136 148.932617,32.7480315 C148.18066,32.2763495 146.765635,32.040512 144.6875,32.040512 L140.606445,32.040512 C139.061516,32.040512 137.858403,32.4096489 136.99707,33.1479339 C136.135738,33.8862188 135.705078,34.9457785 135.705078,36.3266448 Z M137.550781,17.274887 C137.550781,18.8471605 137.995113,20.0366017 138.883789,20.8432464 C139.772465,21.649891 141.009758,22.0532073 142.595703,22.0532073 C145.917985,22.0532073 147.579102,20.4399422 147.579102,17.2133636 C147.579102,13.8363936 145.897478,12.1479339 142.53418,12.1479339 C140.934562,12.1479339 139.704106,12.5785936 138.842773,13.4399261 C137.981441,14.3012585 137.550781,15.579566 137.550781,17.274887 Z M173.624023,32.5532073 L173.624023,18.0131682 C173.624023,16.1811278 173.207035,14.813954 172.373047,13.9116057 C171.539058,13.0092575 170.233407,12.5580901 168.456055,12.5580901 C166.090808,12.5580901 164.364752,13.2006618 163.277832,14.4858245 C162.190913,15.7709872 161.647461,17.8764349 161.647461,20.8022307 L161.647461,32.5532073 L158.243164,32.5532073 L158.243164,0.643051062 L161.647461,0.643051062 L161.647461,10.3022307 C161.647461,11.4643459 161.592774,12.4282035 161.483398,13.1938323 L161.688477,13.1938323 C162.358402,12.1137488 163.312006,11.2626831 164.549316,10.6406097 C165.786627,10.0185362 167.198234,9.70750419 168.78418,9.70750419 C171.53224,9.70750419 173.593255,10.3603297 174.967285,11.6660003 C176.341315,12.9716709 177.02832,15.0463572 177.02832,17.8901214 L177.02832,32.5532073 L173.624023,32.5532073 Z M187.425781,32.5532073 L184.021484,32.5532073 L184.021484,10.0766448 L187.425781,10.0766448 L187.425781,32.5532073 Z M183.734375,3.9858245 C183.734375,3.20652373 183.925779,2.63572865 184.308594,2.27342216 C184.691408,1.91111566 185.169919,1.72996512 185.744141,1.72996512 C186.291018,1.72996512 186.762693,1.91453359 187.15918,2.28367606 C187.555666,2.65281853 187.753906,3.22019567 187.753906,3.9858245 C187.753906,4.75145333 187.555666,5.3222484 187.15918,5.69822684 C186.762693,6.07420529 186.291018,6.26219169 185.744141,6.26219169 C185.169919,6.26219169 184.691408,6.07420529 184.308594,5.69822684 C183.925779,5.3222484 183.734375,4.75145333 183.734375,3.9858245 Z M191.916992,42.6430511 C190.618158,42.6430511 189.565434,42.4721543 188.758789,42.1303557 L188.758789,39.3618011 C189.702153,39.6352399 190.631831,39.7719573 191.547852,39.7719573 C192.614263,39.7719573 193.39697,39.4814329 193.895996,38.9003753 C194.395022,38.3193177 194.644531,37.4340726 194.644531,36.2446136 L194.644531,10.0766448 L198.048828,10.0766448 L198.048828,35.9985198 C198.048828,40.4282295 196.004903,42.6430511 191.916992,42.6430511 Z M194.357422,3.9858245 C194.357422,3.20652373 194.548826,2.63572865 194.931641,2.27342216 C195.314455,1.91111566 195.792966,1.72996512 196.367188,1.72996512 C196.914065,1.72996512 197.38574,1.91453359 197.782227,2.28367606 C198.178713,2.65281853 198.376953,3.22019567 198.376953,3.9858245 C198.376953,4.75145333 198.178713,5.3222484 197.782227,5.69822684 C197.38574,6.07420529 196.914065,6.26219169 196.367188,6.26219169 C195.792966,6.26219169 195.314455,6.07420529 194.931641,5.69822684 C194.548826,5.3222484 194.357422,4.75145333 194.357422,3.9858245 Z M208.630859,21.0483245 C209.218753,20.214336 210.114252,19.1205969 211.317383,17.7670745 L218.577148,10.0766448 L222.617188,10.0766448 L213.511719,19.6537932 L223.25293,32.5532073 L219.130859,32.5532073 L211.194336,21.9301604 L208.630859,24.1450042 L208.630859,32.5532073 L205.267578,32.5532073 L205.267578,0.643051062 L208.630859,0.643051062 L208.630859,17.5619964 C208.630859,18.3139533 208.576172,19.476051 208.466797,21.0483245 L208.630859,21.0483245 Z M230.717773,32.5532073 L227.313477,32.5532073 L227.313477,0.643051062 L230.717773,0.643051062 L230.717773,32.5532073 Z M266.585938,32.5532073 L266.585938,17.931137 C266.585938,16.1401124 266.203129,14.7968641 265.4375,13.9013518 C264.671871,13.0058396 263.48243,12.5580901 261.869141,12.5580901 C259.749989,12.5580901 258.184575,13.1664825 257.172852,14.3832854 C256.161128,15.6000884 255.655273,17.4731165 255.655273,20.0024261 L255.655273,32.5532073 L252.250977,32.5532073 L252.250977,17.931137 C252.250977,16.1401124 251.868168,14.7968641 251.102539,13.9013518 C250.33691,13.0058396 249.140633,12.5580901 247.513672,12.5580901 C245.380849,12.5580901 243.818853,13.1972439 242.827637,14.4755706 C241.836421,15.7538973 241.34082,17.8490912 241.34082,20.7612151 L241.34082,32.5532073 L237.936523,32.5532073 L237.936523,10.0766448 L240.705078,10.0766448 L241.258789,13.1528167 L241.422852,13.1528167 C242.065433,12.0590612 242.971186,11.2045776 244.140137,10.5893401 C245.309088,9.97410267 246.618157,9.66648856 248.067383,9.66648856 C251.581072,9.66648856 253.877924,10.9379602 254.958008,13.4809417 L255.12207,13.4809417 C255.791996,12.3051546 256.762689,11.3754764 258.03418,10.6918792 C259.30567,10.008282 260.754875,9.66648856 262.381836,9.66648856 C264.924817,9.66648856 266.828607,10.3193141 268.093262,11.6249847 C269.357916,12.9306552 269.990234,15.0190133 269.990234,17.8901214 L269.990234,32.5532073 L266.585938,32.5532073 Z M292.384766,32.5532073 L292.384766,18.0131682 C292.384766,16.1811278 291.967778,14.813954 291.133789,13.9116057 C290.299801,13.0092575 288.99415,12.5580901 287.216797,12.5580901 C284.865223,12.5580901 283.142584,13.193826 282.048828,14.4653167 C280.955073,15.7368074 280.408203,17.8354192 280.408203,20.7612151 L280.408203,32.5532073 L277.003906,32.5532073 L277.003906,10.0766448 L279.772461,10.0766448 L280.326172,13.1528167 L280.490234,13.1528167 C281.187503,12.0453893 282.165033,11.1874877 283.422852,10.5790862 C284.68067,9.97068474 286.082024,9.66648856 287.626953,9.66648856 C290.333998,9.66648856 292.371087,10.3193141 293.738281,11.6249847 C295.105476,12.9306552 295.789062,15.0190133 295.789062,17.8901214 L295.789062,32.5532073 L292.384766,32.5532073 Z M322.182617,21.2944182 C322.182617,24.9584991 321.259775,27.8193103 319.414062,29.8769378 C317.56835,31.9345653 315.018571,32.9633636 311.764648,32.9633636 C309.754873,32.9633636 307.970711,32.4916886 306.412109,31.5483245 C304.853508,30.6049604 303.650395,29.2514583 302.802734,27.4877776 C301.955074,25.7240969 301.53125,23.6596645 301.53125,21.2944182 C301.53125,17.6303374 302.447256,14.7763621 304.279297,12.7324065 C306.111337,10.688451 308.654281,9.66648856 311.908203,9.66648856 C315.05275,9.66648856 317.55126,10.7123765 319.403809,12.8041839 C321.256357,14.8959912 322.182617,17.726041 322.182617,21.2944182 Z M305.058594,21.2944182 C305.058594,24.1655264 305.632807,26.3530045 306.78125,27.8569182 C307.929693,29.360832 309.618153,30.1127776 311.84668,30.1127776 C314.075206,30.1127776 315.767084,29.36425 316.922363,27.8671722 C318.077642,26.3700944 318.655273,24.1791983 318.655273,21.2944182 C318.655273,18.4369821 318.077642,16.2665936 316.922363,14.7831878 C315.767084,13.2997819 314.061535,12.5580901 311.805664,12.5580901 C309.577137,12.5580901 307.895513,13.2895281 306.760742,14.7524261 C305.625971,16.215324 305.058594,18.3959663 305.058594,21.2944182 Z M338.609375,32.9633636 C337.146477,32.9633636 335.810065,32.6933467 334.600098,32.153305 C333.390131,31.6132632 332.375004,30.7827051 331.554688,29.6616057 L331.308594,29.6616057 C331.472657,30.9741123 331.554688,32.2182405 331.554688,33.3940276 L331.554688,42.6430511 L328.150391,42.6430511 L328.150391,10.0766448 L330.918945,10.0766448 L331.390625,13.1528167 L331.554688,13.1528167 C332.429692,11.9223418 333.448236,11.0336788 334.610352,10.4868011 C335.772467,9.93992333 337.105461,9.66648856 338.609375,9.66648856 C341.589859,9.66648856 343.890129,10.6850331 345.510254,12.7221526 C347.130379,14.7592722 347.94043,17.6166655 347.94043,21.2944182 C347.94043,24.985843 347.116707,27.8534901 345.469238,29.8974456 C343.821769,31.9414011 341.535171,32.9633636 338.609375,32.9633636 Z M338.117188,12.5580901 C335.820301,12.5580901 334.159185,13.193826 333.133789,14.4653167 C332.108393,15.7368074 331.582031,17.7602247 331.554688,20.5356292 L331.554688,21.2944182 C331.554688,24.4526372 332.081049,26.7118919 333.133789,28.0722503 C334.186529,29.4326086 335.874988,30.1127776 338.199219,30.1127776 C340.140635,30.1127776 341.661616,29.3266527 342.762207,27.7543792 C343.862798,26.1821057 344.413086,24.0151352 344.413086,21.2534026 C344.413086,18.4506542 343.862798,16.3007734 342.762207,14.8036956 C341.661616,13.3066178 340.113291,12.5580901 338.117188,12.5580901 Z" id="abcdefghijklmnop"></path>
                <path d="M15.3507577,177.053207 L11.8702889,177.053207 L11.8702889,154.666489 C11.8702889,152.8045 11.92758,151.042799 12.0421639,149.381332 C11.7413812,149.682115 11.404796,149.997216 11.0323983,150.326645 C10.6600006,150.656074 8.95559056,152.052544 5.91911704,154.516098 L4.02849204,152.066879 L12.3429452,145.643051 L15.3507577,145.643051 L15.3507577,177.053207 Z M47.9425545,177.053207 L27.2960702,177.053207 L27.2960702,173.980942 L35.5675545,165.666489 C38.0884005,163.116997 39.7498422,161.298004 40.5519295,160.209457 C41.3540169,159.12091 41.9555734,158.061025 42.356617,157.02977 C42.7576607,155.998515 42.9581795,154.8885 42.9581795,153.699692 C42.9581795,152.023902 42.4497211,150.695465 41.4327889,149.71434 C40.4158567,148.733215 39.0050636,148.24266 37.200367,148.24266 C35.8969751,148.24266 34.6616359,148.457502 33.4943124,148.887192 C32.3269888,149.316881 31.0271971,150.097472 29.5948983,151.228989 L27.7042733,148.801254 C30.5975169,146.394992 33.7485271,145.191879 37.1573983,145.191879 C40.1079339,145.191879 42.4210618,145.947405 44.0968514,147.458481 C45.772641,148.969556 46.6105233,150.999809 46.6105233,153.549301 C46.6105233,155.540196 46.0519351,157.509578 44.934742,159.457504 C43.817549,161.405431 41.726424,163.868948 38.6613045,166.848129 L31.7863045,173.572739 L31.7863045,173.744614 L47.9425545,173.744614 L47.9425545,177.053207 Z M71.919117,153.033676 C71.919117,155.038894 71.3569482,156.678852 70.2325936,157.953598 C69.108239,159.228344 67.5148305,160.080549 65.4523202,160.510239 L65.4523202,160.682114 C67.9731661,160.997219 69.842288,161.799295 71.059742,163.088364 C72.277196,164.377433 72.8859139,166.06752 72.8859139,168.158676 C72.8859139,171.152181 71.8475128,173.454566 69.7706795,175.065903 C67.6938462,176.677239 64.7433549,177.482895 60.919117,177.482895 C59.2576504,177.482895 57.7358557,177.357571 56.3536874,177.106918 C54.971519,176.856266 53.628759,176.415841 52.325367,175.785629 L52.325367,172.391098 C53.6860509,173.064278 55.1362317,173.576318 56.675953,173.927231 C58.2156742,174.278144 59.6730164,174.453598 61.0480233,174.453598 C66.4764359,174.453598 69.1906014,172.326666 69.1906014,168.072739 C69.1906014,164.262824 66.1971418,162.357895 60.2101327,162.357895 L57.1163827,162.357895 L57.1163827,159.285629 L60.2531014,159.285629 C62.7023324,159.285629 64.6430682,158.744944 66.075367,157.663559 C67.5076659,156.582173 68.2238045,155.081863 68.2238045,153.162582 C68.2238045,151.630023 67.6974426,150.42691 66.644703,149.553207 C65.5919633,148.679505 64.1632667,148.24266 62.3585702,148.24266 C60.9835633,148.24266 59.6873523,148.428856 58.4698983,148.801254 C57.2524443,149.173652 55.8631353,149.861145 54.3019295,150.863754 L52.497242,148.457504 C53.786311,147.440572 55.2722987,146.642077 56.9552499,146.061996 C58.638201,145.481915 60.4106442,145.191879 62.2726327,145.191879 C65.3234292,145.191879 67.6938482,145.890114 69.3839608,147.286606 C71.0740734,148.683097 71.919117,150.598768 71.919117,153.033676 Z M99.7413827,169.834457 L95.0792733,169.834457 L95.0792733,177.053207 L91.6632577,177.053207 L91.6632577,169.834457 L76.387867,169.834457 L76.387867,166.719223 L91.2980233,145.471176 L95.0792733,145.471176 L95.0792733,166.590317 L99.7413827,166.590317 L99.7413827,169.834457 Z M91.6632577,166.590317 L91.6632577,156.14891 C91.6632577,154.100723 91.7348715,151.787595 91.8781014,149.209457 L91.7062264,149.209457 C91.018723,150.584464 90.3741982,151.723125 89.7726327,152.625473 L79.9542733,166.590317 L91.6632577,166.590317 Z M112.589039,157.86766 C115.897649,157.86766 118.500813,158.687639 120.398609,160.327621 C122.296405,161.967604 123.245289,164.212698 123.245289,167.062973 C123.245289,170.314291 122.210469,172.863745 120.140797,174.71141 C118.071125,176.559076 115.217312,177.482895 111.579273,177.482895 C108.041495,177.482895 105.341652,176.917145 103.479664,175.785629 L103.479664,172.348129 C104.482273,172.992664 105.728354,173.497541 107.217945,173.862778 C108.707536,174.228014 110.17562,174.410629 111.622242,174.410629 C114.143088,174.410629 116.101727,173.816234 117.498219,172.627426 C118.89471,171.438618 119.592945,169.719885 119.592945,167.471176 C119.592945,163.088342 116.907425,160.896957 111.536305,160.896957 C110.175621,160.896957 108.356628,161.104638 106.079273,161.520004 L104.231617,160.338364 L105.413258,145.643051 L121.032398,145.643051 L121.032398,148.93016 L108.464039,148.93016 L107.669117,158.361801 C109.316261,158.032372 110.956218,157.86766 112.589039,157.86766 Z M128.294117,163.625473 C128.294117,157.452265 129.493649,152.836751 131.89275,149.778793 C134.29185,146.720835 137.840318,145.191879 142.538258,145.191879 C144.156755,145.191879 145.431482,145.327946 146.362476,145.600082 L146.362476,148.672348 C145.259606,148.314273 143.999202,148.135239 142.581226,148.135239 C139.215324,148.135239 136.644386,149.184382 134.868336,151.282699 C133.092285,153.381017 132.118337,156.678836 131.946461,161.176254 L132.204273,161.176254 C133.779802,158.7127 136.271965,157.480942 139.680836,157.480942 C142.502464,157.480942 144.726075,158.333147 146.351734,160.037582 C147.977393,161.742018 148.790211,164.055146 148.790211,166.977035 C148.790211,170.242677 147.898618,172.810034 146.115406,174.679184 C144.332194,176.548334 141.922387,177.482895 138.885914,177.482895 C135.634596,177.482895 133.056496,176.261878 131.151539,173.819809 C129.246581,171.377739 128.294117,167.979661 128.294117,163.625473 Z M138.842945,174.453598 C140.87681,174.453598 142.455895,173.812654 143.58025,172.530746 C144.704604,171.248839 145.266773,169.39762 145.266773,166.977035 C145.266773,164.900202 144.743992,163.267406 143.698414,162.078598 C142.652836,160.88979 141.091653,160.295395 139.01482,160.295395 C137.725751,160.295395 136.544122,160.560366 135.469898,161.090317 C134.395674,161.620267 133.539888,162.350729 132.902515,163.281723 C132.265143,164.212717 131.946461,165.179504 131.946461,166.182114 C131.946461,167.657381 132.232916,169.032368 132.805836,170.307114 C133.378755,171.58186 134.191573,172.591615 135.244312,173.33641 C136.297052,174.081206 137.496584,174.453598 138.842945,174.453598 Z M157.061695,177.053207 L170.081226,148.93016 L152.95818,148.93016 L152.95818,145.643051 L173.862476,145.643051 L173.862476,148.500473 L161.01482,177.053207 L157.061695,177.053207 Z M188.643726,145.191879 C191.508324,145.191879 193.778484,145.857888 195.454273,147.189926 C197.130063,148.521964 197.967945,150.36244 197.967945,152.71141 C197.967945,154.258293 197.488132,155.669086 196.528492,156.943832 C195.568852,158.218578 194.036315,159.378723 191.930836,160.424301 C194.480328,161.641755 196.292159,162.920063 197.366383,164.259262 C198.440607,165.598461 198.977711,167.148902 198.977711,168.910629 C198.977711,171.517413 198.068215,173.597796 196.249195,175.15184 C194.430176,176.705884 191.938013,177.482895 188.772633,177.482895 C185.421053,177.482895 182.842954,176.748853 181.038258,175.280746 C179.233561,173.81264 178.331226,171.732257 178.331226,169.039535 C178.331226,165.444465 180.522611,162.644363 184.905445,160.639145 C182.928873,159.521952 181.510918,158.315258 180.651539,157.019028 C179.79216,155.722797 179.362476,154.272616 179.362476,152.668442 C179.362476,150.391087 180.203939,148.575675 181.88689,147.222153 C183.569842,145.86863 185.822098,145.191879 188.643726,145.191879 Z M181.854664,169.125473 C181.854664,170.844232 182.45264,172.183411 183.648609,173.143051 C184.844579,174.102691 186.523924,174.582504 188.686695,174.582504 C190.82082,174.582504 192.482262,174.081207 193.67107,173.078598 C194.859878,172.075989 195.454273,170.701003 195.454273,168.953598 C195.454273,167.564268 194.895685,166.328929 193.778492,165.247543 C192.661299,164.166158 190.713402,163.117014 187.934742,162.100082 C185.800617,163.016754 184.253757,164.03009 183.294117,165.140121 C182.334477,166.250153 181.854664,167.57859 181.854664,169.125473 Z M188.600758,148.09227 C186.810384,148.09227 185.406752,148.521953 184.38982,149.381332 C183.372888,150.240712 182.86443,151.386533 182.86443,152.818832 C182.86443,154.136547 183.286951,155.268046 184.132008,156.213364 C184.977064,157.158681 186.538246,158.103984 188.815601,159.049301 C190.863789,158.189922 192.31397,157.266103 193.166187,156.277817 C194.018405,155.28953 194.444508,154.136547 194.444508,152.818832 C194.444508,151.37221 193.925307,150.222808 192.88689,149.37059 C191.848474,148.518372 190.419777,148.09227 188.600758,148.09227 Z M224.049976,159.049301 C224.049976,171.338425 219.294816,177.482895 209.784351,177.482895 C208.122885,177.482895 206.80519,177.339667 205.831226,177.053207 L205.831226,173.980942 C206.977065,174.353339 208.280438,174.539535 209.741383,174.539535 C213.1789,174.539535 215.774903,173.47607 217.529469,171.349106 C219.284035,169.222142 220.24008,165.96013 220.397633,161.562973 L220.13982,161.562973 C219.352056,162.751781 218.306493,163.657696 217.003101,164.280746 C215.699709,164.903796 214.231625,165.215317 212.598805,165.215317 C209.820145,165.215317 207.614438,164.384596 205.981617,162.723129 C204.348796,161.061663 203.532398,158.741373 203.532398,155.762192 C203.532398,152.49655 204.445475,149.918451 206.271656,148.027817 C208.097837,146.137182 210.500482,145.191879 213.479664,145.191879 C215.613789,145.191879 217.47933,145.739725 219.076344,146.835434 C220.673357,147.931142 221.901535,149.528132 222.760914,151.626449 C223.620293,153.724767 224.049976,156.199026 224.049976,159.049301 Z M213.479664,148.24266 C211.431477,148.24266 209.84881,148.901508 208.731617,150.219223 C207.614424,151.536938 207.055836,153.370253 207.055836,155.719223 C207.055836,157.781733 207.571456,159.403787 208.602711,160.585434 C209.633966,161.76708 211.20231,162.357895 213.307789,162.357895 C214.611181,162.357895 215.810713,162.092924 216.906422,161.562973 C218.00213,161.033022 218.865077,160.309722 219.495289,159.393051 C220.1255,158.47638 220.440601,157.516754 220.440601,156.514145 C220.440601,155.010231 220.146985,153.620922 219.559742,152.346176 C218.9725,151.07143 218.152521,150.068836 217.099781,149.338364 C216.047041,148.607891 214.840348,148.24266 213.479664,148.24266 Z M249.380055,161.30516 C249.380055,166.733573 248.524269,170.786918 246.812672,173.465317 C245.101075,176.143715 242.483588,177.482895 238.960133,177.482895 C235.579907,177.482895 233.00897,176.111489 231.247242,173.368637 C229.485514,170.625785 228.604664,166.604666 228.604664,161.30516 C228.604664,155.833779 229.456869,151.773273 231.161305,149.12352 C232.86574,146.473767 235.465324,145.14891 238.960133,145.14891 C242.369004,145.14891 244.957845,146.531058 246.726734,149.295395 C248.495623,152.059732 249.380055,156.062947 249.380055,161.30516 Z M232.214039,161.30516 C232.214039,165.874194 232.751143,169.200658 233.825367,171.284653 C234.899591,173.368647 236.611163,174.410629 238.960133,174.410629 C241.337749,174.410629 243.060062,173.354325 244.127125,171.241684 C245.194187,169.129043 245.727711,165.816902 245.727711,161.30516 C245.727711,156.793419 245.194187,153.488439 244.127125,151.390121 C243.060062,149.291804 241.337749,148.24266 238.960133,148.24266 C236.611163,148.24266 234.899591,149.277481 233.825367,151.347153 C232.751143,153.416824 232.214039,156.736127 232.214039,161.30516 Z" id="1234567890"></path>
                <path d="M12.9933358,98.4721526 L10.7374764,98.4721526 L9.64177329,75.7201995 L14.0890389,75.7201995 L12.9933358,98.4721526 Z M9.25505454,104.853012 C9.25505454,102.905086 10.1144209,101.931137 11.8331795,101.931137 C12.6639129,101.931137 13.304857,102.181786 13.7560311,102.68309 C14.2072052,103.184395 14.4327889,103.907695 14.4327889,104.853012 C14.4327889,105.769683 14.2036245,106.482241 13.7452889,106.990707 C13.2869533,107.499173 12.6495899,107.753403 11.8331795,107.753403 C11.0883842,107.753403 10.4725049,107.527819 9.98552329,107.076645 C9.49854169,106.625471 9.25505454,105.884267 9.25505454,104.853012 Z M54.6945077,91.4682464 C54.6945077,93.5021107 54.3794067,95.3640713 53.7491952,97.0541839 C53.1189837,98.7442965 52.2309717,100.05483 51.0851327,100.985824 C49.9392936,101.916819 48.6215984,102.382309 47.1320077,102.382309 C45.9002307,102.382309 44.8618296,102.009917 44.0167733,101.265121 C43.171717,100.520326 42.6704199,99.5678615 42.512867,98.4076995 L42.340992,98.4076995 C41.7680725,99.6537995 40.9480937,100.627748 39.8810311,101.329574 C38.8139685,102.031401 37.5499837,102.382309 36.0890389,102.382309 C33.9405907,102.382309 32.2612455,101.648267 31.050953,100.18016 C29.8406605,98.7120541 29.2355233,96.7176079 29.2355233,94.196762 C29.2355233,91.2748724 30.0805669,88.9008727 31.7706795,87.0746917 C33.4607922,85.2485107 35.680822,84.3354339 38.4308358,84.3354339 C39.404799,84.3354339 40.5076525,84.4249512 41.7394295,84.6039886 C42.9712065,84.7830259 44.0812215,85.0300938 45.0695077,85.3451995 L44.5323983,95.4428557 L44.5323983,95.915512 C44.5323983,98.4650039 45.4848627,99.7397307 47.3898202,99.7397307 C48.6932121,99.7397307 49.7530973,98.9698817 50.5695077,97.4301604 C51.385918,95.8904392 51.794117,93.8888316 51.794117,91.4252776 C51.794117,88.8328167 51.2641744,86.5626572 50.2042733,84.6147307 C49.1443722,82.6668043 47.6369003,81.1664938 45.6818124,80.1137542 C43.7267245,79.0610145 41.4816297,78.5346526 38.9464608,78.5346526 C35.7524344,78.5346526 32.9738164,79.1970809 30.6105233,80.5219573 C28.2472302,81.8468337 26.4425608,83.7374398 25.1964608,86.1938323 C23.9503608,88.6502248 23.3273202,91.4897146 23.3273202,94.712387 C23.3273202,99.0808984 24.4803034,102.439589 26.7863045,104.788559 C29.0923057,107.137529 32.4151891,108.311996 36.7550545,108.311996 C39.7628821,108.311996 42.8852467,107.696117 46.122242,106.46434 L46.122242,109.321762 C43.3722283,110.524893 40.2498637,111.126449 36.7550545,111.126449 C31.5558098,111.126449 27.5203684,109.697753 24.6486092,106.840317 C21.7768501,103.982881 20.340992,99.9904074 20.340992,94.8627776 C20.340992,91.1388007 21.1072604,87.8230786 22.6398202,84.915512 C24.1723799,82.0079454 26.3566029,79.7556893 29.1925545,78.1586761 C32.0285062,76.5616629 35.2797758,75.7631682 38.9464608,75.7631682 C42.0259033,75.7631682 44.7651337,76.4112737 47.1642342,77.7075042 C49.5633348,79.0037346 51.4181339,80.844211 52.7286874,83.2289886 C54.0392408,85.6137661 54.6945077,88.3601579 54.6945077,91.4682464 Z M32.4796639,94.2826995 C32.4796639,97.9207385 33.8761343,99.7397307 36.669117,99.7397307 C39.6339756,99.7397307 41.2452876,97.4982167 41.5031014,93.0151214 L41.8038827,87.4076995 C40.7726275,87.1212397 39.6482898,86.978012 38.4308358,86.978012 C36.5688473,86.978012 35.1115051,87.6225368 34.0587655,88.9116057 C33.0060258,90.2006747 32.4796639,91.9910214 32.4796639,94.2826995 Z M78.3702889,87.8159026 L76.9523202,95.1205901 L83.0323983,95.1205901 L83.0323983,97.8920745 L76.4366952,97.8920745 L74.6320077,107.130356 L71.6886483,107.130356 L73.4933358,97.8920745 L66.9835702,97.8920745 L65.2218514,107.130356 L62.2999764,107.130356 L64.0187264,97.8920745 L58.3898202,97.8920745 L58.3898202,95.1205901 L64.5558358,95.1205901 L66.0167733,87.8159026 L60.0656014,87.8159026 L60.0656014,85.087387 L66.4894295,85.087387 L68.2511483,75.7201995 L71.2374764,75.7201995 L69.4757577,85.087387 L76.028492,85.087387 L77.8331795,75.7201995 L80.7120858,75.7201995 L78.9073983,85.087387 L84.5792733,85.087387 L84.5792733,87.8159026 L78.3702889,87.8159026 Z M67.4991952,95.1205901 L74.0089608,95.1205901 L75.4269295,87.8159026 L68.9171639,87.8159026 L67.4991952,95.1205901 Z M107.975758,97.4838714 C107.975758,99.4317978 107.245296,101.039529 105.784351,102.307114 C104.323407,103.574698 102.282411,104.373193 99.6613045,104.702621 L99.6613045,109.686996 L96.8898202,109.686996 L96.8898202,104.895981 C95.2856455,104.895981 93.7316246,104.770656 92.2277108,104.520004 C90.723797,104.269352 89.4920385,103.922025 88.5323983,103.478012 L88.5323983,100.126449 C89.7212063,100.6564 91.0926119,101.089664 92.6466561,101.426254 C94.2007003,101.762844 95.6150742,101.931137 96.8898202,101.931137 L96.8898202,92.478012 C93.9536076,91.5470178 91.8947089,90.4656484 90.7130624,89.2338714 C89.5314158,88.0020944 88.9406014,86.4122665 88.9406014,84.4643401 C88.9406014,82.5880287 89.6674822,81.0483305 91.1212655,79.8451995 C92.5750488,78.6420685 94.4978811,77.911607 96.8898202,77.6537932 L96.8898202,73.743637 L99.6613045,73.743637 L99.6613045,77.6108245 C102.296734,77.6824394 104.839027,78.2123821 107.288258,79.2006682 L106.17107,82.0151214 C104.036945,81.1700651 101.867045,80.668768 99.6613045,80.5112151 L99.6613045,89.8354339 C101.910014,90.5515833 103.59294,91.2498185 104.710133,91.9301604 C105.827326,92.6105024 106.650885,93.3910935 107.180836,94.2719573 C107.710786,95.1528211 107.975758,96.2234484 107.975758,97.4838714 Z M104.323414,97.7631682 C104.323414,96.7319131 104.004732,95.8976115 103.367359,95.2602386 C102.729986,94.6228656 101.494647,93.9890829 99.6613045,93.3588714 L99.6613045,101.716293 C102.769393,101.286604 104.323414,99.9689084 104.323414,97.7631682 Z M92.5714608,84.4213714 C92.5714608,85.5099185 92.8937232,86.3836077 93.5382577,87.0424651 C94.1827921,87.7013226 95.2999685,88.3243632 96.8898202,88.9116057 L96.8898202,80.5971526 C95.4718443,80.8263204 94.3976363,81.2739071 93.6671639,81.9399261 C92.9366915,82.605945 92.5714608,83.4330852 92.5714608,84.4213714 Z M116.075367,85.087387 C116.075367,87.522295 116.340338,89.3484486 116.870289,90.5659026 C117.400239,91.7833566 118.259606,92.3920745 119.448414,92.3920745 C121.797384,92.3920745 122.971851,89.957203 122.971851,85.087387 C122.971851,80.246217 121.797384,77.8256682 119.448414,77.8256682 C118.259606,77.8256682 117.400239,78.4272247 116.870289,79.6303557 C116.340338,80.8334868 116.075367,82.652479 116.075367,85.087387 Z M125.915211,85.087387 C125.915211,88.3530283 125.367365,90.8201261 124.271656,92.4887542 C123.175948,94.1573823 121.568216,94.9916839 119.448414,94.9916839 C117.443196,94.9916839 115.885594,94.1394789 114.775562,92.4350432 C113.665531,90.7306076 113.110523,88.2814134 113.110523,85.087387 C113.110523,81.8360687 113.644047,79.3868744 114.711109,77.7397307 C115.778172,76.0925871 117.357258,75.2690276 119.448414,75.2690276 C121.525247,75.2690276 123.122236,76.1212326 124.23943,77.8256682 C125.356623,79.5301039 125.915211,81.9506526 125.915211,85.087387 Z M134.981617,97.6772307 C134.981617,100.126462 135.246588,101.956196 135.776539,103.166489 C136.306489,104.376781 137.173017,104.981918 138.376148,104.981918 C139.579279,104.981918 140.467291,104.383942 141.040211,103.187973 C141.61313,101.992003 141.899586,100.155108 141.899586,97.6772307 C141.899586,95.2279998 141.61313,93.4125882 141.040211,92.2309417 C140.467291,91.0492952 139.579279,90.4584807 138.376148,90.4584807 C137.173017,90.4584807 136.306489,91.0492952 135.776539,92.2309417 C135.246588,93.4125882 134.981617,95.2279998 134.981617,97.6772307 Z M144.842945,97.6772307 C144.842945,100.928549 144.295099,103.388485 143.19939,105.057114 C142.103682,106.725742 140.495951,107.560043 138.376148,107.560043 C136.342284,107.560043 134.777521,106.707838 133.681812,105.003403 C132.586104,103.298967 132.038258,100.856934 132.038258,97.6772307 C132.038258,94.4259124 132.571781,91.9767182 133.638844,90.3295745 C134.705906,88.6824308 136.284992,87.8588714 138.376148,87.8588714 C140.410013,87.8588714 141.99626,88.7003343 143.134937,90.3832854 C144.273615,92.0662366 144.842945,94.4975274 144.842945,97.6772307 Z M139.299976,75.7201995 L121.876148,107.130356 L118.717945,107.130356 L136.141773,75.7201995 L139.299976,75.7201995 Z M148.151539,95.2924651 L157.475758,75.4838714 L159.602711,75.4838714 L169.850758,95.2924651 L166.585133,95.2924651 L158.592945,79.2866057 L151.417164,95.2924651 L148.151539,95.2924651 Z M179.840992,81.9721526 C179.840992,82.9604388 180.098802,83.9021612 180.61443,84.7973479 C181.130057,85.6925347 182.010908,86.7703234 183.257008,88.0307464 C185.104673,86.9565223 186.390142,85.9646702 187.113453,85.0551604 C187.836764,84.1456507 188.198414,83.0965075 188.198414,81.9076995 C188.198414,80.8048294 187.829603,79.9060754 187.091969,79.2114104 C186.354335,78.5167455 185.369644,78.1694182 184.137867,78.1694182 C182.863121,78.1694182 181.828301,78.5131648 181.033375,79.2006682 C180.238449,79.8881717 179.840992,80.8119906 179.840992,81.9721526 Z M183.17107,104.358871 C186.62291,104.358871 189.487465,103.256018 191.76482,101.050278 L182.376148,91.9409026 C180.786297,92.9148658 179.661959,93.7205218 179.003101,94.3578948 C178.344244,94.9952678 177.85727,95.6791802 177.542164,96.4096526 C177.227058,97.140125 177.069508,97.9708459 177.069508,98.9018401 C177.069508,100.57763 177.624515,101.906067 178.734547,102.887192 C179.844578,103.868316 181.323405,104.358871 183.17107,104.358871 Z M173.374195,98.9877776 C173.374195,97.1257891 173.871912,95.4786702 174.867359,94.0463714 C175.862807,92.6140725 177.649573,91.1674724 180.227711,89.7065276 C179.010257,88.3458437 178.183117,87.314604 177.746265,86.6127776 C177.309414,85.9109512 176.962087,85.1804898 176.704273,84.4213714 C176.44646,83.662253 176.317555,82.8745005 176.317555,82.0580901 C176.317555,79.9096419 177.01937,78.2338774 178.423023,77.0307464 C179.826676,75.8276154 181.781735,75.2260589 184.288258,75.2260589 C186.608582,75.2260589 188.434735,75.8240347 189.766773,77.0200042 C191.098811,78.2159737 191.76482,79.8809961 191.76482,82.0151214 C191.76482,83.5476811 191.277846,84.962055 190.303883,86.2582854 C189.329919,87.5545159 187.718607,88.8686303 185.469898,90.2006682 L194.214039,98.6010589 C195.016126,97.7130336 195.65707,96.6710518 196.13689,95.4750823 C196.616711,94.2791128 197.021329,92.9721597 197.350758,91.5541839 L200.960133,91.5541839 C199.986169,95.6505585 198.518085,98.7586004 196.555836,100.878403 L202.979664,107.130356 L198.059742,107.130356 L194.085133,103.306137 C192.39502,104.824374 190.676287,105.912905 188.928883,106.571762 C187.181478,107.230619 185.233581,107.560043 183.085133,107.560043 C180.00569,107.560043 177.617368,106.800936 175.920094,105.282699 C174.222819,103.764463 173.374195,101.666176 173.374195,98.9877776 Z M217.180836,73.7006682 L216.257008,82.1869964 L224.807789,79.8022307 L225.366383,83.712387 L217.180836,84.3784026 L222.508961,91.3823089 L218.813648,93.4018401 L215.032398,85.6244964 L211.594898,93.4018401 L207.813648,91.3823089 L213.012867,84.3784026 L204.913258,83.712387 L205.536305,79.8022307 L213.936695,82.1869964 L213.012867,73.7006682 L217.180836,73.7006682 Z M240.534351,95.0776214 C240.534351,91.2820295 241.089359,87.7299817 242.19939,84.4213714 C243.309422,81.1127611 244.909992,78.2123995 247.001148,75.7201995 L250.481617,75.7201995 C248.419107,78.4845362 246.868667,81.5209642 245.83025,84.8295745 C244.791833,88.1381848 244.272633,91.5398435 244.272633,95.0346526 C244.272633,98.4721698 244.802575,101.83086 245.862476,105.110824 C246.922378,108.390789 248.447753,111.384248 250.438648,114.091293 L247.001148,114.091293 C244.895669,111.656385 243.291518,108.813315 242.188648,105.561996 C241.085778,102.310678 240.534351,98.8159213 240.534351,95.0776214 Z M263.049976,95.0776214 C263.049976,98.8445673 262.494969,102.353647 261.384937,105.604965 C260.274906,108.856283 258.674336,111.685031 256.58318,114.091293 L253.14568,114.091293 C255.136575,111.398571 256.66195,108.408692 257.721851,105.121567 C258.781753,101.834441 259.311695,98.4721698 259.311695,95.0346526 C259.311695,91.5398435 258.792495,88.1381848 257.754078,84.8295745 C256.715661,81.5209642 255.165221,78.4845362 253.102711,75.7201995 L256.58318,75.7201995 C258.688659,78.2267224 260.292809,81.1378261 261.39568,84.4535979 C262.49855,87.7693697 263.049976,91.3106755 263.049976,95.0776214 Z M286.446461,106.872543 C286.446461,108.333488 286.865402,109.393373 287.703297,110.052231 C288.541192,110.711088 289.769369,111.054835 291.387867,111.083481 L291.387867,114.091293 C288.666499,114.062647 286.561052,113.439607 285.071461,112.222153 C283.58187,111.004699 282.837086,109.293127 282.837086,107.087387 L282.837086,100.577621 C282.837086,99.0880306 282.385918,98.0245647 281.48357,97.3871917 C280.581222,96.7498187 279.270688,96.431137 277.55193,96.431137 L277.55193,93.4018401 C279.413918,93.3731941 280.760259,93.0294476 281.590992,92.3705901 C282.421725,91.7117327 282.837086,90.6948157 282.837086,89.3198089 L282.837086,82.7455901 C282.837086,80.5255269 283.610516,78.7996327 285.157398,77.5678557 C286.704281,76.3360788 288.781083,75.7201995 291.387867,75.7201995 L291.387867,78.7065276 C288.09358,78.7924656 286.446461,80.2175815 286.446461,82.9819182 L286.446461,89.3198089 C286.446461,92.3992514 284.849472,94.2182436 281.655445,94.7768401 L281.655445,95.0346526 C284.849472,95.5932492 286.446461,97.4122414 286.446461,100.491684 L286.446461,106.872543 Z M304.128101,94.7768401 C300.934075,94.2182436 299.337086,92.3992514 299.337086,89.3198089 L299.337086,82.9819182 C299.337086,80.2175815 297.711451,78.7924656 294.460133,78.7065276 L294.460133,75.7201995 C297.095563,75.7201995 299.168784,76.3432401 300.679859,77.5893401 C302.190934,78.8354401 302.946461,80.5541729 302.946461,82.7455901 L302.946461,89.3198089 C302.946461,90.7091387 303.368983,91.7296363 304.214039,92.3813323 C305.059095,93.0330283 306.412597,93.3731941 308.274586,93.4018401 L308.274586,96.431137 C306.527181,96.431137 305.202325,96.7498187 304.299976,97.3871917 C303.397628,98.0245647 302.946461,99.0880306 302.946461,100.577621 L302.946461,107.087387 C302.946461,109.278804 302.212419,110.986795 300.744312,112.21141 C299.276206,113.436026 297.1815,114.062647 294.460133,114.091293 L294.460133,111.083481 C296.049984,111.054835 297.260259,110.711088 298.090992,110.052231 C298.921725,109.393373 299.337086,108.333488 299.337086,106.872543 L299.337086,100.491684 C299.337086,98.8588632 299.730962,97.6127819 300.518726,96.7534026 C301.306491,95.8940233 302.509604,95.3211124 304.128101,95.0346526 L304.128101,94.7768401 Z M324.280445,104.853012 C324.280445,103.893372 324.498867,103.166491 324.935719,102.672348 C325.37257,102.178205 325.999191,101.931137 326.815601,101.931137 C327.646335,101.931137 328.29444,102.178205 328.759937,102.672348 C329.225434,103.166491 329.45818,103.893372 329.45818,104.853012 C329.45818,105.784006 329.221854,106.500145 328.749195,107.001449 C328.276537,107.502754 327.632012,107.753403 326.815601,107.753403 C326.085129,107.753403 325.479992,107.527819 325.000172,107.076645 C324.520352,106.625471 324.280445,105.884267 324.280445,104.853012 Z M324.280445,85.8823089 C324.280445,83.9487055 325.125489,82.9819182 326.815601,82.9819182 C328.577329,82.9819182 329.45818,83.9487055 329.45818,85.8823089 C329.45818,86.8133031 329.221854,87.5294418 328.749195,88.0307464 C328.276537,88.532051 327.632012,88.7826995 326.815601,88.7826995 C326.085129,88.7826995 325.479992,88.5571158 325.000172,88.1059417 C324.520352,87.6547676 324.280445,86.913564 324.280445,85.8823089 Z M351.673023,102.017074 L351.995289,102.511215 C351.622891,103.943514 351.085787,105.608536 350.383961,107.506332 C349.682134,109.404128 348.951673,111.16941 348.192555,112.802231 L345.507008,112.802231 C345.893728,111.31264 346.319831,109.472164 346.785328,107.280746 C347.250825,105.089329 347.576668,103.334789 347.762867,102.017074 L351.673023,102.017074 Z M347.311695,85.8823089 C347.311695,83.9487055 348.1639,82.9819182 349.868336,82.9819182 C351.630063,82.9819182 352.510914,83.9487055 352.510914,85.8823089 C352.510914,86.8133031 352.274588,87.5294418 351.80193,88.0307464 C351.329271,88.532051 350.684746,88.7826995 349.868336,88.7826995 C349.037602,88.7826995 348.40382,88.532051 347.966969,88.0307464 C347.530117,87.5294418 347.311695,86.8133031 347.311695,85.8823089 Z" id="!@#$%^&amp;*-()-{}-:-;"></path>
            </g>
        </g>
    </g>
</svg>