<?xml version="1.0" encoding="UTF-8" standalone="no"?>
<svg width="181px" height="210px" viewBox="0 0 181 210" version="1.1" xmlns="http://www.w3.org/2000/svg" xmlns:xlink="http://www.w3.org/1999/xlink">
    <!-- Generator: Sketch 44.1 (41455) - http://www.bohemiancoding.com/sketch -->
    <title>Group 21</title>
    <desc>Created with Sketch.</desc>
    <defs></defs>
    <g id="Page-1" stroke="none" stroke-width="1" fill="none" fill-rule="evenodd">
        <g id="Artboard-Copy-18" transform="translate(-1259.000000, -1005.000000)">
            <g id="Group-21" transform="translate(1259.133905, 1005.053207)">
                <rect id="Rectangle-18" fill="#FFFFFF" x="0" y="0" width="180" height="209.737941"></rect>
                <path d="M16.0140059,130.153019 C15.1585329,130.113956 14.3343224,129.922552 13.5413497,129.5788 L13.5413497,127.633488 C13.994477,127.863958 14.4866595,128.056339 15.0179122,128.210636 C15.5491648,128.364934 16.0159571,128.442082 16.4183028,128.442082 C16.7503357,128.442082 16.9934974,128.402043 17.147795,128.321964 C17.3020927,128.241886 17.3792403,128.108098 17.3792403,127.920597 C17.3792403,127.79169 17.3235768,127.682317 17.2122481,127.592472 C17.1009194,127.502628 16.9153744,127.401067 16.6556075,127.287785 C16.3958406,127.174503 16.0452581,127.037786 15.6038497,126.877629 C15.1077535,126.694034 14.7073668,126.487981 14.4026778,126.259464 C14.0979888,126.030948 13.8763113,125.775091 13.7376388,125.491886 C13.5989662,125.208682 13.5296309,124.856146 13.5296309,124.434269 C13.5296309,123.789735 13.7366601,123.285833 14.1507247,122.92255 C14.5647893,122.559267 15.1858768,122.33466 16.0140059,122.248722 L16.0140059,121.445988 L17.2268966,121.445988 L17.2268966,122.237004 C18.0042442,122.279973 18.7874395,122.471377 19.5765059,122.811222 L18.8792403,124.481144 C18.06283,124.113955 17.3265092,123.930363 16.6702559,123.930363 C16.3577544,123.930363 16.13803,123.968448 16.0110763,124.044621 C15.8841225,124.120793 15.8206466,124.233097 15.8206466,124.381535 C15.8206466,124.510442 15.8665445,124.616886 15.9583419,124.700871 C16.0501392,124.784856 16.2093173,124.878605 16.4358809,124.982121 C16.6624446,125.085637 16.9768946,125.205753 17.3792403,125.342472 C18.1956506,125.631536 18.7815823,125.960635 19.1370528,126.329777 C19.4925233,126.698919 19.6702559,127.174501 19.6702559,127.756535 C19.6702559,128.412788 19.4622502,128.945986 19.0462325,129.356144 C18.6302148,129.766302 18.0237756,130.020206 17.2268966,130.117863 L17.2268966,131.248722 L16.0140059,131.248722 L16.0140059,130.153019 Z M23.9065841,130.668644 C22.8206411,130.668644 21.9974072,130.375678 21.4368575,129.789738 C20.8763078,129.203798 20.5960372,128.362009 20.5960372,127.264347 C20.5960372,126.162779 20.8987685,125.309272 21.5042403,124.7038 C22.1097121,124.098329 22.9710316,123.795597 24.0882247,123.795597 C24.8577598,123.795597 25.5823619,123.963564 26.2620528,124.299504 L25.5882247,125.992863 C25.3108796,125.871769 25.0550227,125.77509 24.8206466,125.702824 C24.5862704,125.630558 24.3421322,125.594425 24.0882247,125.594425 C23.7171291,125.594425 23.4300226,125.738955 23.2268966,126.028019 C23.0237706,126.317083 22.9222091,126.725282 22.9222091,127.252629 C22.9222091,128.315134 23.3147833,128.846379 24.0999434,128.846379 C24.7718218,128.846379 25.4163466,128.651068 26.0335372,128.260441 L26.0335372,130.082707 C25.4436905,130.473334 24.7347132,130.668644 23.9065841,130.668644 Z M33.6917403,127.217472 C33.6917403,128.303415 33.399751,129.150086 32.8157638,129.757511 C32.2317765,130.364936 31.4144018,130.668644 30.3636153,130.668644 C29.3557978,130.668644 28.554048,130.3581 27.9583419,129.737004 C27.3626358,129.115907 27.0647872,128.276071 27.0647872,127.217472 C27.0647872,126.135436 27.3567765,125.294624 27.9407638,124.695011 C28.524751,124.095399 29.3440788,123.795597 30.3987716,123.795597 C31.0511186,123.795597 31.6272847,123.934268 32.1272872,124.211613 C32.6272897,124.488958 33.013028,124.886415 33.2845138,125.403996 C33.5559995,125.921576 33.6917403,126.526063 33.6917403,127.217472 Z M29.3909591,127.217472 C29.3909591,127.787788 29.4671302,128.222354 29.6194747,128.521183 C29.7718192,128.820013 30.027676,128.969425 30.3870528,128.969425 C30.7425233,128.969425 30.9934974,128.820013 31.1399825,128.521183 C31.2864676,128.222354 31.3597091,127.787788 31.3597091,127.217472 C31.3597091,126.651063 31.2854911,126.223333 31.1370528,125.934269 C30.9886146,125.645205 30.7347109,125.500675 30.3753341,125.500675 C30.0237698,125.500675 29.7718192,125.644229 29.6194747,125.931339 C29.4671302,126.21845 29.3909591,126.647157 29.3909591,127.217472 Z M37.2893966,130.551457 L34.9983809,130.551457 L34.9983809,121.434269 L37.2893966,121.434269 L37.2893966,130.551457 Z M45.2171309,127.217472 C45.2171309,128.303415 44.9251417,129.150086 44.3411544,129.757511 C43.7571671,130.364936 42.9397924,130.668644 41.8890059,130.668644 C40.8811884,130.668644 40.0794386,130.3581 39.4837325,129.737004 C38.8880264,129.115907 38.5901778,128.276071 38.5901778,127.217472 C38.5901778,126.135436 38.8821671,125.294624 39.4661544,124.695011 C40.0501417,124.095399 40.8694694,123.795597 41.9241622,123.795597 C42.5765092,123.795597 43.1526753,123.934268 43.6526778,124.211613 C44.1526803,124.488958 44.5384186,124.886415 44.8099044,125.403996 C45.0813901,125.921576 45.2171309,126.526063 45.2171309,127.217472 Z M40.9163497,127.217472 C40.9163497,127.787788 40.9925208,128.222354 41.1448653,128.521183 C41.2972098,128.820013 41.5530666,128.969425 41.9124434,128.969425 C42.267914,128.969425 42.518888,128.820013 42.6653731,128.521183 C42.8118582,128.222354 42.8850997,127.787788 42.8850997,127.217472 C42.8850997,126.651063 42.8108817,126.223333 42.6624434,125.934269 C42.5140052,125.645205 42.2601015,125.500675 41.9007247,125.500675 C41.5491604,125.500675 41.2972098,125.644229 41.1448653,125.931339 C40.9925208,126.21845 40.9163497,126.647157 40.9163497,127.217472 Z M50.5315841,123.795597 C50.7308038,123.795597 50.920255,123.811222 51.0999434,123.842472 L51.2288497,123.86591 L51.0237716,126.028019 C50.8362706,125.981144 50.5765076,125.957707 50.2444747,125.957707 C49.7444722,125.957707 49.3811946,126.071963 49.1546309,126.30048 C48.9280673,126.528997 48.8147872,126.858095 48.8147872,127.287785 L48.8147872,130.551457 L46.5237716,130.551457 L46.5237716,123.912785 L48.2288497,123.912785 L48.5862716,124.973332 L48.6975997,124.973332 C48.8890069,124.621767 49.1556058,124.337591 49.4974044,124.120793 C49.839203,123.903995 50.1839261,123.795597 50.5315841,123.795597 Z M51.6155684,128.248722 L51.6155684,126.420597 L54.9261153,126.420597 L54.9261153,128.248722 L51.6155684,128.248722 Z M58.2600997,130.551457 L55.9690841,130.551457 L55.9690841,121.434269 L58.2600997,121.434269 L58.2600997,130.551457 Z M62.1507247,130.551457 L59.8597091,130.551457 L59.8597091,123.912785 L62.1507247,123.912785 L62.1507247,130.551457 Z M59.8011153,122.260441 C59.8011153,121.916689 59.8968175,121.660833 60.0882247,121.492863 C60.2796319,121.324893 60.5882226,121.24091 61.0140059,121.24091 C61.4397893,121.24091 61.7503331,121.326846 61.9456466,121.498722 C62.14096,121.670598 62.2386153,121.924502 62.2386153,122.260441 C62.2386153,122.932319 61.8304163,123.268254 61.0140059,123.268254 C60.2054081,123.268254 59.8011153,122.932319 59.8011153,122.260441 Z M70.0140059,123.912785 L70.0140059,125.020207 L69.1058028,125.354191 C69.2308034,125.580755 69.2933028,125.844424 69.2933028,126.145207 C69.2933028,126.860054 69.0423288,127.414736 68.5403731,127.809269 C68.0384175,128.203802 67.2894015,128.401066 66.2933028,128.401066 C66.0472078,128.401066 65.8518973,128.385441 65.7073653,128.354191 C65.6526775,128.455754 65.6253341,128.551456 65.6253341,128.6413 C65.6253341,128.754582 65.71713,128.841495 65.9007247,128.902043 C66.0843194,128.96259 66.3245513,128.992863 66.6214278,128.992863 L67.7229903,128.992863 C69.211279,128.992863 69.9554122,129.61981 69.9554122,130.873722 C69.9554122,131.68232 69.6106891,132.31122 68.9212325,132.760441 C68.2317759,133.209662 67.2640122,133.434269 66.0179122,133.434269 C65.0765012,133.434269 64.3509226,133.277044 63.8411544,132.962589 C63.3313862,132.648135 63.0765059,132.195991 63.0765059,131.606144 C63.0765059,130.813171 63.5686885,130.301458 64.5530684,130.070988 C64.3499424,129.98505 64.1731864,129.84638 64.022795,129.654972 C63.8724036,129.463565 63.7972091,129.274114 63.7972091,129.086613 C63.7972091,128.879581 63.8538491,128.696965 63.9671309,128.538761 C64.0804128,128.380557 64.3167385,128.192083 64.6761153,127.973332 C64.3323636,127.820987 64.0618585,127.582708 63.8645919,127.258488 C63.6673253,126.934268 63.5686934,126.53974 63.5686934,126.074894 C63.5686934,125.352234 63.8147847,124.791693 64.3069747,124.393254 C64.7991647,123.994814 65.5022826,123.795597 66.4163497,123.795597 C66.537444,123.795597 66.7464263,123.809269 67.0433028,123.836613 C67.3401793,123.863957 67.5589271,123.889347 67.6995528,123.912785 L70.0140059,123.912785 Z M65.0100997,131.377629 C65.0100997,131.565129 65.1116612,131.716495 65.3147872,131.83173 C65.5179132,131.946965 65.7893949,132.004582 66.1292403,132.004582 C66.6839306,132.004582 67.1282621,131.935246 67.4622481,131.796574 C67.7962342,131.657901 67.9632247,131.479192 67.9632247,131.260441 C67.9632247,131.084659 67.8616632,130.960637 67.6585372,130.888371 C67.4554112,130.816105 67.1643985,130.779972 66.7854903,130.779972 L65.8890059,130.779972 C65.642911,130.779972 65.4349052,130.837589 65.2649825,130.952824 C65.0950598,131.068059 65.0100997,131.209659 65.0100997,131.377629 Z M65.7308028,126.086613 C65.7308028,126.766304 65.9671286,127.106144 66.4397872,127.106144 C66.6585383,127.106144 66.8274819,127.022161 66.9466231,126.854191 C67.0657644,126.686221 67.1253341,126.434271 67.1253341,126.098332 C67.1253341,125.410828 66.8968207,125.067082 66.4397872,125.067082 C65.9671286,125.067082 65.7308028,125.406922 65.7308028,126.086613 Z M75.1995528,130.551457 L75.1995528,126.930363 C75.1995528,126.039733 74.9358836,125.594425 74.4085372,125.594425 C74.0335353,125.594425 73.7571709,125.75165 73.5794356,126.066105 C73.4017004,126.38056 73.3128341,126.903016 73.3128341,127.633488 L73.3128341,130.551457 L71.0218184,130.551457 L71.0218184,121.434269 L73.3128341,121.434269 L73.3128341,122.729191 C73.3128341,123.315131 73.2815844,123.983094 73.2190841,124.733097 L73.3245528,124.733097 C73.5433039,124.389346 73.8030669,124.147161 74.1038497,124.006535 C74.4046324,123.865909 74.7542383,123.795597 75.1526778,123.795597 C75.894869,123.795597 76.4720117,124.009462 76.8841231,124.437199 C77.2962346,124.864935 77.5022872,125.463562 77.5022872,126.233097 L77.5022872,130.551457 L75.1995528,130.551457 Z M82.3128341,128.858097 C82.6214294,128.858097 82.9905663,128.781926 83.4202559,128.629582 L83.4202559,130.299504 C83.1116606,130.432317 82.8177183,130.527042 82.53842,130.583683 C82.2591217,130.640324 81.9319766,130.668644 81.5569747,130.668644 C80.7874396,130.668644 80.2327576,130.48017 79.8929122,130.103214 C79.5530667,129.726259 79.3831466,129.147164 79.3831466,128.36591 L79.3831466,125.629582 L78.5804122,125.629582 L78.5804122,124.697941 L79.5999434,123.977238 L80.1917403,122.582707 L81.6917403,122.582707 L81.6917403,123.912785 L83.3206466,123.912785 L83.3206466,125.629582 L81.6917403,125.629582 L81.6917403,128.213566 C81.6917403,128.643256 81.8987695,128.858097 82.3128341,128.858097 Z M87.7854903,130.668644 C86.680016,130.668644 85.8216262,130.374702 85.210295,129.786808 C84.5989638,129.198915 84.2933028,128.362009 84.2933028,127.276066 C84.2933028,126.154967 84.5765031,125.294624 85.1429122,124.695011 C85.7093213,124.095399 86.5179069,123.795597 87.5686934,123.795597 C88.5686984,123.795597 89.3411517,124.056337 89.8860763,124.577824 C90.4310009,125.099311 90.7034591,125.85028 90.7034591,126.830754 L90.7034591,127.850285 L86.6077559,127.850285 C86.623381,128.22138 86.7591219,128.512393 87.0149825,128.723332 C87.2708432,128.93427 87.6194725,129.039738 88.0608809,129.039738 C88.4632267,129.039738 88.8333402,129.001652 89.1712325,128.92548 C89.5091248,128.849308 89.8753321,128.719426 90.2698653,128.535832 L90.2698653,130.182316 C89.9104885,130.365911 89.5393985,130.492863 89.1565841,130.563175 C88.7737697,130.633488 88.316743,130.668644 87.7854903,130.668644 Z M87.6507247,125.354191 C87.3811921,125.354191 87.1556084,125.439151 86.9739669,125.609074 C86.7923253,125.778997 86.6858811,126.045595 86.6546309,126.408879 L88.6233809,126.408879 C88.6155684,126.088564 88.524749,125.832708 88.35092,125.6413 C88.177091,125.449893 87.9436949,125.354191 87.6507247,125.354191 Z M97.1253341,128.512394 C97.1253341,129.223335 96.883149,129.760439 96.3987716,130.123722 C95.9143941,130.487005 95.2190886,130.668644 94.3128341,130.668644 C93.8206441,130.668644 93.392914,130.642277 93.0296309,130.589543 C92.6663479,130.536808 92.2952578,130.440129 91.9163497,130.299504 L91.9163497,128.465519 C92.2718202,128.62177 92.6614648,128.750675 93.085295,128.852238 C93.5091252,128.953801 93.8870512,129.004582 94.2190841,129.004582 C94.7151803,129.004582 94.9632247,128.891302 94.9632247,128.664738 C94.9632247,128.54755 94.8938894,128.443059 94.7552169,128.351261 C94.6165443,128.259464 94.213228,128.080755 93.5452559,127.815129 C92.9358779,127.565127 92.5101009,127.28095 92.2679122,126.962589 C92.0257235,126.644229 91.9046309,126.240912 91.9046309,125.752629 C91.9046309,125.135438 92.1429098,124.654974 92.6194747,124.311222 C93.0960396,123.967471 93.769861,123.795597 94.6409591,123.795597 C95.0784613,123.795597 95.48959,123.843448 95.8743575,123.939152 C96.2591251,124.034856 96.6585351,124.174503 97.0725997,124.358097 L96.4515059,125.83466 C96.1468169,125.69794 95.8245545,125.581731 95.4847091,125.486027 C95.1448636,125.390323 94.8675226,125.342472 94.6526778,125.342472 C94.2776759,125.342472 94.0901778,125.434268 94.0901778,125.617863 C94.0901778,125.731145 94.1556069,125.827823 94.2864669,125.907902 C94.4173269,125.987981 94.7952528,126.151065 95.4202559,126.39716 C95.885102,126.588567 96.2317782,126.776065 96.460295,126.95966 C96.6888118,127.143254 96.8567788,127.359073 96.9642013,127.607121 C97.0716237,127.855169 97.1253341,128.156924 97.1253341,128.512394 Z M101.648772,128.858097 C101.957367,128.858097 102.326504,128.781926 102.756193,128.629582 L102.756193,130.299504 C102.447598,130.432317 102.153656,130.527042 101.874358,130.583683 C101.595059,130.640324 101.267914,130.668644 100.892912,130.668644 C100.123377,130.668644 99.5686951,130.48017 99.2288497,130.103214 C98.8890042,129.726259 98.7190841,129.147164 98.7190841,128.36591 L98.7190841,125.629582 L97.9163497,125.629582 L97.9163497,124.697941 L98.9358809,123.977238 L99.5276778,122.582707 L101.027678,122.582707 L101.027678,123.912785 L102.656584,123.912785 L102.656584,125.629582 L101.027678,125.629582 L101.027678,128.213566 C101.027678,128.643256 101.234707,128.858097 101.648772,128.858097 Z M103.62924,129.5788 C103.62924,129.219424 103.735685,128.942083 103.948576,128.746769 C104.161468,128.551456 104.471035,128.4538 104.877287,128.4538 C105.264008,128.4538 105.56088,128.551456 105.767912,128.746769 C105.974944,128.942083 106.078459,129.219424 106.078459,129.5788 C106.078459,129.930365 105.972015,130.204776 105.759123,130.402043 C105.546231,130.599309 105.252289,130.697941 104.877287,130.697941 C104.490567,130.697941 104.185882,130.600286 103.963225,130.404972 C103.740567,130.209659 103.62924,129.934271 103.62924,129.5788 Z M103.62924,124.949894 C103.62924,124.594424 103.736661,124.319036 103.951506,124.123722 C104.166351,123.928409 104.474941,123.830754 104.877287,123.830754 C105.264008,123.830754 105.56088,123.928409 105.767912,124.123722 C105.974944,124.319036 106.078459,124.594424 106.078459,124.949894 C106.078459,125.301458 105.972991,125.576846 105.762053,125.776066 C105.551114,125.975286 105.256195,126.074894 104.877287,126.074894 C104.478848,126.074894 104.171234,125.975286 103.954436,125.776066 C103.737638,125.576846 103.62924,125.301458 103.62924,124.949894 Z M115.81674,125.787785 L115.640959,126.77216 L117.064787,126.77216 L117.064787,128.260441 L115.365568,128.260441 L114.931975,130.551457 L113.361662,130.551457 L113.789397,128.260441 L112.805022,128.260441 L112.389006,130.551457 L110.824553,130.551457 L111.246428,128.260441 L109.928068,128.260441 L109.928068,126.77216 L111.533537,126.77216 L111.715178,125.787785 L110.320647,125.787785 L110.320647,124.264347 L112.002287,124.264347 L112.424162,121.98505 L113.994475,121.98505 L113.560881,124.264347 L114.533537,124.264347 L114.955412,121.98505 L116.525725,121.98505 L116.09799,124.264347 L117.439787,124.264347 L117.439787,125.787785 L115.81674,125.787785 Z M113.09799,126.77216 L114.064787,126.77216 L114.246428,125.787785 L113.273772,125.787785 L113.09799,126.77216 Z M122.502287,125.629582 L121.090178,125.629582 L121.090178,130.551457 L118.799162,130.551457 L118.799162,125.629582 L117.920256,125.629582 L117.920256,124.504582 L118.846037,123.942082 L118.846037,123.830754 C118.846037,122.955749 119.024746,122.326849 119.38217,121.944035 C119.739594,121.56122 120.31283,121.369816 121.101897,121.369816 C121.406586,121.369816 121.694669,121.393253 121.966154,121.440129 C122.23764,121.487004 122.553067,121.569034 122.912443,121.686222 L122.420256,123.168644 C122.139005,123.090519 121.863617,123.051457 121.594084,123.051457 C121.418302,123.051457 121.290374,123.105167 121.210295,123.212589 C121.130216,123.320012 121.090178,123.494815 121.090178,123.737004 L121.090178,123.912785 L122.502287,123.912785 L122.502287,125.629582 Z M127.459318,125.629582 L126.047209,125.629582 L126.047209,130.551457 L123.756193,130.551457 L123.756193,125.629582 L122.877287,125.629582 L122.877287,124.504582 L123.803068,123.942082 L123.803068,123.830754 C123.803068,122.955749 123.981778,122.326849 124.339201,121.944035 C124.696625,121.56122 125.269861,121.369816 126.058928,121.369816 C126.363617,121.369816 126.6517,121.393253 126.923186,121.440129 C127.194671,121.487004 127.510098,121.569034 127.869475,121.686222 L127.377287,123.168644 C127.096036,123.090519 126.820648,123.051457 126.551115,123.051457 C126.375333,123.051457 126.247405,123.105167 126.167326,123.212589 C126.087248,123.320012 126.047209,123.494815 126.047209,123.737004 L126.047209,123.912785 L127.459318,123.912785 L127.459318,125.629582 Z M132.41635,125.629582 L131.00424,125.629582 L131.00424,130.551457 L128.713225,130.551457 L128.713225,125.629582 L127.834318,125.629582 L127.834318,124.504582 L128.7601,123.942082 L128.7601,123.830754 C128.7601,122.955749 128.938809,122.326849 129.296233,121.944035 C129.653656,121.56122 130.226893,121.369816 131.015959,121.369816 C131.320648,121.369816 131.608731,121.393253 131.880217,121.440129 C132.151703,121.487004 132.467129,121.569034 132.826506,121.686222 L132.334318,123.168644 C132.053067,123.090519 131.777679,123.051457 131.508147,123.051457 C131.332364,123.051457 131.204436,123.105167 131.124358,123.212589 C131.044279,123.320012 131.00424,123.494815 131.00424,123.737004 L131.00424,123.912785 L132.41635,123.912785 L132.41635,125.629582 Z M137.373381,125.629582 L135.961272,125.629582 L135.961272,130.551457 L133.670256,130.551457 L133.670256,125.629582 L132.79135,125.629582 L132.79135,124.504582 L133.717131,123.942082 L133.717131,123.830754 C133.717131,122.955749 133.89584,122.326849 134.253264,121.944035 C134.610687,121.56122 135.183924,121.369816 135.97299,121.369816 C136.277679,121.369816 136.565762,121.393253 136.837248,121.440129 C137.108734,121.487004 137.42416,121.569034 137.783537,121.686222 L137.29135,123.168644 C137.010098,123.090519 136.73471,123.051457 136.465178,123.051457 C136.289396,123.051457 136.161467,123.105167 136.081389,123.212589 C136.00131,123.320012 135.961272,123.494815 135.961272,123.737004 L135.961272,123.912785 L137.373381,123.912785 L137.373381,125.629582 Z M142.330412,125.629582 L140.918303,125.629582 L140.918303,130.551457 L138.627287,130.551457 L138.627287,125.629582 L137.748381,125.629582 L137.748381,124.504582 L138.674162,123.942082 L138.674162,123.830754 C138.674162,122.955749 138.852871,122.326849 139.210295,121.944035 C139.567719,121.56122 140.140955,121.369816 140.930022,121.369816 C141.234711,121.369816 141.522794,121.393253 141.794279,121.440129 C142.065765,121.487004 142.381192,121.569034 142.740568,121.686222 L142.248381,123.168644 C141.96713,123.090519 141.691742,123.051457 141.422209,123.051457 C141.246427,123.051457 141.118499,123.105167 141.03842,123.212589 C140.958341,123.320012 140.918303,123.494815 140.918303,123.737004 L140.918303,123.912785 L142.330412,123.912785 L142.330412,125.629582 Z M147.287443,125.629582 L145.875334,125.629582 L145.875334,130.551457 L143.584318,130.551457 L143.584318,125.629582 L142.705412,125.629582 L142.705412,124.504582 L143.631193,123.942082 L143.631193,123.830754 C143.631193,122.955749 143.809903,122.326849 144.167326,121.944035 C144.52475,121.56122 145.097986,121.369816 145.887053,121.369816 C146.191742,121.369816 146.479825,121.393253 146.751311,121.440129 C147.022796,121.487004 147.338223,121.569034 147.6976,121.686222 L147.205412,123.168644 C146.924161,123.090519 146.648773,123.051457 146.37924,123.051457 C146.203458,123.051457 146.07553,123.105167 145.995451,123.212589 C145.915373,123.320012 145.875334,123.494815 145.875334,123.737004 L145.875334,123.912785 L147.287443,123.912785 L147.287443,125.629582 Z" id="$color-lightest:-#ff" fill="#000000"></path>
                <path d="M20.7073653,145.161015 L20.7073653,150.703984 C20.7073653,151.680551 20.4124464,152.448121 19.8225997,153.006718 C19.232753,153.565315 18.4222142,153.844609 17.3909591,153.844609 C16.3597039,153.844609 15.5618603,153.563361 14.9974044,153.000859 C14.4329484,152.438356 14.1507247,151.664926 14.1507247,150.680546 L14.1507247,145.161015 L15.1468184,145.161015 L15.1468184,150.750859 C15.1468184,151.465706 15.342129,152.014529 15.7327559,152.397343 C16.1233829,152.780157 16.6975959,152.971562 17.4554122,152.971562 C18.1780721,152.971562 18.7347071,152.779181 19.1253341,152.394413 C19.515961,152.009646 19.7112716,151.457893 19.7112716,150.73914 L19.7112716,145.161015 L20.7073653,145.161015 Z M26.9710372,151.975468 C26.9710372,152.573127 26.7483832,153.03406 26.3030684,153.35828 C25.8577537,153.682501 25.23276,153.844609 24.4280684,153.844609 C23.5765017,153.844609 22.9124458,153.709844 22.4358809,153.440312 L22.4358809,152.537968 C22.7444762,152.694219 23.0755276,152.817264 23.429045,152.907109 C23.7825624,152.996953 24.1233793,153.041874 24.4515059,153.041874 C24.959321,153.041874 25.3499421,152.96082 25.6233809,152.79871 C25.8968198,152.6366 26.0335372,152.389532 26.0335372,152.057499 C26.0335372,151.807498 25.9251398,151.593633 25.7083419,151.415898 C25.4915439,151.238162 25.0686966,151.028204 24.4397872,150.786015 C23.842128,150.563357 23.4173275,150.369023 23.1653731,150.203007 C22.9134187,150.036991 22.7259206,149.848516 22.6028731,149.637577 C22.4798256,149.426639 22.4183028,149.174688 22.4183028,148.881718 C22.4183028,148.358278 22.6311913,147.945196 23.0569747,147.64246 C23.4827581,147.339724 24.0667366,147.188359 24.8089278,147.188359 C25.5003375,147.188359 26.176112,147.328982 26.8362716,147.610234 L26.4905684,148.401249 C25.846034,148.135623 25.2620554,148.002812 24.7386153,148.002812 C24.2776755,148.002812 23.9300227,148.075077 23.6956466,148.219609 C23.4612704,148.364141 23.3440841,148.563357 23.3440841,148.817265 C23.3440841,148.989141 23.3880289,149.135624 23.47592,149.256718 C23.5638111,149.377812 23.7054112,149.493046 23.9007247,149.602421 C24.0960382,149.711797 24.4710344,149.869998 25.0257247,150.07703 C25.7874473,150.354376 26.3020905,150.63367 26.56967,150.914921 C26.8372495,151.196173 26.9710372,151.549685 26.9710372,151.975468 Z M31.2659591,153.844609 C30.3167356,153.844609 29.5677196,153.555549 29.0188888,152.977421 C28.4700579,152.399293 28.1956466,151.596567 28.1956466,150.569218 C28.1956466,149.534057 28.4505268,148.711799 28.960295,148.102421 C29.4700632,147.493043 30.1546266,147.188359 31.0140059,147.188359 C31.8186975,147.188359 32.4554098,147.453004 32.9241622,147.982304 C33.3929145,148.511603 33.6272872,149.209839 33.6272872,150.07703 L33.6272872,150.692265 L29.2034591,150.692265 C29.2229904,151.446175 29.4134182,152.018435 29.7747481,152.409062 C30.1360781,152.799689 30.644862,152.994999 31.3011153,152.994999 C31.992525,152.994999 32.6761119,152.850469 33.3518966,152.561405 L33.3518966,153.428593 C33.0081448,153.577031 32.6829528,153.683475 32.3763106,153.747929 C32.0696685,153.812382 31.699555,153.844609 31.2659591,153.844609 Z M31.0022872,148.002812 C30.4866596,148.002812 30.0755309,148.170779 29.7688888,148.506718 C29.4622466,148.842657 29.2815843,149.307496 29.2268966,149.901249 L32.5843184,149.901249 C32.5843184,149.287965 32.4476011,148.818243 32.1741622,148.49207 C31.9007233,148.165896 31.5101022,148.002812 31.0022872,148.002812 Z M39.6565841,152.866093 L39.6038497,152.866093 C39.1546287,153.51844 38.4827604,153.844609 37.5882247,153.844609 C36.7483767,153.844609 36.095063,153.557502 35.6282638,152.98328 C35.1614645,152.409059 34.9280684,151.592661 34.9280684,150.534062 C34.9280684,149.475463 35.1624411,148.653205 35.6311934,148.067265 C36.0999458,147.481324 36.752283,147.188359 37.5882247,147.188359 C38.4593228,147.188359 39.1272849,147.504762 39.5921309,148.137577 L39.6683028,148.137577 L39.6272872,147.674687 L39.6038497,147.223515 L39.6038497,144.610234 L40.5765059,144.610234 L40.5765059,153.727421 L39.7854903,153.727421 L39.6565841,152.866093 Z M37.7112716,153.030155 C38.3753374,153.030155 38.8567779,152.849493 39.1556075,152.488163 C39.4544371,152.126833 39.6038497,151.543831 39.6038497,150.73914 L39.6038497,150.534062 C39.6038497,149.623901 39.452484,148.974493 39.1497481,148.58582 C38.8470122,148.197146 38.3636186,148.002812 37.6995528,148.002812 C37.1292375,148.002812 36.6927184,148.224489 36.3899825,148.667851 C36.0872466,149.111212 35.9358809,149.737183 35.9358809,150.54578 C35.9358809,151.366097 36.0862701,151.985232 36.3870528,152.403202 C36.6878356,152.821173 37.1292374,153.030155 37.7112716,153.030155 Z M48.6507247,148.061405 L47.0159591,148.061405 L47.0159591,153.727421 L46.0433028,153.727421 L46.0433028,148.061405 L44.8948653,148.061405 L44.8948653,147.621952 L46.0433028,147.27039 L46.0433028,146.912968 C46.0433028,145.334835 46.732749,144.54578 48.1116622,144.54578 C48.4515076,144.54578 48.8499412,144.614139 49.3069747,144.750859 L49.0550216,145.530155 C48.6800197,145.409061 48.3597104,145.348515 48.0940841,145.348515 C47.7268947,145.348515 47.4554131,145.470584 47.2796309,145.714726 C47.1038488,145.958868 47.0159591,146.350465 47.0159591,146.88953 L47.0159591,147.305546 L48.6507247,147.305546 L48.6507247,148.061405 Z M55.3655684,150.510624 C55.3655684,151.557504 55.1018992,152.374879 54.5745528,152.962773 C54.0472064,153.550666 53.3186981,153.844609 52.3890059,153.844609 C51.8147843,153.844609 51.3050238,153.709844 50.8597091,153.440312 C50.4143943,153.170779 50.0706478,152.784064 49.8284591,152.280155 C49.5862704,151.776247 49.4651778,151.186409 49.4651778,150.510624 C49.4651778,149.463744 49.726894,148.648322 50.2503341,148.064335 C50.7737742,147.480348 51.5003294,147.188359 52.4300216,147.188359 C53.3284636,147.188359 54.0423236,147.487184 54.5716231,148.084843 C55.1009227,148.682502 55.3655684,149.491088 55.3655684,150.510624 Z M50.4729903,150.510624 C50.4729903,151.330941 50.6370512,151.955935 50.9651778,152.385624 C51.2933045,152.815314 51.7757215,153.030155 52.4124434,153.030155 C53.0491654,153.030155 53.532559,152.81629 53.8626388,152.388554 C54.1927185,151.960817 54.3577559,151.334847 54.3577559,150.510624 C54.3577559,149.694214 54.1927185,149.074103 53.8626388,148.650273 C53.532559,148.226442 53.0452592,148.01453 52.4007247,148.01453 C51.7640028,148.01453 51.2835388,148.223513 50.9593184,148.641484 C50.6350981,149.059454 50.4729903,149.682495 50.4729903,150.510624 Z M60.0003341,147.188359 C60.2854917,147.188359 60.5413486,147.211796 60.7679122,147.258671 L60.6331466,148.161015 C60.3675202,148.102421 60.1331476,148.073124 59.9300216,148.073124 C59.4104877,148.073124 58.9661562,148.28406 58.5970138,148.705937 C58.2278713,149.127814 58.0433028,149.653199 58.0433028,150.282109 L58.0433028,153.727421 L57.0706466,153.727421 L57.0706466,147.305546 L57.8733809,147.305546 L57.9847091,148.494999 L58.0315841,148.494999 C58.2698665,148.077028 58.556973,147.754766 58.8929122,147.528202 C59.2288514,147.301639 59.5979883,147.188359 60.0003341,147.188359 Z M68.0745528,147.200077 C68.918307,147.200077 69.5735739,147.48816 70.0403731,148.064335 C70.5071723,148.64051 70.7405684,149.455931 70.7405684,150.510624 C70.7405684,151.565317 70.5052192,152.384645 70.0345138,152.968632 C69.5638083,153.552619 68.9104945,153.844609 68.0745528,153.844609 C67.656582,153.844609 67.2747499,153.767461 66.929045,153.613163 C66.5833402,153.458866 66.293304,153.221563 66.0589278,152.901249 L65.9886153,152.901249 L65.7835372,153.727421 L65.0862716,153.727421 L65.0862716,144.610234 L66.0589278,144.610234 L66.0589278,146.825077 C66.0589278,147.321174 66.043303,147.766482 66.0120528,148.161015 L66.0589278,148.161015 C66.5120551,147.520387 67.1839234,147.200077 68.0745528,147.200077 Z M67.9339278,148.01453 C67.269862,148.01453 66.7913512,148.204958 66.4983809,148.58582 C66.2054107,148.966681 66.0589278,149.608276 66.0589278,150.510624 C66.0589278,151.412972 66.2093169,152.058474 66.5100997,152.447148 C66.8108824,152.835821 67.2932995,153.030155 67.9573653,153.030155 C68.5550246,153.030155 69.0003326,152.812384 69.2933028,152.376835 C69.586273,151.941286 69.7327559,151.315316 69.7327559,150.498905 C69.7327559,149.662964 69.586273,149.039923 69.2933028,148.629765 C69.0003326,148.219607 68.5472121,148.01453 67.9339278,148.01453 Z M76.3890059,153.727421 L76.1956466,152.813359 L76.1487716,152.813359 C75.8284575,153.215704 75.5091247,153.488163 75.1907638,153.630741 C74.8724028,153.77332 74.4749458,153.844609 73.9983809,153.844609 C73.361659,153.844609 72.8626406,153.680548 72.5013106,153.352421 C72.1399807,153.024294 71.9593184,152.557502 71.9593184,151.95203 C71.9593184,150.655149 72.9964174,149.975468 75.0706466,149.912968 L76.1604903,149.877812 L76.1604903,149.479374 C76.1604903,148.975465 76.052093,148.603399 75.835295,148.363163 C75.618497,148.122928 75.2718208,148.002812 74.7952559,148.002812 C74.260097,148.002812 73.6546343,148.166873 72.9788497,148.494999 L72.6800216,147.750859 C72.9964294,147.578983 73.3431056,147.444218 73.7200606,147.346562 C74.0970156,147.248905 74.4749415,147.200077 74.8538497,147.200077 C75.6194785,147.200077 76.1868557,147.369998 76.5559981,147.709843 C76.9251406,148.049688 77.1097091,148.594605 77.1097091,149.344609 L77.1097091,153.727421 L76.3890059,153.727421 Z M74.1917403,153.041874 C74.7972121,153.041874 75.2727933,152.87586 75.6184981,152.543827 C75.964203,152.211794 76.1370528,151.746955 76.1370528,151.149296 L76.1370528,150.569218 L75.1643966,150.610234 C74.3909552,150.637577 73.8333436,150.757693 73.491545,150.970585 C73.1497464,151.183477 72.9788497,151.514528 72.9788497,151.963749 C72.9788497,152.315313 73.0852939,152.582889 73.2981856,152.766484 C73.5110773,152.950078 73.8089259,153.041874 74.1917403,153.041874 Z M81.6800216,153.844609 C80.7503294,153.844609 80.0306101,153.558479 79.5208419,152.98621 C79.0110737,152.413942 78.7561934,151.604379 78.7561934,150.557499 C78.7561934,149.483275 79.0149799,148.653205 79.5325606,148.067265 C80.0501413,147.481324 80.7874387,147.188359 81.7444747,147.188359 C82.05307,147.188359 82.3616606,147.221561 82.6702559,147.287968 C82.9788512,147.354375 83.2210363,147.432499 83.3968184,147.522343 L83.0979903,148.348515 C82.8831455,148.262577 82.6487728,148.191289 82.3948653,148.134648 C82.1409578,148.078007 81.9163507,148.049687 81.7210372,148.049687 C80.4163432,148.049687 79.7640059,148.88171 79.7640059,150.54578 C79.7640059,151.334847 79.923184,151.94031 80.241545,152.362187 C80.559906,152.784064 81.0315809,152.994999 81.6565841,152.994999 C82.191743,152.994999 82.7405656,152.879766 83.3030684,152.649296 L83.3030684,153.510624 C82.8733788,153.733282 82.3323686,153.844609 81.6800216,153.844609 Z M85.7874434,150.440312 C85.955413,150.202029 86.2112698,149.889532 86.5550216,149.502812 L88.6292403,147.305546 L89.7835372,147.305546 L87.1819747,150.041874 L89.9651778,153.727421 L88.7874434,153.727421 L86.5198653,150.692265 L85.7874434,151.325077 L85.7874434,153.727421 L84.8265059,153.727421 L84.8265059,144.610234 L85.7874434,144.610234 L85.7874434,149.444218 C85.7874434,149.659063 85.7718186,149.991091 85.7405684,150.440312 L85.7874434,150.440312 Z M96.3811934,147.305546 L96.3811934,147.92078 L95.1917403,148.061405 C95.3011159,148.198125 95.3987711,148.376834 95.4847091,148.597538 C95.570647,148.818243 95.6136153,149.067263 95.6136153,149.344609 C95.6136153,149.973518 95.3987737,150.475466 94.9690841,150.850468 C94.5393944,151.22547 93.9495566,151.412968 93.1995528,151.412968 C93.0081456,151.412968 92.8284599,151.397343 92.6604903,151.366093 C92.2464257,151.584844 92.0393966,151.860232 92.0393966,152.192265 C92.0393966,152.368047 92.1116615,152.497928 92.2561934,152.581913 C92.4007254,152.665898 92.6487698,152.70789 93.0003341,152.70789 L94.1370528,152.70789 C94.8323688,152.70789 95.3665431,152.854373 95.7395919,153.147343 C96.1126406,153.440313 96.2991622,153.86609 96.2991622,154.424687 C96.2991622,155.135628 96.0140088,155.677615 95.4436934,156.050663 C94.8733781,156.423712 94.0413552,156.610234 92.9475997,156.610234 C92.1077517,156.610234 91.4602973,156.453985 91.0052169,156.141484 C90.5501365,155.828982 90.3225997,155.38758 90.3225997,154.817265 C90.3225997,154.426638 90.4475984,154.088751 90.6975997,153.803593 C90.9476009,153.518435 91.2991599,153.325078 91.7522872,153.223515 C91.5882239,153.149296 91.4505299,153.034063 91.3392013,152.877812 C91.2278726,152.721561 91.1722091,152.539922 91.1722091,152.33289 C91.1722091,152.098514 91.2347084,151.893438 91.3597091,151.717655 C91.4847097,151.541873 91.6819733,151.371953 91.9515059,151.20789 C91.619473,151.07117 91.3489679,150.838751 91.1399825,150.510624 C90.9309971,150.182498 90.8265059,149.807501 90.8265059,149.385624 C90.8265059,148.682496 91.0374413,148.140509 91.4593184,147.759648 C91.8811956,147.378786 92.4788458,147.188359 93.2522872,147.188359 C93.5882264,147.188359 93.8909577,147.227421 94.1604903,147.305546 L96.3811934,147.305546 Z M91.2600997,154.805546 C91.2600997,155.153204 91.4065826,155.416873 91.6995528,155.596562 C91.992523,155.77625 92.4124407,155.866093 92.9593184,155.866093 C93.7757288,155.866093 94.3802149,155.744024 94.772795,155.499882 C95.1653751,155.25574 95.3616622,154.924689 95.3616622,154.506718 C95.3616622,154.15906 95.2542414,153.917851 95.0393966,153.783085 C94.8245517,153.648319 94.4202589,153.580937 93.8265059,153.580937 L92.6604903,153.580937 C92.2190819,153.580937 91.8753353,153.686404 91.6292403,153.897343 C91.3831453,154.108282 91.2600997,154.411013 91.2600997,154.805546 Z M91.7874434,149.362187 C91.7874434,149.811408 91.9143953,150.151248 92.1683028,150.381718 C92.4222103,150.612188 92.7757224,150.727421 93.2288497,150.727421 C94.1780732,150.727421 94.6526778,150.266488 94.6526778,149.344609 C94.6526778,148.37976 94.1722139,147.897343 93.2112716,147.897343 C92.754238,147.897343 92.402679,148.020389 92.1565841,148.266484 C91.9104891,148.512579 91.7874434,148.877809 91.7874434,149.362187 Z M100.62924,147.188359 C100.914398,147.188359 101.170255,147.211796 101.396818,147.258671 L101.262053,148.161015 C100.996426,148.102421 100.762054,148.073124 100.558928,148.073124 C100.039394,148.073124 99.5950625,148.28406 99.22592,148.705937 C98.8567775,149.127814 98.6722091,149.653199 98.6722091,150.282109 L98.6722091,153.727421 L97.6995528,153.727421 L97.6995528,147.305546 L98.5022872,147.305546 L98.6136153,148.494999 L98.6604903,148.494999 C98.8987728,148.077028 99.1858793,147.754766 99.5218184,147.528202 C99.8577576,147.301639 100.226895,147.188359 100.62924,147.188359 Z M108.140959,150.510624 C108.140959,151.557504 107.87729,152.374879 107.349943,152.962773 C106.822597,153.550666 106.094089,153.844609 105.164397,153.844609 C104.590175,153.844609 104.080414,153.709844 103.6351,153.440312 C103.189785,153.170779 102.846038,152.784064 102.60385,152.280155 C102.361661,151.776247 102.240568,151.186409 102.240568,150.510624 C102.240568,149.463744 102.502285,148.648322 103.025725,148.064335 C103.549165,147.480348 104.27572,147.188359 105.205412,147.188359 C106.103854,147.188359 106.817714,147.487184 107.347014,148.084843 C107.876313,148.682502 108.140959,149.491088 108.140959,150.510624 Z M103.248381,150.510624 C103.248381,151.330941 103.412442,151.955935 103.740568,152.385624 C104.068695,152.815314 104.551112,153.030155 105.187834,153.030155 C105.824556,153.030155 106.30795,152.81629 106.638029,152.388554 C106.968109,151.960817 107.133147,151.334847 107.133147,150.510624 C107.133147,149.694214 106.968109,149.074103 106.638029,148.650273 C106.30795,148.226442 105.82065,148.01453 105.176115,148.01453 C104.539393,148.01453 104.058929,148.223513 103.734709,148.641484 C103.410489,149.059454 103.248381,149.682495 103.248381,150.510624 Z M110.7601,147.305546 L110.7601,151.471562 C110.7601,151.995002 110.879239,152.385623 111.117522,152.643437 C111.355804,152.901251 111.728847,153.030155 112.236662,153.030155 C112.908541,153.030155 113.399747,152.846564 113.710295,152.479374 C114.020843,152.112185 114.176115,151.512582 114.176115,150.680546 L114.176115,147.305546 L115.148772,147.305546 L115.148772,153.727421 L114.346037,153.727421 L114.205412,152.866093 L114.152678,152.866093 C113.953458,153.182501 113.677094,153.424686 113.323576,153.592655 C112.970059,153.760625 112.566743,153.844609 112.113615,153.844609 C111.332361,153.844609 110.747406,153.659064 110.358733,153.287968 C109.970059,152.916872 109.775725,152.323128 109.775725,151.506718 L109.775725,147.305546 L110.7601,147.305546 Z M121.605803,153.727421 L121.605803,149.573124 C121.605803,149.049684 121.486663,148.659063 121.248381,148.401249 C121.010099,148.143435 120.637055,148.01453 120.12924,148.01453 C119.457362,148.01453 118.965179,148.196169 118.652678,148.559452 C118.340176,148.922735 118.183928,149.522339 118.183928,150.35828 L118.183928,153.727421 L117.211272,153.727421 L117.211272,147.305546 L118.002287,147.305546 L118.16049,148.184452 L118.207365,148.184452 C118.406585,147.868045 118.685879,147.62293 119.045256,147.449101 C119.404633,147.275272 119.805019,147.188359 120.246428,147.188359 C121.019869,147.188359 121.601895,147.37488 121.992522,147.747929 C122.383149,148.120978 122.578459,148.717651 122.578459,149.537968 L122.578459,153.727421 L121.605803,153.727421 Z M128.9476,152.866093 L128.894865,152.866093 C128.445644,153.51844 127.773776,153.844609 126.87924,153.844609 C126.039392,153.844609 125.386079,153.557502 124.919279,152.98328 C124.45248,152.409059 124.219084,151.592661 124.219084,150.534062 C124.219084,149.475463 124.453457,148.653205 124.922209,148.067265 C125.390961,147.481324 126.043299,147.188359 126.87924,147.188359 C127.750338,147.188359 128.4183,147.504762 128.883147,148.137577 L128.959318,148.137577 L128.918303,147.674687 L128.894865,147.223515 L128.894865,144.610234 L129.867522,144.610234 L129.867522,153.727421 L129.076506,153.727421 L128.9476,152.866093 Z M127.002287,153.030155 C127.666353,153.030155 128.147794,152.849493 128.446623,152.488163 C128.745453,152.126833 128.894865,151.543831 128.894865,150.73914 L128.894865,150.534062 C128.894865,149.623901 128.7435,148.974493 128.440764,148.58582 C128.138028,148.197146 127.654634,148.002812 126.990568,148.002812 C126.420253,148.002812 125.983734,148.224489 125.680998,148.667851 C125.378262,149.111212 125.226897,149.737183 125.226897,150.54578 C125.226897,151.366097 125.377286,151.985232 125.678068,152.403202 C125.978851,152.821173 126.420253,153.030155 127.002287,153.030155 Z M137.613615,153.844609 C136.683923,153.844609 135.964204,153.558479 135.454436,152.98621 C134.944667,152.413942 134.689787,151.604379 134.689787,150.557499 C134.689787,149.483275 134.948574,148.653205 135.466154,148.067265 C135.983735,147.481324 136.721032,147.188359 137.678068,147.188359 C137.986664,147.188359 138.295254,147.221561 138.60385,147.287968 C138.912445,147.354375 139.15463,147.432499 139.330412,147.522343 L139.031584,148.348515 C138.816739,148.262577 138.582367,148.191289 138.328459,148.134648 C138.074552,148.078007 137.849944,148.049687 137.654631,148.049687 C136.349937,148.049687 135.6976,148.88171 135.6976,150.54578 C135.6976,151.334847 135.856778,151.94031 136.175139,152.362187 C136.4935,152.784064 136.965175,152.994999 137.590178,152.994999 C138.125337,152.994999 138.674159,152.879766 139.236662,152.649296 L139.236662,153.510624 C138.806973,153.733282 138.265962,153.844609 137.613615,153.844609 Z M146.303068,150.510624 C146.303068,151.557504 146.039399,152.374879 145.512053,152.962773 C144.984706,153.550666 144.256198,153.844609 143.326506,153.844609 C142.752284,153.844609 142.242524,153.709844 141.797209,153.440312 C141.351894,153.170779 141.008148,152.784064 140.765959,152.280155 C140.52377,151.776247 140.402678,151.186409 140.402678,150.510624 C140.402678,149.463744 140.664394,148.648322 141.187834,148.064335 C141.711274,147.480348 142.437829,147.188359 143.367522,147.188359 C144.265964,147.188359 144.979824,147.487184 145.509123,148.084843 C146.038423,148.682502 146.303068,149.491088 146.303068,150.510624 Z M141.41049,150.510624 C141.41049,151.330941 141.574551,151.955935 141.902678,152.385624 C142.230804,152.815314 142.713222,153.030155 143.349943,153.030155 C143.986665,153.030155 144.470059,152.81629 144.800139,152.388554 C145.130219,151.960817 145.295256,151.334847 145.295256,150.510624 C145.295256,149.694214 145.130219,149.074103 144.800139,148.650273 C144.470059,148.226442 143.982759,148.01453 143.338225,148.01453 C142.701503,148.01453 142.221039,148.223513 141.896818,148.641484 C141.572598,149.059454 141.41049,149.682495 141.41049,150.510624 Z M148.980803,153.727421 L148.008147,153.727421 L148.008147,144.610234 L148.980803,144.610234 L148.980803,153.727421 Z M156.586272,150.510624 C156.586272,151.557504 156.322602,152.374879 155.795256,152.962773 C155.26791,153.550666 154.539401,153.844609 153.609709,153.844609 C153.035487,153.844609 152.525727,153.709844 152.080412,153.440312 C151.635097,153.170779 151.291351,152.784064 151.049162,152.280155 C150.806973,151.776247 150.685881,151.186409 150.685881,150.510624 C150.685881,149.463744 150.947597,148.648322 151.471037,148.064335 C151.994477,147.480348 152.721033,147.188359 153.650725,147.188359 C154.549167,147.188359 155.263027,147.487184 155.792326,148.084843 C156.321626,148.682502 156.586272,149.491088 156.586272,150.510624 Z M151.693693,150.510624 C151.693693,151.330941 151.857754,151.955935 152.185881,152.385624 C152.514008,152.815314 152.996425,153.030155 153.633147,153.030155 C154.269869,153.030155 154.753262,152.81629 155.083342,152.388554 C155.413422,151.960817 155.578459,151.334847 155.578459,150.510624 C155.578459,149.694214 155.413422,149.074103 155.083342,148.650273 C154.753262,148.226442 154.265962,148.01453 153.621428,148.01453 C152.984706,148.01453 152.504242,148.223513 152.180022,148.641484 C151.855801,149.059454 151.693693,149.682495 151.693693,150.510624 Z M161.221037,147.188359 C161.506195,147.188359 161.762052,147.211796 161.988615,147.258671 L161.85385,148.161015 C161.588223,148.102421 161.353851,148.073124 161.150725,148.073124 C160.631191,148.073124 160.186859,148.28406 159.817717,148.705937 C159.448574,149.127814 159.264006,149.653199 159.264006,150.282109 L159.264006,153.727421 L158.29135,153.727421 L158.29135,147.305546 L159.094084,147.305546 L159.205412,148.494999 L159.252287,148.494999 C159.49057,148.077028 159.777676,147.754766 160.113615,147.528202 C160.449554,147.301639 160.818691,147.188359 161.221037,147.188359 Z M15.0647872,170.727421 L14.0921309,170.727421 L14.0921309,164.305546 L15.0647872,164.305546 L15.0647872,170.727421 Z M14.0100997,162.565312 C14.0100997,162.342654 14.0647866,162.17957 14.1741622,162.076054 C14.2835377,161.972538 14.4202551,161.92078 14.5843184,161.92078 C14.7405692,161.92078 14.8753335,161.973514 14.9886153,162.078984 C15.1018971,162.184453 15.1585372,162.346561 15.1585372,162.565312 C15.1585372,162.784063 15.1018971,162.947147 14.9886153,163.05457 C14.8753335,163.161992 14.7405692,163.215702 14.5843184,163.215702 C14.4202551,163.215702 14.2835377,163.161992 14.1741622,163.05457 C14.0647866,162.947147 14.0100997,162.784063 14.0100997,162.565312 Z M21.5218184,170.727421 L21.5218184,166.573124 C21.5218184,166.049684 21.402679,165.659063 21.1643966,165.401249 C20.9261141,165.143435 20.553071,165.01453 20.0452559,165.01453 C19.3733776,165.01453 18.881195,165.196169 18.5686934,165.559452 C18.2561919,165.922735 18.0999434,166.522339 18.0999434,167.35828 L18.0999434,170.727421 L17.1272872,170.727421 L17.1272872,164.305546 L17.9183028,164.305546 L18.0765059,165.184452 L18.1233809,165.184452 C18.3226007,164.868045 18.6018948,164.62293 18.9612716,164.449101 C19.3206484,164.275272 19.721035,164.188359 20.1624434,164.188359 C20.9358848,164.188359 21.5179102,164.37488 21.9085372,164.747929 C22.2991641,165.120978 22.4944747,165.717651 22.4944747,166.537968 L22.4944747,170.727421 L21.5218184,170.727421 Z M30.1761153,170.844609 C29.2464232,170.844609 28.5267038,170.558479 28.0169356,169.98621 C27.5071675,169.413942 27.2522872,168.604379 27.2522872,167.557499 C27.2522872,166.483275 27.5110737,165.653205 28.0286544,165.067265 C28.5462351,164.481324 29.2835324,164.188359 30.2405684,164.188359 C30.5491637,164.188359 30.8577544,164.221561 31.1663497,164.287968 C31.474945,164.354375 31.7171301,164.432499 31.8929122,164.522343 L31.5940841,165.348515 C31.3792392,165.262577 31.1448666,165.191289 30.8909591,165.134648 C30.6370515,165.078007 30.4124444,165.049687 30.2171309,165.049687 C28.9124369,165.049687 28.2600997,165.88171 28.2600997,167.54578 C28.2600997,168.334847 28.4192778,168.94031 28.7376388,169.362187 C29.0559997,169.784064 29.5276747,169.994999 30.1526778,169.994999 C30.6878367,169.994999 31.2366594,169.879766 31.7991622,169.649296 L31.7991622,170.510624 C31.3694725,170.733282 30.8284623,170.844609 30.1761153,170.844609 Z M37.2718184,170.727421 L37.0784591,169.813359 L37.0315841,169.813359 C36.71127,170.215704 36.3919372,170.488163 36.0735763,170.630741 C35.7552153,170.77332 35.3577583,170.844609 34.8811934,170.844609 C34.2444715,170.844609 33.7454531,170.680548 33.3841231,170.352421 C33.0227932,170.024294 32.8421309,169.557502 32.8421309,168.95203 C32.8421309,167.655149 33.8792299,166.975468 35.9534591,166.912968 L37.0433028,166.877812 L37.0433028,166.479374 C37.0433028,165.975465 36.9349055,165.603399 36.7181075,165.363163 C36.5013095,165.122928 36.1546333,165.002812 35.6780684,165.002812 C35.1429095,165.002812 34.5374468,165.166873 33.8616622,165.494999 L33.5628341,164.750859 C33.8792419,164.578983 34.2259181,164.444218 34.6028731,164.346562 C34.9798281,164.248905 35.357754,164.200077 35.7366622,164.200077 C36.502291,164.200077 37.0696682,164.369998 37.4388106,164.709843 C37.8079531,165.049688 37.9925216,165.594605 37.9925216,166.344609 L37.9925216,170.727421 L37.2718184,170.727421 Z M35.0745528,170.041874 C35.6800246,170.041874 36.1556058,169.87586 36.5013106,169.543827 C36.8470155,169.211794 37.0198653,168.746955 37.0198653,168.149296 L37.0198653,167.569218 L36.0472091,167.610234 C35.2737677,167.637577 34.7161561,167.757693 34.3743575,167.970585 C34.0325589,168.183477 33.8616622,168.514528 33.8616622,168.963749 C33.8616622,169.315313 33.9681064,169.582889 34.1809981,169.766484 C34.3938898,169.950078 34.6917384,170.041874 35.0745528,170.041874 Z M42.9261153,164.188359 C43.211273,164.188359 43.4671298,164.211796 43.6936934,164.258671 L43.5589278,165.161015 C43.2933015,165.102421 43.0589288,165.073124 42.8558028,165.073124 C42.336269,165.073124 41.8919375,165.28406 41.522795,165.705937 C41.1536525,166.127814 40.9690841,166.653199 40.9690841,167.282109 L40.9690841,170.727421 L39.9964278,170.727421 L39.9964278,164.305546 L40.7991622,164.305546 L40.9104903,165.494999 L40.9573653,165.494999 C41.1956478,165.077028 41.4827543,164.754766 41.8186934,164.528202 C42.1546326,164.301639 42.5237696,164.188359 42.9261153,164.188359 Z M49.2659591,169.866093 L49.2132247,169.866093 C48.7640037,170.51844 48.0921354,170.844609 47.1975997,170.844609 C46.3577517,170.844609 45.704438,170.557502 45.2376388,169.98328 C44.7708395,169.409059 44.5374434,168.592661 44.5374434,167.534062 C44.5374434,166.475463 44.7718161,165.653205 45.2405684,165.067265 C45.7093208,164.481324 46.361658,164.188359 47.1975997,164.188359 C48.0686978,164.188359 48.7366599,164.504762 49.2015059,165.137577 L49.2776778,165.137577 L49.2366622,164.674687 L49.2132247,164.223515 L49.2132247,161.610234 L50.1858809,161.610234 L50.1858809,170.727421 L49.3948653,170.727421 L49.2659591,169.866093 Z M47.3206466,170.030155 C47.9847124,170.030155 48.4661529,169.849493 48.7649825,169.488163 C49.0638121,169.126833 49.2132247,168.543831 49.2132247,167.73914 L49.2132247,167.534062 C49.2132247,166.623901 49.061859,165.974493 48.7591231,165.58582 C48.4563872,165.197146 47.9729936,165.002812 47.3089278,165.002812 C46.7386125,165.002812 46.3020934,165.224489 45.9993575,165.667851 C45.6966216,166.111212 45.5452559,166.737183 45.5452559,167.54578 C45.5452559,168.366097 45.6956451,168.985232 45.9964278,169.403202 C46.2972106,169.821173 46.7386124,170.030155 47.3206466,170.030155 Z M56.3909591,168.975468 C56.3909591,169.573127 56.168305,170.03406 55.7229903,170.35828 C55.2776756,170.682501 54.6526818,170.844609 53.8479903,170.844609 C52.9964236,170.844609 52.3323677,170.709844 51.8558028,170.440312 L51.8558028,169.537968 C52.1643981,169.694219 52.4954495,169.817264 52.8489669,169.907109 C53.2024843,169.996953 53.5433012,170.041874 53.8714278,170.041874 C54.3792429,170.041874 54.769864,169.96082 55.0433028,169.79871 C55.3167417,169.6366 55.4534591,169.389532 55.4534591,169.057499 C55.4534591,168.807498 55.3450617,168.593633 55.1282638,168.415898 C54.9114658,168.238162 54.4886185,168.028204 53.8597091,167.786015 C53.2620498,167.563357 52.8372494,167.369023 52.585295,167.203007 C52.3333406,167.036991 52.1458425,166.848516 52.022795,166.637577 C51.8997475,166.426639 51.8382247,166.174688 51.8382247,165.881718 C51.8382247,165.358278 52.0511132,164.945196 52.4768966,164.64246 C52.9026799,164.339724 53.4866585,164.188359 54.2288497,164.188359 C54.9202594,164.188359 55.5960339,164.328982 56.2561934,164.610234 L55.9104903,165.401249 C55.2659558,165.135623 54.6819773,165.002812 54.1585372,165.002812 C53.6975974,165.002812 53.3499446,165.075077 53.1155684,165.219609 C52.8811923,165.364141 52.7640059,165.563357 52.7640059,165.817265 C52.7640059,165.989141 52.8079508,166.135624 52.8958419,166.256718 C52.9837329,166.377812 53.1253331,166.493046 53.3206466,166.602421 C53.51596,166.711797 53.8909563,166.869998 54.4456466,167.07703 C55.2073691,167.354376 55.7220124,167.63367 55.9895919,167.914921 C56.2571713,168.196173 56.3909591,168.549685 56.3909591,168.975468 Z M58.9925216,169.33289 L59.0804122,169.467655 C58.9788492,169.858282 58.8323663,170.312379 58.6409591,170.82996 C58.4495519,171.347541 58.2503351,171.828981 58.0433028,172.274296 L57.3108809,172.274296 C57.4163502,171.868044 57.53256,171.366096 57.6595138,170.768437 C57.7864675,170.170777 57.8753338,169.692267 57.9261153,169.33289 L58.9925216,169.33289 Z M72.2171309,170.727421 L72.2171309,166.549687 C72.2171309,166.037965 72.107757,165.65418 71.8890059,165.39832 C71.6702548,165.142459 71.3304145,165.01453 70.8694747,165.01453 C70.2640029,165.01453 69.8167418,165.188357 69.5276778,165.536015 C69.2386139,165.883673 69.0940841,166.418824 69.0940841,167.141484 L69.0940841,170.727421 L68.1214278,170.727421 L68.1214278,166.549687 C68.1214278,166.037965 68.0120539,165.65418 67.7933028,165.39832 C67.5745517,165.142459 67.2327583,165.01453 66.7679122,165.01453 C66.1585341,165.01453 65.7122495,165.197146 65.429045,165.562382 C65.1458405,165.927618 65.0042403,166.526245 65.0042403,167.35828 L65.0042403,170.727421 L64.0315841,170.727421 L64.0315841,164.305546 L64.8225997,164.305546 L64.9808028,165.184452 L65.0276778,165.184452 C65.2112725,164.871951 65.470059,164.627813 65.804045,164.45203 C66.138031,164.276248 66.5120507,164.188359 66.9261153,164.188359 C67.9300266,164.188359 68.58627,164.551636 68.8948653,165.278202 L68.9417403,165.278202 C69.1331475,164.942263 69.4104885,164.676641 69.7737716,164.481327 C70.1370546,164.286014 70.551113,164.188359 71.0159591,164.188359 C71.7425252,164.188359 72.2864651,164.37488 72.647795,164.747929 C73.0091249,165.120978 73.1897872,165.717651 73.1897872,166.537968 L73.1897872,170.727421 L72.2171309,170.727421 Z M77.9065841,170.844609 C76.9573606,170.844609 76.2083446,170.555549 75.6595138,169.977421 C75.1106829,169.399293 74.8362716,168.596567 74.8362716,167.569218 C74.8362716,166.534057 75.0911518,165.711799 75.60092,165.102421 C76.1106882,164.493043 76.7952516,164.188359 77.6546309,164.188359 C78.4593225,164.188359 79.0960348,164.453004 79.5647872,164.982304 C80.0335395,165.511603 80.2679122,166.209839 80.2679122,167.07703 L80.2679122,167.692265 L75.8440841,167.692265 C75.8636154,168.446175 76.0540432,169.018435 76.4153731,169.409062 C76.7767031,169.799689 77.285487,169.994999 77.9417403,169.994999 C78.63315,169.994999 79.3167369,169.850469 79.9925216,169.561405 L79.9925216,170.428593 C79.6487698,170.577031 79.3235778,170.683475 79.0169356,170.747929 C78.7102935,170.812382 78.34018,170.844609 77.9065841,170.844609 Z M77.6429122,165.002812 C77.1272846,165.002812 76.7161559,165.170779 76.4095138,165.506718 C76.1028716,165.842657 75.9222093,166.307496 75.8675216,166.901249 L79.2249434,166.901249 C79.2249434,166.287965 79.0882261,165.818243 78.8147872,165.49207 C78.5413483,165.165896 78.1507272,165.002812 77.6429122,165.002812 Z M86.3206466,170.727421 L86.3206466,166.573124 C86.3206466,166.049684 86.2015071,165.659063 85.9632247,165.401249 C85.7249423,165.143435 85.3518991,165.01453 84.8440841,165.01453 C84.1722057,165.01453 83.6800231,165.196169 83.3675216,165.559452 C83.05502,165.922735 82.8987716,166.522339 82.8987716,167.35828 L82.8987716,170.727421 L81.9261153,170.727421 L81.9261153,164.305546 L82.7171309,164.305546 L82.8753341,165.184452 L82.9222091,165.184452 C83.1214288,164.868045 83.4007229,164.62293 83.7600997,164.449101 C84.1194765,164.275272 84.5198631,164.188359 84.9612716,164.188359 C85.7347129,164.188359 86.3167384,164.37488 86.7073653,164.747929 C87.0979923,165.120978 87.2933028,165.717651 87.2933028,166.537968 L87.2933028,170.727421 L86.3206466,170.727421 Z M90.2054122,164.305546 L90.2054122,168.471562 C90.2054122,168.995002 90.3245516,169.385623 90.5628341,169.643437 C90.8011165,169.901251 91.1741597,170.030155 91.6819747,170.030155 C92.3538531,170.030155 92.8450591,169.846564 93.1556075,169.479374 C93.4661559,169.112185 93.6214278,168.512582 93.6214278,167.680546 L93.6214278,164.305546 L94.5940841,164.305546 L94.5940841,170.727421 L93.7913497,170.727421 L93.6507247,169.866093 L93.5979903,169.866093 C93.3987706,170.182501 93.1224061,170.424686 92.7688888,170.592655 C92.4153714,170.760625 92.0120551,170.844609 91.5589278,170.844609 C90.7776739,170.844609 90.1927188,170.659064 89.804045,170.287968 C89.4153712,169.916872 89.2210372,169.323128 89.2210372,168.506718 L89.2210372,164.305546 L90.2054122,164.305546 Z M100.799162,168.975468 C100.799162,169.573127 100.576508,170.03406 100.131193,170.35828 C99.6858787,170.682501 99.060885,170.844609 98.2561934,170.844609 C97.4046267,170.844609 96.7405708,170.709844 96.2640059,170.440312 L96.2640059,169.537968 C96.5726012,169.694219 96.9036526,169.817264 97.25717,169.907109 C97.6106874,169.996953 97.9515043,170.041874 98.2796309,170.041874 C98.787446,170.041874 99.1780671,169.96082 99.4515059,169.79871 C99.7249448,169.6366 99.8616622,169.389532 99.8616622,169.057499 C99.8616622,168.807498 99.7532648,168.593633 99.5364669,168.415898 C99.3196689,168.238162 98.8968216,168.028204 98.2679122,167.786015 C97.670253,167.563357 97.2454525,167.369023 96.9934981,167.203007 C96.7415437,167.036991 96.5540456,166.848516 96.4309981,166.637577 C96.3079506,166.426639 96.2464278,166.174688 96.2464278,165.881718 C96.2464278,165.358278 96.4593163,164.945196 96.8850997,164.64246 C97.3108831,164.339724 97.8948616,164.188359 98.6370528,164.188359 C99.3284625,164.188359 100.004237,164.328982 100.664397,164.610234 L100.318693,165.401249 C99.674159,165.135623 99.0901804,165.002812 98.5667403,165.002812 C98.1058005,165.002812 97.7581477,165.075077 97.5237716,165.219609 C97.2893954,165.364141 97.1722091,165.563357 97.1722091,165.817265 C97.1722091,165.989141 97.2161539,166.135624 97.304045,166.256718 C97.3919361,166.377812 97.5335362,166.493046 97.7288497,166.602421 C97.9241632,166.711797 98.2991594,166.869998 98.8538497,167.07703 C99.6155723,167.354376 100.130216,167.63367 100.397795,167.914921 C100.665374,168.196173 100.799162,168.549685 100.799162,168.975468 Z M109.4476,170.727421 L109.25424,169.813359 L109.207365,169.813359 C108.887051,170.215704 108.567718,170.488163 108.249358,170.630741 C107.930997,170.77332 107.53354,170.844609 107.056975,170.844609 C106.420253,170.844609 105.921234,170.680548 105.559904,170.352421 C105.198574,170.024294 105.017912,169.557502 105.017912,168.95203 C105.017912,167.655149 106.055011,166.975468 108.12924,166.912968 L109.219084,166.877812 L109.219084,166.479374 C109.219084,165.975465 109.110687,165.603399 108.893889,165.363163 C108.677091,165.122928 108.330415,165.002812 107.85385,165.002812 C107.318691,165.002812 106.713228,165.166873 106.037443,165.494999 L105.738615,164.750859 C106.055023,164.578983 106.401699,164.444218 106.778654,164.346562 C107.155609,164.248905 107.533535,164.200077 107.912443,164.200077 C108.678072,164.200077 109.245449,164.369998 109.614592,164.709843 C109.983734,165.049688 110.168303,165.594605 110.168303,166.344609 L110.168303,170.727421 L109.4476,170.727421 Z M107.250334,170.041874 C107.855806,170.041874 108.331387,169.87586 108.677092,169.543827 C109.022797,169.211794 109.195647,168.746955 109.195647,168.149296 L109.195647,167.569218 L108.22299,167.610234 C107.449549,167.637577 106.891937,167.757693 106.550139,167.970585 C106.20834,168.183477 106.037443,168.514528 106.037443,168.963749 C106.037443,169.315313 106.143888,169.582889 106.356779,169.766484 C106.569671,169.950078 106.86752,170.041874 107.250334,170.041874 Z M116.56674,170.727421 L116.56674,166.573124 C116.56674,166.049684 116.447601,165.659063 116.209318,165.401249 C115.971036,165.143435 115.597993,165.01453 115.090178,165.01453 C114.418299,165.01453 113.926117,165.196169 113.613615,165.559452 C113.301114,165.922735 113.144865,166.522339 113.144865,167.35828 L113.144865,170.727421 L112.172209,170.727421 L112.172209,164.305546 L112.963225,164.305546 L113.121428,165.184452 L113.168303,165.184452 C113.367523,164.868045 113.646817,164.62293 114.006193,164.449101 C114.36557,164.275272 114.765957,164.188359 115.207365,164.188359 C115.980807,164.188359 116.562832,164.37488 116.953459,164.747929 C117.344086,165.120978 117.539397,165.717651 117.539397,166.537968 L117.539397,170.727421 L116.56674,170.727421 Z M123.908537,169.866093 L123.855803,169.866093 C123.406582,170.51844 122.734714,170.844609 121.840178,170.844609 C121.00033,170.844609 120.347016,170.557502 119.880217,169.98328 C119.413418,169.409059 119.180022,168.592661 119.180022,167.534062 C119.180022,166.475463 119.414394,165.653205 119.883147,165.067265 C120.351899,164.481324 121.004236,164.188359 121.840178,164.188359 C122.711276,164.188359 123.379238,164.504762 123.844084,165.137577 L123.920256,165.137577 L123.87924,164.674687 L123.855803,164.223515 L123.855803,161.610234 L124.828459,161.610234 L124.828459,170.727421 L124.037443,170.727421 L123.908537,169.866093 Z M121.963225,170.030155 C122.627291,170.030155 123.108731,169.849493 123.407561,169.488163 C123.70639,169.126833 123.855803,168.543831 123.855803,167.73914 L123.855803,167.534062 C123.855803,166.623901 123.704437,165.974493 123.401701,165.58582 C123.098965,165.197146 122.615572,165.002812 121.951506,165.002812 C121.381191,165.002812 120.944672,165.224489 120.641936,165.667851 C120.3392,166.111212 120.187834,166.737183 120.187834,167.54578 C120.187834,168.366097 120.338223,168.985232 120.639006,169.403202 C120.939789,169.821173 121.381191,170.030155 121.963225,170.030155 Z M132.902678,165.061405 L131.267912,165.061405 L131.267912,170.727421 L130.295256,170.727421 L130.295256,165.061405 L129.146818,165.061405 L129.146818,164.621952 L130.295256,164.27039 L130.295256,163.912968 C130.295256,162.334835 130.984702,161.54578 132.363615,161.54578 C132.703461,161.54578 133.101894,161.614139 133.558928,161.750859 L133.306975,162.530155 C132.931973,162.409061 132.611664,162.348515 132.346037,162.348515 C131.978848,162.348515 131.707366,162.470584 131.531584,162.714726 C131.355802,162.958868 131.267912,163.350465 131.267912,163.88953 L131.267912,164.305546 L132.902678,164.305546 L132.902678,165.061405 Z M139.617522,167.510624 C139.617522,168.557504 139.353852,169.374879 138.826506,169.962773 C138.29916,170.550666 137.570651,170.844609 136.640959,170.844609 C136.066737,170.844609 135.556977,170.709844 135.111662,170.440312 C134.666347,170.170779 134.322601,169.784064 134.080412,169.280155 C133.838223,168.776247 133.717131,168.186409 133.717131,167.510624 C133.717131,166.463744 133.978847,165.648322 134.502287,165.064335 C135.025727,164.480348 135.752283,164.188359 136.681975,164.188359 C137.580417,164.188359 138.294277,164.487184 138.823576,165.084843 C139.352876,165.682502 139.617522,166.491088 139.617522,167.510624 Z M134.724943,167.510624 C134.724943,168.330941 134.889004,168.955935 135.217131,169.385624 C135.545258,169.815314 136.027675,170.030155 136.664397,170.030155 C137.301119,170.030155 137.784512,169.81629 138.114592,169.388554 C138.444672,168.960817 138.609709,168.334847 138.609709,167.510624 C138.609709,166.694214 138.444672,166.074103 138.114592,165.650273 C137.784512,165.226442 137.297212,165.01453 136.652678,165.01453 C136.015956,165.01453 135.535492,165.223513 135.211272,165.641484 C134.887051,166.059454 134.724943,166.682495 134.724943,167.510624 Z M146.865568,167.510624 C146.865568,168.557504 146.601899,169.374879 146.074553,169.962773 C145.547206,170.550666 144.818698,170.844609 143.889006,170.844609 C143.314784,170.844609 142.805024,170.709844 142.359709,170.440312 C141.914394,170.170779 141.570648,169.784064 141.328459,169.280155 C141.08627,168.776247 140.965178,168.186409 140.965178,167.510624 C140.965178,166.463744 141.226894,165.648322 141.750334,165.064335 C142.273774,164.480348 143.000329,164.188359 143.930022,164.188359 C144.828464,164.188359 145.542324,164.487184 146.071623,165.084843 C146.600923,165.682502 146.865568,166.491088 146.865568,167.510624 Z M141.97299,167.510624 C141.97299,168.330941 142.137051,168.955935 142.465178,169.385624 C142.793304,169.815314 143.275722,170.030155 143.912443,170.030155 C144.549165,170.030155 145.032559,169.81629 145.362639,169.388554 C145.692719,168.960817 145.857756,168.334847 145.857756,167.510624 C145.857756,166.694214 145.692719,166.074103 145.362639,165.650273 C145.032559,165.226442 144.545259,165.01453 143.900725,165.01453 C143.264003,165.01453 142.783539,165.223513 142.459318,165.641484 C142.135098,166.059454 141.97299,166.682495 141.97299,167.510624 Z M150.644865,170.041874 C150.816741,170.041874 150.982755,170.029179 151.142912,170.003788 C151.303069,169.978398 151.430021,169.952031 151.523772,169.924687 L151.523772,170.668827 C151.418302,170.719609 151.26303,170.761601 151.057951,170.794804 C150.852872,170.828007 150.668304,170.844609 150.50424,170.844609 C149.262047,170.844609 148.640959,170.190318 148.640959,168.881718 L148.640959,165.061405 L147.721037,165.061405 L147.721037,164.592655 L148.640959,164.188359 L149.051115,162.817265 L149.613615,162.817265 L149.613615,164.305546 L151.476897,164.305546 L151.476897,165.061405 L149.613615,165.061405 L149.613615,168.840702 C149.613615,169.227423 149.705411,169.524295 149.889006,169.731327 C150.072601,169.93836 150.324551,170.041874 150.644865,170.041874 Z M155.519865,170.844609 C154.570642,170.844609 153.821626,170.555549 153.272795,169.977421 C152.723964,169.399293 152.449553,168.596567 152.449553,167.569218 C152.449553,166.534057 152.704433,165.711799 153.214201,165.102421 C153.723969,164.493043 154.408533,164.188359 155.267912,164.188359 C156.072604,164.188359 156.709316,164.453004 157.178068,164.982304 C157.646821,165.511603 157.881193,166.209839 157.881193,167.07703 L157.881193,167.692265 L153.457365,167.692265 C153.476897,168.446175 153.667324,169.018435 154.028654,169.409062 C154.389984,169.799689 154.898768,169.994999 155.555022,169.994999 C156.246431,169.994999 156.930018,169.850469 157.605803,169.561405 L157.605803,170.428593 C157.262051,170.577031 156.936859,170.683475 156.630217,170.747929 C156.323575,170.812382 155.953461,170.844609 155.519865,170.844609 Z M155.256193,165.002812 C154.740566,165.002812 154.329437,165.170779 154.022795,165.506718 C153.716153,165.842657 153.535491,166.307496 153.480803,166.901249 L156.838225,166.901249 C156.838225,166.287965 156.701507,165.818243 156.428068,165.49207 C156.15463,165.165896 155.764008,165.002812 155.256193,165.002812 Z M162.469084,164.188359 C162.754242,164.188359 163.010099,164.211796 163.236662,164.258671 L163.101897,165.161015 C162.83627,165.102421 162.601898,165.073124 162.398772,165.073124 C161.879238,165.073124 161.434906,165.28406 161.065764,165.705937 C160.696621,166.127814 160.512053,166.653199 160.512053,167.282109 L160.512053,170.727421 L159.539397,170.727421 L159.539397,164.305546 L160.342131,164.305546 L160.453459,165.494999 L160.500334,165.494999 C160.738617,165.077028 161.025723,164.754766 161.361662,164.528202 C161.697601,164.301639 162.066738,164.188359 162.469084,164.188359 Z M164.297209,170.106327 C164.297209,169.844607 164.356779,169.646367 164.47592,169.511601 C164.595061,169.376834 164.765958,169.309452 164.988615,169.309452 C165.215179,169.309452 165.391935,169.376834 165.518889,169.511601 C165.645843,169.646367 165.709318,169.844607 165.709318,170.106327 C165.709318,170.360235 165.644866,170.555545 165.515959,170.692265 C165.387052,170.828984 165.211273,170.897343 164.988615,170.897343 C164.789396,170.897343 164.624358,170.83582 164.493498,170.712773 C164.362638,170.589725 164.297209,170.387579 164.297209,170.106327 Z" id="Used-for-background" fill="#000000"></path>
            </g>
        </g>
    </g>
</svg>