<?xml version="1.0" encoding="UTF-8" standalone="no"?>
<svg width="181px" height="210px" viewBox="0 0 181 210" version="1.1" xmlns="http://www.w3.org/2000/svg" xmlns:xlink="http://www.w3.org/1999/xlink">
    <!-- Generator: Sketch 44.1 (41455) - http://www.bohemiancoding.com/sketch -->
    <title>Group 24</title>
    <desc>Created with Sketch.</desc>
    <defs></defs>
    <g id="Page-1" stroke="none" stroke-width="1" fill="none" fill-rule="evenodd">
        <g id="Artboard-Copy-18" transform="translate(-961.000000, -1004.000000)">
            <g id="Group-24" transform="translate(960.585736, 1004.053207)">
                <rect id="Rectangle-18-Copy-12" fill="#333333" x="0.5" y="0.546848764" width="180" height="89.1029134"></rect>
                <rect id="Rectangle-18-Copy-13" fill="#FFFFFF" x="0.5" y="89.6497621" width="180" height="120"></rect>
                <path d="M16.5140059,130.06484 C15.6585329,130.025777 14.8343224,129.834373 14.0413497,129.490621 L14.0413497,127.545309 C14.494477,127.775779 14.9866595,127.96816 15.5179122,128.122457 C16.0491648,128.276755 16.5159571,128.353903 16.9183028,128.353903 C17.2503357,128.353903 17.4934974,128.313864 17.647795,128.233785 C17.8020927,128.153707 17.8792403,128.019919 17.8792403,127.832418 C17.8792403,127.703511 17.8235768,127.594137 17.7122481,127.504293 C17.6009194,127.414449 17.4153744,127.312887 17.1556075,127.199606 C16.8958406,127.086324 16.5452581,126.949606 16.1038497,126.789449 C15.6077535,126.605855 15.2073668,126.399802 14.9026778,126.171285 C14.5979888,125.942769 14.3763113,125.686912 14.2376388,125.403707 C14.0989662,125.120503 14.0296309,124.767967 14.0296309,124.34609 C14.0296309,123.701556 14.2366601,123.197654 14.6507247,122.834371 C15.0647893,122.471088 15.6858768,122.246481 16.5140059,122.160543 L16.5140059,121.357809 L17.7268966,121.357809 L17.7268966,122.148824 C18.5042442,122.191793 19.2874395,122.383198 20.0765059,122.723043 L19.3792403,124.392965 C18.56283,124.025776 17.8265092,123.842184 17.1702559,123.842184 C16.8577544,123.842184 16.63803,123.880269 16.5110763,123.956442 C16.3841225,124.032614 16.3206466,124.144917 16.3206466,124.293356 C16.3206466,124.422263 16.3665445,124.528707 16.4583419,124.612692 C16.5501392,124.696676 16.7093173,124.790425 16.9358809,124.893942 C17.1624446,124.997458 17.4768946,125.117574 17.8792403,125.254293 C18.6956506,125.543357 19.2815823,125.872455 19.6370528,126.241598 C19.9925233,126.61074 20.1702559,127.086321 20.1702559,127.668356 C20.1702559,128.324609 19.9622502,128.857807 19.5462325,129.267965 C19.1302148,129.678123 18.5237756,129.932027 17.7268966,130.029684 L17.7268966,131.160543 L16.5140059,131.160543 L16.5140059,130.06484 Z M24.4065841,130.580465 C23.3206411,130.580465 22.4974072,130.287499 21.9368575,129.701559 C21.3763078,129.115618 21.0960372,128.27383 21.0960372,127.176168 C21.0960372,126.0746 21.3987685,125.221093 22.0042403,124.615621 C22.6097121,124.010149 23.4710316,123.707418 24.5882247,123.707418 C25.3577598,123.707418 26.0823619,123.875385 26.7620528,124.211324 L26.0882247,125.904684 C25.8108796,125.783589 25.5550227,125.686911 25.3206466,125.614645 C25.0862704,125.542379 24.8421322,125.506246 24.5882247,125.506246 C24.2171291,125.506246 23.9300226,125.650776 23.7268966,125.93984 C23.5237706,126.228904 23.4222091,126.637103 23.4222091,127.164449 C23.4222091,128.226955 23.8147833,128.758199 24.5999434,128.758199 C25.2718218,128.758199 25.9163466,128.562889 26.5335372,128.172262 L26.5335372,129.994528 C25.9436905,130.385154 25.2347132,130.580465 24.4065841,130.580465 Z M34.1917403,127.129293 C34.1917403,128.215236 33.899751,129.061907 33.3157638,129.669332 C32.7317765,130.276757 31.9144018,130.580465 30.8636153,130.580465 C29.8557978,130.580465 29.054048,130.269921 28.4583419,129.648824 C27.8626358,129.027728 27.5647872,128.187892 27.5647872,127.129293 C27.5647872,126.047256 27.8567765,125.206445 28.4407638,124.606832 C29.024751,124.00722 29.8440788,123.707418 30.8987716,123.707418 C31.5511186,123.707418 32.1272847,123.846089 32.6272872,124.123434 C33.1272897,124.400779 33.513028,124.798236 33.7845138,125.315817 C34.0559995,125.833397 34.1917403,126.437883 34.1917403,127.129293 Z M29.8909591,127.129293 C29.8909591,127.699608 29.9671302,128.134174 30.1194747,128.433004 C30.2718192,128.731834 30.527676,128.881246 30.8870528,128.881246 C31.2425233,128.881246 31.4934974,128.731834 31.6399825,128.433004 C31.7864676,128.134174 31.8597091,127.699608 31.8597091,127.129293 C31.8597091,126.562884 31.7854911,126.135154 31.6370528,125.84609 C31.4886146,125.557026 31.2347109,125.412496 30.8753341,125.412496 C30.5237698,125.412496 30.2718192,125.55605 30.1194747,125.84316 C29.9671302,126.130271 29.8909591,126.558978 29.8909591,127.129293 Z M37.7893966,130.463278 L35.4983809,130.463278 L35.4983809,121.34609 L37.7893966,121.34609 L37.7893966,130.463278 Z M45.7171309,127.129293 C45.7171309,128.215236 45.4251417,129.061907 44.8411544,129.669332 C44.2571671,130.276757 43.4397924,130.580465 42.3890059,130.580465 C41.3811884,130.580465 40.5794386,130.269921 39.9837325,129.648824 C39.3880264,129.027728 39.0901778,128.187892 39.0901778,127.129293 C39.0901778,126.047256 39.3821671,125.206445 39.9661544,124.606832 C40.5501417,124.00722 41.3694694,123.707418 42.4241622,123.707418 C43.0765092,123.707418 43.6526753,123.846089 44.1526778,124.123434 C44.6526803,124.400779 45.0384186,124.798236 45.3099044,125.315817 C45.5813901,125.833397 45.7171309,126.437883 45.7171309,127.129293 Z M41.4163497,127.129293 C41.4163497,127.699608 41.4925208,128.134174 41.6448653,128.433004 C41.7972098,128.731834 42.0530666,128.881246 42.4124434,128.881246 C42.767914,128.881246 43.018888,128.731834 43.1653731,128.433004 C43.3118582,128.134174 43.3850997,127.699608 43.3850997,127.129293 C43.3850997,126.562884 43.3108817,126.135154 43.1624434,125.84609 C43.0140052,125.557026 42.7601015,125.412496 42.4007247,125.412496 C42.0491604,125.412496 41.7972098,125.55605 41.6448653,125.84316 C41.4925208,126.130271 41.4163497,126.558978 41.4163497,127.129293 Z M51.0315841,123.707418 C51.2308038,123.707418 51.420255,123.723043 51.5999434,123.754293 L51.7288497,123.777731 L51.5237716,125.93984 C51.3362706,125.892965 51.0765076,125.869528 50.7444747,125.869528 C50.2444722,125.869528 49.8811946,125.983784 49.6546309,126.212301 C49.4280673,126.440818 49.3147872,126.769916 49.3147872,127.199606 L49.3147872,130.463278 L47.0237716,130.463278 L47.0237716,123.824606 L48.7288497,123.824606 L49.0862716,124.885153 L49.1975997,124.885153 C49.3890069,124.533588 49.6556058,124.249411 49.9974044,124.032613 C50.339203,123.815815 50.6839261,123.707418 51.0315841,123.707418 Z M52.1155684,128.160543 L52.1155684,126.332418 L55.4261153,126.332418 L55.4261153,128.160543 L52.1155684,128.160543 Z M58.5315841,130.580465 C58.0589255,130.580465 57.6458436,130.445701 57.2923263,130.176168 C56.9388089,129.906636 56.6653741,129.510155 56.4720138,128.986715 C56.2786534,128.463275 56.1819747,127.851953 56.1819747,127.152731 C56.1819747,126.0746 56.3987694,125.230859 56.8323653,124.621481 C57.2659612,124.012103 57.8616584,123.707418 58.6194747,123.707418 C58.9905703,123.707418 59.3157624,123.781636 59.5950606,123.930074 C59.8743589,124.078513 60.1292392,124.32851 60.3597091,124.680074 L60.4065841,124.680074 C60.3323649,124.160541 60.2952559,123.641014 60.2952559,123.121481 L60.2952559,121.34609 L62.6038497,121.34609 L62.6038497,130.463278 L60.8753341,130.463278 L60.3831466,129.625387 L60.2952559,129.625387 C59.9007227,130.262109 59.312838,130.580465 58.5315841,130.580465 Z M59.4690841,128.769918 C59.8362734,128.769918 60.0950599,128.654685 60.2454513,128.424215 C60.3958426,128.193745 60.4768965,127.83828 60.4886153,127.357809 L60.4886153,127.176168 C60.4886153,126.590228 60.4046318,126.17324 60.2366622,125.925192 C60.0686926,125.677143 59.8050234,125.553121 59.4456466,125.553121 C59.1448638,125.553121 58.9114677,125.694721 58.7454513,125.977926 C58.5794348,126.26113 58.4964278,126.664447 58.4964278,127.187887 C58.4964278,127.703514 58.5804114,128.096089 58.7483809,128.365621 C58.9163505,128.635154 59.1565825,128.769918 59.4690841,128.769918 Z M68.5159591,130.463278 L68.0765059,129.584371 L68.0296309,129.584371 C67.7210356,129.967186 67.4065857,130.228902 67.0862716,130.369528 C66.7659575,130.510153 66.3518991,130.580465 65.8440841,130.580465 C65.2190809,130.580465 64.7268984,130.392967 64.3675216,130.017965 C64.0081448,129.642963 63.8284591,129.115625 63.8284591,128.435934 C63.8284591,127.728899 64.0745504,127.202537 64.5667403,126.856832 C65.0589303,126.511127 65.7718138,126.316793 66.7054122,126.273824 L67.8128341,126.238668 L67.8128341,126.144918 C67.8128341,125.59804 67.5433055,125.324606 67.0042403,125.324606 C66.5198629,125.324606 65.9046347,125.488667 65.1585372,125.816793 L64.4964278,124.305074 C65.2698692,123.906635 66.2464219,123.707418 67.4261153,123.707418 C68.2776821,123.707418 68.9368552,123.918354 69.4036544,124.340231 C69.8704536,124.762108 70.1038497,125.351946 70.1038497,126.109762 L70.1038497,130.463278 L68.5159591,130.463278 Z M66.8167403,128.963278 C67.0940855,128.963278 67.3313878,128.875388 67.5286544,128.699606 C67.725921,128.523824 67.8245528,128.29531 67.8245528,128.014059 L67.8245528,127.498434 L67.2972091,127.521871 C66.543299,127.549215 66.1663497,127.826556 66.1663497,128.353903 C66.1663497,128.760155 66.3831444,128.963278 66.8167403,128.963278 Z M75.6702559,123.707418 C75.8694757,123.707418 76.0589269,123.723043 76.2386153,123.754293 L76.3675216,123.777731 L76.1624434,125.93984 C75.9749425,125.892965 75.7151795,125.869528 75.3831466,125.869528 C74.8831441,125.869528 74.5198665,125.983784 74.2933028,126.212301 C74.0667392,126.440818 73.9534591,126.769916 73.9534591,127.199606 L73.9534591,130.463278 L71.6624434,130.463278 L71.6624434,123.824606 L73.3675216,123.824606 L73.7249434,124.885153 L73.8362716,124.885153 C74.0276788,124.533588 74.2942777,124.249411 74.6360763,124.032613 C74.9778748,123.815815 75.322598,123.707418 75.6702559,123.707418 Z M79.5140059,126.730856 C79.7913511,126.289447 80.0276768,125.945701 80.2229903,125.699606 L81.7112716,123.824606 L84.2659591,123.824606 L81.9632247,126.648824 L84.4124434,130.463278 L81.7933028,130.463278 L80.3401778,128.084371 L79.5960372,128.652731 L79.5960372,130.463278 L77.2933028,130.463278 L77.2933028,121.34609 L79.5960372,121.34609 L79.5960372,124.932028 C79.5960372,125.545312 79.5530689,126.144915 79.4671309,126.730856 L79.5140059,126.730856 Z M88.4085372,130.580465 C87.3030629,130.580465 86.4446731,130.286523 85.8333419,129.698629 C85.2220107,129.110736 84.9163497,128.27383 84.9163497,127.187887 C84.9163497,126.066788 85.19955,125.206445 85.7659591,124.606832 C86.3323681,124.00722 87.1409538,123.707418 88.1917403,123.707418 C89.1917453,123.707418 89.9641985,123.968158 90.5091231,124.489645 C91.0540477,125.011132 91.3265059,125.762101 91.3265059,126.742574 L91.3265059,127.762106 L87.2308028,127.762106 C87.2464279,128.133201 87.3821687,128.424214 87.6380294,128.635153 C87.89389,128.846091 88.2425194,128.951559 88.6839278,128.951559 C89.0862736,128.951559 89.4563871,128.913473 89.7942794,128.837301 C90.1321717,128.761129 90.498379,128.631247 90.8929122,128.447653 L90.8929122,130.094137 C90.5335354,130.277732 90.1624454,130.404683 89.7796309,130.474996 C89.3968165,130.545309 88.9397898,130.580465 88.4085372,130.580465 Z M88.2737716,125.266012 C88.004239,125.266012 87.7786553,125.350972 87.5970138,125.520895 C87.4153722,125.690817 87.308928,125.957416 87.2776778,126.320699 L89.2464278,126.320699 C89.2386153,126.000385 89.1477959,125.744528 88.9739669,125.553121 C88.8001379,125.361714 88.5667418,125.266012 88.2737716,125.266012 Z M97.7483809,128.424215 C97.7483809,129.135156 97.5061959,129.67226 97.0218184,130.035543 C96.537441,130.398826 95.8421355,130.580465 94.9358809,130.580465 C94.443691,130.580465 94.0159609,130.554098 93.6526778,130.501363 C93.2893948,130.448629 92.9183047,130.35195 92.5393966,130.211324 L92.5393966,128.37734 C92.8948671,128.533591 93.2845116,128.662496 93.7083419,128.764059 C94.1321721,128.865622 94.510098,128.916403 94.8421309,128.916403 C95.3382272,128.916403 95.5862716,128.803122 95.5862716,128.576559 C95.5862716,128.459371 95.5169363,128.35488 95.3782638,128.263082 C95.2395912,128.171285 94.8362749,127.992576 94.1683028,127.726949 C93.5589248,127.476948 93.1331478,127.192771 92.8909591,126.87441 C92.6487704,126.556049 92.5276778,126.152733 92.5276778,125.664449 C92.5276778,125.047259 92.7659567,124.566795 93.2425216,124.223043 C93.7190865,123.879291 94.3929078,123.707418 95.2640059,123.707418 C95.7015081,123.707418 96.1126368,123.755269 96.4974044,123.850973 C96.8821719,123.946676 97.281582,124.086323 97.6956466,124.269918 L97.0745528,125.746481 C96.7698638,125.609761 96.4476014,125.493551 96.1077559,125.397848 C95.7679105,125.302144 95.4905695,125.254293 95.2757247,125.254293 C94.9007228,125.254293 94.7132247,125.346089 94.7132247,125.529684 C94.7132247,125.642966 94.7786537,125.739644 94.9095138,125.819723 C95.0403738,125.899801 95.4182997,126.062886 96.0433028,126.308981 C96.5081489,126.500388 96.8548251,126.687886 97.0833419,126.871481 C97.3118586,127.055075 97.4798257,127.270893 97.5872481,127.518942 C97.6946705,127.76699 97.7483809,128.068744 97.7483809,128.424215 Z M102.271818,128.769918 C102.580414,128.769918 102.949551,128.693747 103.37924,128.541403 L103.37924,130.211324 C103.070645,130.344138 102.776703,130.438863 102.497404,130.495504 C102.218106,130.552145 101.890961,130.580465 101.515959,130.580465 C100.746424,130.580465 100.191742,130.39199 99.8518966,130.015035 C99.5120511,129.63808 99.3421309,129.058985 99.3421309,128.277731 L99.3421309,125.541403 L98.5393966,125.541403 L98.5393966,124.609762 L99.5589278,123.889059 L100.150725,122.494528 L101.650725,122.494528 L101.650725,123.824606 L103.279631,123.824606 L103.279631,125.541403 L101.650725,125.541403 L101.650725,128.125387 C101.650725,128.555077 101.857754,128.769918 102.271818,128.769918 Z M104.252287,129.490621 C104.252287,129.131244 104.358731,128.853903 104.571623,128.65859 C104.784515,128.463277 105.094082,128.365621 105.500334,128.365621 C105.887055,128.365621 106.183927,128.463277 106.390959,128.65859 C106.597991,128.853903 106.701506,129.131244 106.701506,129.490621 C106.701506,129.842186 106.595062,130.116597 106.38217,130.313863 C106.169278,130.51113 105.875336,130.609762 105.500334,130.609762 C105.113613,130.609762 104.808929,130.512107 104.586272,130.316793 C104.363614,130.12148 104.252287,129.846092 104.252287,129.490621 Z M104.252287,124.861715 C104.252287,124.506244 104.359708,124.230857 104.574553,124.035543 C104.789398,123.84023 105.097988,123.742574 105.500334,123.742574 C105.887055,123.742574 106.183927,123.84023 106.390959,124.035543 C106.597991,124.230857 106.701506,124.506244 106.701506,124.861715 C106.701506,125.213279 106.596038,125.488667 106.3851,125.687887 C106.174161,125.887107 105.879242,125.986715 105.500334,125.986715 C105.101895,125.986715 104.79428,125.887107 104.577483,125.687887 C104.360685,125.488667 104.252287,125.213279 104.252287,124.861715 Z M116.439787,125.699606 L116.264006,126.683981 L117.687834,126.683981 L117.687834,128.172262 L115.988615,128.172262 L115.555022,130.463278 L113.984709,130.463278 L114.412443,128.172262 L113.428068,128.172262 L113.012053,130.463278 L111.4476,130.463278 L111.869475,128.172262 L110.551115,128.172262 L110.551115,126.683981 L112.156584,126.683981 L112.338225,125.699606 L110.943693,125.699606 L110.943693,124.176168 L112.625334,124.176168 L113.047209,121.896871 L114.617522,121.896871 L114.183928,124.176168 L115.156584,124.176168 L115.578459,121.896871 L117.148772,121.896871 L116.721037,124.176168 L118.062834,124.176168 L118.062834,125.699606 L116.439787,125.699606 Z M113.721037,126.683981 L114.687834,126.683981 L114.869475,125.699606 L113.896818,125.699606 L113.721037,126.683981 Z M124.56674,123.754293 C124.56674,124.285546 124.404633,124.741596 124.080412,125.122457 C123.756192,125.503318 123.287447,125.779683 122.674162,125.951559 L122.674162,125.986715 C124.103857,126.166403 124.818693,126.842178 124.818693,128.014059 C124.818693,128.810938 124.503267,129.437885 123.872404,129.894918 C123.241542,130.351952 122.365574,130.580465 121.244475,130.580465 C120.783535,130.580465 120.356781,130.547262 119.964201,130.480856 C119.571621,130.414449 119.146821,130.293357 118.689787,130.117574 L118.689787,128.195699 C119.064789,128.387107 119.446621,128.528707 119.835295,128.620504 C120.223969,128.712301 120.582364,128.758199 120.91049,128.758199 C121.418305,128.758199 121.788419,128.686911 122.020842,128.544332 C122.253265,128.401753 122.369475,128.178123 122.369475,127.873434 C122.369475,127.639058 122.308928,127.458395 122.187834,127.331442 C122.06674,127.204488 121.871429,127.108786 121.601897,127.044332 C121.332364,126.979879 120.980805,126.947653 120.547209,126.947653 L120.019865,126.947653 L120.019865,125.207418 L120.558928,125.207418 C121.734715,125.207418 122.3226,124.90664 122.3226,124.305074 C122.3226,124.078511 122.235686,123.910544 122.061858,123.801168 C121.888029,123.691793 121.654632,123.637106 121.361662,123.637106 C120.814784,123.637106 120.248384,123.820698 119.662443,124.187887 L118.701506,122.641012 C119.154633,122.32851 119.618496,122.105856 120.093108,121.973043 C120.567719,121.84023 121.111659,121.773824 121.724943,121.773824 C122.611667,121.773824 123.306972,121.949604 123.810881,122.301168 C124.31479,122.652732 124.56674,123.137103 124.56674,123.754293 Z M131.59799,123.754293 C131.59799,124.285546 131.435883,124.741596 131.111662,125.122457 C130.787442,125.503318 130.318697,125.779683 129.705412,125.951559 L129.705412,125.986715 C131.135107,126.166403 131.849943,126.842178 131.849943,128.014059 C131.849943,128.810938 131.534517,129.437885 130.903654,129.894918 C130.272792,130.351952 129.396824,130.580465 128.275725,130.580465 C127.814785,130.580465 127.388031,130.547262 126.995451,130.480856 C126.602871,130.414449 126.178071,130.293357 125.721037,130.117574 L125.721037,128.195699 C126.096039,128.387107 126.477871,128.528707 126.866545,128.620504 C127.255219,128.712301 127.613614,128.758199 127.94174,128.758199 C128.449555,128.758199 128.819669,128.686911 129.052092,128.544332 C129.284515,128.401753 129.400725,128.178123 129.400725,127.873434 C129.400725,127.639058 129.340178,127.458395 129.219084,127.331442 C129.09799,127.204488 128.902679,127.108786 128.633147,127.044332 C128.363614,126.979879 128.012055,126.947653 127.578459,126.947653 L127.051115,126.947653 L127.051115,125.207418 L127.590178,125.207418 C128.765965,125.207418 129.35385,124.90664 129.35385,124.305074 C129.35385,124.078511 129.266936,123.910544 129.093108,123.801168 C128.919279,123.691793 128.685882,123.637106 128.392912,123.637106 C127.846034,123.637106 127.279634,123.820698 126.693693,124.187887 L125.732756,122.641012 C126.185883,122.32851 126.649746,122.105856 127.124358,121.973043 C127.598969,121.84023 128.142909,121.773824 128.756193,121.773824 C129.642917,121.773824 130.338222,121.949604 130.842131,122.301168 C131.34604,122.652732 131.59799,123.137103 131.59799,123.754293 Z M138.62924,123.754293 C138.62924,124.285546 138.467133,124.741596 138.142912,125.122457 C137.818692,125.503318 137.349947,125.779683 136.736662,125.951559 L136.736662,125.986715 C138.166357,126.166403 138.881193,126.842178 138.881193,128.014059 C138.881193,128.810938 138.565767,129.437885 137.934904,129.894918 C137.304042,130.351952 136.428074,130.580465 135.306975,130.580465 C134.846035,130.580465 134.419281,130.547262 134.026701,130.480856 C133.634121,130.414449 133.209321,130.293357 132.752287,130.117574 L132.752287,128.195699 C133.127289,128.387107 133.509121,128.528707 133.897795,128.620504 C134.286469,128.712301 134.644864,128.758199 134.97299,128.758199 C135.480805,128.758199 135.850919,128.686911 136.083342,128.544332 C136.315765,128.401753 136.431975,128.178123 136.431975,127.873434 C136.431975,127.639058 136.371428,127.458395 136.250334,127.331442 C136.12924,127.204488 135.933929,127.108786 135.664397,127.044332 C135.394864,126.979879 135.043305,126.947653 134.609709,126.947653 L134.082365,126.947653 L134.082365,125.207418 L134.621428,125.207418 C135.797215,125.207418 136.3851,124.90664 136.3851,124.305074 C136.3851,124.078511 136.298186,123.910544 136.124358,123.801168 C135.950529,123.691793 135.717132,123.637106 135.424162,123.637106 C134.877284,123.637106 134.310884,123.820698 133.724943,124.187887 L132.764006,122.641012 C133.217133,122.32851 133.680996,122.105856 134.155608,121.973043 C134.630219,121.84023 135.174159,121.773824 135.787443,121.773824 C136.674167,121.773824 137.369472,121.949604 137.873381,122.301168 C138.37729,122.652732 138.62924,123.137103 138.62924,123.754293 Z M145.66049,123.754293 C145.66049,124.285546 145.498383,124.741596 145.174162,125.122457 C144.849942,125.503318 144.381197,125.779683 143.767912,125.951559 L143.767912,125.986715 C145.197607,126.166403 145.912443,126.842178 145.912443,128.014059 C145.912443,128.810938 145.597017,129.437885 144.966154,129.894918 C144.335292,130.351952 143.459324,130.580465 142.338225,130.580465 C141.877285,130.580465 141.450531,130.547262 141.057951,130.480856 C140.665371,130.414449 140.240571,130.293357 139.783537,130.117574 L139.783537,128.195699 C140.158539,128.387107 140.540371,128.528707 140.929045,128.620504 C141.317719,128.712301 141.676114,128.758199 142.00424,128.758199 C142.512055,128.758199 142.882169,128.686911 143.114592,128.544332 C143.347015,128.401753 143.463225,128.178123 143.463225,127.873434 C143.463225,127.639058 143.402678,127.458395 143.281584,127.331442 C143.16049,127.204488 142.965179,127.108786 142.695647,127.044332 C142.426114,126.979879 142.074555,126.947653 141.640959,126.947653 L141.113615,126.947653 L141.113615,125.207418 L141.652678,125.207418 C142.828465,125.207418 143.41635,124.90664 143.41635,124.305074 C143.41635,124.078511 143.329436,123.910544 143.155608,123.801168 C142.981779,123.691793 142.748382,123.637106 142.455412,123.637106 C141.908534,123.637106 141.342134,123.820698 140.756193,124.187887 L139.795256,122.641012 C140.248383,122.32851 140.712246,122.105856 141.186858,121.973043 C141.661469,121.84023 142.205409,121.773824 142.818693,121.773824 C143.705417,121.773824 144.400722,121.949604 144.904631,122.301168 C145.40854,122.652732 145.66049,123.137103 145.66049,123.754293 Z M152.69174,123.754293 C152.69174,124.285546 152.529633,124.741596 152.205412,125.122457 C151.881192,125.503318 151.412447,125.779683 150.799162,125.951559 L150.799162,125.986715 C152.228857,126.166403 152.943693,126.842178 152.943693,128.014059 C152.943693,128.810938 152.628267,129.437885 151.997404,129.894918 C151.366542,130.351952 150.490574,130.580465 149.369475,130.580465 C148.908535,130.580465 148.481781,130.547262 148.089201,130.480856 C147.696621,130.414449 147.271821,130.293357 146.814787,130.117574 L146.814787,128.195699 C147.189789,128.387107 147.571621,128.528707 147.960295,128.620504 C148.348969,128.712301 148.707364,128.758199 149.03549,128.758199 C149.543305,128.758199 149.913419,128.686911 150.145842,128.544332 C150.378265,128.401753 150.494475,128.178123 150.494475,127.873434 C150.494475,127.639058 150.433928,127.458395 150.312834,127.331442 C150.19174,127.204488 149.996429,127.108786 149.726897,127.044332 C149.457364,126.979879 149.105805,126.947653 148.672209,126.947653 L148.144865,126.947653 L148.144865,125.207418 L148.683928,125.207418 C149.859715,125.207418 150.4476,124.90664 150.4476,124.305074 C150.4476,124.078511 150.360686,123.910544 150.186858,123.801168 C150.013029,123.691793 149.779632,123.637106 149.486662,123.637106 C148.939784,123.637106 148.373384,123.820698 147.787443,124.187887 L146.826506,122.641012 C147.279633,122.32851 147.743496,122.105856 148.218108,121.973043 C148.692719,121.84023 149.236659,121.773824 149.849943,121.773824 C150.736667,121.773824 151.431972,121.949604 151.935881,122.301168 C152.43979,122.652732 152.69174,123.137103 152.69174,123.754293 Z M159.72299,123.754293 C159.72299,124.285546 159.560883,124.741596 159.236662,125.122457 C158.912442,125.503318 158.443697,125.779683 157.830412,125.951559 L157.830412,125.986715 C159.260107,126.166403 159.974943,126.842178 159.974943,128.014059 C159.974943,128.810938 159.659517,129.437885 159.028654,129.894918 C158.397792,130.351952 157.521824,130.580465 156.400725,130.580465 C155.939785,130.580465 155.513031,130.547262 155.120451,130.480856 C154.727871,130.414449 154.303071,130.293357 153.846037,130.117574 L153.846037,128.195699 C154.221039,128.387107 154.602871,128.528707 154.991545,128.620504 C155.380219,128.712301 155.738614,128.758199 156.06674,128.758199 C156.574555,128.758199 156.944669,128.686911 157.177092,128.544332 C157.409515,128.401753 157.525725,128.178123 157.525725,127.873434 C157.525725,127.639058 157.465178,127.458395 157.344084,127.331442 C157.22299,127.204488 157.027679,127.108786 156.758147,127.044332 C156.488614,126.979879 156.137055,126.947653 155.703459,126.947653 L155.176115,126.947653 L155.176115,125.207418 L155.715178,125.207418 C156.890965,125.207418 157.47885,124.90664 157.47885,124.305074 C157.47885,124.078511 157.391936,123.910544 157.218108,123.801168 C157.044279,123.691793 156.810882,123.637106 156.517912,123.637106 C155.971034,123.637106 155.404634,123.820698 154.818693,124.187887 L153.857756,122.641012 C154.310883,122.32851 154.774746,122.105856 155.249358,121.973043 C155.723969,121.84023 156.267909,121.773824 156.881193,121.773824 C157.767917,121.773824 158.463222,121.949604 158.967131,122.301168 C159.47104,122.652732 159.72299,123.137103 159.72299,123.754293 Z" id="$color-darkest:-#333" fill="#000000"></path>
                <path d="M21.2073653,145.072836 L21.2073653,150.615804 C21.2073653,151.592372 20.9124464,152.359942 20.3225997,152.918539 C19.732753,153.477135 18.9222142,153.756429 17.8909591,153.756429 C16.8597039,153.756429 16.0618603,153.475182 15.4974044,152.912679 C14.9329484,152.350177 14.6507247,151.576747 14.6507247,150.592367 L14.6507247,145.072836 L15.6468184,145.072836 L15.6468184,150.662679 C15.6468184,151.377527 15.842129,151.926349 16.2327559,152.309164 C16.6233829,152.691978 17.1975959,152.883383 17.9554122,152.883383 C18.6780721,152.883383 19.2347071,152.691002 19.6253341,152.306234 C20.015961,151.921467 20.2112716,151.369714 20.2112716,150.650961 L20.2112716,145.072836 L21.2073653,145.072836 Z M27.4710372,151.887289 C27.4710372,152.484948 27.2483832,152.945881 26.8030684,153.270101 C26.3577537,153.594322 25.73276,153.756429 24.9280684,153.756429 C24.0765017,153.756429 23.4124458,153.621665 22.9358809,153.352133 L22.9358809,152.449789 C23.2444762,152.60604 23.5755276,152.729085 23.929045,152.818929 C24.2825624,152.908774 24.6233793,152.953695 24.9515059,152.953695 C25.459321,152.953695 25.8499421,152.872641 26.1233809,152.710531 C26.3968198,152.548421 26.5335372,152.301353 26.5335372,151.96932 C26.5335372,151.719319 26.4251398,151.505454 26.2083419,151.327719 C25.9915439,151.149983 25.5686966,150.940024 24.9397872,150.697836 C24.342128,150.475178 23.9173275,150.280844 23.6653731,150.114828 C23.4134187,149.948811 23.2259206,149.760337 23.1028731,149.549398 C22.9798256,149.33846 22.9183028,149.086509 22.9183028,148.793539 C22.9183028,148.270099 23.1311913,147.857017 23.5569747,147.554281 C23.9827581,147.251545 24.5667366,147.100179 25.3089278,147.100179 C26.0003375,147.100179 26.676112,147.240803 27.3362716,147.522054 L26.9905684,148.31307 C26.346034,148.047444 25.7620554,147.914633 25.2386153,147.914633 C24.7776755,147.914633 24.4300227,147.986897 24.1956466,148.131429 C23.9612704,148.275961 23.8440841,148.475178 23.8440841,148.729086 C23.8440841,148.900962 23.8880289,149.047444 23.97592,149.168539 C24.0638111,149.289633 24.2054112,149.404866 24.4007247,149.514242 C24.5960382,149.623617 24.9710344,149.781819 25.5257247,149.988851 C26.2874473,150.266196 26.8020905,150.545491 27.06967,150.826742 C27.3372495,151.107993 27.4710372,151.461505 27.4710372,151.887289 Z M31.7659591,153.756429 C30.8167356,153.756429 30.0677196,153.46737 29.5188888,152.889242 C28.9700579,152.311114 28.6956466,151.508388 28.6956466,150.481039 C28.6956466,149.445877 28.9505268,148.62362 29.460295,148.014242 C29.9700632,147.404864 30.6546266,147.100179 31.5140059,147.100179 C32.3186975,147.100179 32.9554098,147.364825 33.4241622,147.894125 C33.8929145,148.423424 34.1272872,149.121659 34.1272872,149.988851 L34.1272872,150.604086 L29.7034591,150.604086 C29.7229904,151.357996 29.9134182,151.930256 30.2747481,152.320883 C30.6360781,152.71151 31.144862,152.90682 31.8011153,152.90682 C32.492525,152.90682 33.1761119,152.76229 33.8518966,152.473226 L33.8518966,153.340414 C33.5081448,153.488852 33.1829528,153.595296 32.8763106,153.65975 C32.5696685,153.724203 32.199555,153.756429 31.7659591,153.756429 Z M31.5022872,147.914633 C30.9866596,147.914633 30.5755309,148.0826 30.2688888,148.418539 C29.9622466,148.754478 29.7815843,149.219317 29.7268966,149.81307 L33.0843184,149.81307 C33.0843184,149.199786 32.9476011,148.730064 32.6741622,148.40389 C32.4007233,148.077717 32.0101022,147.914633 31.5022872,147.914633 Z M40.1565841,152.777914 L40.1038497,152.777914 C39.6546287,153.430261 38.9827604,153.756429 38.0882247,153.756429 C37.2483767,153.756429 36.595063,153.469323 36.1282638,152.895101 C35.6614645,152.32088 35.4280684,151.504482 35.4280684,150.445883 C35.4280684,149.387284 35.6624411,148.565026 36.1311934,147.979086 C36.5999458,147.393145 37.252283,147.100179 38.0882247,147.100179 C38.9593228,147.100179 39.6272849,147.416583 40.0921309,148.049398 L40.1683028,148.049398 L40.1272872,147.586508 L40.1038497,147.135336 L40.1038497,144.522054 L41.0765059,144.522054 L41.0765059,153.639242 L40.2854903,153.639242 L40.1565841,152.777914 Z M38.2112716,152.941976 C38.8753374,152.941976 39.3567779,152.761314 39.6556075,152.399984 C39.9544371,152.038654 40.1038497,151.455652 40.1038497,150.650961 L40.1038497,150.445883 C40.1038497,149.535722 39.952484,148.886314 39.6497481,148.49764 C39.3470122,148.108967 38.8636186,147.914633 38.1995528,147.914633 C37.6292375,147.914633 37.1927184,148.13631 36.8899825,148.579672 C36.5872466,149.023033 36.4358809,149.649004 36.4358809,150.457601 C36.4358809,151.277918 36.5862701,151.897052 36.8870528,152.315023 C37.1878356,152.732994 37.6292374,152.941976 38.2112716,152.941976 Z M50.2054122,153.639242 L50.0120528,152.725179 L49.9651778,152.725179 C49.6448637,153.127525 49.325531,153.399983 49.00717,153.542562 C48.688809,153.685141 48.2913521,153.756429 47.8147872,153.756429 C47.1780653,153.756429 46.6790468,153.592369 46.3177169,153.264242 C45.9563869,152.936115 45.7757247,152.469323 45.7757247,151.863851 C45.7757247,150.56697 46.8128237,149.887289 48.8870528,149.824789 L49.9768966,149.789633 L49.9768966,149.391195 C49.9768966,148.887286 49.8684992,148.51522 49.6517013,148.274984 C49.4349033,148.034749 49.0882271,147.914633 48.6116622,147.914633 C48.0765033,147.914633 47.4710406,148.078693 46.7952559,148.40682 L46.4964278,147.662679 C46.8128356,147.490804 47.1595119,147.356039 47.5364669,147.258383 C47.9134219,147.160726 48.2913478,147.111898 48.6702559,147.111898 C49.4358848,147.111898 50.0032619,147.281818 50.3724044,147.621664 C50.7415469,147.961509 50.9261153,148.506426 50.9261153,149.256429 L50.9261153,153.639242 L50.2054122,153.639242 Z M48.0081466,152.953695 C48.6136183,152.953695 49.0891995,152.787681 49.4349044,152.455648 C49.7806092,152.123615 49.9534591,151.658776 49.9534591,151.061117 L49.9534591,150.481039 L48.9808028,150.522054 C48.2073615,150.549398 47.6497498,150.669514 47.3079513,150.882406 C46.9661527,151.095298 46.7952559,151.426349 46.7952559,151.87557 C46.7952559,152.227134 46.9017002,152.49471 47.1145919,152.678304 C47.3274836,152.861899 47.6253322,152.953695 48.0081466,152.953695 Z M57.0725997,151.887289 C57.0725997,152.484948 56.8499457,152.945881 56.4046309,153.270101 C55.9593162,153.594322 55.3343225,153.756429 54.5296309,153.756429 C53.6780642,153.756429 53.0140083,153.621665 52.5374434,153.352133 L52.5374434,152.449789 C52.8460387,152.60604 53.1770901,152.729085 53.5306075,152.818929 C53.8841249,152.908774 54.2249418,152.953695 54.5530684,152.953695 C55.0608835,152.953695 55.4515046,152.872641 55.7249434,152.710531 C55.9983823,152.548421 56.1350997,152.301353 56.1350997,151.96932 C56.1350997,151.719319 56.0267023,151.505454 55.8099044,151.327719 C55.5931064,151.149983 55.1702591,150.940024 54.5413497,150.697836 C53.9436905,150.475178 53.51889,150.280844 53.2669356,150.114828 C53.0149812,149.948811 52.8274831,149.760337 52.7044356,149.549398 C52.5813881,149.33846 52.5198653,149.086509 52.5198653,148.793539 C52.5198653,148.270099 52.7327538,147.857017 53.1585372,147.554281 C53.5843206,147.251545 54.1682991,147.100179 54.9104903,147.100179 C55.6019,147.100179 56.2776745,147.240803 56.9378341,147.522054 L56.5921309,148.31307 C55.9475965,148.047444 55.3636179,147.914633 54.8401778,147.914633 C54.379238,147.914633 54.0315852,147.986897 53.7972091,148.131429 C53.5628329,148.275961 53.4456466,148.475178 53.4456466,148.729086 C53.4456466,148.900962 53.4895914,149.047444 53.5774825,149.168539 C53.6653736,149.289633 53.8069737,149.404866 54.0022872,149.514242 C54.1976007,149.623617 54.5725969,149.781819 55.1272872,149.988851 C55.8890098,150.266196 56.403653,150.545491 56.6712325,150.826742 C56.938812,151.107993 57.0725997,151.461505 57.0725997,151.887289 Z M69.9573653,153.639242 L69.9573653,149.461508 C69.9573653,148.949786 69.8479914,148.566001 69.6292403,148.31014 C69.4104892,148.05428 69.0706489,147.926351 68.6097091,147.926351 C68.0042373,147.926351 67.5569761,148.100178 67.2679122,148.447836 C66.9788482,148.795494 66.8343184,149.330645 66.8343184,150.053304 L66.8343184,153.639242 L65.8616622,153.639242 L65.8616622,149.461508 C65.8616622,148.949786 65.7522883,148.566001 65.5335372,148.31014 C65.3147861,148.05428 64.9729926,147.926351 64.5081466,147.926351 C63.8987685,147.926351 63.4524839,148.108967 63.1692794,148.474203 C62.8860748,148.839439 62.7444747,149.438066 62.7444747,150.270101 L62.7444747,153.639242 L61.7718184,153.639242 L61.7718184,147.217367 L62.5628341,147.217367 L62.7210372,148.096273 L62.7679122,148.096273 C62.9515069,147.783772 63.2102933,147.539633 63.5442794,147.363851 C63.8782654,147.188069 64.2522851,147.100179 64.6663497,147.100179 C65.670261,147.100179 66.3265044,147.463457 66.6350997,148.190023 L66.6819747,148.190023 C66.8733819,147.854084 67.1507229,147.588462 67.5140059,147.393148 C67.877289,147.197835 68.2913474,147.100179 68.7561934,147.100179 C69.4827596,147.100179 70.0266994,147.286701 70.3880294,147.65975 C70.7493593,148.032798 70.9300216,148.629472 70.9300216,149.449789 L70.9300216,153.639242 L69.9573653,153.639242 Z M76.8831466,153.639242 L76.6897872,152.725179 L76.6429122,152.725179 C76.3225981,153.127525 76.0032653,153.399983 75.6849044,153.542562 C75.3665434,153.685141 74.9690865,153.756429 74.4925216,153.756429 C73.8557996,153.756429 73.3567812,153.592369 72.9954513,153.264242 C72.6341213,152.936115 72.4534591,152.469323 72.4534591,151.863851 C72.4534591,150.56697 73.4905581,149.887289 75.5647872,149.824789 L76.6546309,149.789633 L76.6546309,149.391195 C76.6546309,148.887286 76.5462336,148.51522 76.3294356,148.274984 C76.1126377,148.034749 75.7659615,147.914633 75.2893966,147.914633 C74.7542376,147.914633 74.1487749,148.078693 73.4729903,148.40682 L73.1741622,147.662679 C73.49057,147.490804 73.8372462,147.356039 74.2142013,147.258383 C74.5911563,147.160726 74.9690822,147.111898 75.3479903,147.111898 C76.1136191,147.111898 76.6809963,147.281818 77.0501388,147.621664 C77.4192812,147.961509 77.6038497,148.506426 77.6038497,149.256429 L77.6038497,153.639242 L76.8831466,153.639242 Z M74.6858809,152.953695 C75.2913527,152.953695 75.7669339,152.787681 76.1126388,152.455648 C76.4583436,152.123615 76.6311934,151.658776 76.6311934,151.061117 L76.6311934,150.481039 L75.6585372,150.522054 C74.8850958,150.549398 74.3274842,150.669514 73.9856856,150.882406 C73.643887,151.095298 73.4729903,151.426349 73.4729903,151.87557 C73.4729903,152.227134 73.5794346,152.49471 73.7923263,152.678304 C74.0052179,152.861899 74.3030665,152.953695 74.6858809,152.953695 Z M80.5804122,153.639242 L79.6077559,153.639242 L79.6077559,147.217367 L80.5804122,147.217367 L80.5804122,153.639242 Z M79.5257247,145.477133 C79.5257247,145.254475 79.5804116,145.091391 79.6897872,144.987875 C79.7991627,144.884359 79.9358801,144.832601 80.0999434,144.832601 C80.2561942,144.832601 80.3909585,144.885335 80.5042403,144.990804 C80.6175221,145.096274 80.6741622,145.258381 80.6741622,145.477133 C80.6741622,145.695884 80.6175221,145.858968 80.5042403,145.96639 C80.3909585,146.073813 80.2561942,146.127523 80.0999434,146.127523 C79.9358801,146.127523 79.7991627,146.073813 79.6897872,145.96639 C79.5804116,145.858968 79.5257247,145.695884 79.5257247,145.477133 Z M87.0374434,153.639242 L87.0374434,149.484945 C87.0374434,148.961505 86.918304,148.570884 86.6800216,148.31307 C86.4417391,148.055256 86.068696,147.926351 85.5608809,147.926351 C84.8890026,147.926351 84.39682,148.10799 84.0843184,148.471273 C83.7718169,148.834556 83.6155684,149.43416 83.6155684,150.270101 L83.6155684,153.639242 L82.6429122,153.639242 L82.6429122,147.217367 L83.4339278,147.217367 L83.5921309,148.096273 L83.6390059,148.096273 C83.8382257,147.779865 84.1175198,147.534751 84.4768966,147.360922 C84.8362734,147.187093 85.23666,147.100179 85.6780684,147.100179 C86.4515098,147.100179 87.0335352,147.286701 87.4241622,147.65975 C87.8147891,148.032798 88.0100997,148.629472 88.0100997,149.449789 L88.0100997,153.639242 L87.0374434,153.639242 Z M95.6917403,153.756429 C94.7620482,153.756429 94.0423288,153.470299 93.5325606,152.898031 C93.0227925,152.325763 92.7679122,151.5162 92.7679122,150.46932 C92.7679122,149.395096 93.0266987,148.565026 93.5442794,147.979086 C94.0618601,147.393145 94.7991574,147.100179 95.7561934,147.100179 C96.0647887,147.100179 96.3733794,147.133382 96.6819747,147.199789 C96.99057,147.266195 97.2327551,147.34432 97.4085372,147.434164 L97.1097091,148.260336 C96.8948642,148.174398 96.6604916,148.103109 96.4065841,148.046469 C96.1526765,147.989828 95.9280694,147.961508 95.7327559,147.961508 C94.4280619,147.961508 93.7757247,148.79353 93.7757247,150.457601 C93.7757247,151.246668 93.9349028,151.85213 94.2532638,152.274008 C94.5716247,152.695885 95.0432997,152.90682 95.6683028,152.90682 C96.2034617,152.90682 96.7522844,152.791587 97.3147872,152.561117 L97.3147872,153.422445 C96.8850975,153.645102 96.3440873,153.756429 95.6917403,153.756429 Z M104.381193,150.422445 C104.381193,151.469325 104.117524,152.2867 103.590178,152.874594 C103.062831,153.462487 102.334323,153.756429 101.404631,153.756429 C100.830409,153.756429 100.320649,153.621665 99.8753341,153.352133 C99.4300193,153.0826 99.0862728,152.695885 98.8440841,152.191976 C98.6018954,151.688068 98.4808028,151.09823 98.4808028,150.422445 C98.4808028,149.375565 98.742519,148.560143 99.2659591,147.976156 C99.7893992,147.392169 100.515954,147.100179 101.445647,147.100179 C102.344089,147.100179 103.057949,147.399005 103.587248,147.996664 C104.116548,148.594323 104.381193,149.402909 104.381193,150.422445 Z M99.4886153,150.422445 C99.4886153,151.242762 99.6526762,151.867755 99.9808028,152.297445 C100.308929,152.727135 100.791347,152.941976 101.428068,152.941976 C102.06479,152.941976 102.548184,152.728111 102.878264,152.300375 C103.208344,151.872638 103.373381,151.246668 103.373381,150.422445 C103.373381,149.606035 103.208344,148.985924 102.878264,148.562094 C102.548184,148.138263 102.060884,147.926351 101.41635,147.926351 C100.779628,147.926351 100.299164,148.135334 99.9749434,148.553304 C99.6507231,148.971275 99.4886153,149.594316 99.4886153,150.422445 Z M107.058928,153.639242 L106.086272,153.639242 L106.086272,144.522054 L107.058928,144.522054 L107.058928,153.639242 Z M114.664397,150.422445 C114.664397,151.469325 114.400727,152.2867 113.873381,152.874594 C113.346035,153.462487 112.617526,153.756429 111.687834,153.756429 C111.113612,153.756429 110.603852,153.621665 110.158537,153.352133 C109.713222,153.0826 109.369476,152.695885 109.127287,152.191976 C108.885098,151.688068 108.764006,151.09823 108.764006,150.422445 C108.764006,149.375565 109.025722,148.560143 109.549162,147.976156 C110.072602,147.392169 110.799158,147.100179 111.72885,147.100179 C112.627292,147.100179 113.341152,147.399005 113.870451,147.996664 C114.399751,148.594323 114.664397,149.402909 114.664397,150.422445 Z M109.771818,150.422445 C109.771818,151.242762 109.935879,151.867755 110.264006,152.297445 C110.592133,152.727135 111.07455,152.941976 111.711272,152.941976 C112.347994,152.941976 112.831387,152.728111 113.161467,152.300375 C113.491547,151.872638 113.656584,151.246668 113.656584,150.422445 C113.656584,149.606035 113.491547,148.985924 113.161467,148.562094 C112.831387,148.138263 112.344087,147.926351 111.699553,147.926351 C111.062831,147.926351 110.582367,148.135334 110.258147,148.553304 C109.933926,148.971275 109.771818,149.594316 109.771818,150.422445 Z M119.299162,147.100179 C119.58432,147.100179 119.840177,147.123617 120.06674,147.170492 L119.931975,148.072836 C119.666348,148.014242 119.431976,147.984945 119.22885,147.984945 C118.709316,147.984945 118.264984,148.19588 117.895842,148.617758 C117.526699,149.039635 117.342131,149.56502 117.342131,150.193929 L117.342131,153.639242 L116.369475,153.639242 L116.369475,147.217367 L117.172209,147.217367 L117.283537,148.40682 L117.330412,148.40682 C117.568695,147.988849 117.855801,147.666587 118.19174,147.440023 C118.527679,147.21346 118.896816,147.100179 119.299162,147.100179 Z M126.459318,152.953695 C126.631194,152.953695 126.797208,152.941 126.957365,152.915609 C127.117522,152.890218 127.244474,152.863851 127.338225,152.836508 L127.338225,153.580648 C127.232755,153.63143 127.077484,153.673421 126.872404,153.706625 C126.667325,153.739828 126.482757,153.756429 126.318693,153.756429 C125.0765,153.756429 124.455412,153.102139 124.455412,151.793539 L124.455412,147.973226 L123.53549,147.973226 L123.53549,147.504476 L124.455412,147.100179 L124.865568,145.729086 L125.428068,145.729086 L125.428068,147.217367 L127.29135,147.217367 L127.29135,147.973226 L125.428068,147.973226 L125.428068,151.752523 C125.428068,152.139244 125.519864,152.436116 125.703459,152.643148 C125.887054,152.85018 126.139004,152.953695 126.459318,152.953695 Z M131.334318,153.756429 C130.385095,153.756429 129.636079,153.46737 129.087248,152.889242 C128.538417,152.311114 128.264006,151.508388 128.264006,150.481039 C128.264006,149.445877 128.518886,148.62362 129.028654,148.014242 C129.538423,147.404864 130.222986,147.100179 131.082365,147.100179 C131.887057,147.100179 132.523769,147.364825 132.992522,147.894125 C133.461274,148.423424 133.695647,149.121659 133.695647,149.988851 L133.695647,150.604086 L129.271818,150.604086 C129.29135,151.357996 129.481778,151.930256 129.843108,152.320883 C130.204437,152.71151 130.713221,152.90682 131.369475,152.90682 C132.060884,152.90682 132.744471,152.76229 133.420256,152.473226 L133.420256,153.340414 C133.076504,153.488852 132.751312,153.595296 132.44467,153.65975 C132.138028,153.724203 131.767914,153.756429 131.334318,153.756429 Z M131.070647,147.914633 C130.555019,147.914633 130.14389,148.0826 129.837248,148.418539 C129.530606,148.754478 129.349944,149.219317 129.295256,149.81307 L132.652678,149.81307 C132.652678,149.199786 132.51596,148.730064 132.242522,148.40389 C131.969083,148.077717 131.578462,147.914633 131.070647,147.914633 Z M136.900725,150.352133 L134.668303,147.217367 L135.775725,147.217367 L137.469084,149.678304 L139.156584,147.217367 L140.252287,147.217367 L138.019865,150.352133 L140.369475,153.639242 L139.267912,153.639242 L137.469084,151.037679 L135.652678,153.639242 L134.551115,153.639242 L136.900725,150.352133 Z M143.715178,152.953695 C143.887054,152.953695 144.053068,152.941 144.213225,152.915609 C144.373382,152.890218 144.500334,152.863851 144.594084,152.836508 L144.594084,153.580648 C144.488615,153.63143 144.333343,153.673421 144.128264,153.706625 C143.923185,153.739828 143.738616,153.756429 143.574553,153.756429 C142.332359,153.756429 141.711272,153.102139 141.711272,151.793539 L141.711272,147.973226 L140.79135,147.973226 L140.79135,147.504476 L141.711272,147.100179 L142.121428,145.729086 L142.683928,145.729086 L142.683928,147.217367 L144.547209,147.217367 L144.547209,147.973226 L142.683928,147.973226 L142.683928,151.752523 C142.683928,152.139244 142.775724,152.436116 142.959318,152.643148 C143.142913,152.85018 143.394864,152.953695 143.715178,152.953695 Z" id="Used-as-main-color-t" fill="#000000"></path>
            </g>
        </g>
    </g>
</svg>