<?xml version="1.0" encoding="UTF-8" standalone="no"?>
<svg width="181px" height="210px" viewBox="0 0 181 210" version="1.1" xmlns="http://www.w3.org/2000/svg" xmlns:xlink="http://www.w3.org/1999/xlink">
    <!-- Generator: Sketch 44.1 (41455) - http://www.bohemiancoding.com/sketch -->
    <title>Group 22</title>
    <desc>Created with Sketch.</desc>
    <defs></defs>
    <g id="Page-1" stroke="none" stroke-width="1" fill="none" fill-rule="evenodd">
        <g id="Artboard-Copy-18" transform="translate(-960.000000, -1503.000000)">
            <g id="Group-22" transform="translate(960.585736, 1503.053207)">
                <rect id="Rectangle-18-Copy-6" fill="#F7F7F7" x="0.209496792" y="0" width="180" height="89.7379413"></rect>
                <rect id="Rectangle-18-Copy-7" fill="#FFFFFF" x="0.209496792" y="89.7379413" width="180" height="120"></rect>
                <path d="M16.2235027,130.153019 C15.3680297,130.113956 14.5438192,129.922552 13.7508465,129.5788 L13.7508465,127.633488 C14.2039737,127.863958 14.6961563,128.056339 15.227409,128.210636 C15.7586616,128.364934 16.2254538,128.442082 16.6277996,128.442082 C16.9598325,128.442082 17.2029942,128.402043 17.3572918,128.321964 C17.5115894,128.241886 17.5887371,128.108098 17.5887371,127.920597 C17.5887371,127.79169 17.5330736,127.682317 17.4217449,127.592472 C17.3104162,127.502628 17.1248712,127.401067 16.8651043,127.287785 C16.6053374,127.174503 16.2547549,127.037786 15.8133465,126.877629 C15.3172503,126.694034 14.9168636,126.487981 14.6121746,126.259464 C14.3074856,126.030948 14.0858081,125.775091 13.9471355,125.491886 C13.808463,125.208682 13.7391277,124.856146 13.7391277,124.434269 C13.7391277,123.789735 13.9461569,123.285833 14.3602215,122.92255 C14.7742861,122.559267 15.3953736,122.33466 16.2235027,122.248722 L16.2235027,121.445988 L17.4363934,121.445988 L17.4363934,122.237004 C18.213741,122.279973 18.9969363,122.471377 19.7860027,122.811222 L19.0887371,124.481144 C18.2723268,124.113955 17.536006,123.930363 16.8797527,123.930363 C16.5672512,123.930363 16.3475268,123.968448 16.220573,124.044621 C16.0936193,124.120793 16.0301434,124.233097 16.0301434,124.381535 C16.0301434,124.510442 16.0760413,124.616886 16.1678387,124.700871 C16.259636,124.784856 16.4188141,124.878605 16.6453777,124.982121 C16.8719414,125.085637 17.1863913,125.205753 17.5887371,125.342472 C18.4051474,125.631536 18.9910791,125.960635 19.3465496,126.329777 C19.7020201,126.698919 19.8797527,127.174501 19.8797527,127.756535 C19.8797527,128.412788 19.671747,128.945986 19.2557293,129.356144 C18.8397116,129.766302 18.2332723,130.020206 17.4363934,130.117863 L17.4363934,131.248722 L16.2235027,131.248722 L16.2235027,130.153019 Z M24.1160809,130.668644 C23.0301379,130.668644 22.206904,130.375678 21.6463543,129.789738 C21.0858046,129.203798 20.805534,128.362009 20.805534,127.264347 C20.805534,126.162779 21.1082653,125.309272 21.7137371,124.7038 C22.3192089,124.098329 23.1805284,123.795597 24.2977215,123.795597 C25.0672566,123.795597 25.7918587,123.963564 26.4715496,124.299504 L25.7977215,125.992863 C25.5203763,125.871769 25.2645195,125.77509 25.0301434,125.702824 C24.7957672,125.630558 24.551629,125.594425 24.2977215,125.594425 C23.9266259,125.594425 23.6395194,125.738955 23.4363934,126.028019 C23.2332673,126.317083 23.1317059,126.725282 23.1317059,127.252629 C23.1317059,128.315134 23.5242801,128.846379 24.3094402,128.846379 C24.9813186,128.846379 25.6258434,128.651068 26.243034,128.260441 L26.243034,130.082707 C25.6531873,130.473334 24.94421,130.668644 24.1160809,130.668644 Z M33.9012371,127.217472 C33.9012371,128.303415 33.6092478,129.150086 33.0252605,129.757511 C32.4412733,130.364936 31.6238986,130.668644 30.5731121,130.668644 C29.5652946,130.668644 28.7635448,130.3581 28.1678387,129.737004 C27.5721326,129.115907 27.274284,128.276071 27.274284,127.217472 C27.274284,126.135436 27.5662733,125.294624 28.1502605,124.695011 C28.7342478,124.095399 29.5535756,123.795597 30.6082684,123.795597 C31.2606154,123.795597 31.8367815,123.934268 32.336784,124.211613 C32.8367865,124.488958 33.2225248,124.886415 33.4940105,125.403996 C33.7654963,125.921576 33.9012371,126.526063 33.9012371,127.217472 Z M29.6004559,127.217472 C29.6004559,127.787788 29.676627,128.222354 29.8289715,128.521183 C29.981316,128.820013 30.2371728,128.969425 30.5965496,128.969425 C30.9520201,128.969425 31.2029942,128.820013 31.3494793,128.521183 C31.4959644,128.222354 31.5692059,127.787788 31.5692059,127.217472 C31.5692059,126.651063 31.4949879,126.223333 31.3465496,125.934269 C31.1981114,125.645205 30.9442077,125.500675 30.5848309,125.500675 C30.2332666,125.500675 29.981316,125.644229 29.8289715,125.931339 C29.676627,126.21845 29.6004559,126.647157 29.6004559,127.217472 Z M37.4988934,130.551457 L35.2078777,130.551457 L35.2078777,121.434269 L37.4988934,121.434269 L37.4988934,130.551457 Z M45.4266277,127.217472 C45.4266277,128.303415 45.1346385,129.150086 44.5506512,129.757511 C43.9666639,130.364936 43.1492892,130.668644 42.0985027,130.668644 C41.0906852,130.668644 40.2889354,130.3581 39.6932293,129.737004 C39.0975232,129.115907 38.7996746,128.276071 38.7996746,127.217472 C38.7996746,126.135436 39.0916639,125.294624 39.6756512,124.695011 C40.2596385,124.095399 41.0789662,123.795597 42.133659,123.795597 C42.786006,123.795597 43.3621721,123.934268 43.8621746,124.211613 C44.3621771,124.488958 44.7479154,124.886415 45.0194012,125.403996 C45.2908869,125.921576 45.4266277,126.526063 45.4266277,127.217472 Z M41.1258465,127.217472 C41.1258465,127.787788 41.2020176,128.222354 41.3543621,128.521183 C41.5067066,128.820013 41.7625634,128.969425 42.1219402,128.969425 C42.4774108,128.969425 42.7283848,128.820013 42.8748699,128.521183 C43.021355,128.222354 43.0945965,127.787788 43.0945965,127.217472 C43.0945965,126.651063 43.0203785,126.223333 42.8719402,125.934269 C42.723502,125.645205 42.4695983,125.500675 42.1102215,125.500675 C41.7586572,125.500675 41.5067066,125.644229 41.3543621,125.931339 C41.2020176,126.21845 41.1258465,126.647157 41.1258465,127.217472 Z M50.7410809,123.795597 C50.9403006,123.795597 51.1297518,123.811222 51.3094402,123.842472 L51.4383465,123.86591 L51.2332684,126.028019 C51.0457674,125.981144 50.7860044,125.957707 50.4539715,125.957707 C49.953969,125.957707 49.5906914,126.071963 49.3641277,126.30048 C49.1375641,126.528997 49.024284,126.858095 49.024284,127.287785 L49.024284,130.551457 L46.7332684,130.551457 L46.7332684,123.912785 L48.4383465,123.912785 L48.7957684,124.973332 L48.9070965,124.973332 C49.0985037,124.621767 49.3651026,124.337591 49.7069012,124.120793 C50.0486998,123.903995 50.3934229,123.795597 50.7410809,123.795597 Z M51.8250652,128.248722 L51.8250652,126.420597 L55.1356121,126.420597 L55.1356121,128.248722 L51.8250652,128.248722 Z M58.4695965,130.551457 L56.1785809,130.551457 L56.1785809,121.434269 L58.4695965,121.434269 L58.4695965,130.551457 Z M62.3602215,130.551457 L60.0692059,130.551457 L60.0692059,123.912785 L62.3602215,123.912785 L62.3602215,130.551457 Z M60.0106121,122.260441 C60.0106121,121.916689 60.1063143,121.660833 60.2977215,121.492863 C60.4891287,121.324893 60.7977194,121.24091 61.2235027,121.24091 C61.6492861,121.24091 61.9598299,121.326846 62.1551434,121.498722 C62.3504568,121.670598 62.4481121,121.924502 62.4481121,122.260441 C62.4481121,122.932319 62.0399131,123.268254 61.2235027,123.268254 C60.4149049,123.268254 60.0106121,122.932319 60.0106121,122.260441 Z M70.2235027,123.912785 L70.2235027,125.020207 L69.3152996,125.354191 C69.4403002,125.580755 69.5027996,125.844424 69.5027996,126.145207 C69.5027996,126.860054 69.2518256,127.414736 68.7498699,127.809269 C68.2479143,128.203802 67.4988983,128.401066 66.5027996,128.401066 C66.2567046,128.401066 66.0613941,128.385441 65.9168621,128.354191 C65.8621743,128.455754 65.8348309,128.551456 65.8348309,128.6413 C65.8348309,128.754582 65.9266268,128.841495 66.1102215,128.902043 C66.2938162,128.96259 66.5340481,128.992863 66.8309246,128.992863 L67.9324871,128.992863 C69.4207758,128.992863 70.164909,129.61981 70.164909,130.873722 C70.164909,131.68232 69.8201859,132.31122 69.1307293,132.760441 C68.4412727,133.209662 67.473509,133.434269 66.227409,133.434269 C65.285998,133.434269 64.5604193,133.277044 64.0506512,132.962589 C63.540883,132.648135 63.2860027,132.195991 63.2860027,131.606144 C63.2860027,130.813171 63.7781853,130.301458 64.7625652,130.070988 C64.5594392,129.98505 64.3826832,129.84638 64.2322918,129.654972 C64.0819004,129.463565 64.0067059,129.274114 64.0067059,129.086613 C64.0067059,128.879581 64.0633459,128.696965 64.1766277,128.538761 C64.2899096,128.380557 64.5262353,128.192083 64.8856121,127.973332 C64.5418604,127.820987 64.2713553,127.582708 64.0740887,127.258488 C63.8768221,126.934268 63.7781902,126.53974 63.7781902,126.074894 C63.7781902,125.352234 64.0242815,124.791693 64.5164715,124.393254 C65.0086614,123.994814 65.7117794,123.795597 66.6258465,123.795597 C66.7469408,123.795597 66.9559231,123.809269 67.2527996,123.836613 C67.5496761,123.863957 67.7684239,123.889347 67.9090496,123.912785 L70.2235027,123.912785 Z M65.2195965,131.377629 C65.2195965,131.565129 65.321158,131.716495 65.524284,131.83173 C65.72741,131.946965 65.9988917,132.004582 66.3387371,132.004582 C66.8934274,132.004582 67.3377589,131.935246 67.6717449,131.796574 C68.005731,131.657901 68.1727215,131.479192 68.1727215,131.260441 C68.1727215,131.084659 68.07116,130.960637 67.868034,130.888371 C67.664908,130.816105 67.3738953,130.779972 66.9949871,130.779972 L66.0985027,130.779972 C65.8524078,130.779972 65.644402,130.837589 65.4744793,130.952824 C65.3045566,131.068059 65.2195965,131.209659 65.2195965,131.377629 Z M65.9402996,126.086613 C65.9402996,126.766304 66.1766254,127.106144 66.649284,127.106144 C66.8680351,127.106144 67.0369787,127.022161 67.1561199,126.854191 C67.2752611,126.686221 67.3348309,126.434271 67.3348309,126.098332 C67.3348309,125.410828 67.1063175,125.067082 66.649284,125.067082 C66.1766254,125.067082 65.9402996,125.406922 65.9402996,126.086613 Z M75.4090496,130.551457 L75.4090496,126.930363 C75.4090496,126.039733 75.1453804,125.594425 74.618034,125.594425 C74.2430321,125.594425 73.9666677,125.75165 73.7889324,126.066105 C73.6111972,126.38056 73.5223309,126.903016 73.5223309,127.633488 L73.5223309,130.551457 L71.2313152,130.551457 L71.2313152,121.434269 L73.5223309,121.434269 L73.5223309,122.729191 C73.5223309,123.315131 73.4910812,123.983094 73.4285809,124.733097 L73.5340496,124.733097 C73.7528007,124.389346 74.0125637,124.147161 74.3133465,124.006535 C74.6141292,123.865909 74.9637351,123.795597 75.3621746,123.795597 C76.1043658,123.795597 76.6815085,124.009462 77.0936199,124.437199 C77.5057314,124.864935 77.711784,125.463562 77.711784,126.233097 L77.711784,130.551457 L75.4090496,130.551457 Z M82.5223309,128.858097 C82.8309262,128.858097 83.2000631,128.781926 83.6297527,128.629582 L83.6297527,130.299504 C83.3211574,130.432317 83.0272151,130.527042 82.7479168,130.583683 C82.4686185,130.640324 82.1414734,130.668644 81.7664715,130.668644 C80.9969364,130.668644 80.4422544,130.48017 80.102409,130.103214 C79.7625635,129.726259 79.5926434,129.147164 79.5926434,128.36591 L79.5926434,125.629582 L78.789909,125.629582 L78.789909,124.697941 L79.8094402,123.977238 L80.4012371,122.582707 L81.9012371,122.582707 L81.9012371,123.912785 L83.5301434,123.912785 L83.5301434,125.629582 L81.9012371,125.629582 L81.9012371,128.213566 C81.9012371,128.643256 82.1082663,128.858097 82.5223309,128.858097 Z M84.5027996,129.5788 C84.5027996,129.219424 84.6092439,128.942083 84.8221355,128.746769 C85.0350272,128.551456 85.3445945,128.4538 85.7508465,128.4538 C86.1375672,128.4538 86.4344392,128.551456 86.6414715,128.746769 C86.8485038,128.942083 86.9520184,129.219424 86.9520184,129.5788 C86.9520184,129.930365 86.8455741,130.204776 86.6326824,130.402043 C86.4197907,130.599309 86.1258484,130.697941 85.7508465,130.697941 C85.3641258,130.697941 85.0594413,130.600286 84.836784,130.404972 C84.6141266,130.209659 84.5027996,129.934271 84.5027996,129.5788 Z M84.5027996,124.949894 C84.5027996,124.594424 84.6102204,124.319036 84.8250652,124.123722 C85.0399101,123.928409 85.3485007,123.830754 85.7508465,123.830754 C86.1375672,123.830754 86.4344392,123.928409 86.6414715,124.123722 C86.8485038,124.319036 86.9520184,124.594424 86.9520184,124.949894 C86.9520184,125.301458 86.8465507,125.576846 86.6356121,125.776066 C86.4246736,125.975286 86.1297546,126.074894 85.7508465,126.074894 C85.352407,126.074894 85.0447929,125.975286 84.8279949,125.776066 C84.611197,125.576846 84.5027996,125.301458 84.5027996,124.949894 Z M96.6902996,125.787785 L96.5145184,126.77216 L97.9383465,126.77216 L97.9383465,128.260441 L96.2391277,128.260441 L95.805534,130.551457 L94.2352215,130.551457 L94.6629559,128.260441 L93.6785809,128.260441 L93.2625652,130.551457 L91.6981121,130.551457 L92.1199871,128.260441 L90.8016277,128.260441 L90.8016277,126.77216 L92.4070965,126.77216 L92.5887371,125.787785 L91.1942059,125.787785 L91.1942059,124.264347 L92.8758465,124.264347 L93.2977215,121.98505 L94.868034,121.98505 L94.4344402,124.264347 L95.4070965,124.264347 L95.8289715,121.98505 L97.399284,121.98505 L96.9715496,124.264347 L98.3133465,124.264347 L98.3133465,125.787785 L96.6902996,125.787785 Z M93.9715496,126.77216 L94.9383465,126.77216 L95.1199871,125.787785 L94.1473309,125.787785 L93.9715496,126.77216 Z M103.375846,125.629582 L101.963737,125.629582 L101.963737,130.551457 L99.6727215,130.551457 L99.6727215,125.629582 L98.7938152,125.629582 L98.7938152,124.504582 L99.7195965,123.942082 L99.7195965,123.830754 C99.7195965,122.955749 99.8983056,122.326849 100.255729,121.944035 C100.613153,121.56122 101.186389,121.369816 101.975456,121.369816 C102.280145,121.369816 102.568228,121.393253 102.839714,121.440129 C103.111199,121.487004 103.426626,121.569034 103.786003,121.686222 L103.293815,123.168644 C103.012564,123.090519 102.737176,123.051457 102.467643,123.051457 C102.291861,123.051457 102.163933,123.105167 102.083854,123.212589 C102.003776,123.320012 101.963737,123.494815 101.963737,123.737004 L101.963737,123.912785 L103.375846,123.912785 L103.375846,125.629582 Z M104.711784,130.551457 L107.65319,123.912785 L103.944206,123.912785 L103.944206,121.996769 L110.125846,121.996769 L110.125846,123.362004 L107.108268,130.551457 L104.711784,130.551457 Z M115.364128,125.629582 L113.952018,125.629582 L113.952018,130.551457 L111.661003,130.551457 L111.661003,125.629582 L110.782096,125.629582 L110.782096,124.504582 L111.707878,123.942082 L111.707878,123.830754 C111.707878,122.955749 111.886587,122.326849 112.244011,121.944035 C112.601434,121.56122 113.174671,121.369816 113.963737,121.369816 C114.268426,121.369816 114.556509,121.393253 114.827995,121.440129 C115.099481,121.487004 115.414907,121.569034 115.774284,121.686222 L115.282096,123.168644 C115.000845,123.090519 114.725457,123.051457 114.455925,123.051457 C114.280142,123.051457 114.152214,123.105167 114.072136,123.212589 C113.992057,123.320012 113.952018,123.494815 113.952018,123.737004 L113.952018,123.912785 L115.364128,123.912785 L115.364128,125.629582 Z M116.700065,130.551457 L119.641471,123.912785 L115.932487,123.912785 L115.932487,121.996769 L122.114128,121.996769 L122.114128,123.362004 L119.09655,130.551457 L116.700065,130.551457 Z M127.352409,125.629582 L125.9403,125.629582 L125.9403,130.551457 L123.649284,130.551457 L123.649284,125.629582 L122.770378,125.629582 L122.770378,124.504582 L123.696159,123.942082 L123.696159,123.830754 C123.696159,122.955749 123.874868,122.326849 124.232292,121.944035 C124.589715,121.56122 125.162952,121.369816 125.952018,121.369816 C126.256707,121.369816 126.54479,121.393253 126.816276,121.440129 C127.087762,121.487004 127.403188,121.569034 127.762565,121.686222 L127.270378,123.168644 C126.989126,123.090519 126.713738,123.051457 126.444206,123.051457 C126.268424,123.051457 126.140495,123.105167 126.060417,123.212589 C125.980338,123.320012 125.9403,123.494815 125.9403,123.737004 L125.9403,123.912785 L127.352409,123.912785 L127.352409,125.629582 Z M128.688346,130.551457 L131.629753,123.912785 L127.920768,123.912785 L127.920768,121.996769 L134.102409,121.996769 L134.102409,123.362004 L131.084831,130.551457 L128.688346,130.551457 Z" id="$color-light:-#f7f7f" fill="#000000"></path>
                <path d="M20.9168621,145.161015 L20.9168621,150.703984 C20.9168621,151.680551 20.6219432,152.448121 20.0320965,153.006718 C19.4422498,153.565315 18.631711,153.844609 17.6004559,153.844609 C16.5692007,153.844609 15.7713571,153.563361 15.2069012,153.000859 C14.6424452,152.438356 14.3602215,151.664926 14.3602215,150.680546 L14.3602215,145.161015 L15.3563152,145.161015 L15.3563152,150.750859 C15.3563152,151.465706 15.5516258,152.014529 15.9422527,152.397343 C16.3328797,152.780157 16.9070927,152.971562 17.664909,152.971562 C18.3875688,152.971562 18.9442039,152.779181 19.3348309,152.394413 C19.7254578,152.009646 19.9207684,151.457893 19.9207684,150.73914 L19.9207684,145.161015 L20.9168621,145.161015 Z M27.180534,151.975468 C27.180534,152.573127 26.95788,153.03406 26.5125652,153.35828 C26.0672505,153.682501 25.4422568,153.844609 24.6375652,153.844609 C23.7859985,153.844609 23.1219426,153.709844 22.6453777,153.440312 L22.6453777,152.537968 C22.953973,152.694219 23.2850244,152.817264 23.6385418,152.907109 C23.9920592,152.996953 24.3328761,153.041874 24.6610027,153.041874 C25.1688178,153.041874 25.5594389,152.96082 25.8328777,152.79871 C26.1063166,152.6366 26.243034,152.389532 26.243034,152.057499 C26.243034,151.807498 26.1346366,151.593633 25.9178387,151.415898 C25.7010407,151.238162 25.2781934,151.028204 24.649284,150.786015 C24.0516247,150.563357 23.6268243,150.369023 23.3748699,150.203007 C23.1229155,150.036991 22.9354174,149.848516 22.8123699,149.637577 C22.6893224,149.426639 22.6277996,149.174688 22.6277996,148.881718 C22.6277996,148.358278 22.8406881,147.945196 23.2664715,147.64246 C23.6922549,147.339724 24.2762334,147.188359 25.0184246,147.188359 C25.7098343,147.188359 26.3856088,147.328982 27.0457684,147.610234 L26.7000652,148.401249 C26.0555308,148.135623 25.4715522,148.002812 24.9481121,148.002812 C24.4871723,148.002812 24.1395195,148.075077 23.9051434,148.219609 C23.6707672,148.364141 23.5535809,148.563357 23.5535809,148.817265 C23.5535809,148.989141 23.5975257,149.135624 23.6854168,149.256718 C23.7733079,149.377812 23.914908,149.493046 24.1102215,149.602421 C24.305535,149.711797 24.6805312,149.869998 25.2352215,150.07703 C25.996944,150.354376 26.5115873,150.63367 26.7791668,150.914921 C27.0467463,151.196173 27.180534,151.549685 27.180534,151.975468 Z M31.4754559,153.844609 C30.5262324,153.844609 29.7772164,153.555549 29.2283855,152.977421 C28.6795547,152.399293 28.4051434,151.596567 28.4051434,150.569218 C28.4051434,149.534057 28.6600236,148.711799 29.1697918,148.102421 C29.67956,147.493043 30.3641234,147.188359 31.2235027,147.188359 C32.0281943,147.188359 32.6649066,147.453004 33.133659,147.982304 C33.6024113,148.511603 33.836784,149.209839 33.836784,150.07703 L33.836784,150.692265 L29.4129559,150.692265 C29.4324872,151.446175 29.622915,152.018435 29.9842449,152.409062 C30.3455749,152.799689 30.8543588,152.994999 31.5106121,152.994999 C32.2020218,152.994999 32.8856087,152.850469 33.5613934,152.561405 L33.5613934,153.428593 C33.2176416,153.577031 32.8924496,153.683475 32.5858074,153.747929 C32.2791653,153.812382 31.9090518,153.844609 31.4754559,153.844609 Z M31.211784,148.002812 C30.6961564,148.002812 30.2850277,148.170779 29.9783855,148.506718 C29.6717434,148.842657 29.4910811,149.307496 29.4363934,149.901249 L32.7938152,149.901249 C32.7938152,149.287965 32.6570979,148.818243 32.383659,148.49207 C32.1102201,148.165896 31.719599,148.002812 31.211784,148.002812 Z M39.8660809,152.866093 L39.8133465,152.866093 C39.3641255,153.51844 38.6922572,153.844609 37.7977215,153.844609 C36.9578735,153.844609 36.3045598,153.557502 35.8377605,152.98328 C35.3709613,152.409059 35.1375652,151.592661 35.1375652,150.534062 C35.1375652,149.475463 35.3719379,148.653205 35.8406902,148.067265 C36.3094426,147.481324 36.9617798,147.188359 37.7977215,147.188359 C38.6688196,147.188359 39.3367817,147.504762 39.8016277,148.137577 L39.8777996,148.137577 L39.836784,147.674687 L39.8133465,147.223515 L39.8133465,144.610234 L40.7860027,144.610234 L40.7860027,153.727421 L39.9949871,153.727421 L39.8660809,152.866093 Z M37.9207684,153.030155 C38.5848342,153.030155 39.0662747,152.849493 39.3651043,152.488163 C39.6639339,152.126833 39.8133465,151.543831 39.8133465,150.73914 L39.8133465,150.534062 C39.8133465,149.623901 39.6619808,148.974493 39.3592449,148.58582 C39.056509,148.197146 38.5731154,148.002812 37.9090496,148.002812 C37.3387343,148.002812 36.9022152,148.224489 36.5994793,148.667851 C36.2967434,149.111212 36.1453777,149.737183 36.1453777,150.54578 C36.1453777,151.366097 36.2957669,151.985232 36.5965496,152.403202 C36.8973324,152.821173 37.3387342,153.030155 37.9207684,153.030155 Z M49.914909,153.727421 L49.7215496,152.813359 L49.6746746,152.813359 C49.3543605,153.215704 49.0350278,153.488163 48.7166668,153.630741 C48.3983058,153.77332 48.0008489,153.844609 47.524284,153.844609 C46.8875621,153.844609 46.3885436,153.680548 46.0272137,153.352421 C45.6658837,153.024294 45.4852215,152.557502 45.4852215,151.95203 C45.4852215,150.655149 46.5223205,149.975468 48.5965496,149.912968 L49.6863934,149.877812 L49.6863934,149.479374 C49.6863934,148.975465 49.577996,148.603399 49.361198,148.363163 C49.1444001,148.122928 48.7977239,148.002812 48.321159,148.002812 C47.7860001,148.002812 47.1805374,148.166873 46.5047527,148.494999 L46.2059246,147.750859 C46.5223324,147.578983 46.8690087,147.444218 47.2459637,147.346562 C47.6229187,147.248905 48.0008446,147.200077 48.3797527,147.200077 C49.1453816,147.200077 49.7127587,147.369998 50.0819012,147.709843 C50.4510436,148.049688 50.6356121,148.594605 50.6356121,149.344609 L50.6356121,153.727421 L49.914909,153.727421 Z M47.7176434,153.041874 C48.3231151,153.041874 48.7986963,152.87586 49.1444012,152.543827 C49.490106,152.211794 49.6629559,151.746955 49.6629559,151.149296 L49.6629559,150.569218 L48.6902996,150.610234 C47.9168582,150.637577 47.3592466,150.757693 47.017448,150.970585 C46.6756495,151.183477 46.5047527,151.514528 46.5047527,151.963749 C46.5047527,152.315313 46.611197,152.582889 46.8240887,152.766484 C47.0369804,152.950078 47.3348289,153.041874 47.7176434,153.041874 Z M56.7820965,151.975468 C56.7820965,152.573127 56.5594425,153.03406 56.1141277,153.35828 C55.668813,153.682501 55.0438193,153.844609 54.2391277,153.844609 C53.387561,153.844609 52.7235051,153.709844 52.2469402,153.440312 L52.2469402,152.537968 C52.5555355,152.694219 52.8865869,152.817264 53.2401043,152.907109 C53.5936217,152.996953 53.9344386,153.041874 54.2625652,153.041874 C54.7703803,153.041874 55.1610014,152.96082 55.4344402,152.79871 C55.7078791,152.6366 55.8445965,152.389532 55.8445965,152.057499 C55.8445965,151.807498 55.7361991,151.593633 55.5194012,151.415898 C55.3026032,151.238162 54.8797559,151.028204 54.2508465,150.786015 C53.6531872,150.563357 53.2283868,150.369023 52.9764324,150.203007 C52.724478,150.036991 52.5369799,149.848516 52.4139324,149.637577 C52.2908849,149.426639 52.2293621,149.174688 52.2293621,148.881718 C52.2293621,148.358278 52.4422506,147.945196 52.868034,147.64246 C53.2938174,147.339724 53.8777959,147.188359 54.6199871,147.188359 C55.3113968,147.188359 55.9871713,147.328982 56.6473309,147.610234 L56.3016277,148.401249 C55.6570933,148.135623 55.0731147,148.002812 54.5496746,148.002812 C54.0887348,148.002812 53.741082,148.075077 53.5067059,148.219609 C53.2723297,148.364141 53.1551434,148.563357 53.1551434,148.817265 C53.1551434,148.989141 53.1990882,149.135624 53.2869793,149.256718 C53.3748704,149.377812 53.5164705,149.493046 53.711784,149.602421 C53.9070975,149.711797 54.2820937,149.869998 54.836784,150.07703 C55.5985065,150.354376 56.1131498,150.63367 56.3807293,150.914921 C56.6483088,151.196173 56.7820965,151.549685 56.7820965,151.975468 Z M69.6668621,153.727421 L69.6668621,149.549687 C69.6668621,149.037965 69.5574882,148.65418 69.3387371,148.39832 C69.119986,148.142459 68.7801457,148.01453 68.3192059,148.01453 C67.7137341,148.01453 67.2664729,148.188357 66.977409,148.536015 C66.688345,148.883673 66.5438152,149.418824 66.5438152,150.141484 L66.5438152,153.727421 L65.571159,153.727421 L65.571159,149.549687 C65.571159,149.037965 65.4617851,148.65418 65.243034,148.39832 C65.0242829,148.142459 64.6824894,148.01453 64.2176434,148.01453 C63.6082653,148.01453 63.1619807,148.197146 62.8787762,148.562382 C62.5955716,148.927618 62.4539715,149.526245 62.4539715,150.35828 L62.4539715,153.727421 L61.4813152,153.727421 L61.4813152,147.305546 L62.2723309,147.305546 L62.430534,148.184452 L62.477409,148.184452 C62.6610037,147.871951 62.9197901,147.627813 63.2537762,147.45203 C63.5877622,147.276248 63.9617819,147.188359 64.3758465,147.188359 C65.3797578,147.188359 66.0360012,147.551636 66.3445965,148.278202 L66.3914715,148.278202 C66.5828787,147.942263 66.8602197,147.676641 67.2235027,147.481327 C67.5867858,147.286014 68.0008442,147.188359 68.4656902,147.188359 C69.1922564,147.188359 69.7361962,147.37488 70.0975262,147.747929 C70.4588561,148.120978 70.6395184,148.717651 70.6395184,149.537968 L70.6395184,153.727421 L69.6668621,153.727421 Z M76.5926434,153.727421 L76.399284,152.813359 L76.352409,152.813359 C76.0320949,153.215704 75.7127621,153.488163 75.3944012,153.630741 C75.0760402,153.77332 74.6785832,153.844609 74.2020184,153.844609 C73.5652964,153.844609 73.066278,153.680548 72.704948,153.352421 C72.3436181,153.024294 72.1629559,152.557502 72.1629559,151.95203 C72.1629559,150.655149 73.2000549,149.975468 75.274284,149.912968 L76.3641277,149.877812 L76.3641277,149.479374 C76.3641277,148.975465 76.2557304,148.603399 76.0389324,148.363163 C75.8221345,148.122928 75.4754582,148.002812 74.9988934,148.002812 C74.4637344,148.002812 73.8582717,148.166873 73.1824871,148.494999 L72.883659,147.750859 C73.2000668,147.578983 73.546743,147.444218 73.923698,147.346562 C74.3006531,147.248905 74.678579,147.200077 75.0574871,147.200077 C75.8231159,147.200077 76.3904931,147.369998 76.7596355,147.709843 C77.128778,148.049688 77.3133465,148.594605 77.3133465,149.344609 L77.3133465,153.727421 L76.5926434,153.727421 Z M74.3953777,153.041874 C75.0008495,153.041874 75.4764307,152.87586 75.8221355,152.543827 C76.1678404,152.211794 76.3406902,151.746955 76.3406902,151.149296 L76.3406902,150.569218 L75.368034,150.610234 C74.5945926,150.637577 74.036981,150.757693 73.6951824,150.970585 C73.3533838,151.183477 73.1824871,151.514528 73.1824871,151.963749 C73.1824871,152.315313 73.2889314,152.582889 73.501823,152.766484 C73.7147147,152.950078 74.0125633,153.041874 74.3953777,153.041874 Z M80.289909,153.727421 L79.3172527,153.727421 L79.3172527,147.305546 L80.289909,147.305546 L80.289909,153.727421 Z M79.2352215,145.565312 C79.2352215,145.342654 79.2899084,145.17957 79.399284,145.076054 C79.5086595,144.972538 79.6453769,144.92078 79.8094402,144.92078 C79.965691,144.92078 80.1004553,144.973514 80.2137371,145.078984 C80.3270189,145.184453 80.383659,145.346561 80.383659,145.565312 C80.383659,145.784063 80.3270189,145.947147 80.2137371,146.05457 C80.1004553,146.161992 79.965691,146.215702 79.8094402,146.215702 C79.6453769,146.215702 79.5086595,146.161992 79.399284,146.05457 C79.2899084,145.947147 79.2352215,145.784063 79.2352215,145.565312 Z M86.7469402,153.727421 L86.7469402,149.573124 C86.7469402,149.049684 86.6278008,148.659063 86.3895184,148.401249 C86.1512359,148.143435 85.7781928,148.01453 85.2703777,148.01453 C84.5984994,148.01453 84.1063168,148.196169 83.7938152,148.559452 C83.4813137,148.922735 83.3250652,149.522339 83.3250652,150.35828 L83.3250652,153.727421 L82.352409,153.727421 L82.352409,147.305546 L83.1434246,147.305546 L83.3016277,148.184452 L83.3485027,148.184452 C83.5477225,147.868045 83.8270166,147.62293 84.1863934,147.449101 C84.5457702,147.275272 84.9461568,147.188359 85.3875652,147.188359 C86.1610066,147.188359 86.743032,147.37488 87.133659,147.747929 C87.5242859,148.120978 87.7195965,148.717651 87.7195965,149.537968 L87.7195965,153.727421 L86.7469402,153.727421 Z M95.8231121,147.200077 C96.6668663,147.200077 97.3221332,147.48816 97.7889324,148.064335 C98.2557316,148.64051 98.4891277,149.455931 98.4891277,150.510624 C98.4891277,151.565317 98.2537785,152.384645 97.783073,152.968632 C97.3123676,153.552619 96.6590538,153.844609 95.8231121,153.844609 C95.4051413,153.844609 95.0233092,153.767461 94.6776043,153.613163 C94.3318994,153.458866 94.0418633,153.221563 93.8074871,152.901249 L93.7371746,152.901249 L93.5320965,153.727421 L92.8348309,153.727421 L92.8348309,144.610234 L93.8074871,144.610234 L93.8074871,146.825077 C93.8074871,147.321174 93.7918623,147.766482 93.7606121,148.161015 L93.8074871,148.161015 C94.2606144,147.520387 94.9324827,147.200077 95.8231121,147.200077 Z M95.6824871,148.01453 C95.0184213,148.01453 94.5399104,148.204958 94.2469402,148.58582 C93.95397,148.966681 93.8074871,149.608276 93.8074871,150.510624 C93.8074871,151.412972 93.9578762,152.058474 94.258659,152.447148 C94.5594417,152.835821 95.0418588,153.030155 95.7059246,153.030155 C96.3035838,153.030155 96.7488919,152.812384 97.0418621,152.376835 C97.3348323,151.941286 97.4813152,151.315316 97.4813152,150.498905 C97.4813152,149.662964 97.3348323,149.039923 97.0418621,148.629765 C96.7488919,148.219607 96.2957714,148.01453 95.6824871,148.01453 Z M104.137565,153.727421 L103.944206,152.813359 L103.897331,152.813359 C103.577017,153.215704 103.257684,153.488163 102.939323,153.630741 C102.620962,153.77332 102.223505,153.844609 101.74694,153.844609 C101.110218,153.844609 100.6112,153.680548 100.24987,153.352421 C99.88854,153.024294 99.7078777,152.557502 99.7078777,151.95203 C99.7078777,150.655149 100.744977,149.975468 102.819206,149.912968 L103.90905,149.877812 L103.90905,149.479374 C103.90905,148.975465 103.800652,148.603399 103.583854,148.363163 C103.367056,148.122928 103.02038,148.002812 102.543815,148.002812 C102.008656,148.002812 101.403194,148.166873 100.727409,148.494999 L100.428581,147.750859 C100.744989,147.578983 101.091665,147.444218 101.46862,147.346562 C101.845575,147.248905 102.223501,147.200077 102.602409,147.200077 C103.368038,147.200077 103.935415,147.369998 104.304557,147.709843 C104.6737,148.049688 104.858268,148.594605 104.858268,149.344609 L104.858268,153.727421 L104.137565,153.727421 Z M101.9403,153.041874 C102.545771,153.041874 103.021353,152.87586 103.367057,152.543827 C103.712762,152.211794 103.885612,151.746955 103.885612,151.149296 L103.885612,150.569218 L102.912956,150.610234 C102.139514,150.637577 101.581903,150.757693 101.240104,150.970585 C100.898306,151.183477 100.727409,151.514528 100.727409,151.963749 C100.727409,152.315313 100.833853,152.582889 101.046745,152.766484 C101.259637,152.950078 101.557485,153.041874 101.9403,153.041874 Z M109.428581,153.844609 C108.498889,153.844609 107.779169,153.558479 107.269401,152.98621 C106.759633,152.413942 106.504753,151.604379 106.504753,150.557499 C106.504753,149.483275 106.763539,148.653205 107.28112,148.067265 C107.798701,147.481324 108.535998,147.188359 109.493034,147.188359 C109.801629,147.188359 110.11022,147.221561 110.418815,147.287968 C110.727411,147.354375 110.969596,147.432499 111.145378,147.522343 L110.84655,148.348515 C110.631705,148.262577 110.397332,148.191289 110.143425,148.134648 C109.889517,148.078007 109.66491,148.049687 109.469596,148.049687 C108.164902,148.049687 107.512565,148.88171 107.512565,150.54578 C107.512565,151.334847 107.671743,151.94031 107.990104,152.362187 C108.308465,152.784064 108.78014,152.994999 109.405143,152.994999 C109.940302,152.994999 110.489125,152.879766 111.051628,152.649296 L111.051628,153.510624 C110.621938,153.733282 110.080928,153.844609 109.428581,153.844609 Z M113.536003,150.440312 C113.703972,150.202029 113.959829,149.889532 114.303581,149.502812 L116.3778,147.305546 L117.532096,147.305546 L114.930534,150.041874 L117.713737,153.727421 L116.536003,153.727421 L114.268425,150.692265 L113.536003,151.325077 L113.536003,153.727421 L112.575065,153.727421 L112.575065,144.610234 L113.536003,144.610234 L113.536003,149.444218 C113.536003,149.659063 113.520378,149.991091 113.489128,150.440312 L113.536003,150.440312 Z M124.129753,147.305546 L124.129753,147.92078 L122.9403,148.061405 C123.049675,148.198125 123.14733,148.376834 123.233268,148.597538 C123.319206,148.818243 123.362175,149.067263 123.362175,149.344609 C123.362175,149.973518 123.147333,150.475466 122.717643,150.850468 C122.287954,151.22547 121.698116,151.412968 120.948112,151.412968 C120.756705,151.412968 120.577019,151.397343 120.40905,151.366093 C119.994985,151.584844 119.787956,151.860232 119.787956,152.192265 C119.787956,152.368047 119.860221,152.497928 120.004753,152.581913 C120.149285,152.665898 120.397329,152.70789 120.748893,152.70789 L121.885612,152.70789 C122.580928,152.70789 123.115102,152.854373 123.488151,153.147343 C123.8612,153.440313 124.047721,153.86609 124.047721,154.424687 C124.047721,155.135628 123.762568,155.677615 123.192253,156.050663 C122.621937,156.423712 121.789914,156.610234 120.696159,156.610234 C119.856311,156.610234 119.208857,156.453985 118.753776,156.141484 C118.298696,155.828982 118.071159,155.38758 118.071159,154.817265 C118.071159,154.426638 118.196158,154.088751 118.446159,153.803593 C118.69616,153.518435 119.047719,153.325078 119.500846,153.223515 C119.336783,153.149296 119.199089,153.034063 119.087761,152.877812 C118.976432,152.721561 118.920768,152.539922 118.920768,152.33289 C118.920768,152.098514 118.983268,151.893438 119.108268,151.717655 C119.233269,151.541873 119.430533,151.371953 119.700065,151.20789 C119.368032,151.07117 119.097527,150.838751 118.888542,150.510624 C118.679556,150.182498 118.575065,149.807501 118.575065,149.385624 C118.575065,148.682496 118.786001,148.140509 119.207878,147.759648 C119.629755,147.378786 120.227405,147.188359 121.000846,147.188359 C121.336786,147.188359 121.639517,147.227421 121.90905,147.305546 L124.129753,147.305546 Z M119.008659,154.805546 C119.008659,155.153204 119.155142,155.416873 119.448112,155.596562 C119.741082,155.77625 120.161,155.866093 120.707878,155.866093 C121.524288,155.866093 122.128774,155.744024 122.521354,155.499882 C122.913934,155.25574 123.110221,154.924689 123.110221,154.506718 C123.110221,154.15906 123.002801,153.917851 122.787956,153.783085 C122.573111,153.648319 122.168818,153.580937 121.575065,153.580937 L120.40905,153.580937 C119.967641,153.580937 119.623895,153.686404 119.3778,153.897343 C119.131705,154.108282 119.008659,154.411013 119.008659,154.805546 Z M119.536003,149.362187 C119.536003,149.811408 119.662955,150.151248 119.916862,150.381718 C120.17077,150.612188 120.524282,150.727421 120.977409,150.727421 C121.926632,150.727421 122.401237,150.266488 122.401237,149.344609 C122.401237,148.37976 121.920773,147.897343 120.959831,147.897343 C120.502797,147.897343 120.151238,148.020389 119.905143,148.266484 C119.659048,148.512579 119.536003,148.877809 119.536003,149.362187 Z M128.3778,147.188359 C128.662957,147.188359 128.918814,147.211796 129.145378,147.258671 L129.010612,148.161015 C128.744986,148.102421 128.510613,148.073124 128.307487,148.073124 C127.787953,148.073124 127.343622,148.28406 126.974479,148.705937 C126.605337,149.127814 126.420768,149.653199 126.420768,150.282109 L126.420768,153.727421 L125.448112,153.727421 L125.448112,147.305546 L126.250846,147.305546 L126.362175,148.494999 L126.40905,148.494999 C126.647332,148.077028 126.934439,147.754766 127.270378,147.528202 C127.606317,147.301639 127.975454,147.188359 128.3778,147.188359 Z M135.889518,150.510624 C135.889518,151.557504 135.625849,152.374879 135.098503,152.962773 C134.571156,153.550666 133.842648,153.844609 132.912956,153.844609 C132.338734,153.844609 131.828974,153.709844 131.383659,153.440312 C130.938344,153.170779 130.594598,152.784064 130.352409,152.280155 C130.11022,151.776247 129.989128,151.186409 129.989128,150.510624 C129.989128,149.463744 130.250844,148.648322 130.774284,148.064335 C131.297724,147.480348 132.024279,147.188359 132.953971,147.188359 C133.852413,147.188359 134.566274,147.487184 135.095573,148.084843 C135.624873,148.682502 135.889518,149.491088 135.889518,150.510624 Z M130.99694,150.510624 C130.99694,151.330941 131.161001,151.955935 131.489128,152.385624 C131.817254,152.815314 132.299671,153.030155 132.936393,153.030155 C133.573115,153.030155 134.056509,152.81629 134.386589,152.388554 C134.716668,151.960817 134.881706,151.334847 134.881706,150.510624 C134.881706,149.694214 134.716668,149.074103 134.386589,148.650273 C134.056509,148.226442 133.569209,148.01453 132.924675,148.01453 C132.287953,148.01453 131.807489,148.223513 131.483268,148.641484 C131.159048,149.059454 130.99694,149.682495 130.99694,150.510624 Z M138.508659,147.305546 L138.508659,151.471562 C138.508659,151.995002 138.627798,152.385623 138.866081,152.643437 C139.104363,152.901251 139.477406,153.030155 139.985221,153.030155 C140.6571,153.030155 141.148306,152.846564 141.458854,152.479374 C141.769403,152.112185 141.924675,151.512582 141.924675,150.680546 L141.924675,147.305546 L142.897331,147.305546 L142.897331,153.727421 L142.094596,153.727421 L141.953971,152.866093 L141.901237,152.866093 C141.702017,153.182501 141.425653,153.424686 141.072136,153.592655 C140.718618,153.760625 140.315302,153.844609 139.862175,153.844609 C139.080921,153.844609 138.495966,153.659064 138.107292,153.287968 C137.718618,152.916872 137.524284,152.323128 137.524284,151.506718 L137.524284,147.305546 L138.508659,147.305546 Z M149.354362,153.727421 L149.354362,149.573124 C149.354362,149.049684 149.235223,148.659063 148.99694,148.401249 C148.758658,148.143435 148.385615,148.01453 147.8778,148.01453 C147.205921,148.01453 146.713739,148.196169 146.401237,148.559452 C146.088736,148.922735 145.932487,149.522339 145.932487,150.35828 L145.932487,153.727421 L144.959831,153.727421 L144.959831,147.305546 L145.750846,147.305546 L145.90905,148.184452 L145.955925,148.184452 C146.155144,147.868045 146.434438,147.62293 146.793815,147.449101 C147.153192,147.275272 147.553579,147.188359 147.994987,147.188359 C148.768428,147.188359 149.350454,147.37488 149.741081,147.747929 C150.131708,148.120978 150.327018,148.717651 150.327018,149.537968 L150.327018,153.727421 L149.354362,153.727421 Z M156.696159,152.866093 L156.643425,152.866093 C156.194204,153.51844 155.522335,153.844609 154.6278,153.844609 C153.787952,153.844609 153.134638,153.557502 152.667839,152.98328 C152.201039,152.409059 151.967643,151.592661 151.967643,150.534062 C151.967643,149.475463 152.202016,148.653205 152.670768,148.067265 C153.139521,147.481324 153.791858,147.188359 154.6278,147.188359 C155.498898,147.188359 156.16686,147.504762 156.631706,148.137577 L156.707878,148.137577 L156.666862,147.674687 L156.643425,147.223515 L156.643425,144.610234 L157.616081,144.610234 L157.616081,153.727421 L156.825065,153.727421 L156.696159,152.866093 Z M154.750846,153.030155 C155.414912,153.030155 155.896353,152.849493 156.195182,152.488163 C156.494012,152.126833 156.643425,151.543831 156.643425,150.73914 L156.643425,150.534062 C156.643425,149.623901 156.492059,148.974493 156.189323,148.58582 C155.886587,148.197146 155.403194,148.002812 154.739128,148.002812 C154.168812,148.002812 153.732293,148.224489 153.429557,148.667851 C153.126822,149.111212 152.975456,149.737183 152.975456,150.54578 C152.975456,151.366097 153.125845,151.985232 153.426628,152.403202 C153.72741,152.821173 154.168812,153.030155 154.750846,153.030155 Z M16.868034,170.844609 C15.9383418,170.844609 15.2186225,170.558479 14.7088543,169.98621 C14.1990861,169.413942 13.9442059,168.604379 13.9442059,167.557499 C13.9442059,166.483275 14.2029923,165.653205 14.720573,165.067265 C15.2381538,164.481324 15.9754511,164.188359 16.9324871,164.188359 C17.2410824,164.188359 17.5496731,164.221561 17.8582684,164.287968 C18.1668637,164.354375 18.4090487,164.432499 18.5848309,164.522343 L18.2860027,165.348515 C18.0711579,165.262577 17.8367853,165.191289 17.5828777,165.134648 C17.3289702,165.078007 17.1043631,165.049687 16.9090496,165.049687 C15.6043556,165.049687 14.9520184,165.88171 14.9520184,167.54578 C14.9520184,168.334847 15.1111965,168.94031 15.4295574,169.362187 C15.7479184,169.784064 16.2195934,169.994999 16.8445965,169.994999 C17.3797554,169.994999 17.928578,169.879766 18.4910809,169.649296 L18.4910809,170.510624 C18.0613912,170.733282 17.520381,170.844609 16.868034,170.844609 Z M25.5574871,167.510624 C25.5574871,168.557504 25.2938179,169.374879 24.7664715,169.962773 C24.2391251,170.550666 23.5106168,170.844609 22.5809246,170.844609 C22.006703,170.844609 21.4969425,170.709844 21.0516277,170.440312 C20.606313,170.170779 20.2625664,169.784064 20.0203777,169.280155 C19.778189,168.776247 19.6570965,168.186409 19.6570965,167.510624 C19.6570965,166.463744 19.9188126,165.648322 20.4422527,165.064335 C20.9656929,164.480348 21.6922481,164.188359 22.6219402,164.188359 C23.5203822,164.188359 24.2342423,164.487184 24.7635418,165.084843 C25.2928413,165.682502 25.5574871,166.491088 25.5574871,167.510624 Z M20.664909,167.510624 C20.664909,168.330941 20.8289698,168.955935 21.1570965,169.385624 C21.4852231,169.815314 21.9676402,170.030155 22.6043621,170.030155 C23.241084,170.030155 23.7244776,169.81629 24.0545574,169.388554 C24.3846372,168.960817 24.5496746,168.334847 24.5496746,167.510624 C24.5496746,166.694214 24.3846372,166.074103 24.0545574,165.650273 C23.7244776,165.226442 23.2371778,165.01453 22.5926434,165.01453 C21.9559214,165.01453 21.4754575,165.223513 21.1512371,165.641484 C20.8270167,166.059454 20.664909,166.682495 20.664909,167.510624 Z M28.2352215,170.727421 L27.2625652,170.727421 L27.2625652,161.610234 L28.2352215,161.610234 L28.2352215,170.727421 Z M35.8406902,167.510624 C35.8406902,168.557504 35.577021,169.374879 35.0496746,169.962773 C34.5223282,170.550666 33.7938199,170.844609 32.8641277,170.844609 C32.2899061,170.844609 31.7801456,170.709844 31.3348309,170.440312 C30.8895161,170.170779 30.5457696,169.784064 30.3035809,169.280155 C30.0613921,168.776247 29.9402996,168.186409 29.9402996,167.510624 C29.9402996,166.463744 30.2020157,165.648322 30.7254559,165.064335 C31.248896,164.480348 31.9754512,164.188359 32.9051434,164.188359 C33.8035854,164.188359 34.5174454,164.487184 35.0467449,165.084843 C35.5760444,165.682502 35.8406902,166.491088 35.8406902,167.510624 Z M30.9481121,167.510624 C30.9481121,168.330941 31.112173,168.955935 31.4402996,169.385624 C31.7684262,169.815314 32.2508433,170.030155 32.8875652,170.030155 C33.5242872,170.030155 34.0076808,169.81629 34.3377605,169.388554 C34.6678403,168.960817 34.8328777,168.334847 34.8328777,167.510624 C34.8328777,166.694214 34.6678403,166.074103 34.3377605,165.650273 C34.0076808,165.226442 33.520381,165.01453 32.8758465,165.01453 C32.2391246,165.01453 31.7586606,165.223513 31.4344402,165.641484 C31.1102199,166.059454 30.9481121,166.682495 30.9481121,167.510624 Z M40.4754559,164.188359 C40.7606135,164.188359 41.0164704,164.211796 41.243034,164.258671 L41.1082684,165.161015 C40.842642,165.102421 40.6082694,165.073124 40.4051434,165.073124 C39.8856095,165.073124 39.441278,165.28406 39.0721355,165.705937 C38.7029931,166.127814 38.5184246,166.653199 38.5184246,167.282109 L38.5184246,170.727421 L37.5457684,170.727421 L37.5457684,164.305546 L38.3485027,164.305546 L38.4598309,165.494999 L38.5067059,165.494999 C38.7449883,165.077028 39.0320948,164.754766 39.368034,164.528202 C39.7039732,164.301639 40.0731101,164.188359 40.4754559,164.188359 Z M46.5340496,170.727421 L45.5613934,170.727421 L45.5613934,164.305546 L46.5340496,164.305546 L46.5340496,170.727421 Z M45.4793621,162.565312 C45.4793621,162.342654 45.5340491,162.17957 45.6434246,162.076054 C45.7528002,161.972538 45.8895175,161.92078 46.0535809,161.92078 C46.2098316,161.92078 46.3445959,161.973514 46.4578777,162.078984 C46.5711596,162.184453 46.6277996,162.346561 46.6277996,162.565312 C46.6277996,162.784063 46.5711596,162.947147 46.4578777,163.05457 C46.3445959,163.161992 46.2098316,163.215702 46.0535809,163.215702 C45.8895175,163.215702 45.7528002,163.161992 45.6434246,163.05457 C45.5340491,162.947147 45.4793621,162.784063 45.4793621,162.565312 Z M52.9910809,170.727421 L52.9910809,166.573124 C52.9910809,166.049684 52.8719414,165.659063 52.633659,165.401249 C52.3953765,165.143435 52.0223334,165.01453 51.5145184,165.01453 C50.84264,165.01453 50.3504574,165.196169 50.0379559,165.559452 C49.7254543,165.922735 49.5692059,166.522339 49.5692059,167.35828 L49.5692059,170.727421 L48.5965496,170.727421 L48.5965496,164.305546 L49.3875652,164.305546 L49.5457684,165.184452 L49.5926434,165.184452 C49.7918631,164.868045 50.0711572,164.62293 50.430534,164.449101 C50.7899108,164.275272 51.1902974,164.188359 51.6317059,164.188359 C52.4051472,164.188359 52.9871727,164.37488 53.3777996,164.747929 C53.7684266,165.120978 53.9637371,165.717651 53.9637371,166.537968 L53.9637371,170.727421 L52.9910809,170.727421 Z M61.1531902,170.041874 C61.3250661,170.041874 61.4910801,170.029179 61.6512371,170.003788 C61.8113942,169.978398 61.938346,169.952031 62.0320965,169.924687 L62.0320965,170.668827 C61.9266272,170.719609 61.7713553,170.761601 61.5662762,170.794804 C61.361197,170.828007 61.1766286,170.844609 61.0125652,170.844609 C59.7703715,170.844609 59.149284,170.190318 59.149284,168.881718 L59.149284,165.061405 L58.2293621,165.061405 L58.2293621,164.592655 L59.149284,164.188359 L59.5594402,162.817265 L60.1219402,162.817265 L60.1219402,164.305546 L61.9852215,164.305546 L61.9852215,165.061405 L60.1219402,165.061405 L60.1219402,168.840702 C60.1219402,169.227423 60.2137362,169.524295 60.3973309,169.731327 C60.5809255,169.93836 60.8328761,170.041874 61.1531902,170.041874 Z M67.7098309,170.727421 L67.7098309,166.573124 C67.7098309,166.049684 67.5906914,165.659063 67.352409,165.401249 C67.1141265,165.143435 66.7410834,165.01453 66.2332684,165.01453 C65.5574837,165.01453 65.0643246,165.198122 64.7537762,165.565312 C64.4432277,165.932501 64.2879559,166.534058 64.2879559,167.369999 L64.2879559,170.727421 L63.3152996,170.727421 L63.3152996,161.610234 L64.2879559,161.610234 L64.2879559,164.369999 C64.2879559,164.702032 64.272331,164.97742 64.2410809,165.196171 L64.2996746,165.196171 C64.4910818,164.887576 64.76354,164.644414 65.1170574,164.466679 C65.4705748,164.288944 65.8738911,164.200077 66.3270184,164.200077 C67.1121785,164.200077 67.7010398,164.386599 68.0936199,164.759648 C68.4862,165.132696 68.6824871,165.725464 68.6824871,166.537968 L68.6824871,170.727421 L67.7098309,170.727421 Z M73.3934246,170.844609 C72.4442011,170.844609 71.6951852,170.555549 71.1463543,169.977421 C70.5975234,169.399293 70.3231121,168.596567 70.3231121,167.569218 C70.3231121,166.534057 70.5779924,165.711799 71.0877605,165.102421 C71.5975287,164.493043 72.2820922,164.188359 73.1414715,164.188359 C73.946163,164.188359 74.5828754,164.453004 75.0516277,164.982304 C75.5203801,165.511603 75.7547527,166.209839 75.7547527,167.07703 L75.7547527,167.692265 L71.3309246,167.692265 C71.350456,168.446175 71.5408837,169.018435 71.9022137,169.409062 C72.2635436,169.799689 72.7723276,169.994999 73.4285809,169.994999 C74.1199906,169.994999 74.8035775,169.850469 75.4793621,169.561405 L75.4793621,170.428593 C75.1356104,170.577031 74.8104183,170.683475 74.5037762,170.747929 C74.197134,170.812382 73.8270205,170.844609 73.3934246,170.844609 Z M73.1297527,165.002812 C72.6141252,165.002812 72.2029965,165.170779 71.8963543,165.506718 C71.5897121,165.842657 71.4090499,166.307496 71.3543621,166.901249 L74.711784,166.901249 C74.711784,166.287965 74.5750666,165.818243 74.3016277,165.49207 C74.0281889,165.165896 73.6375678,165.002812 73.1297527,165.002812 Z M84.4793621,170.727421 L84.2860027,169.813359 L84.2391277,169.813359 C83.9188136,170.215704 83.5994809,170.488163 83.2811199,170.630741 C82.962759,170.77332 82.565302,170.844609 82.0887371,170.844609 C81.4520152,170.844609 80.9529967,170.680548 80.5916668,170.352421 C80.2303369,170.024294 80.0496746,169.557502 80.0496746,168.95203 C80.0496746,167.655149 81.0867736,166.975468 83.1610027,166.912968 L84.2508465,166.877812 L84.2508465,166.479374 C84.2508465,165.975465 84.1424491,165.603399 83.9256512,165.363163 C83.7088532,165.122928 83.362177,165.002812 82.8856121,165.002812 C82.3504532,165.002812 81.7449905,165.166873 81.0692059,165.494999 L80.7703777,164.750859 C81.0867856,164.578983 81.4334618,164.444218 81.8104168,164.346562 C82.1873718,164.248905 82.5652977,164.200077 82.9442059,164.200077 C83.7098347,164.200077 84.2772118,164.369998 84.6463543,164.709843 C85.0154968,165.049688 85.2000652,165.594605 85.2000652,166.344609 L85.2000652,170.727421 L84.4793621,170.727421 Z M82.2820965,170.041874 C82.8875683,170.041874 83.3631494,169.87586 83.7088543,169.543827 C84.0545592,169.211794 84.227409,168.746955 84.227409,168.149296 L84.227409,167.569218 L83.2547527,167.610234 C82.4813114,167.637577 81.9236998,167.757693 81.5819012,167.970585 C81.2401026,168.183477 81.0692059,168.514528 81.0692059,168.963749 C81.0692059,169.315313 81.1756501,169.582889 81.3885418,169.766484 C81.6014335,169.950078 81.8992821,170.041874 82.2820965,170.041874 Z M90.1922527,170.844609 C89.7742819,170.844609 89.3924498,170.767461 89.0467449,170.613163 C88.7010401,170.458866 88.4110039,170.221563 88.1766277,169.901249 L88.1063152,169.901249 C88.1531905,170.276251 88.1766277,170.631716 88.1766277,170.967655 L88.1766277,173.610234 L87.2039715,173.610234 L87.2039715,164.305546 L87.9949871,164.305546 L88.1297527,165.184452 L88.1766277,165.184452 C88.426629,164.832888 88.7176417,164.578984 89.0496746,164.422734 C89.3817075,164.266483 89.7625631,164.188359 90.1922527,164.188359 C91.0438195,164.188359 91.7010395,164.479371 92.1639324,165.061405 C92.6268254,165.64344 92.8582684,166.459838 92.8582684,167.510624 C92.8582684,168.565317 92.6229192,169.384645 92.1522137,169.968632 C91.6815082,170.552619 91.0281944,170.844609 90.1922527,170.844609 Z M90.0516277,165.01453 C89.3953745,165.01453 88.9207698,165.196169 88.6277996,165.559452 C88.3348294,165.922735 88.1844403,166.500855 88.1766277,167.293827 L88.1766277,167.510624 C88.1766277,168.412972 88.3270169,169.058474 88.6277996,169.447148 C88.9285824,169.835821 89.4109994,170.030155 90.0750652,170.030155 C90.6297555,170.030155 91.0643215,169.805548 91.3787762,169.356327 C91.6932309,168.907106 91.8504559,168.287972 91.8504559,167.498905 C91.8504559,166.69812 91.6932309,166.083869 91.3787762,165.656132 C91.0643215,165.228396 90.6219431,165.01453 90.0516277,165.01453 Z M97.5457684,170.844609 C97.1277975,170.844609 96.7459654,170.767461 96.4002605,170.613163 C96.0545557,170.458866 95.7645195,170.221563 95.5301434,169.901249 L95.4598309,169.901249 C95.5067061,170.276251 95.5301434,170.631716 95.5301434,170.967655 L95.5301434,173.610234 L94.5574871,173.610234 L94.5574871,164.305546 L95.3485027,164.305546 L95.4832684,165.184452 L95.5301434,165.184452 C95.7801446,164.832888 96.0711573,164.578984 96.4031902,164.422734 C96.7352231,164.266483 97.1160787,164.188359 97.5457684,164.188359 C98.3973351,164.188359 99.0545551,164.479371 99.517448,165.061405 C99.980341,165.64344 100.211784,166.459838 100.211784,167.510624 C100.211784,168.565317 99.9764348,169.384645 99.5057293,169.968632 C99.0350238,170.552619 98.38171,170.844609 97.5457684,170.844609 Z M97.4051434,165.01453 C96.7488901,165.01453 96.2742854,165.196169 95.9813152,165.559452 C95.688345,165.922735 95.5379559,166.500855 95.5301434,167.293827 L95.5301434,167.510624 C95.5301434,168.412972 95.6805325,169.058474 95.9813152,169.447148 C96.282098,169.835821 96.764515,170.030155 97.4285809,170.030155 C97.9832711,170.030155 98.4178371,169.805548 98.7322918,169.356327 C99.0467465,168.907106 99.2039715,168.287972 99.2039715,167.498905 C99.2039715,166.69812 99.0467465,166.083869 98.7322918,165.656132 C98.4178371,165.228396 97.9754587,165.01453 97.4051434,165.01453 Z M101.770378,170.106327 C101.770378,169.844607 101.829947,169.646367 101.949089,169.511601 C102.06823,169.376834 102.239127,169.309452 102.461784,169.309452 C102.688348,169.309452 102.865104,169.376834 102.992057,169.511601 C103.119011,169.646367 103.182487,169.844607 103.182487,170.106327 C103.182487,170.360235 103.118035,170.555545 102.989128,170.692265 C102.860221,170.828984 102.684441,170.897343 102.461784,170.897343 C102.262564,170.897343 102.097527,170.83582 101.966667,170.712773 C101.835807,170.589725 101.770378,170.387579 101.770378,170.106327 Z" id="Used-as-main-backgro" fill="#000000"></path>
            </g>
        </g>
    </g>
</svg>