<?xml version="1.0" encoding="UTF-8" standalone="no"?>
<svg width="181px" height="211px" viewBox="0 0 181 211" version="1.1" xmlns="http://www.w3.org/2000/svg" xmlns:xlink="http://www.w3.org/1999/xlink">
    <!-- Generator: Sketch 44.1 (41455) - http://www.bohemiancoding.com/sketch -->
    <title>Group 16</title>
    <desc>Created with Sketch.</desc>
    <defs></defs>
    <g id="Page-1" stroke="none" stroke-width="1" fill="none" fill-rule="evenodd">
        <g id="Artboard-Copy-18" transform="translate(-961.000000, -1252.000000)">
            <g id="Group-16" transform="translate(960.585736, 1252.053207)">
                <rect id="Rectangle-18-Copy-10" fill="#30BA24" x="0.811844852" y="0.2293348" width="180" height="89.7379413"></rect>
                <rect id="Rectangle-18-Copy-11" fill="#FFFFFF" x="0.811844852" y="89.9672761" width="180" height="120"></rect>
                <path d="M16.8258508,130.06484 C15.9703778,130.025777 15.1461673,129.834373 14.3531945,129.490621 L14.3531945,127.545309 C14.8063218,127.775779 15.2985044,127.96816 15.829757,128.122457 C16.3610097,128.276755 16.8278019,128.353903 17.2301477,128.353903 C17.5621806,128.353903 17.8053422,128.313864 17.9596399,128.233785 C18.1139375,128.153707 18.1910852,128.019919 18.1910852,127.832418 C18.1910852,127.703511 18.1354217,127.594137 18.024093,127.504293 C17.9127643,127.414449 17.7272193,127.312887 17.4674524,127.199606 C17.2076854,127.086324 16.857103,126.949606 16.4156945,126.789449 C15.9195983,126.605855 15.5192117,126.399802 15.2145227,126.171285 C14.9098336,125.942769 14.6881562,125.686912 14.5494836,125.403707 C14.410811,125.120503 14.3414758,124.767967 14.3414758,124.34609 C14.3414758,123.701556 14.548505,123.197654 14.9625695,122.834371 C15.3766341,122.471088 15.9977217,122.246481 16.8258508,122.160543 L16.8258508,121.357809 L18.0387414,121.357809 L18.0387414,122.148824 C18.8160891,122.191793 19.5992843,122.383198 20.3883508,122.723043 L19.6910852,124.392965 C18.8746748,124.025776 18.1383541,123.842184 17.4821008,123.842184 C17.1695992,123.842184 16.9498749,123.880269 16.8229211,123.956442 C16.6959673,124.032614 16.6324914,124.144917 16.6324914,124.293356 C16.6324914,124.422263 16.6783894,124.528707 16.7701867,124.612692 C16.8619841,124.696676 17.0211622,124.790425 17.2477258,124.893942 C17.4742894,124.997458 17.7887394,125.117574 18.1910852,125.254293 C19.0074955,125.543357 19.5934271,125.872455 19.9488977,126.241598 C20.3043682,126.61074 20.4821008,127.086321 20.4821008,127.668356 C20.4821008,128.324609 20.2740951,128.857807 19.8580774,129.267965 C19.4420597,129.678123 18.8356204,129.932027 18.0387414,130.029684 L18.0387414,131.160543 L16.8258508,131.160543 L16.8258508,130.06484 Z M24.7184289,130.580465 C23.632486,130.580465 22.809252,130.287499 22.2487024,129.701559 C21.6881527,129.115618 21.407882,128.27383 21.407882,127.176168 C21.407882,126.0746 21.7106134,125.221093 22.3160852,124.615621 C22.9215569,124.010149 23.7828765,123.707418 24.9000695,123.707418 C25.6696046,123.707418 26.3942068,123.875385 27.0738977,124.211324 L26.4000695,125.904684 C26.1227244,125.783589 25.8668676,125.686911 25.6324914,125.614645 C25.3981152,125.542379 25.1539771,125.506246 24.9000695,125.506246 C24.5289739,125.506246 24.2418674,125.650776 24.0387414,125.93984 C23.8356154,126.228904 23.7340539,126.637103 23.7340539,127.164449 C23.7340539,128.226955 24.1266281,128.758199 24.9117883,128.758199 C25.5836667,128.758199 26.2281915,128.562889 26.845382,128.172262 L26.845382,129.994528 C26.2555353,130.385154 25.5465581,130.580465 24.7184289,130.580465 Z M34.5035852,127.129293 C34.5035852,128.215236 34.2115959,129.061907 33.6276086,129.669332 C33.0436213,130.276757 32.2262467,130.580465 31.1754602,130.580465 C30.1676426,130.580465 29.3658928,130.269921 28.7701867,129.648824 C28.1744806,129.027728 27.876632,128.187892 27.876632,127.129293 C27.876632,126.047256 28.1686213,125.206445 28.7526086,124.606832 C29.3365959,124.00722 30.1559236,123.707418 31.2106164,123.707418 C31.8629634,123.707418 32.4391295,123.846089 32.939132,124.123434 C33.4391345,124.400779 33.8248729,124.798236 34.0963586,125.315817 C34.3678443,125.833397 34.5035852,126.437883 34.5035852,127.129293 Z M30.2028039,127.129293 C30.2028039,127.699608 30.278975,128.134174 30.4313195,128.433004 C30.5836641,128.731834 30.8395209,128.881246 31.1988977,128.881246 C31.5543682,128.881246 31.8053422,128.731834 31.9518274,128.433004 C32.0983125,128.134174 32.1715539,127.699608 32.1715539,127.129293 C32.1715539,126.562884 32.0973359,126.135154 31.9488977,125.84609 C31.8004594,125.557026 31.5465557,125.412496 31.1871789,125.412496 C30.8356147,125.412496 30.5836641,125.55605 30.4313195,125.84316 C30.278975,126.130271 30.2028039,126.558978 30.2028039,127.129293 Z M38.1012414,130.463278 L35.8102258,130.463278 L35.8102258,121.34609 L38.1012414,121.34609 L38.1012414,130.463278 Z M46.0289758,127.129293 C46.0289758,128.215236 45.7369865,129.061907 45.1529992,129.669332 C44.5690119,130.276757 43.7516373,130.580465 42.7008508,130.580465 C41.6930333,130.580465 40.8912835,130.269921 40.2955774,129.648824 C39.6998713,129.027728 39.4020227,128.187892 39.4020227,127.129293 C39.4020227,126.047256 39.6940119,125.206445 40.2779992,124.606832 C40.8619865,124.00722 41.6813143,123.707418 42.736007,123.707418 C43.3883541,123.707418 43.9645202,123.846089 44.4645227,124.123434 C44.9645252,124.400779 45.3502635,124.798236 45.6217492,125.315817 C45.893235,125.833397 46.0289758,126.437883 46.0289758,127.129293 Z M41.7281945,127.129293 C41.7281945,127.699608 41.8043657,128.134174 41.9567102,128.433004 C42.1090547,128.731834 42.3649115,128.881246 42.7242883,128.881246 C43.0797588,128.881246 43.3307329,128.731834 43.477218,128.433004 C43.6237031,128.134174 43.6969445,127.699608 43.6969445,127.129293 C43.6969445,126.562884 43.6227265,126.135154 43.4742883,125.84609 C43.3258501,125.557026 43.0719463,125.412496 42.7125695,125.412496 C42.3610053,125.412496 42.1090547,125.55605 41.9567102,125.84316 C41.8043657,126.130271 41.7281945,126.558978 41.7281945,127.129293 Z M51.3434289,123.707418 C51.5426487,123.707418 51.7320999,123.723043 51.9117883,123.754293 L52.0406945,123.777731 L51.8356164,125.93984 C51.6481155,125.892965 51.3883525,125.869528 51.0563195,125.869528 C50.556317,125.869528 50.1930394,125.983784 49.9664758,126.212301 C49.7399122,126.440818 49.626632,126.769916 49.626632,127.199606 L49.626632,130.463278 L47.3356164,130.463278 L47.3356164,123.824606 L49.0406945,123.824606 L49.3981164,124.885153 L49.5094445,124.885153 C49.7008518,124.533588 49.9674506,124.249411 50.3092492,124.032613 C50.6510478,123.815815 50.9957709,123.707418 51.3434289,123.707418 Z M52.4274133,128.160543 L52.4274133,126.332418 L55.7379602,126.332418 L55.7379602,128.160543 L52.4274133,128.160543 Z M61.907882,128.424215 C61.907882,129.135156 61.665697,129.67226 61.1813195,130.035543 C60.6969421,130.398826 60.0016366,130.580465 59.095382,130.580465 C58.6031921,130.580465 58.175462,130.554098 57.8121789,130.501363 C57.4488959,130.448629 57.0778058,130.35195 56.6988977,130.211324 L56.6988977,128.37734 C57.0543682,128.533591 57.4440127,128.662496 57.867843,128.764059 C58.2916732,128.865622 58.6695991,128.916403 59.001632,128.916403 C59.4977283,128.916403 59.7457727,128.803122 59.7457727,128.576559 C59.7457727,128.459371 59.6764374,128.35488 59.5377649,128.263082 C59.3990923,128.171285 58.995776,127.992576 58.3278039,127.726949 C57.7184259,127.476948 57.2926489,127.192771 57.0504602,126.87441 C56.8082715,126.556049 56.6871789,126.152733 56.6871789,125.664449 C56.6871789,125.047259 56.9254578,124.566795 57.4020227,124.223043 C57.8785876,123.879291 58.5524089,123.707418 59.423507,123.707418 C59.8610092,123.707418 60.2721379,123.755269 60.6569055,123.850973 C61.041673,123.946676 61.4410831,124.086323 61.8551477,124.269918 L61.2340539,125.746481 C60.9293649,125.609761 60.6071025,125.493551 60.267257,125.397848 C59.9274116,125.302144 59.6500706,125.254293 59.4352258,125.254293 C59.0602239,125.254293 58.8727258,125.346089 58.8727258,125.529684 C58.8727258,125.642966 58.9381548,125.739644 59.0690149,125.819723 C59.1998749,125.899801 59.5778008,126.062886 60.2028039,126.308981 C60.66765,126.500388 61.0143262,126.687886 61.242843,126.871481 C61.4713597,127.055075 61.6393268,127.270893 61.7467492,127.518942 C61.8541716,127.76699 61.907882,128.068744 61.907882,128.424215 Z M67.907882,130.463278 L67.6207727,129.637106 L67.486007,129.637106 C67.2945998,129.941795 67.0280009,130.175191 66.6862024,130.337301 C66.3444038,130.499411 65.9430406,130.580465 65.4821008,130.580465 C64.7516284,130.580465 64.1832747,130.368553 63.7770227,129.944723 C63.3707706,129.520893 63.1676477,128.922266 63.1676477,128.148824 L63.1676477,123.824606 L65.4586633,123.824606 L65.4586633,127.451559 C65.4586633,127.885155 65.5201861,128.213276 65.6432336,128.435934 C65.7662811,128.658591 65.9684275,128.769918 66.2496789,128.769918 C66.6442121,128.769918 66.9254593,128.614646 67.0934289,128.304098 C67.2613985,127.993549 67.345382,127.469141 67.345382,126.730856 L67.345382,123.824606 L69.6363977,123.824606 L69.6363977,130.463278 L67.907882,130.463278 Z M74.2418664,130.580465 C73.1559235,130.580465 72.3326895,130.287499 71.7721399,129.701559 C71.2115902,129.115618 70.9313195,128.27383 70.9313195,127.176168 C70.9313195,126.0746 71.2340509,125.221093 71.8395227,124.615621 C72.4449944,124.010149 73.306314,123.707418 74.423507,123.707418 C75.1930421,123.707418 75.9176443,123.875385 76.5973352,124.211324 L75.923507,125.904684 C75.6461619,125.783589 75.3903051,125.686911 75.1559289,125.614645 C74.9215527,125.542379 74.6774146,125.506246 74.423507,125.506246 C74.0524114,125.506246 73.7653049,125.650776 73.5621789,125.93984 C73.3590529,126.228904 73.2574914,126.637103 73.2574914,127.164449 C73.2574914,128.226955 73.6500656,128.758199 74.4352258,128.758199 C75.1071042,128.758199 75.751629,128.562889 76.3688195,128.172262 L76.3688195,129.994528 C75.7789728,130.385154 75.0699956,130.580465 74.2418664,130.580465 Z M80.7106164,130.580465 C79.6246735,130.580465 78.8014395,130.287499 78.2408899,129.701559 C77.6803402,129.115618 77.4000695,128.27383 77.4000695,127.176168 C77.4000695,126.0746 77.7028009,125.221093 78.3082727,124.615621 C78.9137444,124.010149 79.775064,123.707418 80.892257,123.707418 C81.6617921,123.707418 82.3863943,123.875385 83.0660852,124.211324 L82.392257,125.904684 C82.1149119,125.783589 81.8590551,125.686911 81.6246789,125.614645 C81.3903027,125.542379 81.1461646,125.506246 80.892257,125.506246 C80.5211614,125.506246 80.2340549,125.650776 80.0309289,125.93984 C79.8278029,126.228904 79.7262414,126.637103 79.7262414,127.164449 C79.7262414,128.226955 80.1188156,128.758199 80.9039758,128.758199 C81.5758542,128.758199 82.220379,128.562889 82.8375695,128.172262 L82.8375695,129.994528 C82.2477228,130.385154 81.5387456,130.580465 80.7106164,130.580465 Z M87.361007,130.580465 C86.2555328,130.580465 85.3971429,130.286523 84.7858117,129.698629 C84.1744805,129.110736 83.8688195,128.27383 83.8688195,127.187887 C83.8688195,126.066788 84.1520198,125.206445 84.7184289,124.606832 C85.284838,124.00722 86.0934237,123.707418 87.1442102,123.707418 C88.1442152,123.707418 88.9166684,123.968158 89.461593,124.489645 C90.0065176,125.011132 90.2789758,125.762101 90.2789758,126.742574 L90.2789758,127.762106 L86.1832727,127.762106 C86.1988977,128.133201 86.3346386,128.424214 86.5904992,128.635153 C86.8463599,128.846091 87.1949892,128.951559 87.6363977,128.951559 C88.0387434,128.951559 88.4088569,128.913473 88.7467492,128.837301 C89.0846415,128.761129 89.4508488,128.631247 89.845382,128.447653 L89.845382,130.094137 C89.4860052,130.277732 89.1149152,130.404683 88.7321008,130.474996 C88.3492864,130.545309 87.8922597,130.580465 87.361007,130.580465 Z M87.2262414,125.266012 C86.9567088,125.266012 86.7311251,125.350972 86.5494836,125.520895 C86.3678421,125.690817 86.2613978,125.957416 86.2301477,126.320699 L88.1988977,126.320699 C88.1910851,126.000385 88.1002657,125.744528 87.9264367,125.553121 C87.7526077,125.361714 87.5192116,125.266012 87.2262414,125.266012 Z M96.7008508,128.424215 C96.7008508,129.135156 96.4586657,129.67226 95.9742883,130.035543 C95.4899109,130.398826 94.7946053,130.580465 93.8883508,130.580465 C93.3961608,130.580465 92.9684307,130.554098 92.6051477,130.501363 C92.2418646,130.448629 91.8707746,130.35195 91.4918664,130.211324 L91.4918664,128.37734 C91.8473369,128.533591 92.2369815,128.662496 92.6608117,128.764059 C93.084642,128.865622 93.4625679,128.916403 93.7946008,128.916403 C94.290697,128.916403 94.5387414,128.803122 94.5387414,128.576559 C94.5387414,128.459371 94.4694062,128.35488 94.3307336,128.263082 C94.192061,128.171285 93.7887448,127.992576 93.1207727,127.726949 C92.5113946,127.476948 92.0856176,127.192771 91.8434289,126.87441 C91.6012402,126.556049 91.4801477,126.152733 91.4801477,125.664449 C91.4801477,125.047259 91.7184265,124.566795 92.1949914,124.223043 C92.6715563,123.879291 93.3453777,123.707418 94.2164758,123.707418 C94.653978,123.707418 95.0651067,123.755269 95.4498742,123.850973 C95.8346418,123.946676 96.2340518,124.086323 96.6481164,124.269918 L96.0270227,125.746481 C95.7223336,125.609761 95.4000712,125.493551 95.0602258,125.397848 C94.7203803,125.302144 94.4430394,125.254293 94.2281945,125.254293 C93.8531927,125.254293 93.6656945,125.346089 93.6656945,125.529684 C93.6656945,125.642966 93.7311236,125.739644 93.8619836,125.819723 C93.9928436,125.899801 94.3707695,126.062886 94.9957727,126.308981 C95.4606187,126.500388 95.807295,126.687886 96.0358117,126.871481 C96.2643285,127.055075 96.4322956,127.270893 96.539718,127.518942 C96.6471404,127.76699 96.7008508,128.068744 96.7008508,128.424215 Z M103.099288,128.424215 C103.099288,129.135156 102.857103,129.67226 102.372726,130.035543 C101.888348,130.398826 101.193043,130.580465 100.286788,130.580465 C99.7945983,130.580465 99.3668682,130.554098 99.0035852,130.501363 C98.6403021,130.448629 98.2692121,130.35195 97.8903039,130.211324 L97.8903039,128.37734 C98.2457744,128.533591 98.635419,128.662496 99.0592492,128.764059 C99.4830795,128.865622 99.8610054,128.916403 100.193038,128.916403 C100.689135,128.916403 100.937179,128.803122 100.937179,128.576559 C100.937179,128.459371 100.867844,128.35488 100.729171,128.263082 C100.590499,128.171285 100.187182,127.992576 99.5192102,127.726949 C98.9098321,127.476948 98.4840551,127.192771 98.2418664,126.87441 C97.9996777,126.556049 97.8785852,126.152733 97.8785852,125.664449 C97.8785852,125.047259 98.116864,124.566795 98.5934289,124.223043 C99.0699938,123.879291 99.7438152,123.707418 100.614913,123.707418 C101.052415,123.707418 101.463544,123.755269 101.848312,123.850973 C102.233079,123.946676 102.632489,124.086323 103.046554,124.269918 L102.42546,125.746481 C102.120771,125.609761 101.798509,125.493551 101.458663,125.397848 C101.118818,125.302144 100.841477,125.254293 100.626632,125.254293 C100.25163,125.254293 100.064132,125.346089 100.064132,125.529684 C100.064132,125.642966 100.129561,125.739644 100.260421,125.819723 C100.391281,125.899801 100.769207,126.062886 101.39421,126.308981 C101.859056,126.500388 102.205732,126.687886 102.434249,126.871481 C102.662766,127.055075 102.830733,127.270893 102.938155,127.518942 C103.045578,127.76699 103.099288,128.068744 103.099288,128.424215 Z M104.083663,129.490621 C104.083663,129.131244 104.190108,128.853903 104.402999,128.65859 C104.615891,128.463277 104.925458,128.365621 105.33171,128.365621 C105.718431,128.365621 106.015303,128.463277 106.222335,128.65859 C106.429367,128.853903 106.532882,129.131244 106.532882,129.490621 C106.532882,129.842186 106.426438,130.116597 106.213546,130.313863 C106.000654,130.51113 105.706712,130.609762 105.33171,130.609762 C104.944989,130.609762 104.640305,130.512107 104.417648,130.316793 C104.19499,130.12148 104.083663,129.846092 104.083663,129.490621 Z M104.083663,124.861715 C104.083663,124.506244 104.191084,124.230857 104.405929,124.035543 C104.620774,123.84023 104.929364,123.742574 105.33171,123.742574 C105.718431,123.742574 106.015303,123.84023 106.222335,124.035543 C106.429367,124.230857 106.532882,124.506244 106.532882,124.861715 C106.532882,125.213279 106.427414,125.488667 106.216476,125.687887 C106.005537,125.887107 105.710618,125.986715 105.33171,125.986715 C104.933271,125.986715 104.625657,125.887107 104.408859,125.687887 C104.192061,125.488667 104.083663,125.213279 104.083663,124.861715 Z M116.271163,125.699606 L116.095382,126.683981 L117.51921,126.683981 L117.51921,128.172262 L115.819991,128.172262 L115.386398,130.463278 L113.816085,130.463278 L114.24382,128.172262 L113.259445,128.172262 L112.843429,130.463278 L111.278976,130.463278 L111.700851,128.172262 L110.382491,128.172262 L110.382491,126.683981 L111.98796,126.683981 L112.169601,125.699606 L110.77507,125.699606 L110.77507,124.176168 L112.45671,124.176168 L112.878585,121.896871 L114.448898,121.896871 L114.015304,124.176168 L114.98796,124.176168 L115.409835,121.896871 L116.980148,121.896871 L116.552413,124.176168 L117.89421,124.176168 L117.89421,125.699606 L116.271163,125.699606 Z M113.552413,126.683981 L114.51921,126.683981 L114.700851,125.699606 L113.728195,125.699606 L113.552413,126.683981 Z M124.398116,123.754293 C124.398116,124.285546 124.236009,124.741596 123.911788,125.122457 C123.587568,125.503318 123.118823,125.779683 122.505538,125.951559 L122.505538,125.986715 C123.935233,126.166403 124.65007,126.842178 124.65007,128.014059 C124.65007,128.810938 124.334643,129.437885 123.70378,129.894918 C123.072918,130.351952 122.19695,130.580465 121.075851,130.580465 C120.614911,130.580465 120.188157,130.547262 119.795577,130.480856 C119.402997,130.414449 118.978197,130.293357 118.521163,130.117574 L118.521163,128.195699 C118.896165,128.387107 119.277997,128.528707 119.666671,128.620504 C120.055345,128.712301 120.41374,128.758199 120.741866,128.758199 C121.249681,128.758199 121.619795,128.686911 121.852218,128.544332 C122.084641,128.401753 122.200851,128.178123 122.200851,127.873434 C122.200851,127.639058 122.140305,127.458395 122.01921,127.331442 C121.898116,127.204488 121.702805,127.108786 121.433273,127.044332 C121.16374,126.979879 120.812181,126.947653 120.378585,126.947653 L119.851241,126.947653 L119.851241,125.207418 L120.390304,125.207418 C121.566091,125.207418 122.153976,124.90664 122.153976,124.305074 C122.153976,124.078511 122.067063,123.910544 121.893234,123.801168 C121.719405,123.691793 121.486009,123.637106 121.193038,123.637106 C120.646161,123.637106 120.07976,123.820698 119.49382,124.187887 L118.532882,122.641012 C118.986009,122.32851 119.449872,122.105856 119.924484,121.973043 C120.399095,121.84023 120.943035,121.773824 121.55632,121.773824 C122.443043,121.773824 123.138348,121.949604 123.642257,122.301168 C124.146166,122.652732 124.398116,123.137103 124.398116,123.754293 Z M131.751632,126.191793 C131.751632,127.707426 131.497728,128.817766 130.989913,129.522848 C130.482098,130.227929 129.704762,130.580465 128.657882,130.580465 C127.634439,130.580465 126.862963,130.212305 126.343429,129.475973 C125.823895,128.739641 125.564132,127.644925 125.564132,126.191793 C125.564132,124.668348 125.818036,123.551172 126.325851,122.840231 C126.833666,122.12929 127.611002,121.773824 128.657882,121.773824 C129.677418,121.773824 130.447918,122.143938 130.969405,122.884176 C131.490892,123.624414 131.751632,124.726942 131.751632,126.191793 Z M127.866866,126.191793 C127.866866,127.160548 127.927413,127.826557 128.048507,128.18984 C128.169601,128.553123 128.372724,128.734762 128.657882,128.734762 C128.946946,128.734762 129.151046,128.547264 129.270187,128.172262 C129.389328,127.79726 129.448898,127.13711 129.448898,126.191793 C129.448898,125.24257 129.388351,124.577537 129.267257,124.196676 C129.146163,123.815815 128.94304,123.625387 128.657882,123.625387 C128.372724,123.625387 128.169601,123.808979 128.048507,124.176168 C127.927413,124.543357 127.866866,125.215226 127.866866,126.191793 Z M133.099288,121.896871 L136.08757,121.896871 C137.251638,121.896871 138.115887,122.069721 138.680343,122.415426 C139.244799,122.761131 139.527023,123.299211 139.527023,124.029684 C139.527023,124.510155 139.403977,124.920307 139.157882,125.260153 C138.911787,125.599998 138.587572,125.818746 138.185226,125.916403 L138.185226,125.974996 C138.716478,126.115622 139.10124,126.349995 139.339523,126.678121 C139.577805,127.006248 139.696945,127.432025 139.696945,127.955465 C139.696945,128.732813 139.404955,129.345111 138.820968,129.792379 C138.236981,130.239647 137.44109,130.463278 136.433273,130.463278 L133.099288,130.463278 L133.099288,121.896871 Z M135.413741,125.183981 L136.111007,125.183981 C136.44304,125.183981 136.699873,125.115622 136.881515,124.978903 C137.063156,124.842183 137.153976,124.63906 137.153976,124.369528 C137.153976,123.889056 136.790698,123.648824 136.064132,123.648824 L135.413741,123.648824 L135.413741,125.183981 Z M135.413741,126.87734 L135.413741,128.676168 L136.228195,128.676168 C136.950854,128.676168 137.312179,128.371484 137.312179,127.762106 C137.312179,127.476948 137.2155,127.2582 137.02214,127.105856 C136.82878,126.953511 136.548509,126.87734 136.18132,126.87734 L135.413741,126.87734 Z M146.441085,130.463278 L146.01921,128.857809 L143.236007,128.857809 L142.802413,130.463278 L140.259445,130.463278 L143.054366,121.861715 L146.142257,121.861715 L148.972335,130.463278 L146.441085,130.463278 Z M145.538741,126.959371 L145.169601,125.553121 C145.083663,125.24062 144.979172,124.836327 144.856124,124.340231 C144.733077,123.844134 144.652023,123.488669 144.61296,123.273824 C144.577804,123.473044 144.508468,123.801166 144.404952,124.258199 C144.301436,124.715233 144.071946,125.615615 143.716476,126.959371 L145.538741,126.959371 Z M155.546554,130.463278 L149.329757,130.463278 L149.329757,128.93984 L151.421554,126.824606 C152.019213,126.199603 152.409834,125.772849 152.593429,125.544332 C152.777024,125.315815 152.904952,125.119528 152.977218,124.955465 C153.049484,124.791402 153.085616,124.619528 153.085616,124.43984 C153.085616,124.217183 153.013352,124.041403 152.86882,123.912496 C152.724288,123.783589 152.521165,123.719137 152.259445,123.719137 C151.989912,123.719137 151.717454,123.796285 151.442062,123.950582 C151.16667,124.10488 150.855149,124.332417 150.507491,124.633199 L149.236007,123.144918 C149.677416,122.750385 150.048506,122.468161 150.349288,122.298238 C150.650071,122.128316 150.977216,121.998434 151.330734,121.90859 C151.684251,121.818746 152.081708,121.773824 152.523116,121.773824 C153.077807,121.773824 153.572919,121.87148 154.008468,122.066793 C154.444017,122.262107 154.781904,122.540424 155.02214,122.901754 C155.262375,123.263084 155.382491,123.668353 155.382491,124.117574 C155.382491,124.453514 155.3405,124.764057 155.256515,125.049215 C155.17253,125.334373 155.042649,125.614643 154.866866,125.890035 C154.691084,126.165427 154.457688,126.455463 154.166671,126.760153 C153.875654,127.064842 153.255543,127.642961 152.30632,128.494528 L152.30632,128.553121 L155.546554,128.553121 L155.546554,130.463278 Z M159.89421,124.849996 C160.3864,124.849996 160.830732,124.964253 161.227218,125.19277 C161.623704,125.421286 161.932295,125.744525 162.152999,126.162496 C162.373703,126.580467 162.484054,127.062884 162.484054,127.609762 C162.484054,128.566798 162.195971,129.301166 161.619796,129.812887 C161.043621,130.324608 160.17156,130.580465 159.003585,130.580465 C158.00358,130.580465 157.187182,130.42617 156.554366,130.117574 L156.554366,128.219137 C156.894212,128.375388 157.277997,128.504293 157.705734,128.605856 C158.13347,128.707419 158.501631,128.758199 158.810226,128.758199 C159.239915,128.758199 159.56999,128.66738 159.80046,128.485738 C160.03093,128.304097 160.146163,128.035545 160.146163,127.680074 C160.146163,127.351948 160.028977,127.096091 159.794601,126.912496 C159.560225,126.728902 159.204759,126.637106 158.728195,126.637106 C158.364911,126.637106 157.972337,126.705464 157.55046,126.842184 L156.700851,126.420309 L157.023116,121.896871 L161.909835,121.896871 L161.909835,123.824606 L158.991866,123.824606 L158.886398,124.955465 C159.191087,124.896871 159.407881,124.864645 159.536788,124.858785 C159.665695,124.852926 159.784835,124.849996 159.89421,124.849996 Z" id="$color-success:-#30B" fill="#000000"></path>
                <path d="M21.5192102,145.072836 L21.5192102,150.615804 C21.5192102,151.592372 21.2242912,152.359942 20.6344445,152.918539 C20.0445978,153.477135 19.2340591,153.756429 18.2028039,153.756429 C17.1715488,153.756429 16.3737052,153.475182 15.8092492,152.912679 C15.2447933,152.350177 14.9625695,151.576747 14.9625695,150.592367 L14.9625695,145.072836 L15.9586633,145.072836 L15.9586633,150.662679 C15.9586633,151.377527 16.1539738,151.926349 16.5446008,152.309164 C16.9352277,152.691978 17.5094408,152.883383 18.267257,152.883383 C18.9899169,152.883383 19.546552,152.691002 19.9371789,152.306234 C20.3278059,151.921467 20.5231164,151.369714 20.5231164,150.650961 L20.5231164,145.072836 L21.5192102,145.072836 Z M27.782882,151.887289 C27.782882,152.484948 27.560228,152.945881 27.1149133,153.270101 C26.6695986,153.594322 26.0446048,153.756429 25.2399133,153.756429 C24.3883465,153.756429 23.7242907,153.621665 23.2477258,153.352133 L23.2477258,152.449789 C23.5563211,152.60604 23.8873725,152.729085 24.2408899,152.818929 C24.5944072,152.908774 24.9352242,152.953695 25.2633508,152.953695 C25.7711658,152.953695 26.1617869,152.872641 26.4352258,152.710531 C26.7086647,152.548421 26.845382,152.301353 26.845382,151.96932 C26.845382,151.719319 26.7369847,151.505454 26.5201867,151.327719 C26.3033888,151.149983 25.8805414,150.940024 25.251632,150.697836 C24.6539728,150.475178 24.2291724,150.280844 23.977218,150.114828 C23.7252636,149.948811 23.5377655,149.760337 23.414718,149.549398 C23.2916705,149.33846 23.2301477,149.086509 23.2301477,148.793539 C23.2301477,148.270099 23.4430362,147.857017 23.8688195,147.554281 C24.2946029,147.251545 24.8785815,147.100179 25.6207727,147.100179 C26.3121824,147.100179 26.9879569,147.240803 27.6481164,147.522054 L27.3024133,148.31307 C26.6578788,148.047444 26.0739003,147.914633 25.5504602,147.914633 C25.0895204,147.914633 24.7418676,147.986897 24.5074914,148.131429 C24.2731152,148.275961 24.1559289,148.475178 24.1559289,148.729086 C24.1559289,148.900962 24.1998738,149.047444 24.2877649,149.168539 C24.3756559,149.289633 24.5172561,149.404866 24.7125695,149.514242 C24.907883,149.623617 25.2828793,149.781819 25.8375695,149.988851 C26.5992921,150.266196 27.1139354,150.545491 27.3815149,150.826742 C27.6490943,151.107993 27.782882,151.461505 27.782882,151.887289 Z M32.0778039,153.756429 C31.1285804,153.756429 30.3795645,153.46737 29.8307336,152.889242 C29.2819027,152.311114 29.0074914,151.508388 29.0074914,150.481039 C29.0074914,149.445877 29.2623717,148.62362 29.7721399,148.014242 C30.281908,147.404864 30.9664715,147.100179 31.8258508,147.100179 C32.6305423,147.100179 33.2672547,147.364825 33.736007,147.894125 C34.2047594,148.423424 34.439132,149.121659 34.439132,149.988851 L34.439132,150.604086 L30.0153039,150.604086 C30.0348353,151.357996 30.225263,151.930256 30.586593,152.320883 C30.9479229,152.71151 31.4567069,152.90682 32.1129602,152.90682 C32.8043699,152.90682 33.4879568,152.76229 34.1637414,152.473226 L34.1637414,153.340414 C33.8199897,153.488852 33.4947976,153.595296 33.1881555,153.65975 C32.8815133,153.724203 32.5113998,153.756429 32.0778039,153.756429 Z M31.814132,147.914633 C31.2985045,147.914633 30.8873758,148.0826 30.5807336,148.418539 C30.2740914,148.754478 30.0934292,149.219317 30.0387414,149.81307 L33.3961633,149.81307 C33.3961633,149.199786 33.2594459,148.730064 32.986007,148.40389 C32.7125682,148.077717 32.3219471,147.914633 31.814132,147.914633 Z M40.4684289,152.777914 L40.4156945,152.777914 C39.9664735,153.430261 39.2946053,153.756429 38.4000695,153.756429 C37.5602216,153.756429 36.9069078,153.469323 36.4401086,152.895101 C35.9733094,152.32088 35.7399133,151.504482 35.7399133,150.445883 C35.7399133,149.387284 35.974286,148.565026 36.4430383,147.979086 C36.9117906,147.393145 37.5641279,147.100179 38.4000695,147.100179 C39.2711676,147.100179 39.9391297,147.416583 40.4039758,148.049398 L40.4801477,148.049398 L40.439132,147.586508 L40.4156945,147.135336 L40.4156945,144.522054 L41.3883508,144.522054 L41.3883508,153.639242 L40.5973352,153.639242 L40.4684289,152.777914 Z M38.5231164,152.941976 C39.1871822,152.941976 39.6686227,152.761314 39.9674524,152.399984 C40.266282,152.038654 40.4156945,151.455652 40.4156945,150.650961 L40.4156945,150.445883 C40.4156945,149.535722 40.2643289,148.886314 39.961593,148.49764 C39.6588571,148.108967 39.1754635,147.914633 38.5113977,147.914633 C37.9410823,147.914633 37.5045632,148.13631 37.2018274,148.579672 C36.8990915,149.023033 36.7477258,149.649004 36.7477258,150.457601 C36.7477258,151.277918 36.8981149,151.897052 37.1988977,152.315023 C37.4996804,152.732994 37.9410823,152.941976 38.5231164,152.941976 Z M49.4625695,147.973226 L47.8278039,147.973226 L47.8278039,153.639242 L46.8551477,153.639242 L46.8551477,147.973226 L45.7067102,147.973226 L45.7067102,147.533773 L46.8551477,147.182211 L46.8551477,146.824789 C46.8551477,145.246656 47.5445939,144.457601 48.923507,144.457601 C49.2633525,144.457601 49.661786,144.52596 50.1188195,144.662679 L49.8668664,145.441976 C49.4918645,145.320882 49.1715552,145.260336 48.9059289,145.260336 C48.5387396,145.260336 48.2672579,145.382405 48.0914758,145.626547 C47.9156937,145.870688 47.8278039,146.262286 47.8278039,146.801351 L47.8278039,147.217367 L49.4625695,147.217367 L49.4625695,147.973226 Z M56.1774133,150.422445 C56.1774133,151.469325 55.9137441,152.2867 55.3863977,152.874594 C54.8590513,153.462487 54.1305429,153.756429 53.2008508,153.756429 C52.6266292,153.756429 52.1168686,153.621665 51.6715539,153.352133 C51.2262392,153.0826 50.8824926,152.695885 50.6403039,152.191976 C50.3981152,151.688068 50.2770227,151.09823 50.2770227,150.422445 C50.2770227,149.375565 50.5387388,148.560143 51.0621789,147.976156 C51.585619,147.392169 52.3121743,147.100179 53.2418664,147.100179 C54.1403084,147.100179 54.8541685,147.399005 55.383468,147.996664 C55.9127675,148.594323 56.1774133,149.402909 56.1774133,150.422445 Z M51.2848352,150.422445 C51.2848352,151.242762 51.448896,151.867755 51.7770227,152.297445 C52.1051493,152.727135 52.5875664,152.941976 53.2242883,152.941976 C53.8610102,152.941976 54.3444038,152.728111 54.6744836,152.300375 C55.0045634,151.872638 55.1696008,151.246668 55.1696008,150.422445 C55.1696008,149.606035 55.0045634,148.985924 54.6744836,148.562094 C54.3444038,148.138263 53.857104,147.926351 53.2125695,147.926351 C52.5758476,147.926351 52.0953837,148.135334 51.7711633,148.553304 C51.4469429,148.971275 51.2848352,149.594316 51.2848352,150.422445 Z M60.8121789,147.100179 C61.0973366,147.100179 61.3531934,147.123617 61.579757,147.170492 L61.4449914,148.072836 C61.1793651,148.014242 60.9449924,147.984945 60.7418664,147.984945 C60.2223326,147.984945 59.7780011,148.19588 59.4088586,148.617758 C59.0397161,149.039635 58.8551477,149.56502 58.8551477,150.193929 L58.8551477,153.639242 L57.8824914,153.639242 L57.8824914,147.217367 L58.6852258,147.217367 L58.7965539,148.40682 L58.8434289,148.40682 C59.0817114,147.988849 59.3688179,147.666587 59.704757,147.440023 C60.0406962,147.21346 60.4098332,147.100179 60.8121789,147.100179 Z M70.0406945,151.887289 C70.0406945,152.484948 69.8180405,152.945881 69.3727258,153.270101 C68.9274111,153.594322 68.3024173,153.756429 67.4977258,153.756429 C66.646159,153.756429 65.9821032,153.621665 65.5055383,153.352133 L65.5055383,152.449789 C65.8141336,152.60604 66.145185,152.729085 66.4987024,152.818929 C66.8522197,152.908774 67.1930367,152.953695 67.5211633,152.953695 C68.0289783,152.953695 68.4195994,152.872641 68.6930383,152.710531 C68.9664772,152.548421 69.1031945,152.301353 69.1031945,151.96932 C69.1031945,151.719319 68.9947972,151.505454 68.7779992,151.327719 C68.5612013,151.149983 68.1383539,150.940024 67.5094445,150.697836 C66.9117853,150.475178 66.4869849,150.280844 66.2350305,150.114828 C65.9830761,149.948811 65.795578,149.760337 65.6725305,149.549398 C65.549483,149.33846 65.4879602,149.086509 65.4879602,148.793539 C65.4879602,148.270099 65.7008487,147.857017 66.126632,147.554281 C66.5524154,147.251545 67.136394,147.100179 67.8785852,147.100179 C68.5699949,147.100179 69.2457694,147.240803 69.9059289,147.522054 L69.5602258,148.31307 C68.9156913,148.047444 68.3317128,147.914633 67.8082727,147.914633 C67.3473329,147.914633 66.9996801,147.986897 66.7653039,148.131429 C66.5309277,148.275961 66.4137414,148.475178 66.4137414,148.729086 C66.4137414,148.900962 66.4576863,149.047444 66.5455774,149.168539 C66.6334684,149.289633 66.7750686,149.404866 66.970382,149.514242 C67.1656955,149.623617 67.5406918,149.781819 68.095382,149.988851 C68.8571046,150.266196 69.3717479,150.545491 69.6393274,150.826742 C69.9069068,151.107993 70.0406945,151.461505 70.0406945,151.887289 Z M72.5367883,147.217367 L72.5367883,151.383383 C72.5367883,151.906823 72.6559277,152.297444 72.8942102,152.555258 C73.1324926,152.813071 73.5055358,152.941976 74.0133508,152.941976 C74.6852292,152.941976 75.1764352,152.758384 75.4869836,152.391195 C75.797532,152.024006 75.9528039,151.424402 75.9528039,150.592367 L75.9528039,147.217367 L76.9254602,147.217367 L76.9254602,153.639242 L76.1227258,153.639242 L75.9821008,152.777914 L75.9293664,152.777914 C75.7301467,153.094322 75.4537822,153.336507 75.1002649,153.504476 C74.7467475,153.672446 74.3434312,153.756429 73.8903039,153.756429 C73.10905,153.756429 72.5240949,153.570884 72.1354211,153.199789 C71.7467473,152.828693 71.5524133,152.234949 71.5524133,151.418539 L71.5524133,147.217367 L72.5367883,147.217367 Z M81.5543664,153.756429 C80.6246743,153.756429 79.9049549,153.470299 79.3951867,152.898031 C78.8854186,152.325763 78.6305383,151.5162 78.6305383,150.46932 C78.6305383,149.395096 78.8893248,148.565026 79.4069055,147.979086 C79.9244862,147.393145 80.6617835,147.100179 81.6188195,147.100179 C81.9274148,147.100179 82.2360055,147.133382 82.5446008,147.199789 C82.8531961,147.266195 83.0953812,147.34432 83.2711633,147.434164 L82.9723352,148.260336 C82.7574903,148.174398 82.5231177,148.103109 82.2692102,148.046469 C82.0153026,147.989828 81.7906955,147.961508 81.595382,147.961508 C80.290688,147.961508 79.6383508,148.79353 79.6383508,150.457601 C79.6383508,151.246668 79.7975289,151.85213 80.1158899,152.274008 C80.4342508,152.695885 80.9059258,152.90682 81.5309289,152.90682 C82.0660878,152.90682 82.6149105,152.791587 83.1774133,152.561117 L83.1774133,153.422445 C82.7477236,153.645102 82.2067134,153.756429 81.5543664,153.756429 Z M87.267257,153.756429 C86.3375649,153.756429 85.6178455,153.470299 85.1080774,152.898031 C84.5983092,152.325763 84.3434289,151.5162 84.3434289,150.46932 C84.3434289,149.395096 84.6022154,148.565026 85.1197961,147.979086 C85.6373768,147.393145 86.3746741,147.100179 87.3317102,147.100179 C87.6403055,147.100179 87.9488961,147.133382 88.2574914,147.199789 C88.5660867,147.266195 88.8082718,147.34432 88.9840539,147.434164 L88.6852258,148.260336 C88.470381,148.174398 88.2360083,148.103109 87.9821008,148.046469 C87.7281933,147.989828 87.5035861,147.961508 87.3082727,147.961508 C86.0035786,147.961508 85.3512414,148.79353 85.3512414,150.457601 C85.3512414,151.246668 85.5104195,151.85213 85.8287805,152.274008 C86.1471414,152.695885 86.6188164,152.90682 87.2438195,152.90682 C87.7789785,152.90682 88.3278011,152.791587 88.8903039,152.561117 L88.8903039,153.422445 C88.4606143,153.645102 87.9196041,153.756429 87.267257,153.756429 Z M93.126632,153.756429 C92.1774085,153.756429 91.4283926,153.46737 90.8795617,152.889242 C90.3307309,152.311114 90.0563195,151.508388 90.0563195,150.481039 C90.0563195,149.445877 90.3111998,148.62362 90.820968,148.014242 C91.3307362,147.404864 92.0152996,147.100179 92.8746789,147.100179 C93.6793704,147.100179 94.3160828,147.364825 94.7848352,147.894125 C95.2535875,148.423424 95.4879602,149.121659 95.4879602,149.988851 L95.4879602,150.604086 L91.064132,150.604086 C91.0836634,151.357996 91.2740912,151.930256 91.6354211,152.320883 C91.996751,152.71151 92.505535,152.90682 93.1617883,152.90682 C93.853198,152.90682 94.5367849,152.76229 95.2125695,152.473226 L95.2125695,153.340414 C94.8688178,153.488852 94.5436258,153.595296 94.2369836,153.65975 C93.9303414,153.724203 93.560228,153.756429 93.126632,153.756429 Z M92.8629602,147.914633 C92.3473326,147.914633 91.9362039,148.0826 91.6295617,148.418539 C91.3229196,148.754478 91.1422573,149.219317 91.0875695,149.81307 L94.4449914,149.81307 C94.4449914,149.199786 94.308274,148.730064 94.0348352,148.40389 C93.7613963,148.077717 93.3707752,147.914633 92.8629602,147.914633 Z M101.288741,151.887289 C101.288741,152.484948 101.066087,152.945881 100.620773,153.270101 C100.175458,153.594322 99.5504642,153.756429 98.7457727,153.756429 C97.8942059,153.756429 97.2301501,153.621665 96.7535852,153.352133 L96.7535852,152.449789 C97.0621805,152.60604 97.3932318,152.729085 97.7467492,152.818929 C98.1002666,152.908774 98.4410835,152.953695 98.7692102,152.953695 C99.2770252,152.953695 99.6676463,152.872641 99.9410852,152.710531 C100.214524,152.548421 100.351241,152.301353 100.351241,151.96932 C100.351241,151.719319 100.242844,151.505454 100.026046,151.327719 C99.8092481,151.149983 99.3864008,150.940024 98.7574914,150.697836 C98.1598322,150.475178 97.7350317,150.280844 97.4830774,150.114828 C97.231123,149.948811 97.0436248,149.760337 96.9205774,149.549398 C96.7975299,149.33846 96.736007,149.086509 96.736007,148.793539 C96.736007,148.270099 96.9488955,147.857017 97.3746789,147.554281 C97.8004623,147.251545 98.3844408,147.100179 99.126632,147.100179 C99.8180418,147.100179 100.493816,147.240803 101.153976,147.522054 L100.808273,148.31307 C100.163738,148.047444 99.5797597,147.914633 99.0563195,147.914633 C98.5953797,147.914633 98.247727,147.986897 98.0133508,148.131429 C97.7789746,148.275961 97.6617883,148.475178 97.6617883,148.729086 C97.6617883,148.900962 97.7057332,149.047444 97.7936242,149.168539 C97.8815153,149.289633 98.0231154,149.404866 98.2184289,149.514242 C98.4137424,149.623617 98.7887386,149.781819 99.3434289,149.988851 C100.105151,150.266196 100.619795,150.545491 100.887374,150.826742 C101.154954,151.107993 101.288741,151.461505 101.288741,151.887289 Z M107.013351,151.887289 C107.013351,152.484948 106.790697,152.945881 106.345382,153.270101 C105.900067,153.594322 105.275074,153.756429 104.470382,153.756429 C103.618815,153.756429 102.954759,153.621665 102.478195,153.352133 L102.478195,152.449789 C102.78679,152.60604 103.117841,152.729085 103.471359,152.818929 C103.824876,152.908774 104.165693,152.953695 104.49382,152.953695 C105.001635,152.953695 105.392256,152.872641 105.665695,152.710531 C105.939133,152.548421 106.075851,152.301353 106.075851,151.96932 C106.075851,151.719319 105.967453,151.505454 105.750655,151.327719 C105.533858,151.149983 105.11101,150.940024 104.482101,150.697836 C103.884442,150.475178 103.459641,150.280844 103.207687,150.114828 C102.955732,149.948811 102.768234,149.760337 102.645187,149.549398 C102.522139,149.33846 102.460616,149.086509 102.460616,148.793539 C102.460616,148.270099 102.673505,147.857017 103.099288,147.554281 C103.525072,147.251545 104.10905,147.100179 104.851241,147.100179 C105.542651,147.100179 106.218426,147.240803 106.878585,147.522054 L106.532882,148.31307 C105.888348,148.047444 105.304369,147.914633 104.780929,147.914633 C104.319989,147.914633 103.972336,147.986897 103.73796,148.131429 C103.503584,148.275961 103.386398,148.475178 103.386398,148.729086 C103.386398,148.900962 103.430343,149.047444 103.518234,149.168539 C103.606125,149.289633 103.747725,149.404866 103.943038,149.514242 C104.138352,149.623617 104.513348,149.781819 105.068038,149.988851 C105.829761,150.266196 106.344404,150.545491 106.611984,150.826742 C106.879563,151.107993 107.013351,151.461505 107.013351,151.887289 Z M114.700851,147.111898 C115.544605,147.111898 116.199872,147.399981 116.666671,147.976156 C117.13347,148.552331 117.366866,149.367752 117.366866,150.422445 C117.366866,151.477138 117.131517,152.296466 116.660812,152.880453 C116.190106,153.46444 115.536792,153.756429 114.700851,153.756429 C114.28288,153.756429 113.901048,153.679282 113.555343,153.524984 C113.209638,153.370686 112.919602,153.133384 112.685226,152.81307 L112.614913,152.81307 L112.409835,153.639242 L111.71257,153.639242 L111.71257,144.522054 L112.685226,144.522054 L112.685226,146.736898 C112.685226,147.232994 112.669601,147.678302 112.638351,148.072836 L112.685226,148.072836 C113.138353,147.432207 113.810221,147.111898 114.700851,147.111898 Z M114.560226,147.926351 C113.89616,147.926351 113.417649,148.116779 113.124679,148.49764 C112.831709,148.878502 112.685226,149.520097 112.685226,150.422445 C112.685226,151.324793 112.835615,151.970295 113.136398,152.358969 C113.43718,152.747642 113.919597,152.941976 114.583663,152.941976 C115.181323,152.941976 115.626631,152.724205 115.919601,152.288656 C116.212571,151.853107 116.359054,151.227137 116.359054,150.410726 C116.359054,149.574785 116.212571,148.951744 115.919601,148.541586 C115.626631,148.131427 115.17351,147.926351 114.560226,147.926351 Z M119.980148,147.217367 L119.980148,151.383383 C119.980148,151.906823 120.099287,152.297444 120.33757,152.555258 C120.575852,152.813071 120.948895,152.941976 121.45671,152.941976 C122.128589,152.941976 122.619795,152.758384 122.930343,152.391195 C123.240891,152.024006 123.396163,151.424402 123.396163,150.592367 L123.396163,147.217367 L124.36882,147.217367 L124.36882,153.639242 L123.566085,153.639242 L123.42546,152.777914 L123.372726,152.777914 C123.173506,153.094322 122.897142,153.336507 122.543624,153.504476 C122.190107,153.672446 121.786791,153.756429 121.333663,153.756429 C120.552409,153.756429 119.967454,153.570884 119.57878,153.199789 C119.190107,152.828693 118.995773,152.234949 118.995773,151.418539 L118.995773,147.217367 L119.980148,147.217367 Z M128.505538,152.953695 C128.677414,152.953695 128.843428,152.941 129.003585,152.915609 C129.163742,152.890218 129.290694,152.863851 129.384445,152.836508 L129.384445,153.580648 C129.278975,153.63143 129.123703,153.673421 128.918624,153.706625 C128.713545,153.739828 128.528977,153.756429 128.364913,153.756429 C127.12272,153.756429 126.501632,153.102139 126.501632,151.793539 L126.501632,147.973226 L125.58171,147.973226 L125.58171,147.504476 L126.501632,147.100179 L126.911788,145.729086 L127.474288,145.729086 L127.474288,147.217367 L129.33757,147.217367 L129.33757,147.973226 L127.474288,147.973226 L127.474288,151.752523 C127.474288,152.139244 127.566084,152.436116 127.749679,152.643148 C127.933274,152.85018 128.185224,152.953695 128.505538,152.953695 Z M132.741866,152.953695 C132.913742,152.953695 133.079756,152.941 133.239913,152.915609 C133.40007,152.890218 133.527022,152.863851 133.620773,152.836508 L133.620773,153.580648 C133.515303,153.63143 133.360032,153.673421 133.154952,153.706625 C132.949873,153.739828 132.765305,153.756429 132.601241,153.756429 C131.359048,153.756429 130.73796,153.102139 130.73796,151.793539 L130.73796,147.973226 L129.818038,147.973226 L129.818038,147.504476 L130.73796,147.100179 L131.148116,145.729086 L131.710616,145.729086 L131.710616,147.217367 L133.573898,147.217367 L133.573898,147.973226 L131.710616,147.973226 L131.710616,151.752523 C131.710616,152.139244 131.802412,152.436116 131.986007,152.643148 C132.169602,152.85018 132.421552,152.953695 132.741866,152.953695 Z M140.446945,150.422445 C140.446945,151.469325 140.183275,152.2867 139.655929,152.874594 C139.128583,153.462487 138.400074,153.756429 137.470382,153.756429 C136.89616,153.756429 136.3864,153.621665 135.941085,153.352133 C135.49577,153.0826 135.152024,152.695885 134.909835,152.191976 C134.667646,151.688068 134.546554,151.09823 134.546554,150.422445 C134.546554,149.375565 134.80827,148.560143 135.33171,147.976156 C135.85515,147.392169 136.581706,147.100179 137.511398,147.100179 C138.40984,147.100179 139.1237,147.399005 139.652999,147.996664 C140.182299,148.594323 140.446945,149.402909 140.446945,150.422445 Z M135.554366,150.422445 C135.554366,151.242762 135.718427,151.867755 136.046554,152.297445 C136.374681,152.727135 136.857098,152.941976 137.49382,152.941976 C138.130541,152.941976 138.613935,152.728111 138.944015,152.300375 C139.274095,151.872638 139.439132,151.246668 139.439132,150.422445 C139.439132,149.606035 139.274095,148.985924 138.944015,148.562094 C138.613935,148.138263 138.126635,147.926351 137.482101,147.926351 C136.845379,147.926351 136.364915,148.135334 136.040695,148.553304 C135.716474,148.971275 135.554366,149.594316 135.554366,150.422445 Z M146.546554,153.639242 L146.546554,149.484945 C146.546554,148.961505 146.427414,148.570884 146.189132,148.31307 C145.95085,148.055256 145.577806,147.926351 145.069991,147.926351 C144.398113,147.926351 143.90593,148.10799 143.593429,148.471273 C143.280927,148.834556 143.124679,149.43416 143.124679,150.270101 L143.124679,153.639242 L142.152023,153.639242 L142.152023,147.217367 L142.943038,147.217367 L143.101241,148.096273 L143.148116,148.096273 C143.347336,147.779865 143.62663,147.534751 143.986007,147.360922 C144.345384,147.187093 144.74577,147.100179 145.187179,147.100179 C145.96062,147.100179 146.542646,147.286701 146.933273,147.65975 C147.3239,148.032798 147.51921,148.629472 147.51921,149.449789 L147.51921,153.639242 L146.546554,153.639242 Z M153.659835,151.887289 C153.659835,152.484948 153.437181,152.945881 152.991866,153.270101 C152.546552,153.594322 151.921558,153.756429 151.116866,153.756429 C150.2653,153.756429 149.601244,153.621665 149.124679,153.352133 L149.124679,152.449789 C149.433274,152.60604 149.764326,152.729085 150.117843,152.818929 C150.47136,152.908774 150.812177,152.953695 151.140304,152.953695 C151.648119,152.953695 152.03874,152.872641 152.312179,152.710531 C152.585618,152.548421 152.722335,152.301353 152.722335,151.96932 C152.722335,151.719319 152.613938,151.505454 152.39714,151.327719 C152.180342,151.149983 151.757495,150.940024 151.128585,150.697836 C150.530926,150.475178 150.106125,150.280844 149.854171,150.114828 C149.602217,149.948811 149.414719,149.760337 149.291671,149.549398 C149.168624,149.33846 149.107101,149.086509 149.107101,148.793539 C149.107101,148.270099 149.319989,147.857017 149.745773,147.554281 C150.171556,147.251545 150.755535,147.100179 151.497726,147.100179 C152.189136,147.100179 152.86491,147.240803 153.52507,147.522054 L153.179366,148.31307 C152.534832,148.047444 151.950853,147.914633 151.427413,147.914633 C150.966473,147.914633 150.618821,147.986897 150.384445,148.131429 C150.150068,148.275961 150.032882,148.475178 150.032882,148.729086 C150.032882,148.900962 150.076827,149.047444 150.164718,149.168539 C150.252609,149.289633 150.394209,149.404866 150.589523,149.514242 C150.784836,149.623617 151.159832,149.781819 151.714523,149.988851 C152.476245,150.266196 152.990889,150.545491 153.258468,150.826742 C153.526047,151.107993 153.659835,151.461505 153.659835,151.887289 Z" id="Used-for-success-but" fill="#000000"></path>
            </g>
        </g>
    </g>
</svg>