<?xml version="1.0" encoding="UTF-8" standalone="no"?>
<svg width="181px" height="211px" viewBox="0 0 181 211" version="1.1" xmlns="http://www.w3.org/2000/svg" xmlns:xlink="http://www.w3.org/1999/xlink">
    <!-- Generator: Sketch 44.1 (41455) - http://www.bohemiancoding.com/sketch -->
    <title>Group 17</title>
    <desc>Created with Sketch.</desc>
    <defs></defs>
    <g id="Page-1" stroke="none" stroke-width="1" fill="none" fill-rule="evenodd">
        <g id="Artboard-Copy-18" transform="translate(-1259.000000, -1502.000000)">
            <g id="Group-17" transform="translate(1259.133905, 1502.053207)">
                <rect id="Rectangle-18-Copy" fill="#615FFF" x="0.509854928" y="0.546848764" width="180" height="89.7379413"></rect>
                <rect id="Rectangle-18-Copy-5" fill="#FFFFFF" x="0.509854928" y="90.2847901" width="180" height="120"></rect>
                <path d="M16.5238609,130.06484 C15.6683878,130.025777 14.8441773,129.834373 14.0512046,129.490621 L14.0512046,127.545309 C14.5043319,127.775779 14.9965145,127.96816 15.5277671,128.122457 C16.0590198,128.276755 16.525812,128.353903 16.9281577,128.353903 C17.2601907,128.353903 17.5033523,128.313864 17.6576499,128.233785 C17.8119476,128.153707 17.8890952,128.019919 17.8890952,127.832418 C17.8890952,127.703511 17.8334317,127.594137 17.7221031,127.504293 C17.6107744,127.414449 17.4252294,127.312887 17.1654624,127.199606 C16.9056955,127.086324 16.5551131,126.949606 16.1137046,126.789449 C15.6176084,126.605855 15.2172218,126.399802 14.9125327,126.171285 C14.6078437,125.942769 14.3861663,125.686912 14.2474937,125.403707 C14.1088211,125.120503 14.0394859,124.767967 14.0394859,124.34609 C14.0394859,123.701556 14.2465151,123.197654 14.6605796,122.834371 C15.0746442,122.471088 15.6957317,122.246481 16.5238609,122.160543 L16.5238609,121.357809 L17.7367515,121.357809 L17.7367515,122.148824 C18.5140991,122.191793 19.2972944,122.383198 20.0863609,122.723043 L19.3890952,124.392965 C18.5726849,124.025776 17.8363642,123.842184 17.1801109,123.842184 C16.8676093,123.842184 16.6478849,123.880269 16.5209312,123.956442 C16.3939774,124.032614 16.3305015,124.144917 16.3305015,124.293356 C16.3305015,124.422263 16.3763995,124.528707 16.4681968,124.612692 C16.5599941,124.696676 16.7191722,124.790425 16.9457359,124.893942 C17.1722995,124.997458 17.4867495,125.117574 17.8890952,125.254293 C18.7055056,125.543357 19.2914372,125.872455 19.6469077,126.241598 C20.0023783,126.61074 20.1801109,127.086321 20.1801109,127.668356 C20.1801109,128.324609 19.9721051,128.857807 19.5560874,129.267965 C19.1400697,129.678123 18.5336305,129.932027 17.7367515,130.029684 L17.7367515,131.160543 L16.5238609,131.160543 L16.5238609,130.06484 Z M24.416439,130.580465 C23.3304961,130.580465 22.5072621,130.287499 21.9467124,129.701559 C21.3861628,129.115618 21.1058921,128.27383 21.1058921,127.176168 C21.1058921,126.0746 21.4086235,125.221093 22.0140952,124.615621 C22.619567,124.010149 23.4808865,123.707418 24.5980796,123.707418 C25.3676147,123.707418 26.0922168,123.875385 26.7719077,124.211324 L26.0980796,125.904684 C25.8207345,125.783589 25.5648777,125.686911 25.3305015,125.614645 C25.0961253,125.542379 24.8519871,125.506246 24.5980796,125.506246 C24.226984,125.506246 23.9398775,125.650776 23.7367515,125.93984 C23.5336255,126.228904 23.432064,126.637103 23.432064,127.164449 C23.432064,128.226955 23.8246382,128.758199 24.6097984,128.758199 C25.2816767,128.758199 25.9262015,128.562889 26.5433921,128.172262 L26.5433921,129.994528 C25.9535454,130.385154 25.2445681,130.580465 24.416439,130.580465 Z M34.2015952,127.129293 C34.2015952,128.215236 33.909606,129.061907 33.3256187,129.669332 C32.7416314,130.276757 31.9242567,130.580465 30.8734702,130.580465 C29.8656527,130.580465 29.0639029,130.269921 28.4681968,129.648824 C27.8724907,129.027728 27.5746421,128.187892 27.5746421,127.129293 C27.5746421,126.047256 27.8666314,125.206445 28.4506187,124.606832 C29.034606,124.00722 29.8539337,123.707418 30.9086265,123.707418 C31.5609735,123.707418 32.1371396,123.846089 32.6371421,124.123434 C33.1371446,124.400779 33.522883,124.798236 33.7943687,125.315817 C34.0658544,125.833397 34.2015952,126.437883 34.2015952,127.129293 Z M29.900814,127.129293 C29.900814,127.699608 29.9769851,128.134174 30.1293296,128.433004 C30.2816741,128.731834 30.5375309,128.881246 30.8969077,128.881246 C31.2523783,128.881246 31.5033523,128.731834 31.6498374,128.433004 C31.7963225,128.134174 31.869564,127.699608 31.869564,127.129293 C31.869564,126.562884 31.795346,126.135154 31.6469077,125.84609 C31.4984695,125.557026 31.2445658,125.412496 30.885189,125.412496 C30.5336247,125.412496 30.2816741,125.55605 30.1293296,125.84316 C29.9769851,126.130271 29.900814,126.558978 29.900814,127.129293 Z M37.7992515,130.463278 L35.5082359,130.463278 L35.5082359,121.34609 L37.7992515,121.34609 L37.7992515,130.463278 Z M45.7269859,127.129293 C45.7269859,128.215236 45.4349966,129.061907 44.8510093,129.669332 C44.267022,130.276757 43.4496474,130.580465 42.3988609,130.580465 C41.3910433,130.580465 40.5892935,130.269921 39.9935874,129.648824 C39.3978813,129.027728 39.1000327,128.187892 39.1000327,127.129293 C39.1000327,126.047256 39.392022,125.206445 39.9760093,124.606832 C40.5599966,124.00722 41.3793243,123.707418 42.4340171,123.707418 C43.0863641,123.707418 43.6625302,123.846089 44.1625327,124.123434 C44.6625352,124.400779 45.0482736,124.798236 45.3197593,125.315817 C45.591245,125.833397 45.7269859,126.437883 45.7269859,127.129293 Z M41.4262046,127.129293 C41.4262046,127.699608 41.5023757,128.134174 41.6547202,128.433004 C41.8070648,128.731834 42.0629216,128.881246 42.4222984,128.881246 C42.7777689,128.881246 43.028743,128.731834 43.1752281,128.433004 C43.3217132,128.134174 43.3949546,127.699608 43.3949546,127.129293 C43.3949546,126.562884 43.3207366,126.135154 43.1722984,125.84609 C43.0238601,125.557026 42.7699564,125.412496 42.4105796,125.412496 C42.0590154,125.412496 41.8070648,125.55605 41.6547202,125.84316 C41.5023757,126.130271 41.4262046,126.558978 41.4262046,127.129293 Z M51.041439,123.707418 C51.2406587,123.707418 51.43011,123.723043 51.6097984,123.754293 L51.7387046,123.777731 L51.5336265,125.93984 C51.3461256,125.892965 51.0863625,125.869528 50.7543296,125.869528 C50.2543271,125.869528 49.8910495,125.983784 49.6644859,126.212301 C49.4379222,126.440818 49.3246421,126.769916 49.3246421,127.199606 L49.3246421,130.463278 L47.0336265,130.463278 L47.0336265,123.824606 L48.7387046,123.824606 L49.0961265,124.885153 L49.2074546,124.885153 C49.3988618,124.533588 49.6654607,124.249411 50.0072593,124.032613 C50.3490579,123.815815 50.693781,123.707418 51.041439,123.707418 Z M52.1254234,128.160543 L52.1254234,126.332418 L55.4359702,126.332418 L55.4359702,128.160543 L52.1254234,128.160543 Z M60.463314,130.580465 C60.1273748,130.580465 59.8265966,130.524802 59.5609702,130.413473 C59.2953439,130.302144 59.0316747,130.101951 58.7699546,129.812887 L58.6644859,129.812887 C58.7347987,130.277733 58.7699546,130.566793 58.7699546,130.680074 L58.7699546,133.34609 L56.478939,133.34609 L56.478939,123.824606 L58.3422202,123.824606 L58.6644859,124.668356 L58.7699546,124.668356 C59.195738,124.027727 59.7836227,123.707418 60.5336265,123.707418 C61.2680052,123.707418 61.8441713,124.012103 62.2621421,124.621481 C62.680113,125.230859 62.8890952,126.066788 62.8890952,127.129293 C62.8890952,128.199611 62.671324,129.042376 62.2357749,129.657613 C61.8002259,130.272851 61.2094115,130.580465 60.463314,130.580465 Z M59.6957359,125.506246 C59.3597967,125.506246 59.1244475,125.626362 58.9896812,125.866598 C58.8549149,126.106833 58.7816734,126.463275 58.7699546,126.935934 L58.7699546,127.117574 C58.7699546,127.68789 58.8461257,128.099995 58.9984702,128.353903 C59.1508148,128.60781 59.3910467,128.734762 59.7191734,128.734762 C60.0121436,128.734762 60.2250321,128.608787 60.3578452,128.356832 C60.4906584,128.104878 60.557064,127.68789 60.557064,127.105856 C60.557064,126.53554 60.4906584,126.126365 60.3578452,125.878317 C60.2250321,125.630268 60.0043312,125.506246 59.6957359,125.506246 Z M68.2035484,123.707418 C68.4027681,123.707418 68.5922193,123.723043 68.7719077,123.754293 L68.900814,123.777731 L68.6957359,125.93984 C68.5082349,125.892965 68.2484719,125.869528 67.916439,125.869528 C67.4164365,125.869528 67.0531589,125.983784 66.8265952,126.212301 C66.6000316,126.440818 66.4867515,126.769916 66.4867515,127.199606 L66.4867515,130.463278 L64.1957359,130.463278 L64.1957359,123.824606 L65.900814,123.824606 L66.2582359,124.885153 L66.369564,124.885153 C66.5609712,124.533588 66.8275701,124.249411 67.1693687,124.032613 C67.5111673,123.815815 67.8558904,123.707418 68.2035484,123.707418 Z M72.1293296,130.463278 L69.838314,130.463278 L69.838314,123.824606 L72.1293296,123.824606 L72.1293296,130.463278 Z M69.7797202,122.172262 C69.7797202,121.82851 69.8754224,121.572653 70.0668296,121.404684 C70.2582368,121.236714 70.5668275,121.152731 70.9926109,121.152731 C71.4183942,121.152731 71.728938,121.238667 71.9242515,121.410543 C72.119565,121.582419 72.2172202,121.836323 72.2172202,122.172262 C72.2172202,122.84414 71.8090212,123.180074 70.9926109,123.180074 C70.1840131,123.180074 69.7797202,122.84414 69.7797202,122.172262 Z M81.8793296,130.463278 L81.8793296,126.853903 C81.8793296,126.404682 81.8178068,126.067771 81.6947593,125.84316 C81.5717118,125.61855 81.3773778,125.506246 81.1117515,125.506246 C80.7601872,125.506246 80.5023773,125.656635 80.338314,125.957418 C80.1742507,126.258201 80.0922202,126.728899 80.0922202,127.369528 L80.0922202,130.463278 L77.7953452,130.463278 L77.7953452,126.853903 C77.7953452,126.404682 77.7367521,126.067771 77.619564,125.84316 C77.5023759,125.61855 77.3129247,125.506246 77.0512046,125.506246 C76.6918278,125.506246 76.4301117,125.666401 76.2660484,125.986715 C76.1019851,126.307029 76.0199546,126.830461 76.0199546,127.557028 L76.0199546,130.463278 L73.728939,130.463278 L73.728939,123.824606 L75.4574546,123.824606 L75.744564,124.644918 L75.8793296,124.644918 C76.0551117,124.340229 76.309992,124.10781 76.6439781,123.947653 C76.9779641,123.787495 77.3578431,123.707418 77.7836265,123.707418 C78.7406625,123.707418 79.4125308,123.998431 79.7992515,124.580465 L79.9808921,124.580465 C80.1683931,124.307026 80.4291326,124.093161 80.7631187,123.938863 C81.0971047,123.784566 81.4652651,123.707418 81.8676109,123.707418 C82.652771,123.707418 83.2328434,123.908588 83.6078452,124.310934 C83.9828471,124.71328 84.1703452,125.324602 84.1703452,126.144918 L84.1703452,130.463278 L81.8793296,130.463278 Z M90.0590171,130.463278 L89.619564,129.584371 L89.572689,129.584371 C89.2640937,129.967186 88.9496437,130.228902 88.6293296,130.369528 C88.3090155,130.510153 87.8949572,130.580465 87.3871421,130.580465 C86.762139,130.580465 86.2699564,130.392967 85.9105796,130.017965 C85.5512028,129.642963 85.3715171,129.115625 85.3715171,128.435934 C85.3715171,127.728899 85.6176084,127.202537 86.1097984,126.856832 C86.6019883,126.511127 87.3148718,126.316793 88.2484702,126.273824 L89.3558921,126.238668 L89.3558921,126.144918 C89.3558921,125.59804 89.0863636,125.324606 88.5472984,125.324606 C88.0629209,125.324606 87.4476927,125.488667 86.7015952,125.816793 L86.0394859,124.305074 C86.8129272,123.906635 87.78948,123.707418 88.9691734,123.707418 C89.8207401,123.707418 90.4799132,123.918354 90.9467124,124.340231 C91.4135116,124.762108 91.6469077,125.351946 91.6469077,126.109762 L91.6469077,130.463278 L90.0590171,130.463278 Z M88.3597984,128.963278 C88.6371435,128.963278 88.8744458,128.875388 89.0717124,128.699606 C89.268979,128.523824 89.3676109,128.29531 89.3676109,128.014059 L89.3676109,127.498434 L88.8402671,127.521871 C88.0863571,127.549215 87.7094077,127.826556 87.7094077,128.353903 C87.7094077,128.760155 87.9262025,128.963278 88.3597984,128.963278 Z M97.213314,123.707418 C97.4125337,123.707418 97.601985,123.723043 97.7816734,123.754293 L97.9105796,123.777731 L97.7055015,125.93984 C97.5180006,125.892965 97.2582375,125.869528 96.9262046,125.869528 C96.4262021,125.869528 96.0629245,125.983784 95.8363609,126.212301 C95.6097972,126.440818 95.4965171,126.769916 95.4965171,127.199606 L95.4965171,130.463278 L93.2055015,130.463278 L93.2055015,123.824606 L94.9105796,123.824606 L95.2680015,124.885153 L95.3793296,124.885153 C95.5707368,124.533588 95.8373357,124.249411 96.1791343,124.032613 C96.5209329,123.815815 96.865656,123.707418 97.213314,123.707418 Z M98.0336265,123.824606 L100.447689,123.824606 L101.572689,127.633199 C101.627377,127.832419 101.664486,128.072651 101.684017,128.353903 L101.730892,128.353903 C101.762142,128.08437 101.809017,127.848044 101.871517,127.644918 L103.025814,123.824606 L105.363705,123.824606 L102.738705,130.885153 C102.402765,131.783595 101.989684,132.418354 101.499447,132.789449 C101.00921,133.160545 100.369568,133.34609 99.5805015,133.34609 C99.2758125,133.34609 98.9633156,133.312887 98.6430015,133.246481 L98.6430015,131.447653 C98.8500338,131.494528 99.0863595,131.517965 99.3519859,131.517965 C99.5551119,131.517965 99.7328445,131.478903 99.885189,131.400778 C100.037534,131.322652 100.170345,131.212302 100.283626,131.069723 C100.396908,130.927144 100.518001,130.693748 100.646908,130.369528 L98.0336265,123.824606 Z M105.867611,129.490621 C105.867611,129.131244 105.974055,128.853903 106.186947,128.65859 C106.399838,128.463277 106.709406,128.365621 107.115658,128.365621 C107.502378,128.365621 107.79925,128.463277 108.006283,128.65859 C108.213315,128.853903 108.31683,129.131244 108.31683,129.490621 C108.31683,129.842186 108.210385,130.116597 107.997494,130.313863 C107.784602,130.51113 107.49066,130.609762 107.115658,130.609762 C106.728937,130.609762 106.424253,130.512107 106.201595,130.316793 C105.978938,130.12148 105.867611,129.846092 105.867611,129.490621 Z M105.867611,124.861715 C105.867611,124.506244 105.975032,124.230857 106.189876,124.035543 C106.404721,123.84023 106.713312,123.742574 107.115658,123.742574 C107.502378,123.742574 107.79925,123.84023 108.006283,124.035543 C108.213315,124.230857 108.31683,124.506244 108.31683,124.861715 C108.31683,125.213279 108.211362,125.488667 108.000423,125.687887 C107.789485,125.887107 107.494566,125.986715 107.115658,125.986715 C106.717218,125.986715 106.409604,125.887107 106.192806,125.687887 C105.976008,125.488667 105.867611,125.213279 105.867611,124.861715 Z M118.055111,125.699606 L117.87933,126.683981 L119.303158,126.683981 L119.303158,128.172262 L117.603939,128.172262 L117.170345,130.463278 L115.600033,130.463278 L116.027767,128.172262 L115.043392,128.172262 L114.627376,130.463278 L113.062923,130.463278 L113.484798,128.172262 L112.166439,128.172262 L112.166439,126.683981 L113.771908,126.683981 L113.953548,125.699606 L112.559017,125.699606 L112.559017,124.176168 L114.240658,124.176168 L114.662533,121.896871 L116.232845,121.896871 L115.799251,124.176168 L116.771908,124.176168 L117.193783,121.896871 L118.764095,121.896871 L118.336361,124.176168 L119.678158,124.176168 L119.678158,125.699606 L118.055111,125.699606 Z M115.336361,126.683981 L116.303158,126.683981 L116.484798,125.699606 L115.512142,125.699606 L115.336361,126.683981 Z M120.305111,126.842184 C120.305111,125.646865 120.476008,124.679102 120.817806,123.938863 C121.159605,123.198625 121.663506,122.652732 122.329525,122.301168 C122.995544,121.949604 123.816825,121.773824 124.793392,121.773824 C125.14105,121.773824 125.547296,121.807027 126.012142,121.873434 L126.012142,123.683981 C125.621515,123.609762 125.197691,123.572653 124.740658,123.572653 C123.967216,123.572653 123.39105,123.742573 123.012142,124.082418 C122.633234,124.422264 122.426205,124.976946 122.391048,125.746481 L122.461361,125.746481 C122.812925,125.082415 123.377373,124.750387 124.15472,124.750387 C124.916443,124.750387 125.507257,124.995502 125.927181,125.485738 C126.347105,125.975975 126.557064,126.658586 126.557064,127.53359 C126.557064,128.475001 126.291442,129.218158 125.760189,129.763082 C125.228936,130.308007 124.486756,130.580465 123.533626,130.580465 C122.521903,130.580465 121.730895,130.252343 121.16058,129.59609 C120.590264,128.939837 120.305111,128.021877 120.305111,126.842184 Z M123.480892,128.746481 C123.726987,128.746481 123.92718,128.653708 124.081478,128.46816 C124.235776,128.282613 124.312923,127.986717 124.312923,127.580465 C124.312923,126.885149 124.043395,126.537496 123.50433,126.537496 C123.238703,126.537496 123.022885,126.627339 122.856869,126.807028 C122.690852,126.986716 122.607845,127.205464 122.607845,127.463278 C122.607845,127.838279 122.687923,128.145894 122.84808,128.386129 C123.008237,128.626365 123.219172,128.746481 123.480892,128.746481 Z M132.445736,130.463278 L130.096126,130.463278 L130.096126,125.928121 C130.096126,125.377337 130.107845,124.873436 130.131283,124.416403 C129.986751,124.592185 129.807065,124.775777 129.59222,124.967184 L128.619564,125.769918 L127.418392,124.293356 L130.359798,121.896871 L132.445736,121.896871 L132.445736,130.463278 Z M137.84808,124.849996 C138.34027,124.849996 138.784601,124.964253 139.181087,125.19277 C139.577574,125.421286 139.886164,125.744525 140.106869,126.162496 C140.327573,126.580467 140.437923,127.062884 140.437923,127.609762 C140.437923,128.566798 140.14984,129.301166 139.573666,129.812887 C138.997491,130.324608 138.125429,130.580465 136.957455,130.580465 C135.95745,130.580465 135.141052,130.42617 134.508236,130.117574 L134.508236,128.219137 C134.848081,128.375388 135.231867,128.504293 135.659603,128.605856 C136.08734,128.707419 136.4555,128.758199 136.764095,128.758199 C137.193785,128.758199 137.52386,128.66738 137.75433,128.485738 C137.9848,128.304097 138.100033,128.035545 138.100033,127.680074 C138.100033,127.351948 137.982846,127.096091 137.74847,126.912496 C137.514094,126.728902 137.158629,126.637106 136.682064,126.637106 C136.318781,126.637106 135.926207,126.705464 135.50433,126.842184 L134.65472,126.420309 L134.976986,121.896871 L139.863705,121.896871 L139.863705,123.824606 L136.945736,123.824606 L136.840267,124.955465 C137.144956,124.896871 137.361751,124.864645 137.490658,124.858785 C137.619565,124.852926 137.738704,124.849996 137.84808,124.849996 Z M145.834408,125.541403 L144.422298,125.541403 L144.422298,130.463278 L142.131283,130.463278 L142.131283,125.541403 L141.252376,125.541403 L141.252376,124.416403 L142.178158,123.853903 L142.178158,123.742574 C142.178158,122.86757 142.356867,122.23867 142.714291,121.855856 C143.071714,121.473041 143.644951,121.281637 144.434017,121.281637 C144.738706,121.281637 145.026789,121.305074 145.298275,121.351949 C145.569761,121.398825 145.885187,121.480855 146.244564,121.598043 L145.752376,123.080465 C145.471125,123.00234 145.195737,122.963278 144.926205,122.963278 C144.750422,122.963278 144.622494,123.016988 144.542416,123.12441 C144.462337,123.231833 144.422298,123.406636 144.422298,123.648824 L144.422298,123.824606 L145.834408,123.824606 L145.834408,125.541403 Z M150.791439,125.541403 L149.37933,125.541403 L149.37933,130.463278 L147.088314,130.463278 L147.088314,125.541403 L146.209408,125.541403 L146.209408,124.416403 L147.135189,123.853903 L147.135189,123.742574 C147.135189,122.86757 147.313898,122.23867 147.671322,121.855856 C148.028745,121.473041 148.601982,121.281637 149.391048,121.281637 C149.695737,121.281637 149.98382,121.305074 150.255306,121.351949 C150.526792,121.398825 150.842218,121.480855 151.201595,121.598043 L150.709408,123.080465 C150.428156,123.00234 150.152768,122.963278 149.883236,122.963278 C149.707454,122.963278 149.579525,123.016988 149.499447,123.12441 C149.419368,123.231833 149.37933,123.406636 149.37933,123.648824 L149.37933,123.824606 L150.791439,123.824606 L150.791439,125.541403 Z M155.74847,125.541403 L154.336361,125.541403 L154.336361,130.463278 L152.045345,130.463278 L152.045345,125.541403 L151.166439,125.541403 L151.166439,124.416403 L152.09222,123.853903 L152.09222,123.742574 C152.09222,122.86757 152.270929,122.23867 152.628353,121.855856 C152.985777,121.473041 153.559013,121.281637 154.34808,121.281637 C154.652769,121.281637 154.940852,121.305074 155.212337,121.351949 C155.483823,121.398825 155.79925,121.480855 156.158626,121.598043 L155.666439,123.080465 C155.385188,123.00234 155.1098,122.963278 154.840267,122.963278 C154.664485,122.963278 154.536557,123.016988 154.456478,123.12441 C154.3764,123.231833 154.336361,123.406636 154.336361,123.648824 L154.336361,123.824606 L155.74847,123.824606 L155.74847,125.541403 Z" id="$color-primary:-#615" fill="#000000"></path>
                <path d="M21.2172202,145.072836 L21.2172202,150.615804 C21.2172202,151.592372 20.9223013,152.359942 20.3324546,152.918539 C19.7426079,153.477135 18.9320692,153.756429 17.900814,153.756429 C16.8695588,153.756429 16.0717153,153.475182 15.5072593,152.912679 C14.9428034,152.350177 14.6605796,151.576747 14.6605796,150.592367 L14.6605796,145.072836 L15.6566734,145.072836 L15.6566734,150.662679 C15.6566734,151.377527 15.8519839,151.926349 16.2426109,152.309164 C16.6332378,152.691978 17.2074508,152.883383 17.9652671,152.883383 C18.687927,152.883383 19.244562,152.691002 19.635189,152.306234 C20.0258159,151.921467 20.2211265,151.369714 20.2211265,150.650961 L20.2211265,145.072836 L21.2172202,145.072836 Z M27.4808921,151.887289 C27.4808921,152.484948 27.2582381,152.945881 26.8129234,153.270101 C26.3676086,153.594322 25.7426149,153.756429 24.9379234,153.756429 C24.0863566,153.756429 23.4223008,153.621665 22.9457359,153.352133 L22.9457359,152.449789 C23.2543312,152.60604 23.5853825,152.729085 23.9388999,152.818929 C24.2924173,152.908774 24.6332342,152.953695 24.9613609,152.953695 C25.4691759,152.953695 25.859797,152.872641 26.1332359,152.710531 C26.4066747,152.548421 26.5433921,152.301353 26.5433921,151.96932 C26.5433921,151.719319 26.4349948,151.505454 26.2181968,151.327719 C26.0013988,151.149983 25.5785515,150.940024 24.9496421,150.697836 C24.3519829,150.475178 23.9271824,150.280844 23.6752281,150.114828 C23.4232737,149.948811 23.2357755,149.760337 23.1127281,149.549398 C22.9896806,149.33846 22.9281577,149.086509 22.9281577,148.793539 C22.9281577,148.270099 23.1410462,147.857017 23.5668296,147.554281 C23.992613,147.251545 24.5765915,147.100179 25.3187827,147.100179 C26.0101925,147.100179 26.6859669,147.240803 27.3461265,147.522054 L27.0004234,148.31307 C26.3558889,148.047444 25.7719104,147.914633 25.2484702,147.914633 C24.7875304,147.914633 24.4398777,147.986897 24.2055015,148.131429 C23.9711253,148.275961 23.853939,148.475178 23.853939,148.729086 C23.853939,148.900962 23.8978839,149.047444 23.9857749,149.168539 C24.073666,149.289633 24.2152661,149.404866 24.4105796,149.514242 C24.6058931,149.623617 24.9808893,149.781819 25.5355796,149.988851 C26.2973022,150.266196 26.8119455,150.545491 27.0795249,150.826742 C27.3471044,151.107993 27.4808921,151.461505 27.4808921,151.887289 Z M31.775814,153.756429 C30.8265905,153.756429 30.0775746,153.46737 29.5287437,152.889242 C28.9799128,152.311114 28.7055015,151.508388 28.7055015,150.481039 C28.7055015,149.445877 28.9603818,148.62362 29.4701499,148.014242 C29.9799181,147.404864 30.6644816,147.100179 31.5238609,147.100179 C32.3285524,147.100179 32.9652648,147.364825 33.4340171,147.894125 C33.9027695,148.423424 34.1371421,149.121659 34.1371421,149.988851 L34.1371421,150.604086 L29.713314,150.604086 C29.7328453,151.357996 29.9232731,151.930256 30.2846031,152.320883 C30.645933,152.71151 31.154717,152.90682 31.8109702,152.90682 C32.50238,152.90682 33.1859669,152.76229 33.8617515,152.473226 L33.8617515,153.340414 C33.5179998,153.488852 33.1928077,153.595296 32.8861656,153.65975 C32.5795234,153.724203 32.2094099,153.756429 31.775814,153.756429 Z M31.5121421,147.914633 C30.9965145,147.914633 30.5853858,148.0826 30.2787437,148.418539 C29.9721015,148.754478 29.7914393,149.219317 29.7367515,149.81307 L33.0941734,149.81307 C33.0941734,149.199786 32.957456,148.730064 32.6840171,148.40389 C32.4105783,148.077717 32.0199572,147.914633 31.5121421,147.914633 Z M40.166439,152.777914 L40.1137046,152.777914 C39.6644836,153.430261 38.9926153,153.756429 38.0980796,153.756429 C37.2582317,153.756429 36.6049179,153.469323 36.1381187,152.895101 C35.6713195,152.32088 35.4379234,151.504482 35.4379234,150.445883 C35.4379234,149.387284 35.672296,148.565026 36.1410484,147.979086 C36.6098007,147.393145 37.2621379,147.100179 38.0980796,147.100179 C38.9691777,147.100179 39.6371398,147.416583 40.1019859,148.049398 L40.1781577,148.049398 L40.1371421,147.586508 L40.1137046,147.135336 L40.1137046,144.522054 L41.0863609,144.522054 L41.0863609,153.639242 L40.2953452,153.639242 L40.166439,152.777914 Z M38.2211265,152.941976 C38.8851923,152.941976 39.3666328,152.761314 39.6654624,152.399984 C39.9642921,152.038654 40.1137046,151.455652 40.1137046,150.650961 L40.1137046,150.445883 C40.1137046,149.535722 39.9623389,148.886314 39.6596031,148.49764 C39.3568672,148.108967 38.8734736,147.914633 38.2094077,147.914633 C37.6390924,147.914633 37.2025733,148.13631 36.8998374,148.579672 C36.5971015,149.023033 36.4457359,149.649004 36.4457359,150.457601 C36.4457359,151.277918 36.596125,151.897052 36.8969077,152.315023 C37.1976905,152.732994 37.6390923,152.941976 38.2211265,152.941976 Z M49.1605796,147.973226 L47.525814,147.973226 L47.525814,153.639242 L46.5531577,153.639242 L46.5531577,147.973226 L45.4047202,147.973226 L45.4047202,147.533773 L46.5531577,147.182211 L46.5531577,146.824789 C46.5531577,145.246656 47.242604,144.457601 48.6215171,144.457601 C48.9613626,144.457601 49.3597961,144.52596 49.8168296,144.662679 L49.5648765,145.441976 C49.1898746,145.320882 48.8695653,145.260336 48.603939,145.260336 C48.2367497,145.260336 47.965268,145.382405 47.7894859,145.626547 C47.6137037,145.870688 47.525814,146.262286 47.525814,146.801351 L47.525814,147.217367 L49.1605796,147.217367 L49.1605796,147.973226 Z M55.8754234,150.422445 C55.8754234,151.469325 55.6117541,152.2867 55.0844077,152.874594 C54.5570614,153.462487 53.828553,153.756429 52.8988609,153.756429 C52.3246392,153.756429 51.8148787,153.621665 51.369564,153.352133 C50.9242493,153.0826 50.5805027,152.695885 50.338314,152.191976 C50.0961253,151.688068 49.9750327,151.09823 49.9750327,150.422445 C49.9750327,149.375565 50.2367489,148.560143 50.760189,147.976156 C51.2836291,147.392169 52.0101843,147.100179 52.9398765,147.100179 C53.8383185,147.100179 54.5521785,147.399005 55.0814781,147.996664 C55.6107776,148.594323 55.8754234,149.402909 55.8754234,150.422445 Z M50.9828452,150.422445 C50.9828452,151.242762 51.1469061,151.867755 51.4750327,152.297445 C51.8031594,152.727135 52.2855764,152.941976 52.9222984,152.941976 C53.5590203,152.941976 54.0424139,152.728111 54.3724937,152.300375 C54.7025735,151.872638 54.8676109,151.246668 54.8676109,150.422445 C54.8676109,149.606035 54.7025735,148.985924 54.3724937,148.562094 C54.0424139,148.138263 53.5551141,147.926351 52.9105796,147.926351 C52.2738577,147.926351 51.7933937,148.135334 51.4691734,148.553304 C51.144953,148.971275 50.9828452,149.594316 50.9828452,150.422445 Z M60.510189,147.100179 C60.7953467,147.100179 61.0512035,147.123617 61.2777671,147.170492 L61.1430015,148.072836 C60.8773752,148.014242 60.6430025,147.984945 60.4398765,147.984945 C59.9203426,147.984945 59.4760112,148.19588 59.1068687,148.617758 C58.7377262,149.039635 58.5531577,149.56502 58.5531577,150.193929 L58.5531577,153.639242 L57.5805015,153.639242 L57.5805015,147.217367 L58.3832359,147.217367 L58.494564,148.40682 L58.541439,148.40682 C58.7797214,147.988849 59.0668279,147.666587 59.4027671,147.440023 C59.7387063,147.21346 60.1078432,147.100179 60.510189,147.100179 Z M66.5687827,153.639242 L65.5961265,153.639242 L65.5961265,144.522054 L66.5687827,144.522054 L66.5687827,153.639242 Z M69.603939,153.639242 L68.6312827,153.639242 L68.6312827,147.217367 L69.603939,147.217367 L69.603939,153.639242 Z M68.5492515,145.477133 C68.5492515,145.254475 68.6039384,145.091391 68.713314,144.987875 C68.8226895,144.884359 68.9594069,144.832601 69.1234702,144.832601 C69.279721,144.832601 69.4144853,144.885335 69.5277671,144.990804 C69.6410489,145.096274 69.697689,145.258381 69.697689,145.477133 C69.697689,145.695884 69.6410489,145.858968 69.5277671,145.96639 C69.4144853,146.073813 69.279721,146.127523 69.1234702,146.127523 C68.9594069,146.127523 68.8226895,146.073813 68.713314,145.96639 C68.6039384,145.858968 68.5492515,145.695884 68.5492515,145.477133 Z M76.0609702,153.639242 L76.0609702,149.484945 C76.0609702,148.961505 75.9418308,148.570884 75.7035484,148.31307 C75.4652659,148.055256 75.0922228,147.926351 74.5844077,147.926351 C73.9125294,147.926351 73.4203468,148.10799 73.1078452,148.471273 C72.7953437,148.834556 72.6390952,149.43416 72.6390952,150.270101 L72.6390952,153.639242 L71.666439,153.639242 L71.666439,147.217367 L72.4574546,147.217367 L72.6156577,148.096273 L72.6625327,148.096273 C72.8617525,147.779865 73.1410466,147.534751 73.5004234,147.360922 C73.8598002,147.187093 74.2601868,147.100179 74.7015952,147.100179 C75.4750366,147.100179 76.057062,147.286701 76.447689,147.65975 C76.8383159,148.032798 77.0336265,148.629472 77.0336265,149.449789 L77.0336265,153.639242 L76.0609702,153.639242 Z M79.9926109,150.352133 C80.1605805,150.11385 80.4164373,149.801353 80.760189,149.414633 L82.8344077,147.217367 L83.9887046,147.217367 L81.3871421,149.953695 L84.1703452,153.639242 L82.9926109,153.639242 L80.7250327,150.604086 L79.9926109,151.236898 L79.9926109,153.639242 L79.0316734,153.639242 L79.0316734,144.522054 L79.9926109,144.522054 L79.9926109,149.356039 C79.9926109,149.570884 79.976986,149.902912 79.9457359,150.352133 L79.9926109,150.352133 Z M89.4730796,151.887289 C89.4730796,152.484948 89.2504256,152.945881 88.8051109,153.270101 C88.3597961,153.594322 87.7348024,153.756429 86.9301109,153.756429 C86.0785441,153.756429 85.4144883,153.621665 84.9379234,153.352133 L84.9379234,152.449789 C85.2465187,152.60604 85.57757,152.729085 85.9310874,152.818929 C86.2846048,152.908774 86.6254217,152.953695 86.9535484,152.953695 C87.4613634,152.953695 87.8519845,152.872641 88.1254234,152.710531 C88.3988622,152.548421 88.5355796,152.301353 88.5355796,151.96932 C88.5355796,151.719319 88.4271823,151.505454 88.2103843,151.327719 C87.9935863,151.149983 87.570739,150.940024 86.9418296,150.697836 C86.3441704,150.475178 85.9193699,150.280844 85.6674156,150.114828 C85.4154612,149.948811 85.227963,149.760337 85.1049156,149.549398 C84.9818681,149.33846 84.9203452,149.086509 84.9203452,148.793539 C84.9203452,148.270099 85.1332337,147.857017 85.5590171,147.554281 C85.9848005,147.251545 86.568779,147.100179 87.3109702,147.100179 C88.00238,147.100179 88.6781544,147.240803 89.338314,147.522054 L88.9926109,148.31307 C88.3480764,148.047444 87.7640979,147.914633 87.2406577,147.914633 C86.7797179,147.914633 86.4320652,147.986897 86.197689,148.131429 C85.9633128,148.275961 85.8461265,148.475178 85.8461265,148.729086 C85.8461265,148.900962 85.8900714,149.047444 85.9779624,149.168539 C86.0658535,149.289633 86.2074536,149.404866 86.4027671,149.514242 C86.5980806,149.623617 86.9730768,149.781819 87.5277671,149.988851 C88.2894897,150.266196 88.804133,150.545491 89.0717124,150.826742 C89.3392919,151.107993 89.4730796,151.461505 89.4730796,151.887289 Z M92.0746421,152.244711 L92.1625327,152.379476 C92.0609697,152.770103 91.9144868,153.2242 91.7230796,153.741781 C91.5316724,154.259362 91.3324557,154.740802 91.1254234,155.186117 L90.3930015,155.186117 C90.4984708,154.779865 90.6146805,154.277917 90.7416343,153.680258 C90.8685881,153.082598 90.9574544,152.604087 91.0082359,152.244711 L92.0746421,152.244711 Z M105.299251,153.639242 L105.299251,149.461508 C105.299251,148.949786 105.189878,148.566001 104.971126,148.31014 C104.752375,148.05428 104.412535,147.926351 103.951595,147.926351 C103.346123,147.926351 102.898862,148.100178 102.609798,148.447836 C102.320734,148.795494 102.176205,149.330645 102.176205,150.053304 L102.176205,153.639242 L101.203548,153.639242 L101.203548,149.461508 C101.203548,148.949786 101.094174,148.566001 100.875423,148.31014 C100.656672,148.05428 100.314879,147.926351 99.8500327,147.926351 C99.2406547,147.926351 98.7943701,148.108967 98.5111656,148.474203 C98.227961,148.839439 98.0863609,149.438066 98.0863609,150.270101 L98.0863609,153.639242 L97.1137046,153.639242 L97.1137046,147.217367 L97.9047202,147.217367 L98.0629234,148.096273 L98.1097984,148.096273 C98.293393,147.783772 98.5521795,147.539633 98.8861656,147.363851 C99.2201516,147.188069 99.5941713,147.100179 100.008236,147.100179 C101.012147,147.100179 101.668391,147.463457 101.976986,148.190023 L102.023861,148.190023 C102.215268,147.854084 102.492609,147.588462 102.855892,147.393148 C103.219175,147.197835 103.633234,147.100179 104.09808,147.100179 C104.824646,147.100179 105.368586,147.286701 105.729916,147.65975 C106.091245,148.032798 106.271908,148.629472 106.271908,149.449789 L106.271908,153.639242 L105.299251,153.639242 Z M112.225033,153.639242 L112.031673,152.725179 L111.984798,152.725179 C111.664484,153.127525 111.345152,153.399983 111.026791,153.542562 C110.70843,153.685141 110.310973,153.756429 109.834408,153.756429 C109.197686,153.756429 108.698667,153.592369 108.337337,153.264242 C107.976008,152.936115 107.795345,152.469323 107.795345,151.863851 C107.795345,150.56697 108.832444,149.887289 110.906673,149.824789 L111.996517,149.789633 L111.996517,149.391195 C111.996517,148.887286 111.88812,148.51522 111.671322,148.274984 C111.454524,148.034749 111.107848,147.914633 110.631283,147.914633 C110.096124,147.914633 109.490661,148.078693 108.814876,148.40682 L108.516048,147.662679 C108.832456,147.490804 109.179132,147.356039 109.556087,147.258383 C109.933042,147.160726 110.310968,147.111898 110.689876,147.111898 C111.455505,147.111898 112.022882,147.281818 112.392025,147.621664 C112.761167,147.961509 112.945736,148.506426 112.945736,149.256429 L112.945736,153.639242 L112.225033,153.639242 Z M110.027767,152.953695 C110.633239,152.953695 111.10882,152.787681 111.454525,152.455648 C111.80023,152.123615 111.97308,151.658776 111.97308,151.061117 L111.97308,150.481039 L111.000423,150.522054 C110.226982,150.549398 109.66937,150.669514 109.327572,150.882406 C108.985773,151.095298 108.814876,151.426349 108.814876,151.87557 C108.814876,152.227134 108.921321,152.49471 109.134212,152.678304 C109.347104,152.861899 109.644953,152.953695 110.027767,152.953695 Z M115.922298,153.639242 L114.949642,153.639242 L114.949642,147.217367 L115.922298,147.217367 L115.922298,153.639242 Z M114.867611,145.477133 C114.867611,145.254475 114.922298,145.091391 115.031673,144.987875 C115.141049,144.884359 115.277766,144.832601 115.44183,144.832601 C115.59808,144.832601 115.732845,144.885335 115.846126,144.990804 C115.959408,145.096274 116.016048,145.258381 116.016048,145.477133 C116.016048,145.695884 115.959408,145.858968 115.846126,145.96639 C115.732845,146.073813 115.59808,146.127523 115.44183,146.127523 C115.277766,146.127523 115.141049,146.073813 115.031673,145.96639 C114.922298,145.858968 114.867611,145.695884 114.867611,145.477133 Z M122.37933,153.639242 L122.37933,149.484945 C122.37933,148.961505 122.26019,148.570884 122.021908,148.31307 C121.783625,148.055256 121.410582,147.926351 120.902767,147.926351 C120.230889,147.926351 119.738706,148.10799 119.426205,148.471273 C119.113703,148.834556 118.957455,149.43416 118.957455,150.270101 L118.957455,153.639242 L117.984798,153.639242 L117.984798,147.217367 L118.775814,147.217367 L118.934017,148.096273 L118.980892,148.096273 C119.180112,147.779865 119.459406,147.534751 119.818783,147.360922 C120.17816,147.187093 120.578546,147.100179 121.019955,147.100179 C121.793396,147.100179 122.375421,147.286701 122.766048,147.65975 C123.156675,148.032798 123.351986,148.629472 123.351986,149.449789 L123.351986,153.639242 L122.37933,153.639242 Z M17.5902671,164.111898 C18.4340213,164.111898 19.0892882,164.399981 19.5560874,164.976156 C20.0228866,165.552331 20.2562827,166.367752 20.2562827,167.422445 C20.2562827,168.477138 20.0209335,169.296466 19.5502281,169.880453 C19.0795226,170.46444 18.4262088,170.756429 17.5902671,170.756429 C17.1722963,170.756429 16.7904642,170.679282 16.4447593,170.524984 C16.0990545,170.370686 15.8090183,170.133384 15.5746421,169.81307 L15.5043296,169.81307 L15.2992515,170.639242 L14.6019859,170.639242 L14.6019859,161.522054 L15.5746421,161.522054 L15.5746421,163.736898 C15.5746421,164.232994 15.5590173,164.678302 15.5277671,165.072836 L15.5746421,165.072836 C16.0277694,164.432207 16.6996377,164.111898 17.5902671,164.111898 Z M17.4496421,164.926351 C16.7855763,164.926351 16.3070655,165.116779 16.0140952,165.49764 C15.721125,165.878502 15.5746421,166.520097 15.5746421,167.422445 C15.5746421,168.324793 15.7250312,168.970295 16.025814,169.358969 C16.3265967,169.747642 16.8090138,169.941976 17.4730796,169.941976 C18.0707389,169.941976 18.5160469,169.724205 18.8090171,169.288656 C19.1019873,168.853107 19.2484702,168.227137 19.2484702,167.410726 C19.2484702,166.574785 19.1019873,165.951744 18.8090171,165.541586 C18.5160469,165.131427 18.0629264,164.926351 17.4496421,164.926351 Z M22.869564,164.217367 L22.869564,168.383383 C22.869564,168.906823 22.9887034,169.297444 23.2269859,169.555258 C23.4652683,169.813071 23.8383115,169.941976 24.3461265,169.941976 C25.0180049,169.941976 25.5092109,169.758384 25.8197593,169.391195 C26.1303077,169.024006 26.2855796,168.424402 26.2855796,167.592367 L26.2855796,164.217367 L27.2582359,164.217367 L27.2582359,170.639242 L26.4555015,170.639242 L26.3148765,169.777914 L26.2621421,169.777914 C26.0629224,170.094322 25.786558,170.336507 25.4330406,170.504476 C25.0795232,170.672446 24.6762069,170.756429 24.2230796,170.756429 C23.4418257,170.756429 22.8568706,170.570884 22.4681968,170.199789 C22.079523,169.828693 21.885189,169.234949 21.885189,168.418539 L21.885189,164.217367 L22.869564,164.217367 Z M31.3949546,169.953695 C31.5668305,169.953695 31.7328444,169.941 31.8930015,169.915609 C32.0531585,169.890218 32.1801104,169.863851 32.2738609,169.836508 L32.2738609,170.580648 C32.1683916,170.63143 32.0131197,170.673421 31.8080406,170.706625 C31.6029614,170.739828 31.4183929,170.756429 31.2543296,170.756429 C30.0121359,170.756429 29.3910484,170.102139 29.3910484,168.793539 L29.3910484,164.973226 L28.4711265,164.973226 L28.4711265,164.504476 L29.3910484,164.100179 L29.8012046,162.729086 L30.3637046,162.729086 L30.3637046,164.217367 L32.2269859,164.217367 L32.2269859,164.973226 L30.3637046,164.973226 L30.3637046,168.752523 C30.3637046,169.139244 30.4555006,169.436116 30.6390952,169.643148 C30.8226899,169.85018 31.0746405,169.953695 31.3949546,169.953695 Z M35.6312827,169.953695 C35.8031586,169.953695 35.9691726,169.941 36.1293296,169.915609 C36.2894867,169.890218 36.4164385,169.863851 36.510189,169.836508 L36.510189,170.580648 C36.4047197,170.63143 36.2494478,170.673421 36.0443687,170.706625 C35.8392895,170.739828 35.6547211,170.756429 35.4906577,170.756429 C34.248464,170.756429 33.6273765,170.102139 33.6273765,168.793539 L33.6273765,164.973226 L32.7074546,164.973226 L32.7074546,164.504476 L33.6273765,164.100179 L34.0375327,162.729086 L34.6000327,162.729086 L34.6000327,164.217367 L36.463314,164.217367 L36.463314,164.973226 L34.6000327,164.973226 L34.6000327,168.752523 C34.6000327,169.139244 34.6918287,169.436116 34.8754234,169.643148 C35.059018,169.85018 35.3109686,169.953695 35.6312827,169.953695 Z M43.3363609,167.422445 C43.3363609,168.469325 43.0726916,169.2867 42.5453452,169.874594 C42.0179989,170.462487 41.2894905,170.756429 40.3597984,170.756429 C39.7855767,170.756429 39.2758162,170.621665 38.8305015,170.352133 C38.3851868,170.0826 38.0414402,169.695885 37.7992515,169.191976 C37.5570628,168.688068 37.4359702,168.09823 37.4359702,167.422445 C37.4359702,166.375565 37.6976864,165.560143 38.2211265,164.976156 C38.7445666,164.392169 39.4711218,164.100179 40.400814,164.100179 C41.299256,164.100179 42.013116,164.399005 42.5424156,164.996664 C43.0717151,165.594323 43.3363609,166.402909 43.3363609,167.422445 Z M38.4437827,167.422445 C38.4437827,168.242762 38.6078436,168.867755 38.9359702,169.297445 C39.2640969,169.727135 39.7465139,169.941976 40.3832359,169.941976 C41.0199578,169.941976 41.5033514,169.728111 41.8334312,169.300375 C42.163511,168.872638 42.3285484,168.246668 42.3285484,167.422445 C42.3285484,166.606035 42.163511,165.985924 41.8334312,165.562094 C41.5033514,165.138263 41.0160516,164.926351 40.3715171,164.926351 C39.7347952,164.926351 39.2543312,165.135334 38.9301109,165.553304 C38.6058905,165.971275 38.4437827,166.594316 38.4437827,167.422445 Z M49.4359702,170.639242 L49.4359702,166.484945 C49.4359702,165.961505 49.3168308,165.570884 49.0785484,165.31307 C48.8402659,165.055256 48.4672228,164.926351 47.9594077,164.926351 C47.2875294,164.926351 46.7953468,165.10799 46.4828452,165.471273 C46.1703437,165.834556 46.0140952,166.43416 46.0140952,167.270101 L46.0140952,170.639242 L45.041439,170.639242 L45.041439,164.217367 L45.8324546,164.217367 L45.9906577,165.096273 L46.0375327,165.096273 C46.2367525,164.779865 46.5160466,164.534751 46.8754234,164.360922 C47.2348002,164.187093 47.6351868,164.100179 48.0765952,164.100179 C48.8500366,164.100179 49.432062,164.286701 49.822689,164.65975 C50.2133159,165.032798 50.4086265,165.629472 50.4086265,166.449789 L50.4086265,170.639242 L49.4359702,170.639242 Z M56.5492515,168.887289 C56.5492515,169.484948 56.3265975,169.945881 55.8812827,170.270101 C55.435968,170.594322 54.8109743,170.756429 54.0062827,170.756429 C53.154716,170.756429 52.4906601,170.621665 52.0140952,170.352133 L52.0140952,169.449789 C52.3226905,169.60604 52.6537419,169.729085 53.0072593,169.818929 C53.3607767,169.908774 53.7015936,169.953695 54.0297202,169.953695 C54.5375353,169.953695 54.9281564,169.872641 55.2015952,169.710531 C55.4750341,169.548421 55.6117515,169.301353 55.6117515,168.96932 C55.6117515,168.719319 55.5033541,168.505454 55.2865562,168.327719 C55.0697582,168.149983 54.6469109,167.940024 54.0180015,167.697836 C53.4203423,167.475178 52.9955418,167.280844 52.7435874,167.114828 C52.491633,166.948811 52.3041349,166.760337 52.1810874,166.549398 C52.0580399,166.33846 51.9965171,166.086509 51.9965171,165.793539 C51.9965171,165.270099 52.2094056,164.857017 52.635189,164.554281 C53.0609724,164.251545 53.6449509,164.100179 54.3871421,164.100179 C55.0785518,164.100179 55.7543263,164.240803 56.4144859,164.522054 L56.0687827,165.31307 C55.4242483,165.047444 54.8402697,164.914633 54.3168296,164.914633 C53.8558898,164.914633 53.508237,164.986897 53.2738609,165.131429 C53.0394847,165.275961 52.9222984,165.475178 52.9222984,165.729086 C52.9222984,165.900962 52.9662432,166.047444 53.0541343,166.168539 C53.1420254,166.289633 53.2836255,166.404866 53.478939,166.514242 C53.6742525,166.623617 54.0492487,166.781819 54.603939,166.988851 C55.3656616,167.266196 55.8803048,167.545491 56.1478843,167.826742 C56.4154638,168.107993 56.5492515,168.461505 56.5492515,168.887289 Z M65.197689,170.639242 L65.0043296,169.725179 L64.9574546,169.725179 C64.6371405,170.127525 64.3178078,170.399983 63.9994468,170.542562 C63.6810858,170.685141 63.2836289,170.756429 62.807064,170.756429 C62.1703421,170.756429 61.6713236,170.592369 61.3099937,170.264242 C60.9486638,169.936115 60.7680015,169.469323 60.7680015,168.863851 C60.7680015,167.56697 61.8051005,166.887289 63.8793296,166.824789 L64.9691734,166.789633 L64.9691734,166.391195 C64.9691734,165.887286 64.860776,165.51522 64.6439781,165.274984 C64.4271801,165.034749 64.0805039,164.914633 63.603939,164.914633 C63.0687801,164.914633 62.4633174,165.078693 61.7875327,165.40682 L61.4887046,164.662679 C61.8051125,164.490804 62.1517887,164.356039 62.5287437,164.258383 C62.9056987,164.160726 63.2836246,164.111898 63.6625327,164.111898 C64.4281616,164.111898 64.9955387,164.281818 65.3646812,164.621664 C65.7338237,164.961509 65.9183921,165.506426 65.9183921,166.256429 L65.9183921,170.639242 L65.197689,170.639242 Z M63.0004234,169.953695 C63.6058951,169.953695 64.0814763,169.787681 64.4271812,169.455648 C64.772886,169.123615 64.9457359,168.658776 64.9457359,168.061117 L64.9457359,167.481039 L63.9730796,167.522054 C63.1996383,167.549398 62.6420266,167.669514 62.3002281,167.882406 C61.9584295,168.095298 61.7875327,168.426349 61.7875327,168.87557 C61.7875327,169.227134 61.893977,169.49471 62.1068687,169.678304 C62.3197604,169.861899 62.617609,169.953695 63.0004234,169.953695 Z M72.3168296,170.639242 L72.3168296,166.484945 C72.3168296,165.961505 72.1976902,165.570884 71.9594077,165.31307 C71.7211253,165.055256 71.3480822,164.926351 70.8402671,164.926351 C70.1683888,164.926351 69.6762062,165.10799 69.3637046,165.471273 C69.0512031,165.834556 68.8949546,166.43416 68.8949546,167.270101 L68.8949546,170.639242 L67.9222984,170.639242 L67.9222984,164.217367 L68.713314,164.217367 L68.8715171,165.096273 L68.9183921,165.096273 C69.1176119,164.779865 69.3969059,164.534751 69.7562827,164.360922 C70.1156595,164.187093 70.5160462,164.100179 70.9574546,164.100179 C71.730896,164.100179 72.3129214,164.286701 72.7035484,164.65975 C73.0941753,165.032798 73.2894859,165.629472 73.2894859,166.449789 L73.2894859,170.639242 L72.3168296,170.639242 Z M79.6586265,169.777914 L79.6058921,169.777914 C79.1566711,170.430261 78.4848028,170.756429 77.5902671,170.756429 C76.7504192,170.756429 76.0971054,170.469323 75.6303062,169.895101 C75.163507,169.32088 74.9301109,168.504482 74.9301109,167.445883 C74.9301109,166.387284 75.1644835,165.565026 75.6332359,164.979086 C76.1019882,164.393145 76.7543254,164.100179 77.5902671,164.100179 C78.4613652,164.100179 79.1293273,164.416583 79.5941734,165.049398 L79.6703452,165.049398 L79.6293296,164.586508 L79.6058921,164.135336 L79.6058921,161.522054 L80.5785484,161.522054 L80.5785484,170.639242 L79.7875327,170.639242 L79.6586265,169.777914 Z M77.713314,169.941976 C78.3773798,169.941976 78.8588203,169.761314 79.1576499,169.399984 C79.4564796,169.038654 79.6058921,168.455652 79.6058921,167.650961 L79.6058921,167.445883 C79.6058921,166.535722 79.4545264,165.886314 79.1517906,165.49764 C78.8490547,165.108967 78.3656611,164.914633 77.7015952,164.914633 C77.1312799,164.914633 76.6947608,165.13631 76.3920249,165.579672 C76.089289,166.023033 75.9379234,166.649004 75.9379234,167.457601 C75.9379234,168.277918 76.0883125,168.897052 76.3890952,169.315023 C76.689878,169.732994 77.1312798,169.941976 77.713314,169.941976 Z M89.7074546,170.639242 L89.5140952,169.725179 L89.4672202,169.725179 C89.1469061,170.127525 88.8275734,170.399983 88.5092124,170.542562 C88.1908515,170.685141 87.7933945,170.756429 87.3168296,170.756429 C86.6801077,170.756429 86.1810892,170.592369 85.8197593,170.264242 C85.4584294,169.936115 85.2777671,169.469323 85.2777671,168.863851 C85.2777671,167.56697 86.3148661,166.887289 88.3890952,166.824789 L89.478939,166.789633 L89.478939,166.391195 C89.478939,165.887286 89.3705416,165.51522 89.1537437,165.274984 C88.9369457,165.034749 88.5902695,164.914633 88.1137046,164.914633 C87.5785457,164.914633 86.973083,165.078693 86.2972984,165.40682 L85.9984702,164.662679 C86.3148781,164.490804 86.6615543,164.356039 87.0385093,164.258383 C87.4154643,164.160726 87.7933902,164.111898 88.1722984,164.111898 C88.9379272,164.111898 89.5053043,164.281818 89.8744468,164.621664 C90.2435893,164.961509 90.4281577,165.506426 90.4281577,166.256429 L90.4281577,170.639242 L89.7074546,170.639242 Z M87.510189,169.953695 C88.1156608,169.953695 88.591242,169.787681 88.9369468,169.455648 C89.2826517,169.123615 89.4555015,168.658776 89.4555015,168.061117 L89.4555015,167.481039 L88.4828452,167.522054 C87.7094039,167.549398 87.1517923,167.669514 86.8099937,167.882406 C86.4681951,168.095298 86.2972984,168.426349 86.2972984,168.87557 C86.2972984,169.227134 86.4037426,169.49471 86.6166343,169.678304 C86.829526,169.861899 87.1273746,169.953695 87.510189,169.953695 Z M96.5746421,168.887289 C96.5746421,169.484948 96.3519881,169.945881 95.9066734,170.270101 C95.4613586,170.594322 94.8363649,170.756429 94.0316734,170.756429 C93.1801066,170.756429 92.5160508,170.621665 92.0394859,170.352133 L92.0394859,169.449789 C92.3480812,169.60604 92.6791325,169.729085 93.0326499,169.818929 C93.3861673,169.908774 93.7269842,169.953695 94.0551109,169.953695 C94.5629259,169.953695 94.953547,169.872641 95.2269859,169.710531 C95.5004247,169.548421 95.6371421,169.301353 95.6371421,168.96932 C95.6371421,168.719319 95.5287448,168.505454 95.3119468,168.327719 C95.0951488,168.149983 94.6723015,167.940024 94.0433921,167.697836 C93.4457329,167.475178 93.0209324,167.280844 92.7689781,167.114828 C92.5170237,166.948811 92.3295255,166.760337 92.2064781,166.549398 C92.0834306,166.33846 92.0219077,166.086509 92.0219077,165.793539 C92.0219077,165.270099 92.2347962,164.857017 92.6605796,164.554281 C93.086363,164.251545 93.6703415,164.100179 94.4125327,164.100179 C95.1039425,164.100179 95.7797169,164.240803 96.4398765,164.522054 L96.0941734,165.31307 C95.4496389,165.047444 94.8656604,164.914633 94.3422202,164.914633 C93.8812804,164.914633 93.5336277,164.986897 93.2992515,165.131429 C93.0648753,165.275961 92.947689,165.475178 92.947689,165.729086 C92.947689,165.900962 92.9916339,166.047444 93.0795249,166.168539 C93.167416,166.289633 93.3090161,166.404866 93.5043296,166.514242 C93.6996431,166.623617 94.0746393,166.781819 94.6293296,166.988851 C95.3910522,167.266196 95.9056955,167.545491 96.1732749,167.826742 C96.4408544,168.107993 96.5746421,168.461505 96.5746421,168.887289 Z M105.22308,170.639242 L105.02972,169.725179 L104.982845,169.725179 C104.662531,170.127525 104.343198,170.399983 104.024837,170.542562 C103.706476,170.685141 103.30902,170.756429 102.832455,170.756429 C102.195733,170.756429 101.696714,170.592369 101.335384,170.264242 C100.974054,169.936115 100.793392,169.469323 100.793392,168.863851 C100.793392,167.56697 101.830491,166.887289 103.90472,166.824789 L104.994564,166.789633 L104.994564,166.391195 C104.994564,165.887286 104.886167,165.51522 104.669369,165.274984 C104.452571,165.034749 104.105895,164.914633 103.62933,164.914633 C103.094171,164.914633 102.488708,165.078693 101.812923,165.40682 L101.514095,164.662679 C101.830503,164.490804 102.177179,164.356039 102.554134,164.258383 C102.931089,164.160726 103.309015,164.111898 103.687923,164.111898 C104.453552,164.111898 105.020929,164.281818 105.390072,164.621664 C105.759214,164.961509 105.943783,165.506426 105.943783,166.256429 L105.943783,170.639242 L105.22308,170.639242 Z M103.025814,169.953695 C103.631286,169.953695 104.106867,169.787681 104.452572,169.455648 C104.798277,169.123615 104.971126,168.658776 104.971126,168.061117 L104.971126,167.481039 L103.99847,167.522054 C103.225029,167.549398 102.667417,167.669514 102.325619,167.882406 C101.98382,168.095298 101.812923,168.426349 101.812923,168.87557 C101.812923,169.227134 101.919368,169.49471 102.132259,169.678304 C102.345151,169.861899 102.643,169.953695 103.025814,169.953695 Z M114.053158,170.756429 C113.635187,170.756429 113.253355,170.679282 112.90765,170.524984 C112.561945,170.370686 112.271909,170.133384 112.037533,169.81307 L111.96722,169.81307 C112.014095,170.188072 112.037533,170.543537 112.037533,170.879476 L112.037533,173.522054 L111.064876,173.522054 L111.064876,164.217367 L111.855892,164.217367 L111.990658,165.096273 L112.037533,165.096273 C112.287534,164.744709 112.578547,164.490805 112.91058,164.334554 C113.242613,164.178304 113.623468,164.100179 114.053158,164.100179 C114.904725,164.100179 115.561944,164.391192 116.024837,164.973226 C116.48773,165.55526 116.719173,166.371659 116.719173,167.422445 C116.719173,168.477138 116.483824,169.296466 116.013119,169.880453 C115.542413,170.46444 114.889099,170.756429 114.053158,170.756429 Z M113.912533,164.926351 C113.256279,164.926351 112.781675,165.10799 112.488705,165.471273 C112.195734,165.834556 112.045345,166.412675 112.037533,167.205648 L112.037533,167.422445 C112.037533,168.324793 112.187922,168.970295 112.488705,169.358969 C112.789487,169.747642 113.271904,169.941976 113.93597,169.941976 C114.490661,169.941976 114.925226,169.717369 115.239681,169.268148 C115.554136,168.818927 115.711361,168.199793 115.711361,167.410726 C115.711361,166.609941 115.554136,165.995689 115.239681,165.567953 C114.925226,165.140216 114.482848,164.926351 113.912533,164.926351 Z M121.34808,164.100179 C121.633237,164.100179 121.889094,164.123617 122.115658,164.170492 L121.980892,165.072836 C121.715266,165.014242 121.480893,164.984945 121.277767,164.984945 C120.758233,164.984945 120.313902,165.19588 119.944759,165.617758 C119.575617,166.039635 119.391048,166.56502 119.391048,167.193929 L119.391048,170.639242 L118.418392,170.639242 L118.418392,164.217367 L119.221126,164.217367 L119.332455,165.40682 L119.37933,165.40682 C119.617612,164.988849 119.904719,164.666587 120.240658,164.440023 C120.576597,164.21346 120.945734,164.100179 121.34808,164.100179 Z M124.289486,170.639242 L123.31683,170.639242 L123.31683,164.217367 L124.289486,164.217367 L124.289486,170.639242 Z M123.234798,162.477133 C123.234798,162.254475 123.289485,162.091391 123.398861,161.987875 C123.508236,161.884359 123.644954,161.832601 123.809017,161.832601 C123.965268,161.832601 124.100032,161.885335 124.213314,161.990804 C124.326596,162.096274 124.383236,162.258381 124.383236,162.477133 C124.383236,162.695884 124.326596,162.858968 124.213314,162.96639 C124.100032,163.073813 123.965268,163.127523 123.809017,163.127523 C123.644954,163.127523 123.508236,163.073813 123.398861,162.96639 C123.289485,162.858968 123.234798,162.695884 123.234798,162.477133 Z M134.537533,170.639242 L134.537533,166.461508 C134.537533,165.949786 134.428159,165.566001 134.209408,165.31014 C133.990657,165.05428 133.650816,164.926351 133.189876,164.926351 C132.584405,164.926351 132.137144,165.100178 131.84808,165.447836 C131.559016,165.795494 131.414486,166.330645 131.414486,167.053304 L131.414486,170.639242 L130.44183,170.639242 L130.44183,166.461508 C130.44183,165.949786 130.332456,165.566001 130.113705,165.31014 C129.894954,165.05428 129.55316,164.926351 129.088314,164.926351 C128.478936,164.926351 128.032651,165.108967 127.749447,165.474203 C127.466242,165.839439 127.324642,166.438066 127.324642,167.270101 L127.324642,170.639242 L126.351986,170.639242 L126.351986,164.217367 L127.143001,164.217367 L127.301205,165.096273 L127.34808,165.096273 C127.531674,164.783772 127.790461,164.539633 128.124447,164.363851 C128.458433,164.188069 128.832453,164.100179 129.246517,164.100179 C130.250428,164.100179 130.906672,164.463457 131.215267,165.190023 L131.262142,165.190023 C131.453549,164.854084 131.73089,164.588462 132.094173,164.393148 C132.457456,164.197835 132.871515,164.100179 133.336361,164.100179 C134.062927,164.100179 134.606867,164.286701 134.968197,164.65975 C135.329527,165.032798 135.510189,165.629472 135.510189,166.449789 L135.510189,170.639242 L134.537533,170.639242 Z M141.463314,170.639242 L141.269955,169.725179 L141.22308,169.725179 C140.902766,170.127525 140.583433,170.399983 140.265072,170.542562 C139.946711,170.685141 139.549254,170.756429 139.072689,170.756429 C138.435967,170.756429 137.936949,170.592369 137.575619,170.264242 C137.214289,169.936115 137.033626,169.469323 137.033626,168.863851 C137.033626,167.56697 138.070725,166.887289 140.144955,166.824789 L141.234798,166.789633 L141.234798,166.391195 C141.234798,165.887286 141.126401,165.51522 140.909603,165.274984 C140.692805,165.034749 140.346129,164.914633 139.869564,164.914633 C139.334405,164.914633 138.728942,165.078693 138.053158,165.40682 L137.75433,164.662679 C138.070737,164.490804 138.417414,164.356039 138.794369,164.258383 C139.171324,164.160726 139.54925,164.111898 139.928158,164.111898 C140.693787,164.111898 141.261164,164.281818 141.630306,164.621664 C141.999449,164.961509 142.184017,165.506426 142.184017,166.256429 L142.184017,170.639242 L141.463314,170.639242 Z M139.266048,169.953695 C139.87152,169.953695 140.347101,169.787681 140.692806,169.455648 C141.038511,169.123615 141.211361,168.658776 141.211361,168.061117 L141.211361,167.481039 L140.238705,167.522054 C139.465263,167.549398 138.907652,167.669514 138.565853,167.882406 C138.224054,168.095298 138.053158,168.426349 138.053158,168.87557 C138.053158,169.227134 138.159602,169.49471 138.372494,169.678304 C138.585385,169.861899 138.883234,169.953695 139.266048,169.953695 Z M147.117611,164.100179 C147.402769,164.100179 147.658625,164.123617 147.885189,164.170492 L147.750423,165.072836 C147.484797,165.014242 147.250424,164.984945 147.047298,164.984945 C146.527765,164.984945 146.083433,165.19588 145.714291,165.617758 C145.345148,166.039635 145.16058,166.56502 145.16058,167.193929 L145.16058,170.639242 L144.187923,170.639242 L144.187923,164.217367 L144.990658,164.217367 L145.101986,165.40682 L145.148861,165.40682 C145.387143,164.988849 145.67425,164.666587 146.010189,164.440023 C146.346128,164.21346 146.715265,164.100179 147.117611,164.100179 Z M148.06683,164.217367 L149.109798,164.217367 L150.516048,167.879476 C150.824644,168.715418 151.016048,169.318928 151.090267,169.690023 L151.137142,169.690023 C151.187924,169.490803 151.294368,169.149987 151.456478,168.667562 C151.618588,168.185138 152.148856,166.701754 153.047298,164.217367 L154.090267,164.217367 L151.330501,171.529867 C151.057063,172.252527 150.73773,172.765217 150.372494,173.067953 C150.007257,173.370689 149.55902,173.522054 149.027767,173.522054 C148.730891,173.522054 148.437925,173.488852 148.148861,173.422445 L148.148861,172.643148 C148.363706,172.690023 148.603938,172.713461 148.869564,172.713461 C149.537536,172.713461 150.014094,172.338464 150.299251,171.588461 L150.656673,170.674398 L148.06683,164.217367 Z M17.1683921,187.756429 C16.2387,187.756429 15.5189806,187.470299 15.0092124,186.898031 C14.4994443,186.325763 14.244564,185.5162 14.244564,184.46932 C14.244564,183.395096 14.5033505,182.565026 15.0209312,181.979086 C15.5385119,181.393145 16.2758092,181.100179 17.2328452,181.100179 C17.5414405,181.100179 17.8500312,181.133382 18.1586265,181.199789 C18.4672218,181.266195 18.7094069,181.34432 18.885189,181.434164 L18.5863609,182.260336 C18.371516,182.174398 18.1371434,182.103109 17.8832359,182.046469 C17.6293284,181.989828 17.4047212,181.961508 17.2094077,181.961508 C15.9047137,181.961508 15.2523765,182.79353 15.2523765,184.457601 C15.2523765,185.246668 15.4115546,185.85213 15.7299156,186.274008 C16.0482765,186.695885 16.5199515,186.90682 17.1449546,186.90682 C17.6801135,186.90682 18.2289362,186.791587 18.791439,186.561117 L18.791439,187.422445 C18.3617493,187.645102 17.8207391,187.756429 17.1683921,187.756429 Z M25.8578452,184.422445 C25.8578452,185.469325 25.594176,186.2867 25.0668296,186.874594 C24.5394832,187.462487 23.8109749,187.756429 22.8812827,187.756429 C22.3070611,187.756429 21.7973006,187.621665 21.3519859,187.352133 C20.9066711,187.0826 20.5629246,186.695885 20.3207359,186.191976 C20.0785472,185.688068 19.9574546,185.09823 19.9574546,184.422445 C19.9574546,183.375565 20.2191708,182.560143 20.7426109,181.976156 C21.266051,181.392169 21.9926062,181.100179 22.9222984,181.100179 C23.8207404,181.100179 24.5346004,181.399005 25.0638999,181.996664 C25.5931995,182.594323 25.8578452,183.402909 25.8578452,184.422445 Z M20.9652671,184.422445 C20.9652671,185.242762 21.129328,185.867755 21.4574546,186.297445 C21.7855813,186.727135 22.2679983,186.941976 22.9047202,186.941976 C23.5414422,186.941976 24.0248358,186.728111 24.3549156,186.300375 C24.6849953,185.872638 24.8500327,185.246668 24.8500327,184.422445 C24.8500327,183.606035 24.6849953,182.985924 24.3549156,182.562094 C24.0248358,182.138263 23.537536,181.926351 22.8930015,181.926351 C22.2562796,181.926351 21.7758156,182.135334 21.4515952,182.553304 C21.1273749,182.971275 20.9652671,183.594316 20.9652671,184.422445 Z M28.5355796,187.639242 L27.5629234,187.639242 L27.5629234,178.522054 L28.5355796,178.522054 L28.5355796,187.639242 Z M36.1410484,184.422445 C36.1410484,185.469325 35.8773791,186.2867 35.3500327,186.874594 C34.8226864,187.462487 34.094178,187.756429 33.1644859,187.756429 C32.5902642,187.756429 32.0805037,187.621665 31.635189,187.352133 C31.1898743,187.0826 30.8461277,186.695885 30.603939,186.191976 C30.3617503,185.688068 30.2406577,185.09823 30.2406577,184.422445 C30.2406577,183.375565 30.5023739,182.560143 31.025814,181.976156 C31.5492541,181.392169 32.2758093,181.100179 33.2055015,181.100179 C34.1039435,181.100179 34.8178035,181.399005 35.3471031,181.996664 C35.8764026,182.594323 36.1410484,183.402909 36.1410484,184.422445 Z M31.2484702,184.422445 C31.2484702,185.242762 31.4125311,185.867755 31.7406577,186.297445 C32.0687844,186.727135 32.5512014,186.941976 33.1879234,186.941976 C33.8246453,186.941976 34.3080389,186.728111 34.6381187,186.300375 C34.9681985,185.872638 35.1332359,185.246668 35.1332359,184.422445 C35.1332359,183.606035 34.9681985,182.985924 34.6381187,182.562094 C34.3080389,182.138263 33.8207391,181.926351 33.1762046,181.926351 C32.5394827,181.926351 32.0590187,182.135334 31.7347984,182.553304 C31.410578,182.971275 31.2484702,183.594316 31.2484702,184.422445 Z M40.775814,181.100179 C41.0609717,181.100179 41.3168285,181.123617 41.5433921,181.170492 L41.4086265,182.072836 C41.1430002,182.014242 40.9086275,181.984945 40.7055015,181.984945 C40.1859676,181.984945 39.7416362,182.19588 39.3724937,182.617758 C39.0033512,183.039635 38.8187827,183.56502 38.8187827,184.193929 L38.8187827,187.639242 L37.8461265,187.639242 L37.8461265,181.217367 L38.6488609,181.217367 L38.760189,182.40682 L38.807064,182.40682 C39.0453464,181.988849 39.3324529,181.666587 39.6683921,181.440023 C40.0043313,181.21346 40.3734682,181.100179 40.775814,181.100179 Z" id="Used-for-links,-main" fill="#000000"></path>
            </g>
        </g>
    </g>
</svg>